<svg xmlns="http://www.w3.org/2000/svg" width="4000" height="4000" viewBox="0 0 4000 4000">
  <g fill="none" fill-rule="evenodd">
    <polygon fill="#F6C4A3" points=".06 4000 4000 4000 4000 .04 .06 .04"/>
    <path fill="#B39694" d="M2000,3165 C1632.73,3165 1335,3121.35 1335,3067.5 C1335,3013.65 1632.73,2970 2000,2970 C2367.27,2970 2665,3013.65 2665,3067.5 C2665,3121.35 2367.27,3165 2000,3165"/>
    <path fill="#BC543D" d="M2435.93,2642.85 C2435.93,2699.23 2394.88,2744.94 2344.22,2744.94 C2293.57,2744.94 2252.51,2699.23 2252.51,2642.85 C2252.51,2586.47 2293.57,2540.76 2344.22,2540.76 C2394.88,2540.76 2435.93,2586.47 2435.93,2642.85"/>
    <path fill="#102770" d="M2344.22,2559.1 C2303.77,2559.1 2270.85,2596.67 2270.85,2642.85 C2270.85,2689.03 2303.77,2726.6 2344.22,2726.6 C2384.68,2726.6 2417.59,2689.03 2417.59,2642.85 C2417.59,2596.67 2384.68,2559.1 2344.22,2559.1 Z M2344.22,2763.28 C2283.54,2763.28 2234.17,2709.26 2234.17,2642.85 C2234.17,2576.44 2283.54,2522.42 2344.22,2522.42 C2404.9,2522.42 2454.27,2576.44 2454.27,2642.85 C2454.27,2709.26 2404.9,2763.28 2344.22,2763.28 L2344.22,2763.28 Z"/>
    <path fill="#E46839" d="M1669.9,2132.58 C1669.9,2132.58 1501.48,2155.95 1432.91,2097.26 C1364.34,2038.56 1305.18,1982.71 1241.83,2102.24 C1174.12,2230.04 1307.05,2417.26 1606.73,2409.55"/>
    <path fill="#BC543D" d="M1637.55,2146.89 C1567.74,2151.89 1561.63,2365.88 1561.63,2365.88 C1463.81,2396.45 1275.65,2285.15 1275.65,2285.15 L1276.73,2296.36 C1337.04,2363.43 1448.66,2413.62 1606.73,2409.55 L1656.69,2190.48 L1637.55,2146.89"/>
    <path fill="#102770" d="M1589.36,2428.12 C1428.02,2428.13 1297.02,2371.06 1236.73,2273.72 C1200.24,2214.83 1196.2,2149.2 1225.63,2093.65 C1250.71,2046.31 1278.01,2020.44 1309.05,2014.56 C1354.66,2005.95 1395.63,2041.11 1439.03,2078.34 L1444.84,2083.32 C1495.84,2126.98 1622.78,2120.57 1667.38,2114.41 C1677.39,2113 1686.67,2120.03 1688.06,2130.06 C1689.45,2140.1 1682.45,2149.35 1672.41,2150.75 C1665.21,2151.74 1494.98,2174.52 1420.98,2111.19 L1415.14,2106.18 C1378.63,2074.85 1344.21,2045.25 1315.88,2050.6 C1296.76,2054.22 1277.3,2074.49 1258.04,2110.83 C1234.88,2154.55 1238.47,2206.88 1267.91,2254.4 C1323.48,2344.09 1449.92,2395.21 1606.26,2391.22 C1616.29,2390.77 1624.81,2398.95 1625.07,2409.08 C1625.33,2419.21 1617.33,2427.63 1607.21,2427.89 C1601.23,2428.04 1595.26,2428.12 1589.36,2428.12"/>
    <path fill="#E46839" d="M2300.71,2027.78 C2300.71,2027.78 2416.99,2407.74 2374.93,2563.93 C2328.04,2737.99 1820.41,2910.74 1616.69,2553.71 C1542.5,2423.69 1684.84,1983.86 1684.84,1983.86"/>
    <path fill="#BC543D" d="M1653.34,2078.52 C1653.34,2078.52 1683.92,2219.66 1995.72,2213.03 C2283.08,2206.91 2322.72,2110.3 2322.72,2110.3 L1653.34,2078.52"/>
    <path fill="#F9B65D" d="M2214.44,2518.25 C2208.85,2651.32 2094.25,2754.57 1958.44,2748.86 C1822.66,2743.17 1717.12,2630.67 1722.71,2497.59 C1728.3,2364.52 1842.91,2261.26 1978.69,2266.96 C2114.5,2272.66 2220.03,2385.17 2214.44,2518.25"/>
    <path fill="#102770" d="M1984.44,2780.91 C1818.61,2780.91 1681.18,2703.75 1600.75,2562.81 C1523.44,2427.3 1661.48,1996.49 1667.39,1978.21 C1670.51,1968.58 1680.85,1963.29 1690.49,1966.41 C1700.12,1969.53 1705.41,1979.87 1702.29,1989.5 C1663.41,2109.71 1575.08,2443.77 1632.62,2544.63 C1752.12,2754.06 1965.93,2750.87 2052.29,2739.79 C2198.66,2720.99 2335.45,2639.96 2357.22,2559.16 C2397.42,2409.86 2284.31,2036.9 2283.17,2033.15 C2280.2,2023.46 2285.65,2013.21 2295.34,2010.24 C2305.03,2007.29 2315.28,2012.73 2318.24,2022.42 C2323.05,2038.13 2435.58,2409.25 2392.64,2568.7 C2366.92,2664.17 2219.47,2755.31 2056.96,2776.17 C2032.27,2779.34 2008.06,2780.91 1984.44,2780.91"/>
    <path fill="#E46839" d="M2347.16,2612.6 C2340.17,2655.86 2374.9,2781.54 2374.9,2781.54 C2374.9,2781.54 2423.94,2935.34 2408.21,2982.06 C2392.45,3028.82 2251.17,3085.2 2181.61,3053.77 C2112.06,3022.31 2154.59,2915.3 2154.59,2915.3 C2083.03,2786.42 2088.63,2749.94 2088.63,2749.94 C2088.63,2749.94 2089.58,2727.53 2114.7,2712.27 C2139.81,2697.01 2336.61,2576.77 2344.41,2585.26 C2352.21,2593.74 2347.16,2612.6 2347.16,2612.6"/>
    <path fill="#FBBCB3" d="M2173.03,2910.02 C2160.8,2916.14 2099.66,2812.2 2105.78,2763.29 C2105.78,2763.29 2185.26,2903.91 2173.03,2910.02"/>
    <path fill="#BC543D" d="M2353.95,2690.96 C2312.6,2730.99 2380.6,2906.05 2374.79,2946.71 C2368.68,2989.5 2301.42,3020.07 2234.17,3026.19 C2166.92,3032.3 2147.87,2964.22 2147.87,2964.22 L2142.4,2968.03 C2139.47,2999.8 2145.04,3037.22 2181.61,3053.77 C2251.17,3085.2 2392.45,3028.82 2408.21,2982.06 C2423.94,2935.34 2374.9,2781.54 2374.9,2781.54 C2374.9,2781.54 2362.44,2736.43 2353.95,2690.96"/>
    <path fill="#102770" d="M2230.46,3081.13 C2210.2,3081.13 2190.75,3078.03 2174.06,3070.48 C2101.83,3037.81 2124.91,2946.42 2134.41,2917.35 C2062.1,2796.11 2071.7,2747.96 2074.43,2739.4 L2109.38,2750.54 C2109.38,2750.54 2109.49,2750.27 2109.61,2749.71 C2109.52,2750.13 2101.28,2792.55 2170.26,2905.76 C2173.25,2910.68 2173.77,2916.72 2171.64,2922.08 C2171.29,2922.96 2136.45,3013.21 2189.17,3037.05 C2224.94,3053.23 2285.22,3041.19 2329.1,3022.09 C2366.35,3005.87 2387.21,2986.94 2390.84,2976.2 C2400.89,2946.32 2375.68,2844.36 2357.42,2787.12 C2357.25,2786.57 2357.1,2786.01 2356.97,2785.45 C2353.96,2771.6 2327.75,2648.85 2335.08,2603.47 C2336.68,2593.47 2346.09,2586.65 2356.11,2588.29 C2366.11,2589.91 2372.9,2599.32 2371.29,2609.32 C2366.06,2641.75 2384.75,2740.37 2392.64,2776.81 C2401.7,2805.33 2442.22,2938.52 2425.6,2987.91 C2414.12,3021.96 2364.52,3046.68 2343.74,3055.73 C2312.34,3069.39 2269.85,3081.13 2230.46,3081.13"/>
    <path fill="#E46839" d="M2294.79,2140.17 C2294.79,2140.17 2488.76,2130.33 2559.19,2065.31 C2629.61,2000.27 2660.18,1924.14 2747,2019.52 C2839.84,2121.51 2664.48,2382.26 2299.79,2388.38 C2299.79,2388.38 2231.54,2358.95 2237.67,2303.23 C2243.81,2247.52 2294.79,2140.17 2294.79,2140.17"/>
    <path fill="#FBBCB3" d="M2340.34,2155.71 C2340.34,2155.71 2527.64,2213.03 2649.92,2005.15 C2649.92,2005.15 2609.97,2054.55 2538.24,2087.93 C2466.5,2121.32 2340.34,2155.71 2340.34,2155.71"/>
    <path fill="#BC543D" d="M2747,2019.52 C2742.98,2015.11 2739.12,2011.18 2735.34,2007.48 C2747.75,2042.44 2803.71,2255.97 2373.55,2378.67 L2378.27,2382.89 C2689.15,2344.17 2832.9,2113.89 2747,2019.52"/>
    <path fill="#102770" d="M2341.21,2412.74001 C2331.22,2412.75 2323.04,2404.73 2322.87,2394.71 C2322.7,2384.58 2330.78,2376.23 2340.91,2376.06 C2571.9,2372.19 2701.24,2261.14 2741.81,2167.21 C2764.95,2113.65 2761.82,2063.05 2733.44,2031.87 C2709.99,2006.11 2690.16,1993 2674.51,1992.88 C2654.17,1992.49 2634.09,2014.13 2608.7,2041.21 C2597.76,2052.88 2585.36,2066.11 2571.64,2078.78 C2497.24,2147.47 2343.46,2157.31 2336.95,2157.69 C2326.67,2158.27 2318.16,2150.58 2317.56,2140.47 C2316.96,2130.36 2324.67,2121.68 2334.78,2121.07 C2336.24,2120.98 2482.01,2111.59 2546.75,2051.83 C2559.5,2040.06 2570.91,2027.89 2581.94,2016.13 C2612.07,1983.98 2638.12,1956.19 2674.26,1956.19 C2674.43,1956.19 2674.61,1956.19 2674.78,1956.19 C2701.83,1956.39 2729.09,1972.6 2760.57,2007.18 C2798.93,2049.32 2804.51,2114.59 2775.49,2181.76 C2730.58,2285.71 2589.98,2408.58 2341.52,2412.74001 C2341.42,2412.74001 2341.31,2412.74001 2341.21,2412.74001"/>
    <path fill="#E46839" d="M1669.83,970.98 C1669.06,1067.39 1590.28,1144.94 1493.85,1144.17 C1397.44,1143.4 1319.89,1064.6 1320.67,968.186 C1321.43,871.771 1400.23,794.236 1496.65,795.006 C1593.06,795.77 1670.6,874.565 1669.83,970.98"/>
    <path fill="#FBBCB3" d="M1329.3,984.115 C1329.3,984.115 1365.98,776.24 1586.09,831.266 C1586.09,831.266 1487.06,767.774 1392.89,830.09 C1298.73,892.406 1329.3,984.115 1329.3,984.115"/>
    <path fill="#BC543D" d="M1635,1008.57 C1635,1087.92 1600.92,1112.51 1524.95,1112.51 C1448.97,1112.51 1365.98,1063.47 1365.98,984.115 C1365.98,904.764 1430.63,849.607 1506.6,849.607 C1582.58,849.607 1635,929.22 1635,1008.57"/>
    <path fill="#F9B65D" d="M1594.39,982.934 C1593.96,1037.73 1549.16,1081.82 1494.35,1081.38 C1439.54,1080.95 1395.47,1036.15 1395.91,981.346 C1396.35,926.534 1441.13,882.458 1495.93,882.9 C1550.75,883.33 1594.83,928.129 1594.39,982.934"/>
    <path fill="#C37143" d="M1550.36,899.713 C1554.14,915.658 1571.3,1002.46 1504.77,1030.18 C1445.38,1054.92 1410.04,1019.59 1398.72,1005.22 C1409.07,1048.57 1447.78,1081.01 1494.35,1081.38 C1549.16,1081.82 1593.96,1037.73 1594.39,982.934 C1594.67,948.288 1577.13,917.681 1550.36,899.713"/>
    <path fill="#102770" d="M1495.13,898.182 C1449.15,898.182 1411.56,935.398 1411.19,981.468 C1411.01,1003.89 1419.57,1025.05 1435.3,1041.03 C1451.04,1057.02 1472.05,1065.92 1494.47,1066.10008 C1516.88,1066.13 1538.06,1057.71 1554.04,1041.98 C1570.03,1026.24 1578.93,1005.23 1579.11,982.811 L1594.39,982.933 L1579.11,982.811 C1579.28,960.384 1570.72,939.231 1554.99,923.245 C1539.26,907.259 1518.24,898.357 1495.81,898.182 C1495.59,898.182 1495.36,898.182 1495.13,898.182 Z M1495.17,1096.67 C1494.86,1096.67 1494.55,1096.67 1494.23,1096.66 C1463.64,1096.42 1434.98,1084.28 1413.52,1062.47 C1392.06,1040.67 1380.38,1011.81 1380.62,981.224 C1381.13,918.382 1432.41,867.61 1495.12,867.61 C1495.44,867.61 1495.74,867.61 1496.06,867.615 C1526.65,867.854 1555.31,879.998 1576.77,901.805 C1598.23,923.606 1609.92,952.464 1609.67,983.055 C1609.44,1013.64 1597.29,1042.3 1575.49,1063.77 C1553.9,1085 1525.41,1096.67 1495.17,1096.67 L1495.17,1096.67 Z"/>
    <path fill="#102770" d="M1495.23,813.338 C1453.96,813.338 1415.09,829.251 1385.65,858.226 C1355.9,887.498 1339.34,926.604 1339.01,968.333 C1338.67,1010.07 1354.61,1049.43 1383.88,1079.18 C1413.16,1108.93 1452.26,1125.49 1494,1125.82 C1494.42,1125.82 1494.85,1125.83 1495.28,1125.83 C1536.54,1125.83 1575.4,1109.92 1604.85,1080.95 C1634.59,1051.67 1651.15,1012.57 1651.49,970.833 C1651.82,929.1 1635.88,889.734 1606.61,859.988 C1577.33,830.242 1538.23,813.675 1496.5,813.343 C1496.08,813.343 1495.65,813.338 1495.23,813.338 Z M1495.29,1162.51 C1494.76,1162.51 1494.24,1162.51 1493.7,1162.5 C1442.17,1162.1 1393.89,1141.64 1357.74,1104.91 C1321.59,1068.18 1301.91,1019.57 1302.33,968.04 C1302.73,916.512 1323.19,868.226 1359.92,832.078 C1396.65,795.936 1445.34,776.082 1496.79,776.663 C1548.32,777.073 1596.61,797.527 1632.76,834.256 C1668.9,870.989 1688.58,919.598 1688.17,971.126 C1687.76,1022.65 1667.31,1070.94 1630.58,1107.09 C1594.23,1142.86 1546.23,1162.51 1495.29,1162.51 L1495.29,1162.51 Z"/>
    <path fill="#E46839" d="M2350.27,982.688 C2349.5,1079.11 2427.03,1157.89 2523.45,1158.66 C2619.87,1159.43 2698.67,1081.89 2699.43,985.482 C2700.2,889.063 2622.66,810.279 2526.24,809.509 C2429.83,808.732 2351.05,886.274 2350.27,982.688"/>
    <path fill="#FBBCB3" d="M2368.68,935.204 C2368.68,935.204 2454.27,776.24 2653.45,868.042 C2653.45,868.042 2565.56,776.599 2448.78,831.445 C2331.99,886.292 2368.68,935.204 2368.68,935.204"/>
    <path fill="#BC543D" d="M2649.92,990.229 C2649.92,1057.76 2596.54,1112.51 2530.7,1112.51 C2464.85,1112.51 2411.47,1057.76 2411.47,990.229 C2411.47,922.696 2464.85,867.95 2530.7,867.95 C2596.54,867.95 2649.92,922.696 2649.92,990.229"/>
    <path fill="#F9B65D" d="M2425.51,995.848 C2425.08,1050.66 2469.15,1095.44 2523.96,1095.88 C2578.77,1096.32 2623.56,1052.24 2624,997.437 C2624.43,942.631 2580.35,897.845 2525.55,897.397 C2470.73,896.961 2425.95,941.043 2425.51,995.848"/>
    <path fill="#C37143" d="M2607.15,1051.91 C2427.98,1097.43 2456.86,936.099 2460.91,920.747 C2439.49,938.78 2425.76,965.662 2425.51,995.848 C2425.08,1050.66 2469.15,1095.44 2523.96,1095.88 C2558.59,1096.16 2589.18,1078.64 2607.15,1051.91"/>
    <path fill="#102770" d="M2440.79,995.97 C2440.43,1042.26 2477.79,1080.22 2524.08,1080.6 C2524.31,1080.6 2524.54,1080.6 2524.76,1080.6 C2570.75,1080.6 2608.35,1043.38 2608.71,997.313 C2609.08,951.023 2571.72,913.06 2525.42,912.679 C2525.2,912.679 2524.97,912.679 2524.75,912.679 C2478.76,912.679 2441.17,949.9 2440.79,995.97 Z M2524.76,1111.17 C2524.46,1111.17 2524.15,1111.17 2523.84,1111.17 C2460.69,1110.65 2409.72,1058.87 2410.23,995.726 C2410.73,932.884 2462.02,882.107 2524.75,882.107 C2525.06,882.107 2525.36,882.107 2525.67,882.112 C2588.82,882.63 2639.78,934.417 2639.28,997.557 C2638.78,1060.39 2587.5,1111.17 2524.76,1111.17 L2524.76,1111.17 Z"/>
    <path fill="#102770" d="M2524.8,827.845 C2483.55,827.845 2444.69,843.753 2415.26,872.723 C2385.51,901.995 2368.95,941.102 2368.62,982.835 C2368.28,1024.57 2384.22,1063.93 2413.49,1093.68 C2442.76,1123.43 2481.87,1139.99 2523.6,1140.32 C2524.02,1140.32 2524.44,1140.33 2524.86,1140.33 C2610.44,1140.33 2680.41,1071.06 2681.1,985.335 C2681.77,899.183 2612.24,828.538 2526.1,827.85 C2525.67,827.85 2525.23,827.845 2524.8,827.845 Z M2524.87,1177.01 C2524.34,1177.01 2523.84,1177 2523.31,1177 C2471.77,1176.59 2423.49,1156.14 2387.34,1119.41 C2351.2,1082.68 2331.52,1034.08 2331.94,982.542 C2332.35,931.009 2352.8,882.723 2389.53,846.58 C2425.87,810.809 2473.86,791.16 2524.79,791.16 C2525.33,791.16 2525.86,791.165 2526.39,791.17 C2632.76,792.015 2718.62,879.246 2717.78,985.628 C2716.93,1091.47 2630.53,1177 2524.87,1177.01 L2524.87,1177.01 Z"/>
    <path fill="#E46839" d="M2712.53,1548.75 C2709.73,1899.11 2383.9,2180.57 1984.77,2177.38 C1585.62,2174.19 1264.33,1887.56 1267.13,1537.19 C1269.93,1186.81 1595.75,905.374 1994.89,908.563 C2394.03,911.751 2715.33,1198.36 2712.53,1548.75"/>
    <path fill="#102770" d="M1676.83,1479.36 C1674.52,1424.45 1703.46,1378.63 1741.45,1377 C1779.43,1375.38 1812.1,1418.58 1814.42,1473.48 C1816.73,1528.37 1787.81,1574.22 1749.82,1575.84 C1711.84,1577.46 1679.15,1534.26 1676.83,1479.36"/>
    <path fill="#FFF" d="M1737.2,1471.83 C1736.35,1451.61 1746.44,1434.76 1759.71,1434.19 C1772.99,1433.63 1784.45,1449.55 1785.31,1469.78 C1786.16,1490 1776.08,1506.84 1762.79,1507.42 C1749.52,1507.98 1738.06,1492.05 1737.2,1471.83"/>
    <path fill="#102770" d="M2347.68,1479.36 C2349.99,1424.45 2321.05,1378.63 2283.06,1377 C2245.08,1375.38 2212.4,1418.58 2210.09,1473.48 C2207.78,1528.37 2236.7,1574.22 2274.69,1575.84 C2312.67,1577.46 2345.36,1534.26 2347.68,1479.36"/>
    <path fill="#FFF" d="M2287.3,1471.83 C2288.15,1451.61 2278.07,1434.76 2264.8,1434.19 C2251.52,1433.63 2240.06,1449.55 2239.2,1469.78 C2238.35,1490 2248.43,1506.84 2261.72,1507.42 C2274.99,1507.98 2286.45,1492.05 2287.3,1471.83"/>
    <path fill="#FBBCB3" d="M1864.28,912.729 C1631.22,949.976 1437.05,1085.48 1339.99,1269 C1339.14,1287.87 1346.54,1296.41 1346.54,1296.41 C1346.54,1296.41 1661.28,802.899 2300.27,983.805 C2300.27,983.805 2092.87,892.979 1864.28,912.729"/>
    <path fill="#BC543D" d="M2002.68,2024.12 C1909.28,2024.12 1815.21,2010.35 1721.46,1982.87 C1468.45,1908.7 1308.11,1762.37 1301.41,1756.17 L1322.15,1733.72 C1323.75,1735.19 1484.75,1881.93 1731.22,1953.88 C2060.73,2050.07 2378.57,1974.2 2675.89,1728.38 L2695.37,1751.95 C2527.29,1890.91 2349.37,1977.66 2166.55,2009.82 C2112.32,2019.36 2057.61,2024.12 2002.68,2024.12"/>
    <path fill="#BC543D" d="M2377.85,1646.67 C2375.05,1629.2 2344.84,1598.8 2315.17,1602 C2280.95,1605.68 2238.25,1608.25 2208.97,1602.2 C2172.7,1594.69 2090.03,1581.16 2012.22,1581.51 C1931.13,1579.89 1849.8,1592.11 1813.42,1599.04 C1784.04,1604.61 1740.44,1601.36 1706.3,1597.13 C1676.68,1593.46 1645.49,1623.38 1642.43,1640.8 C1616.13,1790.29 1648.82,1947.27 1648.82,1947.27 C1648.82,1947.27 1711.48,2043.3 1957.73,2071.32 C1973.31,2073.09 1989.61,2074.04 2001.84,2074.55 L2001.84,2074.85 C2001.84,2074.83 2003.94,2074.78 2005.41,2074.77 C2006.54,2074.79 2007.95,2074.9 2007.95,2074.91 L2007.95,2074.69 C2026.29,2074.36 2038.4,2073.59 2053.78,2072.08 C2300.43,2048 2365.25,1952.99 2365.25,1952.99 C2365.25,1952.99 2401.74,1796.57 2377.85,1646.67"/>
    <path fill="#BC543D" d="M2712.42,1532.19 C2693.16,1632.9 2542.81,2186.78 1927.57,2106.33 C1248.01,2017.46 1284.26,1497.94 1284.26,1497.94 L1268.02,1510.4 C1267.54,1519.28 1267.2,1528.22 1267.13,1537.19 C1264.33,1887.56 1585.62,2174.19 1984.77,2177.38 C2383.9,2180.57 2709.73,1899.11 2712.53,1548.75 C2712.58,1543.21 2712.55286,1537.69 2712.42,1532.19"/>
    <path fill="#102770" d="M1988.22,926.878 C1602.78,926.878 1288.18,1199.53 1285.47,1537.34 C1284.16,1701.44 1355.88,1856.44 1487.43,1973.79 C1619.65,2091.74 1796.33,2157.53 1984.91,2159.04 C2173.62,2160.48 2351.2,2097.59 2485.29,1981.77 C2618.69,1866.53 2692.88,1712.7 2694.2,1548.6 C2696.91,1208.9 2383.14,930.008 1994.75,926.902 C1992.59,926.878 1990.37,926.878 1988.22,926.878 Z M1991.54,2195.75 C1989.23,2195.75 1986.94,2195.75 1984.62,2195.72 C1787.12,2194.14 1601.88,2125.05 1463.01,2001.17 C1323.46,1876.69 1247.39,1711.86 1248.79,1537.04 C1251.65,1179.14 1582.74,890.193 1988.22,890.193 C1990.51,890.193 1992.75,890.193 1995.04,890.223 C2403.65,893.484 2733.75,1188.96 2730.88,1548.89 C2729.48,1723.7 2650.77,1887.29 2509.26,2009.53 C2370.08,2129.75 2186.45,2195.75 1991.54,2195.75 L1991.54,2195.75 Z"/>
    <path fill="#F9B65D" d="M2249.20471,1659.67 C2248.39,1761.11 2140.73,1842.49 2008.69,1841.44 C1876.68,1840.38 1770.31,1757.29 1771.1154,1655.85 C1771.93,1554.41 1879.61,1473.03 2011.62,1474.08 C2143.66,1475.14 2250.02,1558.23 2249.20471,1659.67"/>
    <path fill="#102770" d="M2102.27035,1559.57 C2101.87,1609.8 2059,1636.26 2006.41,1635.85 C1953.81,1635.42 1911.38,1608.27 1911.78,1558.05 C1912.09,1520.38 2102.57,1521.9 2102.27035,1559.57"/>
    <path fill="#102770" d="M2007.59,1696.45 L2007.44,1696.45 C1997.31,1696.38 1989.16,1688.09 1989.25,1677.97 L1989.95,1590.08 C1990.03,1580 1998.23,1571.88 2008.29,1571.88 L2008.44,1571.88 C2018.57,1571.96 2026.72,1580.24 2026.63,1590.37 L2025.93,1678.26 C2025.85,1688.34 2017.65,1696.45 2007.59,1696.45"/>
    <path fill="#102770" d="M2000.04 1663.93C1903.97 1663.93 1806.82 1649.92 1709.67 1621.95 1449.48 1547.04 1282.03 1400.08 1275.03 1393.86 1268.72 1388.25 1268.15 1378.6 1273.75 1372.28 1279.37 1365.97 1289.03 1365.4 1295.33 1371 1297 1372.48 1465.41 1520.11 1719.25 1592.9 2058.57 1690.18 2381.39 1614.87 2678.76 1369.02 2685.27 1363.65 2694.9 1364.56 2700.29 1371.06 2705.66 1377.57 2704.75 1387.21 2698.24 1392.59 2530.14 1531.56 2350.65 1618.16 2164.75 1649.97 2110.35 1659.29 2055.37 1663.93 2000.04 1663.93M1997.13 1998.78C1902.76 1998.78 1807.51 1985.12 1712.35 1957.84 1454.75 1884.01 1289.87 1738.06 1282.97 1731.88 1276.69 1726.25 1276.15 1716.59 1281.78 1710.31 1287.41 1704.02 1297.09 1703.48 1303.37 1709.11 1305.01 1710.58 1470.74 1857.08 1721.92 1928.78 2057.68 2024.62 2378.72 1948.57 2676.1 1702.72 2682.61 1697.35 2692.24 1698.26 2697.62 1704.76 2703 1711.27 2702.09 1720.91 2695.58 1726.29 2527.49 1865.25 2348.58 1952.07 2163.81 1984.35 2108.72 1993.97 2053.07 1998.78 1997.13 1998.78"/>
    <path fill="#53FFA0" d="M2378.16,1608.17 C2375.36,1590.7 2345.14,1560.3 2315.48,1563.5 C2281.26,1567.17 2238.56,1569.74 2209.27,1563.69 C2173.01,1556.19 2090.33,1542.66 2012.54,1543.01 C1931.45,1541.38 1850.1,1553.61 1813.72,1560.53 C1784.35,1566.11 1740.76,1562.86 1706.61,1558.64 C1676.99,1554.96 1645.81,1584.87 1642.74,1602.3 C1616.44,1751.79 1649.13,1908.77 1649.13,1908.77 C1649.13,1908.77 1711.64,2004.8 1957.88,2032.81 C1973.46,2034.59 1989.61,2035.54 2001.84,2036.06 L2001.84,2036.35 C2001.84,2036.33 2003.94,2036.28 2005.41,2036.26 C2006.54,2036.29 2007.95,2036.39 2007.95,2036.4 L2007.95,2036.17 C2026.29,2035.85 2038.55,2035.09 2053.93,2033.58 C2300.59,2009.5 2365.48,1914.49 2365.48,1914.49 C2365.48,1914.49 2402.04,1758.05 2378.16,1608.17"/>
    <path fill="#B4FED1" d="M2088.87056,1595.81 C2088.73,1614.42 2054.14,1629.22 2011.6,1628.88 C1969.09,1628.54 1934.72,1613.19 1934.86951,1594.59 C1935.03,1575.97 1969.62,1561.17 2012.14,1561.5 C2054.68,1561.85 2089.03,1577.21 2088.87056,1595.81"/>
    <path fill="#B4FED1" d="M2315.48,1563.5 C2281.26,1567.17 2238.56,1569.74 2209.27,1563.69 C2173.01,1556.19 2090.33,1542.66 2012.54,1543.01 C1931.45,1541.38 1850.1,1553.61 1813.72,1560.53 C1784.35,1566.11 1740.76,1562.86 1706.61,1558.64 C1678.63,1555.16 1649.29,1581.64 1643.53,1599.28 L1653.29,1627.1 L1655.51,1618.56 C1655.51,1618.56 1666.4,1592.99 1711.3,1595.48 C1756.22,1597.97 1779.65,1608.86 1820.34,1604.91 C1861.01,1600.95 2073.13,1557.73 2186.16,1601.41 C2286.74,1640.28 2357.36,1602.73 2371.74,1593.97 C2360.82,1578.02 2338,1561.07 2315.48,1563.5"/>
    <path fill="#43D481" d="M2366.36,1914.49 C2366.36,1914.49 2382.17,1845.13 2385.68,1754.55 C2041.65,1963.3 1760.45,1835.59 1632.77,1750.45 C1634.85,1840.14 1649.13,1908.77 1649.13,1908.77 C1649.13,1908.77 1711.64,2004.8 1957.88,2032.81 C1973.46,2034.59 1989.61,2035.54 2001.84,2036.06 L2001.84,2036.35 C2001.84,2036.33 2003.94,2036.28 2005.41,2036.26 C2006.54,2036.29 2007.95,2036.39 2007.95,2036.4 L2007.95,2036.17 C2026.29,2035.85 2038.55,2035.09 2053.93,2033.58 C2300.59,2009.5 2366.36,1914.49 2366.36,1914.49"/>
    <path fill="#F2F2F2" d="M2318.5,1656.28 C2316.15,1642.28 2290.77,1617.91 2265.89,1620.47 C2237.17,1623.4 2201.35,1625.44 2176.78,1620.58 C2146.35,1614.57 2076.97,1603.69 2011.69,1603.96 C1943.65,1602.63 1875.41,1612.4 1844.88,1617.93 C1820.23,1622.39 1783.66,1619.78 1755.01,1616.39 C1730.15,1613.43 1704,1637.39 1701.43,1651.35 C1679.41,1771.13 1706.89,1896.93 1706.89,1896.93 C1706.89,1896.93 1758.97,1973.9 1965.59,1996.43 C1978.66,1997.86 1989.93,1998.63 2002.08,1999.04 L2002.08,1999.28 C2002.08,1999.26 2004.32,1999.22 2005.56,1999.2 C2006.49,1999.23 2008.16,1999.31 2008.16,1999.32 L2008.16,1999.13 C2026.39,1998.88 2033.74,1998.28 2046.66,1997.07 C2253.61,1977.84 2307.98,1901.73 2307.98,1901.73 C2307.98,1901.73 2338.57,1776.4 2318.5,1656.28"/>
    <path fill="#D6DEF1" d="M1693.73,1786.89 C1696.73,1850.33 1706.89,1896.93 1706.89,1896.93 C1706.89,1896.93 1758.84,1973.9 1965.46,1996.43 C1978.54,1997.86 1989.61,1998.63 2001.84,1999.04 L2001.84,1999.28 C2001.84,1999.26 2004.09,1999.22 2005.34,1999.2 C2006.27,1999.23 2007.95,1999.31 2007.95,1999.32 L2007.95,1999.13 C2026.29,1998.88 2033.64,1998.28 2046.56,1997.07 C2253.5,1977.84 2307.93,1901.73 2307.93,1901.73 C2307.93,1901.73 2319.63,1853.81 2323.82,1788.86 C2054.19,1924.74 1828.57,1858.85 1693.73,1786.89"/>
    <path fill="#102770" d="M1718.3,1891.7 C1727.33,1902.5 1786.52,1964.62 1966.79,1984.27 C1979.33,1985.64 1989.94,1986.4 2002.25,1986.82 C2002.85,1986.84 2003.44,1986.9 2004.02,1987 C2004.34,1986.99 2004.68,1986.98 2005.02,1986.97 C2005.24,1986.97 2005.51,1986.97 2005.72,1986.98 C2005.95,1986.98 2006.18,1986.99 2006.41,1987 C2006.86,1986.95 2007.32,1986.91 2007.78,1986.91 C2025.91,1986.66 2032.79,1986.08 2045.42,1984.9 C2225.83,1968.13 2287.1,1907.06 2296.66,1896.19 C2300.81,1877.68 2324.26,1765.01 2306.44,1658.3 C2305.24,1651.15 2286.14,1630.69 2267.14,1632.63 C2226.7,1636.76 2195.51,1636.75 2174.41,1632.58 C2135.89,1624.97 2071.06,1616.18 2013.96,1616.18 C2013.22,1616.18 2012.47,1616.18 2011.74,1616.18 C1935.65,1614.71 1861.21,1627.4 1847.06,1629.96 C1825.73,1633.83 1794.26,1633.34 1753.57,1628.53 C1734.49,1626.26 1714.77,1646.42 1713.45,1653.57 C1693.87,1760.05 1714.61,1873.15 1718.3,1891.7 Z M2007.95,2011.55 C2007.58,2011.55 2007.2,2011.54 2006.83,2011.5 C2006.46,2011.48 2005.79,2011.45 2005.25,2011.43 L2002.42,2011.49 C2001.25,2011.55 2000.1,2011.43 1999.01,2011.17 C1987.18,2010.72 1976.32,2009.92 1964.14,2008.59 C1754.29,1985.71 1699,1907.11 1696.75,1903.77 C1695.89,1902.49 1695.27,1901.05 1694.94,1899.54 C1693.8,1894.3 1667.19,1769.95 1689.4,1649.14 C1693.08,1629.18 1725.34,1600.62 1756.45,1604.25 C1794.19,1608.71 1824.03,1609.29 1842.7,1605.9 C1863.14,1602.2 1935.7,1590.23 2011.93,1591.73 C2012.69,1591.73 2013.46,1591.73 2014.23,1591.73 C2072.84,1591.73 2139.54,1600.76 2179.15,1608.58 C2197.86,1612.28 2226.61,1612.18 2264.65,1608.3 C2296.32,1605.08 2327.12,1633.78 2330.56,1654.25 L2330.56,1654.26 C2350.81,1775.46 2321.08,1899.42 2319.81,1904.64 C2319.44,1906.15 2318.78,1907.58 2317.87,1908.85 C2315.52,1912.14 2257.79,1989.72 2047.69,2009.25 C2035.27,2010.41 2027.74,2011.05 2010.3,2011.33 C2009.53,2011.48 2008.75,2011.55 2007.95,2011.55 L2007.95,2011.55 Z"/>
    <path fill="#102770" d="M1663.48,1902.51 C1673.91,1915.76 1743.43,1993.2 1958.08,2017.61 C1969.34,2018.88 1983.9,2019.78 1992.6,2020.32 C1995.79,2020.51 1998.35,2020.67 1999.95,2020.79 C2000.45,2020.83 2000.94,2020.89 2001.43,2020.98 C2001.75,2020.96 2002.1,2020.96 2002.39,2020.95 C2002.57,2020.95 2002.75,2020.95 2002.93,2020.96 L2003.12,2020.96 C2003.65,2020.9 2004.18,2020.87 2004.73,2020.86 C2027.98,2020.61 2035.31,2019.89 2049.91,2018.46 L2050.92,2018.36 C2265.7,1997.4 2339.13,1921.21 2350.54,1907.74 C2355.56,1884.88 2384.32,1743.99 2363.06,1610.58 C2361.43,1600.43 2338.05,1576.55 2317.12,1578.69 C2268.74,1583.88 2231.42,1583.87 2206.18,1578.66 C2159.82,1569.07 2081.35,1558.15 2012.6,1558.29 C1921.83,1556.43 1833.39,1572.34 1816.58,1575.54 C1791,1580.4 1753.38,1579.82 1704.73,1573.81 C1683.99,1571.22 1659.53,1595.1 1657.79,1604.95 C1634.31,1738.42 1659.16,1879.8 1663.48,1902.51 Z M2004.89,2051.66 C2004.36,2051.66 2003.83,2051.64 2003.31,2051.58 C2002.95,2051.56 2002.35,2051.53 2001.84,2051.51 L2001.84,2051.49 C2000.86,2051.58 1999.77,2051.62 1998.71,2051.61 C1997.35,2051.6 1996.03,2051.42 1994.77,2051.08 C1993.6,2051 1992.23,2050.92 1990.72,2050.83 C1981.14,2050.24 1966.68,2049.35 1954.64,2047.98 C1704.01,2019.48 1638.87,1921.14 1636.23,1916.96 C1635.24,1915.41 1634.54,1913.68 1634.16,1911.88 C1632.8,1905.35 1601.18,1750.3 1627.68,1599.65 C1632.09,1574.65 1670.85,1538.74 1708.49,1543.47 C1753.33,1549.01 1788.73,1549.71 1810.87,1545.51 C1828.21,1542.21 1919.42,1525.95 2012.84,1527.72 C2083.55,1527.33 2164.56,1538.83 2212.37,1548.72 C2234.5,1553.3 2268.65,1553.15 2313.84,1548.3 C2351.97,1544.16 2389.15,1580.13 2393.25,1605.76 C2417.34,1756.91 2381.11,1911.53 2379.56,1918.04 C2379.12,1919.88 2378.34,1921.62 2377.27,1923.17 C2374.42,1927.29 2304.71,2024.3 2053.89,2048.79 L2052.89,2048.88 C2038.46,2050.3 2030.27,2051.1 2007.76,2051.39 C2006.83,2051.57 2005.87,2051.66 2004.89,2051.66 L2004.89,2051.66 Z"/>
    <path fill="#E46839" d="M1635.23,2520.79 C1635.23,2520.79 1568.99,2733.28 1617.3,2886.72 C1617.3,2886.72 1550.02,2980.18 1609.84,3027.61 C1669.67,3075.02 1820.41,3054.68 1847.07,3013.16 C1873.7,2971.65 1863.52,2810.56 1863.52,2810.56 C1863.52,2810.56 1855.84,2772.99 1873.14,2732.72 C1873.14,2732.72 1815.37,2715.73 1755.15,2676.77 C1692.54,2636.28 1640.87,2500.96 1635.23,2520.79"/>
    <path fill="#BC543D" d="M1761.55,2662.61 C1761.55,2662.61 1987.77,2809.35 2207.88,2656.5 C2207.88,2656.5 2151.79,2774.89 1959.73,2767.67 C1767.67,2760.44 1761.55,2662.61 1761.55,2662.61"/>
    <path fill="#C37143" d="M1958.44,2748.86 C2013.73,2751.18 2065.5,2735.44 2107.83,2706.99 C1977.67,2750.28 1858.08,2709.93 1799.46,2682.74 C1841.11,2721.48 1896.62,2746.27 1958.44,2748.86"/>
    <path fill="#FBBCB3" d="M1632.81,2562.33 C1632.81,2562.33 1610.54,2775.51 1635,2885.57 C1635,2885.57 1557.25,2722.11 1632.81,2562.33"/>
    <path fill="#BC543D" d="M1855.1,2744.94 C1806.19,2726.6 1824.53,2983.39 1824.53,2983.39 C1683.91,3056.76 1594.85,2974.39 1594.85,2974.39 L1586.4,2989.12 C1589.06,3003.26 1596.04,3016.66 1609.84,3027.61 C1669.67,3075.02 1820.41,3054.68 1847.07,3013.16 C1873.7,2971.65 1863.52,2810.56 1863.52,2810.56 C1863.52,2810.56 1858.2,2784.23 1866.58,2752.04 C1863.12,2748.95 1859.31,2746.52 1855.1,2744.94"/>
    <path fill="#F2F2F2" d="M1340.93,2161.14 C1333.84,2205.01 1360.65,2248.49 1404.5,2255.59 L1437.6,2260.95 C1481.46,2268.04 1525.79,2236.05 1532.89,2192.17 L1560.04,2024.2 C1567.15,1980.34 1531.8,1956.76 1487.94,1949.67 L1454.84,1944.32 C1410.98,1937.22 1375.19,1949.29 1368.1,1993.16 L1340.93,2161.14"/>
    <path fill="#53FFA0" d="M1358.58,2165.89 C1353.53,2197.22 1375.63,2228.73 1410.88,2234.44 L1437.5,2238.74 C1472.77,2244.45 1507.84,2222.17 1512.91,2190.85 L1529.81,2103.04 C1534.88,2071.72 1503.7,2069.9 1468.43,2064.2 C1468.43,2064.2 1383.05,2014.66 1377.97,2045.98 L1358.58,2165.89"/>
    <path fill="#43D481" d="M1404.5,2255.59 C1360.65,2248.49 1333.84,2205.01 1340.93,2161.14 L1346.12,2129.1 C1355.28,2152.74 1361.66,2214.05 1425.09,2227.86 C1494.32,2242.94 1535.12,2172.9 1535.12,2172.9 L1535.94,2173.26 L1532.89,2192.17 C1525.79,2236.05 1481.46,2268.04 1437.6,2260.95 L1404.5,2255.59"/>
    <path fill="#102770" d="M1356.02,2163.58 C1350.06,2200.49 1372.9,2234.99 1406.94,2240.5 L1440.04,2245.86 C1456.97,2248.58 1475.22,2244.01 1490.09,2233.28 C1504.96,2222.55 1515.06,2206.67 1517.8,2189.73 L1544.95,2021.76 C1547.44,2006.38 1543.46,1994.18 1532.8,1984.43 C1522.33,1974.87 1505.97,1968.07 1485.5,1964.75 L1452.4,1959.41 C1432.64,1956.21 1416.07,1957.57 1404.48,1963.31 C1392.72,1969.16 1385.75,1979.72 1383.19,1995.59 L1356.02,2163.58 Z M1449.72,2277.2 C1444.83,2277.2 1439.96,2276.81 1435.15,2276.03 L1402.05,2270.67 C1351.38,2262.48 1317.19,2212.25 1325.84,2158.7 L1353.01,1990.72 C1357.14,1965.14 1370.24,1946.2 1390.88,1935.94 C1408.45,1927.21 1430.78,1924.94 1457.28,1929.24 L1490.38,1934.58 C1516.74,1938.85 1538.53,1948.28 1553.41,1961.86 C1571.77,1978.62 1579.28,2001.02 1575.13,2026.64 L1547.98,2194.61 C1543.95,2219.5 1529.37,2242.63 1507.98,2258.06 C1490.71,2270.53 1470.1,2277.2 1449.72,2277.2 L1449.72,2277.2 Z"/>
    <path fill="#F2F2F2" d="M1423.83,1928.38 C1420.79,1947.15 1434.1,1964.92 1453.54,1968.06 L1481.68,1972.61 C1501.13,1975.75 1519.36,1963.09 1522.39,1944.32 L1526.8,1917.18 C1529.8,1898.41 1516.5,1880.64 1497.06,1877.5 L1468.91,1872.94 C1449.48,1869.81 1431.23,1882.47 1428.21,1901.24 L1423.83,1928.38"/>
    <path fill="#53FFA0" d="M1429.71,1908.31 C1432.39,1924.71 1441.12,1942.09 1471.09,1948.72 C1501.08,1955.33 1517.97,1933.23 1517.97,1933.23 L1521.15,1935.52 L1519.42,1953.64 C1512.85,1967.06 1497.7,1975.2 1481.68,1972.61 L1453.54,1968.06 C1434.1,1964.92 1420.79,1947.15 1423.83,1928.38 L1425.73,1916.62 C1428.05,1911.66 1429.71,1908.31 1429.71,1908.31"/>
    <path fill="#102770" d="M1435.9,1930.33 C1434.96,1936.11 1436.44,1941.94 1440.04,1946.75 C1443.74,1951.7 1449.23,1954.98 1455.49,1955.99 L1483.63,1960.54 C1496.36,1962.6 1508.37,1954.45 1510.32,1942.38 L1514.73,1915.22 C1516.56,1903.73 1508.01,1893.44 1494.82,1891.3 L1466.68,1886.75 C1459.78,1885.64 1452.95,1887.05 1447.95,1890.65 C1443.77,1893.67 1441.12,1898 1440.29,1903.18 L1435.9,1930.33 Z M1487.59,1985.32 C1485,1985.32 1482.38,1985.11 1479.73,1984.68 L1451.58,1980.13 C1439.04,1978.1 1427.99,1971.46 1420.47,1961.41 C1412.85,1951.24 1409.75,1938.82 1411.76,1926.43 L1416.14,1899.29 C1418,1887.74 1424.21,1877.63 1433.63,1870.82 C1444,1863.35 1457.15,1860.43 1470.59,1862.61 L1498.73,1867.16 C1525.21,1871.44 1542.85,1894.26 1538.87,1919.11 L1534.46,1946.29 C1530.77,1969.09 1510.57,1985.32 1487.59,1985.32 L1487.59,1985.32 Z"/>
    <path fill="#102770" d="M1442.58 1916.61C1441.11 1925.67 1443.79 1933.66 1448.57 1934.43 1453.35 1935.2 1458.4 1928.47 1459.87 1919.4 1461.33 1910.33 1458.66 1902.34 1453.88 1901.57 1449.09 1900.8 1444.04 1907.53 1442.58 1916.61M1713.93 3073.2C1672.26 3073.2 1627.63 3065.11 1598.45 3041.99 1536.3 2992.71 1580.98 2909.62 1597.25 2883.77 1552.24 2728.75 1602.07 2549.43 1604.25 2541.74 1607.02 2532 1617.18 2526.35 1626.89 2529.1 1636.64 2531.86 1642.3 2542 1639.54 2551.75 1639.03 2553.56 1588.75 2734.97 1634.8 2881.21 1636.54 2886.73 1635.57 2892.74 1632.19 2897.44 1631.63 2898.21 1575.89 2977.28 1621.24 3013.24 1652 3037.62 1713.42 3040.6 1760.61 3032.74 1800.68 3026.07 1825.52 3012.78 1831.64 3003.25 1848.65 2976.73 1849 2871.69 1845.22 2811.71 1845.2 2811.41 1845.19 2811.12 1845.18 2810.82 1845.17 2810.21 1845.02 2795.36 1849.14 2746.25 1849.98 2736.16 1858.78 2728.66 1868.95 2729.5 1879.04 2730.35 1886.54 2739.22 1885.69 2749.31 1882.13 2791.77 1881.88 2807.44 1881.86 2809.97 1883.69 2839.18 1890.75 2979.04 1862.51 3023.06 1843.1 3053.29 1789 3065.21 1766.63 3068.93 1750.77 3071.57 1732.65 3073.2 1713.93 3073.2"/>
    <path fill="#102770" d="M1993.52,2777.42 C1910.22,2777.42 1835.1,2752.16 1830.46,2750.57 C1820.88,2747.28 1815.77,2736.85 1819.05,2727.27 C1822.34,2717.69 1832.76,2712.59 1842.34,2715.86 C1843.9,2716.39 1999.47,2768.54 2099.55,2719.95 C2108.67,2715.52 2119.64,2719.32 2124.06,2728.44 C2128.48,2737.56 2124.68,2748.53 2115.57,2752.95 C2077.92,2771.23 2034.71,2777.42 1993.52,2777.42"/>
    <path fill="#E46839" d="M1315.89,2042.4 C1315.89,2042.4 1433.61,2033.64 1443.71,2133.95 C1453.81,2234.25 1385.57,2291.49 1295.82,2247.65"/>
    <path fill="#FBBCB3" d="M1323.18,2243.6 C1323.18,2243.6 1500.49,2219.14 1365.98,2066.29 C1365.98,2066.29 1395.9,2042.62 1432.91,2097.26 C1469.92,2151.89 1427.12,2292.51 1323.18,2243.6"/>
    <path fill="#102770" d="M1354.27,2280.78 C1333.14,2280.78 1310.51,2275.23 1287.77,2264.12 C1278.67,2259.68 1274.89,2248.69 1279.34,2239.59 C1283.79,2230.5 1294.76,2226.72 1303.87,2231.17 C1338.42,2248.04 1370,2248.6 1392.78,2232.73 C1417.98,2215.18 1429.89,2179.85 1425.46,2135.79 C1417.29,2054.68 1321.31,2060.42 1317.2,2060.7 C1307.11,2061.4 1298.34,2053.79 1297.61,2043.71 C1296.89,2033.63 1304.44,2024.86 1314.52,2024.11 C1361.46,2020.6 1452.55,2038.71 1461.96,2132.12 C1467.77,2189.8 1450.19,2237.45 1413.74,2262.83 C1396.57,2274.79 1376.23,2280.78 1354.27,2280.78"/>
  </g>
</svg>
