<svg xmlns="http://www.w3.org/2000/svg" width="2100" height="2100" viewBox="0 0 2100 2100">
  <g fill="none" fill-rule="evenodd">
    <polygon fill="#FFBDFF" points="0 2099.94 2100 2099.94 2100 0 0 0"/>
    <path fill="#CC97D7" d="M1049.85,1661.45 C879.168,1661.45 740.8,1609.16 740.8,1544.67 C740.8,1506.23 789.948,1472.13 865.786,1450.85 C869.822,1462.52 874.827,1476.32 880.612,1490.65 L880.63,1490.65 C899.244,1536.81 925.945,1588.51 954.369,1592.4 C955.762,1592.59 957.14,1592.68 958.506,1592.68 C983.55,1592.68 1003.93,1561.47 1017.97,1530.65 C1031.65,1500.59 1039.26,1470.9 1039.26,1470.9 C1042.12,1470.94 1045.02,1470.96 1047.95,1470.96 C1052.19,1470.96 1056.37,1470.92 1060.46,1470.85 L1060.46,1470.96 C1060.46,1470.96 1068.09,1500.65 1081.77,1530.7 C1095.79,1561.51 1116.17,1592.68 1141.21,1592.68 C1142.57,1592.68 1143.94,1592.58 1145.33,1592.4 C1174.18,1588.45 1200.4,1537.8 1218.34,1493.35 C1224.68,1477.64 1229.99,1462.7 1234,1450.87 C1309.8,1472.15 1358.91,1506.24 1358.91,1544.67 C1358.91,1609.16 1220.54,1661.45 1049.85,1661.45"/>
    <path fill="#9AA8AF" d="M1039.26 1470.9C1039.26 1470.9 1031.65 1500.59 1017.97 1530.65 1003.17 1563.15 981.309 1596.08 954.369 1592.4 925.945 1588.51 899.244 1536.81 880.63 1490.65L880.612 1490.65C865.519 1453.26 855.745 1419.48 854.589 1417.76 884.426 1444.62 938.103 1469.55 1039.26 1470.9M1242.49 1425.75C1241.39 1427.4 1232.42 1458.47 1218.34 1493.35 1200.4 1537.8 1174.18 1588.45 1145.33 1592.4 1118.41 1596.06 1096.55 1563.18 1081.77 1530.7 1068.09 1500.65 1060.46 1470.96 1060.46 1470.96L1060.46 1470.85C1153.69 1469.21 1209.86 1449.39 1242.49 1425.75"/>
    <path fill="#FFF" d="M1317.82,1180.77 C1298.51,1204.33 1255.45,1227 1255.45,1227 C1265.92,1255.81 1275.35,1288.01 1280.08,1319.76 C1280.61,1323.28 1281.07,1326.8 1281.48,1330.32 C1282.63,1340.39 1283.27,1350.38 1283.27,1360.14 C1283.27,1362.8 1283.03,1365.68 1282.52,1368.72 C1279.73,1385.21 1268.75,1406.7 1242.54,1425.7 L1242.49,1425.75 C1209.86,1449.39 1153.69,1469.21 1060.46,1470.85 C1056.37,1470.92 1052.19,1470.96 1047.95,1470.96 C1045.02,1470.96 1042.12,1470.94 1039.26,1470.9 C938.103,1469.55 884.426,1444.62 854.589,1417.76 L854.534,1417.7 C834.71,1399.84 825.413,1381.12 819.709,1367.89 C818.481,1365.03 817.417,1362.43 816.445,1360.16 C814.134,1354.71 812.961,1348.16 812.704,1340.73 C812.484,1334.33 812.942,1327.29 813.987,1319.79 C817.838,1292.03 829.447,1257.9 842.467,1226.03 C834.123,1221.46 798.84,1201.45 781.877,1180.77 C773.881,1171.03 769.957,1161.16 774.78,1152.65 C785.654,1133.49 826.825,1091.37 854.516,1065.33 C868.655,1052.01 879.273,1042.9 880.575,1043.15 C928.347,1066.46 985.655,1076.04 1049.84,1076.04 L1049.84,1076.02 C1114.04,1076.02 1171.37,1066.44 1219.14,1043.14 C1220.41,1042.9 1230.53,1051.55 1244.12,1064.32 C1271.81,1090.27 1313.9,1133.23 1324.92,1152.65 C1329.74,1161.16 1325.82,1171.05 1317.82,1180.77"/>
    <path fill="#9AA8AF" d="M1280.08 1319.75C1275.35 1288 1265.92 1255.8 1255.45 1226.99 1255.45 1226.99 1298.51 1204.32 1317.82 1180.76 1317.82 1180.76 1369.72 1243.04 1359.89 1301.19 1351.95 1348.28 1304.87 1374.95 1282.57 1368.71L1282.52 1368.71C1283.03 1365.67 1283.27 1362.79 1283.27 1360.13 1283.27 1346.96 1282.11 1333.39 1280.08 1319.75M816.445 1360.16C817.417 1362.43 818.481 1365.03 819.709 1367.89L817.142 1368.74C810.484 1370.59 801.627 1369.53 792.256 1365.86 770.232 1357.24 745.383 1334.24 739.808 1301.2 732.271 1256.54 761.135 1209.43 774.926 1189.99 779.089 1184.12 781.877 1180.77 781.877 1180.77 798.84 1201.45 834.123 1221.46 842.467 1226.03 829.447 1257.9 817.838 1292.03 813.987 1319.79 811.75 1335.99 812.136 1350.01 816.445 1360.16"/>
    <path fill="#CCCCD7" d="M1049.68,1125.53 C918.582,1125.53 873.366,1089.13 859.731,1072.93 C861.986,1070.8 864.15,1068.78 866.195,1066.89 C877.384,1070.63 888.726,1073.83 900.142,1076.58 C924.769,1082.49 949.76,1086.32 974.794,1088.74 C999.837,1091.15 1024.94,1092.16 1050,1092.25 C1075.06,1092.16 1100.16,1091.15 1125.21,1088.74 C1150.24,1086.32 1175.23,1082.49 1199.86,1076.58 C1211.2,1073.85 1222.47,1070.67 1233.59,1066.96 C1235.2,1068.45 1236.88,1070.01 1238.61,1071.65 C1226.93,1087.11 1184.36,1125.53 1049.68,1125.53"/>
    <path fill="#7B8697" d="M1017.97 1530.65C909.954 1524.89 880.63 1490.65 880.63 1490.65L880.612 1490.65C865.519 1453.26 855.745 1419.48 854.589 1417.76 884.426 1444.62 938.103 1469.55 1039.26 1470.9 1039.26 1470.9 1031.65 1500.59 1017.97 1530.65M1081.77 1530.7L1081.77 1530.7C1068.09 1500.65 1060.46 1470.96 1060.46 1470.96L1060.46 1470.85C1153.69 1469.21 1209.86 1449.39 1242.49 1425.75 1241.39 1427.4 1232.42 1458.47 1218.34 1493.35L1218.3 1493.4C1218.3 1493.4 1189.64 1525.31 1081.77 1530.7"/>
    <path fill="#000038" d="M1280.08,1425.75 C1280.08,1425.99 1280.04,1425.94 1279.95,1425.62 C1280.04,1425.62 1280.08,1425.66 1280.08,1425.75"/>
    <path fill="#CCCCD7" d="M1047.95,1470.96 C1045.02,1470.96 1042.12,1470.94 1039.26,1470.9 C938.103,1469.55 884.426,1444.62 854.589,1417.76 L854.534,1417.7 C834.71,1399.84 825.413,1381.12 819.709,1367.89 C818.481,1365.03 817.417,1362.43 816.445,1360.16 C814.134,1354.71 812.961,1348.16 812.704,1340.73 C816.958,1334.24 819.635,1330.26 819.635,1330.26 C819.635,1330.26 820.461,1434 1050.21,1434 C1279.95,1434 1281.46,1330.26 1281.46,1330.26 L1281.47,1330.31 C1282.63,1340.38 1283.27,1350.37 1283.27,1360.13 C1283.27,1360.18 1283.27,1360.24 1283.27,1360.3 C1282.32,1362.52 1281.28,1365.05 1280.09,1367.83 L1282.53,1368.63 C1282.52,1368.66 1282.52,1368.68 1282.52,1368.71 L1282.52,1368.72 C1279.73,1385.21 1268.75,1406.7 1242.54,1425.7 L1242.49,1425.75 C1209.86,1449.39 1153.69,1469.21 1060.46,1470.85 C1056.37,1470.92 1052.19,1470.96 1047.95,1470.96"/>
    <path fill="#7B8697" d="M1283.27 1360.3C1283.27 1360.24 1283.27 1360.18 1283.27 1360.13 1283.27 1350.37 1282.63 1340.38 1281.47 1330.31L1281.48 1330.32C1282.63 1340.39 1283.27 1350.38 1283.27 1360.14 1283.27 1360.19 1283.27 1360.23 1283.27 1360.28 1283.27 1360.29 1283.27 1360.29 1283.27 1360.3M810.056 1369.63C804.706 1369.63 798.599 1368.34 792.256 1365.86 781.547 1323.77 821.396 1247.89 798.748 1226.98 784.444 1213.79 777.842 1199.18 774.926 1189.99 775.375 1189.36 775.807 1188.76 776.222 1188.18 795.552 1210.64 831.123 1230.36 839.026 1234.59 827.44 1263.93 817.495 1294.5 813.987 1319.79 813.475 1323.5 813.1 1327.1 812.878 1330.56 812.722 1333 812.642 1335.38 812.644 1337.68 812.65 1346.35 813.819 1353.98 816.445 1360.16 817.417 1362.43 818.481 1365.03 819.709 1367.89L817.142 1368.74C814.991 1369.34 812.609 1369.63 810.056 1369.63"/>
    <path fill="#CCCCD7" d="M846.401,1217.74 C838.444,1213.43 828.937,1207.68 819.692,1201.29 C852.827,1155.36 890.161,1125.53 890.161,1125.53 L846.401,1217.74"/>
    <path fill="#CC97D7" d="M1324.83,1190.06 C1324.36,1189.4 1323.92,1188.78 1323.48,1188.18 C1323.51,1188.15 1323.53,1188.12 1323.56,1188.09 C1323.98,1188.67 1324.42,1189.28 1324.87,1189.93 C1324.86,1189.97 1324.85,1190.02 1324.83,1190.06"/>
    <path fill="#7B8697" d="M1289.74,1369.57 C1287.19,1369.57 1284.81,1369.27 1282.66,1368.67 L1282.54,1368.63 C1283.03,1365.68 1283.26,1362.88 1283.27,1360.28 C1283.3,1360.22 1283.33,1360.15 1283.35,1360.09 C1287.66,1349.95 1288.05,1335.92 1285.81,1319.73 C1282.3,1294.44 1272.36,1263.87 1260.78,1234.54 C1268.88,1230.2 1304.23,1210.55 1323.48,1188.18 C1323.92,1188.78 1324.36,1189.4 1324.83,1190.06 C1321.89,1199.26 1315.29,1213.79 1301.05,1226.91 C1278.4,1247.82 1318.25,1323.71 1307.54,1365.79 C1301.2,1368.28 1295.09,1369.57 1289.74,1369.57"/>
    <path fill="#A3A3B7" d="M1282.53,1368.63 L1280.09,1367.83 C1281.28,1365.05 1282.32,1362.52 1283.27,1360.3 C1283.26,1362.88 1283.02,1365.68 1282.53,1368.63"/>
    <path fill="#626B84" d="M1282.54,1368.63 L1282.53,1368.63 C1283.02,1365.68 1283.26,1362.88 1283.27,1360.3 C1283.27,1360.29 1283.27,1360.29 1283.27,1360.28 C1283.26,1362.88 1283.03,1365.68 1282.54,1368.63"/>
    <path fill="#CCCCD7" d="M1253.4,1217.68 L1209.64,1125.46 C1209.64,1125.46 1246.97,1155.29 1280.11,1201.22 C1270.87,1207.61 1261.37,1213.36 1253.4,1217.68"/>
    <path fill="#000038" d="M839.985,1235.1 C833.229,1231.54 773.705,1199.46 764.747,1168.88 C762.582,1161.5 763.295,1154.32 766.81,1148.12 C776.977,1130.21 808.422,1097.71 826.26,1079.93 C837.718,1068.51 849.637,1057.14 858.958,1048.73 C873.982,1035.17 878.176,1031.75 884.657,1034.92 L876.595,1051.39 C880.046,1053.08 883.26,1052 884.204,1051.44 C875.112,1056.83 797.968,1130.38 782.76,1157.17 C782.043,1158.44 781.348,1160.32 782.345,1163.73 C787.456,1181.18 825.653,1206.82 848.53,1218.88 L839.985,1235.1"/>
    <path fill="#000038" d="M810.083,1378.77 C799.18,1378.77 786.37,1374.59 774.106,1366.81 C750.965,1352.12 735.169,1328.76 730.771,1302.72 C720.362,1241.11 772.609,1177.57 774.839,1174.89 L788.929,1186.63 C788.439,1187.22 739.859,1246.42 748.851,1299.66 C753.871,1329.38 775.059,1345.69 783.935,1351.33 C797.782,1360.11 809.141,1361.43 814.666,1359.89 L819.598,1377.55 C816.659,1378.37 813.463,1378.77 810.083,1378.77"/>
    <path fill="#000038" d="M820.635 1328.87C819.884 1328.89 819.558 1328.86 819.065 1328.84L817.765 1328.74C816.914 1328.66 816.089 1328.56 815.271 1328.44 813.635 1328.21 812.036 1327.9 810.455 1327.52 807.297 1326.76 804.215 1325.74 801.254 1324.42 795.34 1321.8 789.922 1317.82 785.977 1312.84 781.985 1307.89 779.575 1302.08 778.462 1296.36 777.315 1290.61 777.272 1284.91 777.852 1279.38 778.791 1284.86 780.386 1290.18 782.799 1294.87 785.177 1299.57 788.477 1303.56 792.399 1306.3 796.302 1309.07 800.756 1310.66 805.361 1311.29 807.662 1311.61 810.002 1311.69 812.314 1311.58 813.468 1311.52 814.62 1311.42 815.738 1311.26 816.296 1311.18 816.85 1311.09 817.375 1310.98L818.14 1310.81C818.335 1310.75 818.697 1310.68 818.631 1310.64L820.635 1328.87M958.642 1601.84C956.814 1601.84 954.978 1601.72 953.134 1601.47 908.358 1595.36 874.003 1505.41 852.058 1438.28 850.822 1434.5 849.544 1430.6 849.185 1429.74 849.325 1430.07 850.122 1431.8 852.11 1433.2L862.633 1418.18C865.416 1420.13 865.646 1420.83 869.489 1432.58 875.275 1450.29 887.317 1487.12 903.498 1520.7 928.393 1572.38 946.835 1582.1 955.612 1583.3 991.39 1588.18 1024.2 1499.85 1032.84 1468.52L1050.52 1473.39C1050.15 1474.74 1041.25 1506.71 1025.71 1538.36 1005 1580.53 982.465 1601.84 958.642 1601.84"/>
    <path fill="#000038" d="M1209.58,1125.53 C1211.52,1127.6 1213.38,1129.74 1215.13,1131.94 C1216.91,1134.12 1218.64,1136.33 1220.27,1138.61 C1223.66,1143.09 1226.7,1147.77 1229.76,1152.45 C1232.76,1157.16 1235.53,1161.99 1238.35,1166.81 C1240.99,1171.71 1243.56,1176.66 1246.09,1181.62 C1251.02,1191.62 1255.32,1201.91 1259.39,1212.3 C1263.46,1222.68 1267.31,1233.17 1270.83,1243.79 C1274.36,1254.4 1277.64,1265.12 1280.53,1275.97 C1283.4,1286.83 1285.91,1297.82 1287.98,1308.93 C1290.02,1320.04 1291.52,1331.31 1292.4,1342.7 C1292.57,1345.55 1292.85,1348.39 1292.93,1351.26 L1293.17232,1359.86 C1293.23,1366.49 1292.12,1372.94 1290.36,1379.01 C1286.82,1391.19 1280.45,1402 1272.85,1411.42 C1271.92,1412.63 1270.92,1413.76 1269.91,1414.88 L1266.88,1418.24 C1264.74,1420.33 1262.71,1422.57 1260.44,1424.51 C1258.23,1426.51 1256.01,1428.51 1253.66,1430.31 L1250.17,1433.07 L1246.56,1435.63 C1236.91,1442.43 1226.65,1448.05 1216.12,1452.83 C1205.58,1457.59 1194.78,1461.61 1183.83,1464.82 C1181.1,1465.69 1178.36,1466.44 1175.6,1467.16 C1172.85,1467.87 1170.1,1468.66 1167.34,1469.31 C1161.8,1470.55 1156.28,1471.92 1150.71,1472.9 L1142.37,1474.48 L1134,1475.8 C1128.43,1476.76 1122.83,1477.32 1117.24,1478.06 C1094.87,1480.68 1072.44,1481.8 1050.09,1481.88 C1027.7,1481.85 1005.26,1480.8 982.863,1478.21 C960.482,1475.58 938.146,1471.31 916.281,1464.67 C894.512,1457.82 873.035,1448.63 853.861,1434.91 C844.305,1428.05 835.448,1419.99 827.75,1410.73 C823.987,1406.02 820.454,1401.08 817.412,1395.76 C814.407,1390.42 811.821,1384.78 809.908,1378.77 L809.197,1376.51 L808.609,1374.19 C808.19,1372.66 807.883,1371.07 807.606,1369.46 C807.275,1367.89 807.144,1366.2 806.948,1364.56 C806.84,1363.75 806.849,1362.86 806.801,1362.02 C806.775,1361.19 806.713,1360.22 806.748,1359.57 L806.929,1351 C806.975,1348.14 807.236,1345.31 807.382,1342.46 C808.167,1331.1 809.453,1319.81 811.434,1308.69 C815.25,1286.4 821.066,1264.64 828.063,1243.38 C835.19,1222.16 843.188,1201.26 853.063,1181.25 C855.644,1176.3 858.211,1171.35 860.946,1166.49 C863.818,1161.7 866.594,1156.87 869.679,1152.21 C872.767,1147.55 875.888,1142.92 879.31,1138.47 C880.96,1136.22 882.722,1134.03 884.521,1131.86 C886.285,1129.69 888.167,1127.58 890.121,1125.53 C883.139,1146.91 875.27,1167.28 867.323,1187.61 C859.276,1207.86 851.306,1228.09 844.865,1248.79 C838.437,1269.48 833.207,1290.5 829.94,1311.71 C828.23,1322.31 827.209,1332.96 826.65,1343.58 C826.561,1346.23 826.354,1348.89 826.36,1351.54 L826.322,1359.48 C826.343,1363.78 827.3,1368.17 828.784,1372.65 C830.283,1377.1 832.363,1381.48 834.817,1385.69 C837.314,1389.88 840.27,1393.87 843.427,1397.71 C849.929,1405.28 857.598,1412 865.969,1417.91 C882.756,1429.74 902.323,1438.03 922.532,1444.21 C942.862,1450.2 963.978,1454.11 985.345,1456.45 C1006.73,1458.75 1028.36,1459.59 1050.02,1459.45 C1071.7,1459.41 1093.35,1458.44 1114.73,1456.01 C1120.05,1455.32 1125.42,1454.81 1130.7,1453.92 L1138.65,1452.69 L1146.54,1451.23 C1151.82,1450.33 1156.98,1449.05 1162.19,1447.92 C1164.79,1447.32 1167.33,1446.59 1169.91,1445.94 C1172.48,1445.28 1175.05,1444.6 1177.56,1443.79 C1187.74,1440.86 1197.63,1437.2 1207.15,1432.95 C1216.65,1428.68 1225.76,1423.71 1234.11,1417.88 C1242.4,1412.02 1250.17,1405.5 1256.4,1397.9 C1262.67,1390.37 1267.71,1381.92 1270.4,1373.06 C1271.75,1368.63 1272.55,1364.19 1272.58,1359.88 L1272.47,1351.99 C1272.43,1349.36 1272.21,1346.72 1272.09,1344.08 C1271.41,1333.52 1270.17,1322.93 1268.38,1312.37 C1266.57,1301.82 1264.32,1291.3 1261.72,1280.84 C1259.09,1270.38 1256.06,1259.99 1252.8,1249.67 C1249.53,1239.34 1245.93,1229.1 1242.11,1218.93 L1230.38,1188.47 L1227.51,1180.81 L1224.7,1173.11 L1219.28,1157.55 C1215.8,1147.08 1212.39,1136.56 1209.58,1125.53"/>
    <path fill="#000038" d="M1259.72,1235.1 L1251.18,1218.87 C1274.05,1206.81 1312.25,1181.18 1317.36,1163.72 C1318.36,1160.32 1317.66,1158.43 1316.95,1157.17 C1301.74,1130.38 1224.59,1056.82 1215.5,1051.44 C1216.45,1051.99 1219.66,1053.08 1223.11,1051.38 L1215.05,1034.92 C1221.53,1031.74 1225.72,1035.16 1240.75,1048.72 C1250.07,1057.13 1261.99,1068.51 1273.45,1079.93 C1291.29,1097.71 1322.73,1130.2 1332.9,1148.12 C1336.41,1154.31 1337.12,1161.49 1334.96,1168.88 C1326,1199.46 1266.48,1231.54 1259.72,1235.1"/>
    <path fill="#000038" d="M1289.62,1378.77 C1286.24,1378.77 1283.05,1378.37 1280.11,1377.55 L1285.04,1359.88 C1290.57,1361.43 1301.93,1360.11 1315.77,1351.32 C1324.65,1345.69 1345.83,1329.38 1350.86,1299.66 C1359.85,1246.42 1311.27,1187.22 1310.78,1186.62 L1324.87,1174.89 C1327.1,1177.56 1379.35,1241.1 1368.94,1302.71 C1364.54,1328.76 1348.74,1352.12 1325.6,1366.81 C1313.34,1374.59 1300.52,1378.77 1289.62,1378.77"/>
    <path fill="#000038" d="M1281.08 1310.63C1281.01 1310.67 1281.37 1310.75 1281.57 1310.81L1282.33 1310.97C1282.86 1311.08 1283.41 1311.18 1283.97 1311.25 1285.09 1311.42 1286.24 1311.52 1287.39 1311.58 1289.7 1311.69 1292.04 1311.6 1294.35 1311.29 1298.95 1310.66 1303.4 1309.06 1307.31 1306.29 1311.23 1303.56 1314.53 1299.57 1316.91 1294.87 1319.32 1290.17 1320.92 1284.85 1321.85 1279.38 1322.43 1284.9 1322.39 1290.61 1321.24 1296.35 1320.13 1302.07 1317.72 1307.88 1313.73 1312.84 1309.78 1317.82 1304.37 1321.79 1298.45 1324.41 1295.49 1325.74 1292.41 1326.76 1289.25 1327.52 1287.67 1327.89 1286.07 1328.21 1284.44 1328.44 1283.62 1328.56 1282.79 1328.66 1281.94 1328.74L1280.64 1328.83C1280.15 1328.85 1279.82 1328.89 1279.07 1328.86L1281.08 1310.63M1141.07 1601.84C1117.24 1601.84 1094.7 1580.53 1073.98 1538.36 1058.42 1506.71 1049.52 1474.74 1049.15 1473.39L1066.82 1468.51C1075.49 1499.84 1108.29 1588.19 1144.1 1583.29 1152.88 1582.09 1171.34 1572.37 1196.3 1520.68 1212.53 1487.08 1224.62 1450.26 1230.43 1432.56 1234.28 1420.83 1234.51 1420.13 1237.28 1418.18L1247.81 1433.19C1249.79 1431.8 1250.59 1430.08 1250.73 1429.75 1250.37 1430.6 1249.09 1434.5 1247.85 1438.28 1225.82 1505.4 1191.35 1595.36 1146.57 1601.46 1144.73 1601.71 1142.89 1601.84 1141.07 1601.84"/>
    <path fill="#9AA8AF" d="M1155.65,500.32 C1188.24,507.381 1217.78,517.797 1244.21,531.147 L1257.37,538.208 C1277.51,485.961 1328.18,448.898 1387.5,448.898 C1464.51,448.898 1526.93,511.323 1526.93,588.309 C1526.93,662.195 1469.46,722.639 1396.78,727.407 L1397.88,732.414 C1402.87,756.236 1405.38,781.286 1405.38,807.309 C1405.38,978.573 1303.09,1084.26 1049.71,1084.26 C796.322,1084.26 694.029,978.573 694.029,807.309 C694.029,781.286 696.542,756.236 701.53,732.414 L702.63,727.407 C629.955,722.639 572.481,662.195 572.481,588.309 C572.481,511.323 634.906,448.898 711.91,448.898 C771.235,448.898 821.904,485.961 842.04,538.208 L855.207,531.147 C873.766,521.758 893.847,513.836 915.468,507.509 C915.468,507.509 972.703,449.65 1016.04,449.65 C1023.35,449.65 1030.25,451.301 1036.43,455.134 C1051.47,464.486 1052.84,482.092 1044.3,496.744 C1044.3,496.744 1118.18,444.626 1147.91,483.32 C1152.4,489.171 1154.46,494.929 1154.51,500.339 L1155.65,500.32"/>
    <path fill="#F7DBF8" d="M1154.51,500.339 C1154.46,494.929 1152.4,489.171 1147.91,483.32 C1139.86,472.844 1128.58,469.025 1116.4,469.025 C1116.35,469.025 1116.3,469.025 1116.25,469.025 C1116.4,469.024 1116.54,469.024 1116.69,469.024 C1128.87,469.024 1140.16,472.845 1148.2,483.32 C1152.69,489.169 1154.75,494.925 1154.8,500.334 L1154.51,500.339"/>
    <path fill="#CBD2D5" d="M1257.45 562.677L1244.28 555.617C1217.86 542.267 1182.18 529.717 1149.59 522.656L1147.37 521.646C1147.32 516.235 1152.48 513.641 1147.98 507.79 1138.38 495.285 1128.39 490.581 1116.7 490.581 1096.6 490.581 1071.47 504.501 1034.62 516.572 1038.66 514.179 1042.43 511.227 1045.75 507.743 1050.17 503.147 1053.73 497.588 1056.12 491.358 1056.42 490.585 1056.7 489.799 1056.95 489 1071.07 480.856 1094.98 469.184 1116.25 469.025 1116.3 469.025 1116.35 469.025 1116.4 469.025 1128.58 469.025 1139.86 472.844 1147.91 483.32 1152.4 489.171 1154.46 494.929 1154.51 500.339L1154.8 500.334C1154.8 500.336 1154.8 500.337 1154.8 500.339L1155.67 500.325C1155.68 500.326 1155.68 500.326 1155.68 500.328L1154 508.103C1171.36 511.877 1188.46 516.752 1205.08 522.851 1213.38 525.916 1221.56 529.286 1229.59 532.967L1235.58 535.786C1237.53 536.773 1239.43 537.639 1241.42 538.721L1262.45 550 1266.22 540.326C1274.65 518.692 1288.93 499.39 1307.13 484.957 1325.25 470.369 1347.49 461.245 1370.45 458.123L1374.78 457.615C1376.22 457.446 1377.66 457.234 1379.11 457.232L1387.82 456.89C1393.63 457.016 1399.45 457.217 1405.19 458.082 1416.72 459.524 1427.96 462.766 1438.68 467.203 1460.04 476.288 1478.88 491.224 1492.67 509.907 1502.22 522.763 1509.24 537.408 1513.45 552.825 1491.04 505.84 1443.11 473.369 1387.58 473.369 1328.25 473.369 1277.58 510.432 1257.45 562.677M842.115 562.677C821.98 510.432 771.31 473.369 711.984 473.369 657.344 473.369 610.051 504.804 587.19 550.567 591.455 535.978 598.249 522.134 607.325 509.907 621.124 491.224 639.958 476.288 661.324 467.203 672.035 462.766 683.283 459.524 694.808 458.082 700.552 457.217 706.373 457.016 712.178 456.89L720.887 457.232C722.343 457.234 723.781 457.446 725.222 457.615L729.546 458.123C752.507 461.245 774.752 470.369 792.873 484.957 811.073 499.39 825.345 518.692 833.778 540.326L837.547 550 859.746 538.096 863.99 535.997C869.799 533.176 875.69 530.509 881.668 528.036 893.613 523.067 905.867 518.8 918.317 515.144L918.346 515.136 920.702 514.432 922.289 512.783C925.755 509.183 929.649 505.389 933.528 501.864 937.447 498.318 941.436 494.837 945.539 491.509 953.745 484.866 962.253 478.601 971.175 473.242 975.599 470.493 980.172 468.083 984.785 465.894 989.385 463.649 994.101 461.884 998.801 460.429 1004.47 458.683 1010.21 457.682 1015.57 457.682 1019.08 457.682 1022.42 458.11 1025.49 459.038 1029.28 460.312 1032.92 462.323 1035.49 464.812 1037.94 467.414 1039.7 470.384 1040.36 473.982 1040.91 476.619 1040.88 479.489 1040.34 482.418 1039.18 481.414 1037.9 480.473 1036.5 479.604 1030.32 475.771 1023.43 474.121 1016.11 474.121 972.778 474.121 932.126 525.474 932.126 525.474 910.505 531.801 873.841 546.228 855.283 555.617L842.115 562.677"/>
    <path fill="#E6E7E8" d="M1021.44,793.954 C1021.44,793.954 814.903,1038.09 1050.05,1038.09 C1285.19,1038.09 1078.86,792.522 1078.86,792.522 L1021.44,793.954"/>
    <path fill="#FF7BA1" d="M801.881,564.464 C791.959,569.415 783.138,575.724 775.326,582.82 C734.596,619.791 721.375,678.218 721.375,678.218 C691.281,693.586 615.01,645.575 621.961,579.849 C623.575,564.391 629.809,547.959 642.335,531.124 C710.316,439.834 801.881,564.464 801.881,564.464"/>
    <path fill="#000038" d="M1050,907.366 C1086.6,907.366 1118.62,893.994 1115.1,870.77 C1111.58,847.545 1085.89,779.278 1050,779.278 C1014.11,779.278 988.419,847.545 984.9,870.77 C981.381,893.994 1013.4,907.366 1050,907.366"/>
    <path fill="#A7A9AC" d="M1050,792.522 C1084.17,792.522 1109.08,854.382 1114.43,880.353 C1115.35,877.377 1115.62,874.182 1115.1,870.77 C1111.58,847.545 1085.89,779.278 1050,779.278 C1014.11,779.278 988.419,847.545 984.9,870.77 C984.383,874.182 984.652,877.377 985.572,880.353 C990.917,854.382 1015.82,792.522 1050,792.522"/>
    <path fill="#FF7BA1" d="M1383.94,678.215 C1383.94,678.215 1365.16,595.259 1303.44,564.456 C1303.44,564.456 1395,439.842 1462.98,531.13 C1528.76,619.472 1421.12,697.193 1383.94,678.215"/>
    <path fill="#000038" d="M1059.17,907.366 L1059.17,956.377 L1055.71,958.968 L1054.31,960.014 L1053.09,960.87 C1052.28,961.422 1051.48,961.941 1050.66,962.442 C1049.03,963.45 1047.39,964.416 1045.68,965.266 C1042.26,966.986 1038.53,968.131 1034.65,968.702 C1026.96,969.919 1018.71,969.39 1011.45,966.471 C1004.16,963.632 998.268,958.646 993.985,953.089 C991.819,950.305 990.025,947.336 988.495,944.303 C986.952,941.276 985.665,938.177 984.635,935.01 C986.795,937.543 988.989,939.987 991.331,942.214 C993.677,944.437 996.151,946.443 998.679,948.203 C1001.24,949.919 1003.88,951.384 1006.57,952.426 C1009.26,953.479 1012,954.112 1014.68,954.402 C1020.07,954.895 1025.31,953.886 1030.23,951.763 L1037.55,948.396 C1038.78,947.834 1040.02,947.248 1041.2,946.584 C1041.79,946.249 1042.36,945.901 1042.91,945.549 L1043.72,945.022 C1043.93,944.882 1044.29,944.615 1044.29,944.615 L1040.83,951.791 L1040.83,907.366 L1059.17,907.366"/>
    <path fill="#000038" d="M1059.25,907.366 L1059.25,951.791 L1055.79,944.615 C1055.79,944.615 1056.14,944.882 1056.36,945.022 L1057.16,945.549 C1057.71,945.901 1058.29,946.249 1058.88,946.584 C1060.06,947.248 1061.29,947.834 1062.52,948.396 L1069.85,951.763 C1074.77,953.886 1080,954.895 1085.39,954.402 C1088.08,954.112 1090.81,953.479 1093.5,952.426 C1096.2,951.384 1098.83,949.919 1101.4,948.203 C1103.93,946.443 1106.4,944.437 1108.74,942.214 C1111.09,939.987 1113.28,937.543 1115.44,935.01 C1114.41,938.177 1113.12,941.276 1111.58,944.303 C1110.05,947.336 1108.26,950.305 1106.09,953.089 C1101.81,958.646 1095.92,963.632 1088.63,966.471 C1081.37,969.39 1073.11,969.919 1065.42,968.702 C1061.55,968.131 1057.81,966.986 1054.4,965.266 C1052.69,964.416 1051.04,963.45 1049.42,962.442 C1048.6,961.941 1047.79,961.422 1046.99,960.87 L1045.77,960.014 L1044.37,958.968 L1040.91,956.377 L1040.91,907.366 L1059.25,907.366"/>
    <path fill="#7B8697" d="M910.244,1060.1 C908.303,1059.66 906.363,1059.21 904.428,1058.75 C880.815,1053.07 857.741,1045.39 835.997,1035.11 C830.483,1032.69 825.265,1029.73 819.967,1026.92 C817.282,1025.57 814.776,1023.94 812.214,1022.39 C809.669,1020.82 807.081,1019.31 804.57,1017.69 L797.209,1012.6 L793.533,1010.04 L790.02,1007.28 L782.99,1001.76 L776.326,995.833 L772.996,992.866 L770.283,990.125 C783.308,993.499 798.158,995.832 815.002,996.503 C829.929,1005.66 846.664,1014.19 865.437,1021.71 C878.304,1036.66 893.417,1049.63 910.244,1060.1 M1200.99,1057.4 C1217.76,1046.37 1232.72,1032.8 1245.32,1017.25 C1257.28,1012 1268.37,1006.33 1278.63,1000.37 C1295.45,1000.3 1310.41,998.613 1323.66,995.842 L1317.01,1001.76 L1309.98,1007.28 L1306.47,1010.04 L1302.79,1012.6 L1295.43,1017.69 C1292.92,1019.31 1290.33,1020.82 1287.79,1022.39 C1285.22,1023.94 1282.72,1025.57 1280.03,1026.92 C1274.73,1029.73 1269.52,1032.69 1264,1035.11 C1243.92,1044.6 1222.71,1051.87 1200.99,1057.4 M1331.15,961.679 C1358.4,936.374 1375.85,910.008 1386.8,888.608 C1385.16,894.824 1383.3,900.969 1381.31,907.062 C1379.22,912.651 1377.35,918.338 1374.84,923.743 C1373.61,926.455 1372.58,929.262 1371.2,931.899 L1367.18,939.864 C1365.93,942.137 1364.67,944.399 1363.37,946.642 C1355.25,952.044 1344.66,957.492 1331.15,961.679 M761.394,954.414 C748.227,949.18 738.442,942.847 731.45,937.144 L728.801,931.899 C727.423,929.262 726.386,926.455 725.158,923.743 C722.647,918.338 720.777,912.651 718.684,907.062 C716.689,900.937 714.815,894.757 713.176,888.507 C723.094,907.889 738.339,931.346 761.394,954.414"/>
    <path fill="#CC628C" d="M775.326,582.82 C749.817,554.198 731.859,532.164 696.471,532.164 C692.905,532.164 689.165,532.387 685.219,532.851 C627.75,539.594 622.32,576.734 621.98,579.666 C623.624,564.261 629.859,547.892 642.335,531.124 C660.558,506.652 680.477,497.696 699.871,497.696 C752.827,497.696 801.881,564.464 801.881,564.464 C791.959,569.415 783.138,575.724 775.326,582.82"/>
    <path fill="#7B8697" d="M621.961 579.849C621.961 579.849 621.966 579.787 621.98 579.666 621.973 579.727 621.967 579.788 621.961 579.849M1483.57 579.666C1483.52 579.229 1483.36 578.028 1482.92 576.28 1480.75 561.871 1474.55 546.664 1462.98 531.13 1444.75 506.653 1424.84 497.701 1405.44 497.701 1405.1 497.701 1404.76 497.704 1404.42 497.709 1404.84 497.701 1405.26 497.696 1405.68 497.696 1425.07 497.696 1444.99 506.652 1463.22 531.124 1475.69 547.892 1481.93 564.261 1483.57 579.666"/>
    <path fill="#CC628C" d="M1330.22,582.82 C1322.41,575.724 1313.59,569.415 1303.67,564.464 C1303.67,564.464 1351.94,498.75 1404.42,497.709 C1404.76,497.704 1405.1,497.701 1405.44,497.701 C1424.84,497.701 1444.75,506.653 1462.98,531.13 C1474.55,546.664 1480.75,561.871 1482.92,576.28 C1480.45,566.322 1469.22,538.587 1420.33,532.851 C1416.38,532.387 1412.64,532.164 1409.08,532.164 C1373.69,532.164 1355.73,554.198 1330.22,582.82"/>
    <path fill="#7B8697" d="M1483.59,579.849 C1483.58,579.788 1483.58,579.728 1483.57,579.666 C1483.58,579.784 1483.59,579.846 1483.59,579.849"/>
    <path fill="#000038" d="M939.417,759.462 C939.417,788.459 920.187,811.965 896.465,811.965 C872.743,811.965 853.513,788.459 853.513,759.462 C853.513,730.466 872.743,706.96 896.465,706.96 C920.187,706.96 939.417,730.466 939.417,759.462"/>
    <path fill="#FFF" d="M919.311 739.018C919.311 744.777 914.642 749.446 908.883 749.446 903.123 749.446 898.454 744.777 898.454 739.018 898.454 733.259 903.123 728.59 908.883 728.59 914.642 728.59 919.311 733.259 919.311 739.018M896.465 770.347C896.465 773.692 893.753 776.404 890.407 776.404 887.061 776.404 884.349 773.692 884.349 770.347 884.349 767.001 887.061 764.288 890.407 764.288 893.753 764.288 896.465 767.001 896.465 770.347"/>
    <path fill="#000038" d="M844.083 695.729C844.389 692.867 845.144 690.023 846.197 687.312 846.689 685.929 847.352 684.637 847.946 683.275 848.642 681.991 849.351 680.691 850.104 679.406 853.202 674.338 857.368 669.824 862.223 666.104 864.578 664.113 867.298 662.663 869.966 661.097 872.748 659.804 875.554 658.411 878.517 657.573 879.989 657.117 881.47 656.651 882.96 656.268L887.482 655.421C890.513 654.795 893.544 654.79 896.582 654.602 898.1 654.488 899.621 654.583 901.142 654.687 902.662 654.779 904.183 654.857 905.697 654.998 907.21 655.091 908.737 655.508 910.25 655.755 911.765 656.068 913.284 656.269 914.769 656.758 917.737 657.752 920.727 658.572 923.501 660.105 926.375 661.333 928.949 663.205 931.513 664.939 941.359 672.628 947.794 684.162 947.827 695.729 941.766 686.097 933.87 679.112 925.227 674.896 920.82 672.885 916.257 671.521 911.535 670.635 910.965 670.473 910.342 670.46 909.74 670.394L907.934 670.176C906.722 670.068 905.559 669.785 904.316 669.806 903.08 669.806 901.854 669.743 900.624 669.696 899.396 669.632 898.169 669.568 896.938 669.704 894.49 669.907 891.978 669.747 889.597 670.241L885.963 670.676C884.771 670.893 883.611 671.223 882.419 671.455 879.981 671.79 877.783 672.778 875.397 673.369 874.256 673.782 873.146 674.275 872.005 674.723 870.831 675.113 869.734 675.656 868.637 676.221 859.686 680.47 851.477 687.078 844.083 695.729M1160.44 761.464C1160.44 790.461 1179.67 813.967 1203.39 813.967 1227.11 813.967 1246.34 790.461 1246.34 761.464 1246.34 732.468 1227.11 708.962 1203.39 708.962 1179.67 708.962 1160.44 732.468 1160.44 761.464"/>
    <path fill="#FFF" d="M1180.54 741.02C1180.54 746.779 1185.21 751.448 1190.97 751.448 1196.73 751.448 1201.4 746.779 1201.4 741.02 1201.4 735.261 1196.73 730.592 1190.97 730.592 1185.21 730.592 1180.54 735.261 1180.54 741.02M1203.39 772.349C1203.39 775.694 1206.1 778.406 1209.45 778.406 1212.79 778.406 1215.5 775.694 1215.5 772.349 1215.5 769.003 1212.79 766.29 1209.45 766.29 1206.1 766.29 1203.39 769.003 1203.39 772.349"/>
    <path fill="#000038" d="M1255.77 697.732C1248.38 689.08 1240.17 682.472 1231.22 678.223 1230.12 677.658 1229.02 677.115 1227.85 676.725 1226.71 676.277 1225.6 675.784 1224.46 675.371 1222.07 674.78 1219.87 673.792 1217.43 673.457 1216.24 673.225 1215.08 672.896 1213.89 672.678L1210.26 672.243C1207.88 671.749 1205.36 671.909 1202.92 671.706 1201.69 671.57 1200.46 671.634 1199.23 671.698 1198 671.745 1196.77 671.808 1195.54 671.808 1194.3 671.787 1193.13 672.07 1191.92 672.179L1190.11 672.396C1189.51 672.462 1188.89 672.475 1188.32 672.637 1183.6 673.523 1179.03 674.887 1174.63 676.898 1165.98 681.114 1158.09 688.099 1152.03 697.732 1152.06 686.164 1158.49 674.63 1168.34 666.941 1170.9 665.207 1173.48 663.335 1176.35 662.107 1179.13 660.574 1182.12 659.754 1185.08 658.76 1186.57 658.271 1188.09 658.07 1189.6 657.757 1191.12 657.51 1192.64 657.093 1194.16 657 1195.67 656.859 1197.19 656.782 1198.71 656.688 1200.23 656.585 1201.75 656.49 1203.27 656.604 1206.31 656.792 1209.34 656.797 1212.37 657.423L1216.89 658.27C1218.38 658.653 1219.87 659.119 1221.34 659.575 1224.3 660.413 1227.11 661.806 1229.89 663.099 1232.56 664.665 1235.27 666.115 1237.63 668.105 1242.49 671.826 1246.65 676.34 1249.75 681.408 1250.5 682.693 1251.21 683.993 1251.91 685.277 1252.5 686.639 1253.16 687.931 1253.66 689.313 1254.71 692.026 1255.46 694.869 1255.77 697.732M621.496 587.194C619.438 565.702 626.607 542.94 641.004 525.616 655.282 508.216 676.449 496.102 699.355 492.914 705.067 492.118 710.816 491.714 716.789 492.048 722.69 492.384 728.505 493.363 734.132 494.866 745.382 497.907 755.952 502.797 765.609 509.001 775.295 515.178 784.075 522.711 791.756 531.355 799.359 540.057 805.901 549.95 810.167 561.265L812.71 568.006 806.709 571.907C805.921 572.419 804.833 573.164 803.879 573.847L800.926 576.004C798.969 577.486 797.006 578.986 795.073 580.536 791.199 583.625 787.433 586.885 783.773 590.258 776.432 597 769.668 604.331 763.021 611.777 756.442 619.289 750.133 627.069 744.136 635.229 738.073 643.361 732.464 651.905 726.634 660.798 727.844 650.241 730.862 639.899 735.065 630.071 739.282 620.236 744.693 610.904 750.946 602.19 757.217 593.48 764.402 585.473 772.063 577.967 775.894 574.21 779.844 570.57 783.951 567.08 785.995 565.324 788.094 563.621 790.246 561.962L793.521 559.496C794.661 558.661 795.69 557.922 797.057 557.005L793.599 567.646C791.849 563.289 789.555 559.053 786.958 554.954 784.376 550.843 781.43 546.889 778.189 543.155 771.759 535.633 764.265 528.904 756.141 523.116 747.984 517.391 739.13 512.604 729.803 509.509 725.147 507.955 720.378 506.861 715.588 506.293 710.868 505.728 705.844 505.761 700.903 506.148 681.083 507.725 661.833 516.903 647.408 531.393 640.141 538.594 634.127 547.18 629.721 556.644 625.283 566.105 622.56 576.47 621.496 587.194M1378.69 660.798C1373.86 651.537 1368.5 642.739 1362.54 634.459 1356.61 626.163 1350.13 618.369 1343.23 611.037 1339.74 607.403 1336.23 603.821 1332.56 600.407 1328.89 597.002 1325.16 593.677 1321.36 590.459 1317.59 587.208 1313.78 584.021 1309.94 580.913 1308.05 579.317 1306.1 577.815 1304.2 576.258L1298.67 571.822 1292.72 568.249 1295.25 561.301C1299.37 549.95 1305.84 539.973 1313.41 531.225 1317.19 526.83 1321.32 522.783 1325.67 519.007 1330.02 515.238 1334.59 511.721 1339.44 508.604 1349.11 502.351 1359.65 497.252 1371 494.217 1376.66 492.687 1382.51 491.681 1388.47 491.322 1394.51 491.02 1400.29 491.385 1406.05 492.147 1429.1 495.271 1450.78 507.094 1465.22 524.802 1479.81 542.326 1486.81 565.687 1483.82 587.194 1482.3 576.465 1479.26 566.284 1474.73 556.981 1470.17 547.7 1464.17 539.313 1457.01 532.207 1442.75 518.025 1424 508.556 1404.33 506.916 1394.39 505.952 1385.02 507.084 1375.71 510.157 1366.48 513.259 1357.59 517.837 1349.44 523.514 1341.29 529.179 1333.79 535.858 1327.28 543.286 1320.81 550.724 1315.34 558.958 1311.63 567.609L1308.21 557.09 1308.21 557.091C1309.62 557.927 1310.72 558.576 1311.89 559.368 1313.05 560.122 1314.17 560.904 1315.27 561.71 1317.48 563.295 1319.59 564.994 1321.68 566.705 1325.82 570.175 1329.72 573.889 1333.45 577.768 1337.13 581.685 1340.66 585.736 1343.96 589.975 1347.27 594.196 1350.47 598.486 1353.44 602.931 1356.39 607.397 1359.2 611.932 1361.8 616.576 1364.33 621.271 1366.79 625.975 1368.9 630.843 1371.02 635.698 1372.98 640.605 1374.56 645.636 1376.24 650.622 1377.58 655.702 1378.69 660.798M1050 916.535C1041.04 916.481 1032.06 915.716 1023.11 913.975 1014.18 912.196 1005.23 909.559 996.605 904.789 992.304 902.423 988.114 899.341 984.414 895.312 982.573 893.284 980.908 890.949 979.523 888.384 978.123 885.822 977.141 882.927 976.567 879.991 975.972 877.043 975.918 874.023 976.232 871.168 976.316 870.489 976.39 869.658 976.501 869.106L976.822 867.343C977.045 866.18 977.301 865.066 977.549 863.935 978.595 859.488 979.85 855.237 981.224 851.038 986.84 834.342 994.135 818.396 1004.08 803.505 1006.54 799.777 1009.27 796.164 1012.24 792.68 1015.2 789.193 1018.46 785.852 1022.18 782.829 1025.87 779.807 1030 777.062 1034.69 775.025 1039.35 772.983 1044.64 771.727 1050 771.745787 1055.36 771.727 1060.65 772.983 1065.31 775.025 1070 777.062 1074.13 779.807 1077.82 782.829 1081.53 785.852 1084.8 789.193 1087.75 792.68 1090.73 796.164 1093.46 799.777 1095.92 803.505 1105.86 818.396 1113.16 834.342 1118.77 851.038 1120.15 855.237 1121.4 859.488 1122.45 863.935 1122.7 865.066 1122.95 866.18 1123.18 867.343L1123.5 869.106C1123.61 869.658 1123.68 870.489 1123.77 871.168 1124.08 874.023 1124.03 877.043 1123.43 879.991 1122.86 882.927 1121.88 885.822 1120.48 888.384 1119.09 890.949 1117.43 893.284 1115.59 895.312 1111.88 899.341 1107.7 902.423 1103.39 904.789 1094.77 909.559 1085.82 912.196 1076.88 913.975 1067.94 915.716 1058.96 916.481 1050 916.535M1050 898.197914C1057.92 898.225 1065.84 897.611 1073.48 896.195 1081.1 894.781 1088.54 892.546 1094.74 889.164 1097.84 887.489 1100.55 885.527 1102.62 883.389 1104.65 881.223 1105.96 878.981 1106.46 876.613 1106.75 875.43 1106.8 874.177 1106.69 872.841 1106.65 872.473 1106.67 872.247 1106.58 871.76L1106.37 870.403C1106.22 869.491 1106.03 868.542 1105.85 867.606 1105.05 863.814 1104.01 859.932 1102.85 856.081 1100.49 848.373 1097.65 840.722 1094.35 833.332 1091.05 825.943 1087.33 818.742 1082.98 812.106 1080.82 808.772 1078.47 805.622 1076 802.659 1073.53 799.686 1070.88 796.945 1068.06 794.614 1062.45 789.892 1056.18 786.823 1050 786.811 1043.82 786.823 1037.55 789.892 1031.94 794.614 1029.12 796.945 1026.47 799.686 1024 802.659 1021.52 805.622 1019.18 808.772 1017.02 812.106 1012.67 818.742 1008.95 825.943 1005.65 833.332 1002.35 840.722 999.508 848.373 997.146 856.081 995.985 859.932 994.949 863.814 994.153 867.606 993.974 868.542 993.779 869.491 993.627 870.403L993.414 871.76C993.328 872.247 993.353 872.473 993.307 872.841 993.198 874.177 993.251 875.43 993.544 876.613 994.041 878.981 995.346 881.223 997.378 883.389 999.446 885.527 1002.16 887.489 1005.26 889.164 1011.46 892.546 1018.9 894.781 1026.52 896.195 1034.16 897.611 1042.08 898.225 1050 898.197914"/>
    <path fill="#000038" d="M1157.88,490.18 C1176.01,494.12 1193.93,499.223 1211.41,505.641 C1220.14,508.865 1228.77,512.416 1237.25,516.303 L1243.58,519.283 C1245.68,520.344 1247.91,521.379 1249.91,522.464 L1262,528.948 L1249.11,533.731 C1258.73,509.02 1275,487.021 1295.75,470.573 C1316.41,453.964 1341.82,443.491 1368.03,439.945 L1372.97,439.366 C1374.61,439.176 1376.25,438.948 1377.91,438.931 L1387.82,438.552 C1394.43,438.678 1401.06,438.93 1407.62,439.904 C1420.76,441.563 1433.62,445.243 1445.84,450.323 C1470.24,460.697 1491.7,477.715 1507.43,499.019 C1523.23,520.295 1533,545.946 1535.66,572.298 C1538.24,598.625 1533.81,625.683 1522.59,649.719 C1511.46,673.779 1493.69,694.651 1471.86,709.628 C1450.05,724.665 1424.11,733.646 1397.68,735.378 L1406.03,724.261 C1411.64,749.04 1414.41,774.541 1414.79,799.891 C1414.93,806.236 1414.7,812.572 1414.6,818.912 C1414.6,822.082 1414.36,825.253 1414.18,828.424 L1413.62,837.937 C1412.44,850.603 1411.03,863.283 1408.44,875.818 C1406.16,888.396 1402.66,900.777 1398.67,912.983 C1396.43,919.015 1394.4,925.121 1391.69,930.984 C1390.36,933.923 1389.23,936.943 1387.74,939.81 L1383.38,948.455 C1377.2,959.783 1370.42,970.869 1362.33,980.981 L1359.38,984.829 C1358.39,986.115 1357.27,987.286 1356.23,988.52 L1349.84,995.827 C1347.61,998.161 1345.31,1000.43 1343.04,1002.73 L1339.62,1006.17 L1336.01,1009.4 L1328.77,1015.84 L1321.17,1021.81 L1317.36,1024.79 L1313.4,1027.55 L1305.46,1033.05 C1302.76,1034.79 1299.99,1036.41 1297.26,1038.09 C1294.51,1039.75 1291.81,1041.5 1288.95,1042.95 C1283.3,1045.95 1277.7,1049.1 1271.86,1051.69 C1248.73,1062.62 1224.47,1070.66 1199.86,1076.58 C1175.23,1082.49 1150.24,1086.32 1125.21,1088.74 C1100.16,1091.15 1075.06,1092.16 1050,1092.25 C1024.94,1092.16 999.837,1091.15 974.794,1088.74 C949.76,1086.32 924.769,1082.49 900.142,1076.58 C875.534,1070.66 851.27,1062.62 828.144,1051.69 C822.297,1049.1 816.704,1045.95 811.05,1042.95 C808.191,1041.5 805.489,1039.75 802.74,1038.09 C800.007,1036.41 797.236,1034.79 794.536,1033.05 L786.598,1027.55 L782.639,1024.79 L778.832,1021.81 L771.228,1015.84 L763.989,1009.4 L760.378,1006.17 L756.962,1002.73 C754.693,1000.43 752.391,998.161 750.156,995.827 L743.77,988.52 C742.726,987.286 741.606,986.115 740.624,984.829 L737.667,980.981 C729.575,970.869 722.799,959.783 716.622,948.455 L712.257,939.81 C710.768,936.943 709.634,933.923 708.309,930.984 C705.603,925.121 703.572,919.015 701.329,912.983 C697.337,900.777 693.844,888.396 691.554,875.818 C688.973,863.283 687.562,850.603 686.377,837.937 L685.817,828.424 C685.635,825.253 685.403,822.082 685.394,818.912 C685.3,812.572 685.066,806.236 685.206,799.891 C685.586,774.541 688.356,749.04 693.967,724.261 L702.323,735.378 C675.892,733.646 649.949,724.665 628.143,709.628 C606.306,694.651 588.543,673.779 577.407,649.719 C566.193,625.683 561.762,598.625 564.345,572.298 C566.995,545.946 576.774,520.295 592.568,499.019 C608.299,477.715 629.756,460.697 654.155,450.323 C666.379,445.243 679.237,441.563 692.383,439.904 C698.939,438.93 705.567,438.678 712.175,438.552 L722.092,438.931 C723.749,438.948 725.39,439.176 727.035,439.366 L731.967,439.945 C758.179,443.491 783.586,453.964 804.248,470.573 C825,487.021 841.273,509.02 850.889,533.731 L838,528.948 L851.273,521.832 L855.962,519.509 C862.107,516.525 868.329,513.708 874.632,511.1 C887.23,505.861 900.113,501.375 913.166,497.544 L913.195,497.535 L909.251,499.887 C913.494,495.839 917.609,492.293 921.869,488.632 C926.097,485.003 930.433,481.508 934.818,478.063 C939.195,474.611 943.68,471.278 948.275,468.071 C952.869,464.866 957.526,461.712 962.363,458.778 C972.016,452.897 982.16,447.49 993.413,443.641 C999.007,441.684 1004.99,440.286 1011.27,439.657 C1017.53,439.042 1024.21,439.311 1030.79,441.203 C1032.41,441.72 1034.02,442.336 1035.63,442.928 C1037.23,443.517 1038.71,444.454 1040.23,445.232 C1043.27,446.86 1046.09,449.106 1048.71,451.581 C1053.83,456.733 1057.49,463.76 1058.48,470.918 C1059.57,478.082 1058.52,485.154 1056.12,491.358 C1053.73,497.588 1050.17,503.147 1045.75,507.743 C1036.93,516.984 1024.99,522.489 1013.1,523.722 C1007.15,524.373 1001.22,524.054 995.59,522.849 C989.966,521.61 984.638,519.609 979.752,516.95 C985.341,517.152 990.727,517.153 995.945,516.602 C1001.16,516.063 1006.15,514.886 1010.81,513.251 C1020.12,509.936 1028.06,504.289 1033.55,497.132 C1039,490.059 1041.87,481.153 1040.36,473.982 C1039.7,470.384 1037.94,467.414 1035.49,464.812 C1032.92,462.323 1029.28,460.312 1025.49,459.038 C1017.73,456.691 1008.18,457.542 998.801,460.429 C994.101,461.884 989.385,463.649 984.785,465.894 C980.172,468.083 975.599,470.493 971.175,473.242 C962.253,478.601 953.745,484.866 945.539,491.509 C941.436,494.837 937.447,498.318 933.528,501.864 C929.649,505.389 925.755,509.183 922.289,512.783 L920.702,514.432 L918.346,515.136 L918.317,515.144 C905.867,518.8 893.613,523.067 881.668,528.036 C875.69,530.509 869.799,533.176 863.99,535.997 L859.746,538.096 L837.547,550 L833.778,540.326 C825.345,518.692 811.073,499.39 792.873,484.957 C774.752,470.369 752.507,461.245 729.546,458.123 L725.222,457.615 C723.781,457.446 722.343,457.234 720.887,457.232 L712.178,456.89 C706.373,457.016 700.552,457.217 694.808,458.082 C683.283,459.524 672.035,462.766 661.324,467.203 C639.958,476.288 621.124,491.224 607.325,509.907 C593.469,528.573 584.931,551.012 582.593,574.109 C580.336,597.248 584.218,620.938 594.035,641.984 C603.784,663.059 619.38,681.383 638.529,694.514 C657.659,707.698 680.338,715.548 703.523,717.079 L714.237,717.786 L711.879,728.197 C706.527,751.822 703.914,775.918 703.542,800.169 C703.408,806.228 703.637,812.293 703.725,818.355 C703.729,821.392 703.955,824.408 704.128,827.43 L704.659,836.492 C705.792,848.517 707.121,860.535 709.555,872.309 C711.701,884.152 714.982,895.699 718.684,907.062 C720.777,912.651 722.647,918.338 725.158,923.743 C726.386,926.455 727.423,929.262 728.801,931.899 L732.823,939.864 C738.52,950.285 744.719,960.471 752.153,969.733 L754.859,973.268 C755.755,974.449 756.791,975.518 757.75,976.65 L763.604,983.358 C765.661,985.5 767.78,987.582 769.862,989.699 L772.996,992.866 L776.326,995.833 L782.99,1001.76 L790.02,1007.28 L793.533,1010.04 L797.209,1012.6 L804.57,1017.69 C807.081,1019.31 809.669,1020.82 812.214,1022.39 C814.776,1023.94 817.282,1025.57 819.967,1026.92 C825.265,1029.73 830.483,1032.69 835.997,1035.11 C857.741,1045.39 880.815,1053.07 904.428,1058.75 C951.75,1070.06 1000.95,1073.69 1050,1073.91 C1099.05,1073.69 1148.25,1070.06 1195.57,1058.75 C1219.18,1053.07 1242.26,1045.39 1264,1035.11 C1269.52,1032.69 1274.73,1029.73 1280.03,1026.92 C1282.72,1025.57 1285.22,1023.94 1287.79,1022.39 C1290.33,1020.82 1292.92,1019.31 1295.43,1017.69 L1302.79,1012.6 L1306.47,1010.04 L1309.98,1007.28 L1317.01,1001.76 L1323.67,995.833 L1327,992.866 L1330.14,989.699 C1332.22,987.582 1334.34,985.5 1336.4,983.358 L1342.25,976.65 C1343.21,975.518 1344.24,974.449 1345.14,973.268 L1347.85,969.733 C1355.28,960.471 1361.48,950.285 1367.18,939.864 L1371.2,931.899 C1372.58,929.262 1373.61,926.455 1374.84,923.743 C1377.35,918.338 1379.22,912.651 1381.31,907.062 C1385.02,895.699 1388.3,884.152 1390.45,872.309 C1392.88,860.535 1394.21,848.517 1395.34,836.492 L1395.87,827.43 C1396.05,824.408 1396.27,821.392 1396.27,818.355 C1396.36,812.293 1396.59,806.228 1396.46,800.169 C1396.09,775.918 1393.47,751.822 1388.12,728.197 L1385.76,717.786 L1396.48,717.079 C1419.66,715.548 1442.34,707.698 1461.47,694.514 C1480.62,681.383 1496.22,663.059 1505.96,641.984 C1515.78,620.938 1519.66,597.248 1517.41,574.109 C1515.07,551.012 1506.53,528.573 1492.67,509.907 C1478.88,491.224 1460.04,476.288 1438.68,467.203 C1427.96,462.766 1416.72,459.524 1405.19,458.082 C1399.45,457.217 1393.63,457.016 1387.82,456.89 L1379.11,457.232 C1377.66,457.234 1376.22,457.446 1374.78,457.615 L1370.45,458.123 C1347.49,461.245 1325.25,470.369 1307.13,484.957 C1288.93,499.39 1274.65,518.692 1266.22,540.326 L1262.45,550 L1241.42,538.721 C1239.43,537.639 1237.53,536.773 1235.58,535.786 L1229.59,532.967 C1221.56,529.286 1213.38,525.916 1205.08,522.851 C1188.46,516.752 1171.36,511.877 1154,508.103 L1157.88,490.18"/>
    <path fill="#000038" d="M1039.31 488.069C1041.34 486.46 1043.14 485.174 1045.07 483.797 1046.98 482.445 1048.93 481.188 1050.88 479.925 1054.78 477.388 1058.83 475.102 1062.94 472.879 1067.04 470.64 1071.3 468.651 1075.65 466.789 1080 464.929 1084.44 463.195 1089.08 461.813 1098.3 458.985 1108.17 457.052 1118.75 457.486 1124.02 457.777 1129.46 458.664 1134.77 460.55 1140.06 462.528 1145.1 465.536 1149.31 469.347 1150.33 470.334 1151.38 471.298 1152.33 472.327L1154.97 475.563C1156.66 477.755 1158.09 480.047 1159.39 482.575 1161.96 487.566 1163.62 493.629 1163.27 499.82 1162.99 506.018 1160.52 511.93 1157.12 516.438 1153.7 520.982 1149.44 524.36 1145.05 526.957 1136.14 532.04 1126.52 534.133 1117.17 534.624 1107.79 535.054 1098.54 533.701 1090 530.782 1099.02 530.419 1107.75 529.355 1115.92 526.916 1124.06 524.535 1131.69 520.883 1137.57 516.012 1140.49 513.591 1142.82 510.781 1144.39 507.966 1145.11 506.536 1145.72 505.117 1145.98 503.709 1146.34 502.315 1146.4 500.937 1146.3 499.577 1146.03 496.872 1145.14 494.115 1143.33 491.384 1142.46 490.041 1141.43 488.612 1140.29 487.388L1138.57 485.584C1137.96 485.037 1137.3 484.567 1136.7 484.042 1126.88 475.964 1110.71 477.458 1095.34 482.192 1087.59 484.565 1079.83 487.715 1072.21 491.319 1068.39 493.088 1064.63 495.045 1060.86 496.991 1058.98 497.974 1057.12 499.002 1055.26 500.021L1049.88 503.056 1039.31 488.069M1293.13 873.366L1283.96 873.366 1283.96 857.621C1283.96 855.484 1283.7 853.377 1283.17 851.36L1292.05 849.065C1292.77 851.833 1293.13 854.711 1293.13 857.621L1293.13 873.366"/>
    <path fill="#4ED8C7" d="M1212.96,893.596 C1209.64,891.616 1207.53,887.886 1207.82,883.767 C1208.23,877.938 1213.28,873.54 1219.11,873.947 C1316.09,880.714 1402.87,754.272 1403.74,752.994 C1407.02,748.154 1413.61,746.878 1418.43,750.164 C1423.28,753.44 1424.54,760.02 1421.27,764.858 C1417.45,770.489 1326.65,902.666 1217.64,895.06 C1215.93,894.94 1214.34,894.42 1212.96,893.596"/>
    <path fill="#000038" d="M1222.64,890.729 C1326.6,894.063 1413.66,767.904 1417.47,762.298 C1419.32,759.55 1418.6,755.809 1415.86,753.955 C1414.55,753.06 1412.96,752.734 1411.38,753.036 C1409.8,753.34 1408.43,754.238 1407.53,755.567 C1406.7,756.787 1324.54,876.551 1229.35,878.744 C1228.7,880.329 1227.92,881.878 1227.03,883.374 L1222.64,890.729 M1226.64,899.961 C1223.54,899.961 1220.43,899.856 1217.3,899.636 C1216.04,899.543 1214.8,899.296 1213.6,898.903 L1208.15,897.115 L1219.16,878.676 C1220.26,876.834 1221.11,874.891 1221.69,872.899 L1222.66,869.583 L1226.12,869.602 C1226.32,869.604 1226.53,869.605 1226.73,869.605 C1318.13,869.605 1399.13,751.618 1399.94,750.424 C1402.21,747.067 1405.66,744.798 1409.64,744.032 C1413.63,743.265 1417.66,744.094 1421.01,746.367 C1427.92,751.05 1429.74,760.497 1425.08,767.425 L1425.06,767.442 C1421.28,773.001 1333.68,899.961 1226.64,899.961"/>
    <path fill="#4ED8C7" d="M1247.52,992.984 C1243.98,990.847 1241.71,986.919 1241.96,982.642 C1242.32,976.591 1247.62,972.138 1253.8,972.696 C1355.18,981.875 1388.42,929.9 1389.78,927.682 C1392.92,922.59 1399.75,921.047 1405.07,924.259 L1405.09,924.269 C1410.41,927.496 1412.24,934.22 1409.17,939.358 C1407.57,942.049 1368.47,1005.11 1252.49,994.615 C1250.68,994.451 1248.99,993.872 1247.52,992.984"/>
    <path fill="#000038" d="M1277.65,1000.37 C1269.56,1000.37 1261.05,999.996 1252.08,999.183 C1249.69,998.955 1247.45,998.232 1245.4,997.033 L1250.03,989.122 C1250.92,989.642 1251.9,989.955 1252.93,990.054 C1365.7,1000.26 1403.69,939.58 1405.25,936.992 C1406.99,934.069 1405.86,930.106 1402.71,928.192 C1399.54,926.28 1395.5,927.14 1393.69,930.096 C1392.39,932.206 1360.86,981.516 1268.24,978.2 L1268.57,969.036 C1355.99,972.182 1384.7,927.204 1385.88,925.288 C1390.32,918.063 1399.99,915.837 1407.45,920.339 C1414.9,924.876 1417.43,934.449 1413.12,941.703 C1411.55,944.307 1376.47,1000.37 1277.65,1000.37"/>
    <path fill="#4ED8C7" d="M889.77,889.929 C893.088,887.948 895.196,884.218 894.909,880.099 C894.502,874.27 889.446,869.873 883.617,870.279 C786.635,877.047 699.853,750.605 698.988,749.326 C695.711,744.487 689.113,743.211 684.293,746.497 C679.453,749.772 678.186,756.352 681.462,761.191 C685.274,766.821 776.077,898.999 885.09,891.392 C886.802,891.272 888.39,890.752 889.77,889.929"/>
    <path fill="#000038" d="M685.252,758.628 C689.005,764.145 773.906,887.126 876.018,887.126 C877.372,887.126 878.728,887.104 880.085,887.061 L875.698,879.708 C874.805,878.214 874.032,876.665 873.382,875.076 C778.007,872.913 696.02,753.116 695.193,751.892 C694.298,750.571 692.931,749.672 691.353,749.368 C689.774,749.066 688.183,749.392 686.862,750.287 C684.13,752.14 683.411,755.879 685.252,758.628 M876.101,896.292 C769.038,896.292 681.444,769.333 677.664,763.775 L677.651,763.756 C672.989,756.827 674.813,747.381 681.715,742.699 C685.062,740.428 689.104,739.598 693.083,740.364 C697.066,741.13 700.512,743.399 702.788,746.753 C703.601,747.954 784.522,865.937 875.995,865.937 C876.203,865.937 876.403,865.936 876.611,865.935 L880.067,865.915 L881.038,869.232 C881.622,871.227 882.475,873.171 883.57,875.009 L894.577,893.447 L889.133,895.234 C887.933,895.629 886.69,895.875 885.442,895.967 C882.317,896.186 879.194,896.292 876.101,896.292"/>
    <path fill="#4ED8C7" d="M855.207,989.316 C858.744,987.18 861.022,983.251 860.769,978.975 C860.41,972.923 855.11,968.47 848.933,969.029 C747.549,978.207 714.311,926.231 712.946,924.015 C709.81,918.923 702.974,917.379 697.656,920.591 L697.638,920.601 C692.318,923.829 690.485,930.552 693.555,935.69 C695.163,938.381 734.255,1001.45 850.234,990.947 C852.048,990.783 853.736,990.204 855.207,989.316"/>
    <path fill="#000038" d="M825.087,996.701 C726.24,996.709 691.18,940.642 689.623,938.063 C685.3,930.783 687.83,921.209 695.249,916.692 C702.733,912.172 712.408,914.395 716.852,921.63 C718.03,923.539 746.731,968.5 834.156,965.368 L834.482,974.532 C741.91,977.849 710.338,928.536 709.044,926.436 C707.22,923.47 703.175,922.612 700.021,924.521 C696.869,926.439 695.737,930.4 697.491,933.353 C699.036,935.913 737.06,996.597 849.816,986.384 C850.831,986.287 851.808,985.974 852.694,985.455 L857.329,993.365 C855.281,994.565 853.039,995.288 850.663,995.514 C841.707,996.325 833.175,996.701 825.087,996.701"/>
    <path fill="#4ED8C7" d="M1288.54,857.624 L1288.54,895.147 C1288.54,917.56 1284.75,939.062 1277.75,959.083 L1277.75,959.105 C1251.31,1034.87 1179.23,1089.24 1094.45,1089.24 L1012.59,1089.24 C927.7,1089.24 855.531,1034.74 829.203,958.829 C822.261,938.892 818.494,917.454 818.494,895.147 L818.494,857.624 C818.494,841.031 831.955,827.593 848.547,827.593 L1258.51,827.593 C1268.99,827.593 1278.21,832.968 1283.57,841.095 C1286.72,845.836 1288.54,851.508 1288.54,857.624"/>
    <path fill="#85E4D8" d="M1053.52 887.454C1023.59 887.439 993.661 887.099 963.729 886.151 933.797 885.277 903.864 883.991 873.931 881.52 903.861 879.008 933.792 877.683 963.723 876.767 993.654 875.779 1023.58 875.398 1053.52 875.343 1054.93 875.341 1056.34 875.34 1057.76 875.34 1086.28 875.34 1114.79 875.693 1143.31 876.587 1173.25 877.45 1203.18 878.756 1233.11 881.277 1203.18 883.838 1173.25 885.185 1143.32 886.089 1113.39 887.067 1083.46 887.449 1053.52 887.454M1054.1 930.688C1053.9 930.688 1053.72 930.688 1053.52 930.688 1025.93 930.664 998.347 930.313 970.758 929.356 943.169 928.471 915.581 927.176 887.991 924.695 915.579 922.193 943.166 920.878 970.755 919.972 998.343 918.994 1025.93 918.622 1053.52 918.577 1054.48 918.576 1055.45 918.576 1056.41 918.576 1083.04 918.576 1109.66 918.936 1136.28 919.851 1163.87 920.724 1191.46 922.04 1219.05 924.57 1191.46 927.122 1163.88 928.458 1136.29 929.352 1108.89 930.313 1081.49 930.688 1054.1 930.688M1054.24 973.847C1054 973.847 1053.76 973.847 1053.52 973.847 1030.48 973.819 1007.43 973.466 984.381 972.506 961.334 971.618 938.286 970.32 915.239 967.837 938.284 965.338 961.331 964.024 984.378 963.122 1007.42 962.146 1030.47 961.777 1053.52 961.735 1054.22 961.735 1054.92 961.734 1055.61 961.734 1077.96 961.734 1100.31 962.096 1122.66 963.016 1145.71 963.893 1168.76 965.212 1191.8 967.745 1168.76 970.294 1145.71 971.628 1122.66 972.52 1099.86 973.474 1077.05 973.847 1054.24 973.847M1054.87 1022.45C1054.42 1022.45 1053.97 1022.45 1053.52 1022.45 1033.13 1022.45 1012.75 1022.04 992.357 1021.16 971.967 1020.23 951.578 1018.94 931.188 1016.46 951.575 1013.96 971.964 1012.65 992.352 1011.7 1012.74 1010.8 1033.13 1010.37 1053.52 1010.34 1054.44 1010.34 1055.36 1010.34 1056.28 1010.34 1075.75 1010.34 1095.22 1010.74 1114.69 1011.58 1135.07 1012.5 1155.46 1013.81 1175.85 1016.34 1155.47 1018.89 1135.08 1020.21 1114.69 1021.15 1094.75 1022.03 1074.81 1022.45 1054.87 1022.45"/>
    <path fill="#3AA2A3" d="M1094.45,1089.24 L1012.59,1089.24 C942.269,1089.24 880.675,1051.84 846.639,995.851 C844.876,992.951 843.193,990.011 841.58,987.014 C838.986,982.192 836.586,977.239 834.399,972.183 C833.436,969.957 832.515,967.714 831.634,965.445 C830.785,963.259 829.974,961.053 829.203,958.829 C829.33,958.787 829.393,958.766 829.393,958.766 C829.393,958.766 876.843,1053.5 1053.48,1053.5 C1230.11,1053.5 1277.66,958.766 1277.66,958.766 C1277.66,958.766 1277.69,958.871 1277.75,959.083 L1277.75,959.105 C1276.56,962.503 1275.28,965.861 1273.92,969.17 C1272.65,972.237 1271.31,975.268 1269.89,978.254 C1267.86,982.528 1265.68,986.716 1263.36,990.811 C1261.65,993.814 1259.88,996.762 1258.02,999.663 C1223.53,1053.53 1163.16,1089.24 1094.45,1089.24"/>
    <path fill="#7AE2D5" d="M1288.54,857.624 L818.494,857.624 C818.494,841.031 831.955,827.593 848.547,827.593 L1258.51,827.593 C1268.99,827.593 1278.21,832.968 1283.57,841.095 C1286.47,850.471 1288.54,857.624 1288.54,857.624"/>
    <path fill="#000038" d="M1258.45,832.174 L848.53,832.174 C836.877,832.174 826.737,840.048 823.873,851.32 C823.347,853.355 823.082,855.468 823.082,857.621 L823.082,895.145 C823.082,907.34 824.242,919.5 826.531,931.285 C828.238,940.15 830.587,948.883 833.512,957.249 C859.927,1033.46 931.892,1084.65 1012.59,1084.65 L1094.45,1084.65 C1175.17,1084.65 1247.13,1033.45 1273.52,957.241 C1276.45,948.869 1278.8,940.143 1280.51,931.29 C1282.8,919.509 1283.96,907.35 1283.96,895.145 C1283.8,887.884 1283.8,880.488 1283.96,873.264 C1284.02,870.438 1284.1,868.046 1284.17,865.976 C1284.42,858.254 1284.51,855.652 1283.24,851.581 C1282.38,848.85 1280.38,842.456 1274.25,837.621 C1268.38,832.989 1261.83,832.22 1258.45,832.174 Z M1094.45,1093.82 L1012.59,1093.82 C927.988,1093.82 852.542,1040.15 824.853,960.265 C821.785,951.49 819.319,942.322 817.528,933.025 C815.13,920.673 813.912,907.926 813.912,895.145 L813.912,857.621 C813.912,854.692 814.276,851.807 814.992,849.042 C818.884,833.721 832.677,823.005 848.53,823.005 L1258.51,823.005 C1263.12,823.067 1271.93,824.114 1279.93,830.421 C1288.29,837.011 1290.98,845.606 1291.99,848.844 L1291.99,848.846 C1293.73,854.4 1293.6,858.122 1293.33,866.276 C1293.27,868.319 1293.19,870.681 1293.13,873.469 C1292.97,880.559 1292.97,887.817 1293.13,895.044 C1293.13,907.936 1291.91,920.683 1289.51,933.034 C1287.72,942.317 1285.25,951.478 1282.18,960.254 C1254.52,1040.14 1179.07,1093.82 1094.45,1093.82 L1094.45,1093.82 Z"/>
  </g>
</svg>
