<svg xmlns="http://www.w3.org/2000/svg" width="4000" height="4000" viewBox="0 0 4000 4000">
  <g fill="none" fill-rule="evenodd">
    <polygon fill="#C287FA" points=".06 4000 4000 4000 4000 .04 .06 .04"/>
    <path fill="#9E74DE" d="M1997.72,3421.24 C1404.01,3421.24 922.72,3381.84 922.72,3333.24 C922.72,3310.07 1032.19,3288.98 1211.08,3273.27 C1224.79,3294.41 1240.92,3313.59 1259.89,3329.9 L1458.52,3329.9 C1482.99,3308.86 1502.73,3283.06 1518.64,3254.45 C1538.38,3253.64 1558.46,3252.88 1578.86,3252.18 C1569.06,3269.07 1562.8,3288.53 1560.28,3310.26 C1559.1,3320.49 1565.8,3329.98 1575.84,3332.29 C1577.67,3332.71 1621.69,3342.65 1711.86,3346.36 C1731.41,3347.17 1754.14,3347.7 1780.02,3347.7 C1855.63,3347.7 1958.14,3343.14 2086.87,3327.42 C2166.44,3341.36 2232.69,3341.47 2265.1,3341.47 C2265.37,3341.47 2265.64,3341.47 2265.91,3341.47 L2266.66,3341.47 C2278.14,3341.47 2292.48,3341.73 2309.08,3342.03 C2331.67,3342.43 2358.55,3342.91 2388.26,3342.91 C2463.92,3342.91 2557.9,3339.79 2645.95,3324.34 C2709.44,3313.2 2763.27,3296.7 2806.22,3275.25 C2972.14,3290.73 3072.72,3311.03 3072.72,3333.24 C3072.72,3381.84 2591.43,3421.24 1997.72,3421.24"/>
    <path fill="#FFAC32" d="M1618.12,2807.68 C1618.12,2807.68 1467.67,2849.99 1308.42,2807.68 C1149.18,2765.31 1093.92,2567.29 1168.69,2440.95 C1174.05,2431.9 1179.96,2423.46 1186.39,2415.63 C1269.24,2313.91 1430.76,2312.29 1438.3,2385.04 C1444.92,2448.64 1399.42,2473.51 1399.42,2473.51 C1402.81,2475.48 1406.25,2477.25 1409.73,2478.92 C1499.72,2522.14 1618.12,2473.51 1618.12,2473.51 C1635.86,2529.58 1644.05,2579.67 1646.58,2622.95 C1653.41,2740.49 1618.12,2807.68 1618.12,2807.68"/>
    <path fill="#9E74DE" d="M1445.84,2470.62 C1442.44,2469.74 1439.05,2468.75 1435.7,2467.64 C1444.55,2456.51 1453.14,2441.16 1457.03,2420.99 C1473.02,2430.64 1489.59,2439.81 1506.7,2448.45 L1513.78,2455.01 L1445.84,2470.62"/>
    <path fill="#CF913E" d="M1500.67,2804.93 C1494.95,2802.12 1489.05,2799.54 1482.99,2797.18 L1482.99,2758.13 C1482.99,2724.07 1458.45,2695.62 1426.11,2689.55 L1426.11,2669.98 C1434.35,2670.91 1442.84,2671.35 1451.49,2671.35 C1494.15,2671.35 1541.09,2660.71 1585.83,2645.88 C1583.14,2697.91 1583.99,2747.18 1588.38,2793.73 C1568.63,2797.65 1537.99,2802.62 1500.67,2804.93 M1238.29,2749.8 C1211.09,2727.58 1189.4,2697.88 1174.77,2662.11 C1146.16,2592.17 1150.49,2511.37 1186.07,2451.24 C1191.15,2442.66 1196.74,2434.73 1202.74,2427.42 C1225.88,2441.61 1250.79,2447.09 1275.41,2447.09 C1333.43,2447.09 1389.97,2416.73 1418.72,2398.49 C1418.17,2437.99 1391.9,2454.47 1389.62,2455.82 C1383.11,2459.23 1379.16,2465.8 1378.99,2473.16 C1378.91,2476.61 1379.76,2479.93 1381.34,2482.86 C1378.86,2483.4 1376.35,2484.01 1373.83,2484.69 C1364.82,2487.11 1356.08,2489.96 1347.68,2493.18 L1299.53,2504.25 C1299.63,2508.94 1299.82,2513.52 1300.09,2517.98 C1278.22,2533.11 1262.06,2551.07 1254.52,2569.77 C1252.68,2574.36 1251.43,2578.86 1250.78,2583.22 C1249.4,2581.63 1248.09,2579.86 1246.86,2577.93 C1243.83,2589.37 1244.84,2600.23 1250.44,2609.52 C1256.59,2619.73 1264.59,2625.29 1273.75,2627.59 C1279.21,2630.12 1285.4,2631.38 1292.36,2631.38 C1295.82,2631.38 1299.48,2631.07 1303.34,2630.45 L1303.34,2688.48 C1269.61,2690.51 1242.26,2716.62 1238.29,2749.8"/>
    <path fill="#102770" d="M1355.26,2354.66 C1302.8,2354.66 1227.39,2381.41 1186.07,2451.24 C1150.49,2511.37 1146.16,2592.17 1174.77,2662.11 C1201.15,2726.58 1250.45,2771.34 1313.61,2788.13 C1444.12,2822.83 1569.73,2798.35 1603.71,2790.43 C1608.71,2778.19 1617.91,2751.9 1623.18,2713.72 C1629.62,2667.04 1631.25,2593.1 1604.85,2499.61 C1562.71,2512.86 1465.76,2535.14 1389.31,2491.03 C1382.9,2487.34 1378.82,2480.55 1378.99,2473.16 C1379.16,2465.8 1383.11,2459.23 1389.62,2455.82 C1392.11,2454.34 1423.15,2434.87 1418.19,2387.13 C1416.17,2367.7 1394.24,2360.06 1381.35,2357.24 C1373.65,2355.56 1364.84,2354.66 1355.26,2354.66 M1460.02,2846.66 C1413.74,2846.66 1359.08,2842.07 1303.22,2827.21 C1264.24,2816.85 1229.65,2797.68 1200.41,2770.23 C1173.36,2744.82 1152.14,2713.6 1137.34,2677.42 C1104.03,2596.01 1109.37,2501.45 1151.27,2430.65 C1183.69,2375.86 1230.92,2347.36 1264.83,2333.1 C1307.34,2315.23 1352.96,2309.63 1390,2317.73 C1430.09,2326.5 1455.03,2350.28 1458.42,2382.95 C1462.56,2422.86 1449.45,2450.34 1435.7,2467.64 C1513.92,2493.49 1609.41,2455.24 1610.48,2454.8 C1615.71,2452.67 1621.6,2452.81 1626.72,2455.21 C1631.83,2457.61 1635.72,2462.03 1637.42,2467.41 C1672.66,2578.75 1670.73,2667.12 1662.91,2721.65 C1654.26,2781.88 1636.79,2815.66 1636.05,2817.07 C1633.46,2821.99 1628.97,2825.63 1623.62,2827.14 C1622.01,2827.59 1583.54,2838.29 1524.85,2843.69 C1506.24,2845.4 1484.28,2846.66 1460.02,2846.66"/>
    <path fill="#102770" d="M1408.04,2491.56 C1406.94,2492.25 1406.16,2492.75 1405.24,2493.3 C1404.36,2493.81 1403.47,2494.34 1402.59,2494.82 C1400.83,2495.82 1399.06,2496.75 1397.27,2497.65 C1393.72,2499.47 1390.1,2501.06 1386.46,2502.63 C1379.17,2505.7 1371.7,2508.3 1364.12,2510.53 C1348.96,2515.05 1333.22,2517.73 1317.37,2519.34 C1313.39,2519.7 1309.44,2520.09 1305.43,2520.24 C1303.43,2520.32 1301.45,2520.47 1299.44,2520.5 L1293.45,2520.59 C1289.43,2520.56 1285.45,2520.56 1281.43,2520.3 C1279.42,2520.17 1277.44,2520.14 1275.43,2519.92 L1269.44,2519.35 C1261.46,2518.4 1253.53,2517.05 1245.79,2515 C1238.04,2512.9 1230.48,2510.21 1223.39,2506.68 C1221.94,2505.96 1221.34,2504.19 1222.07,2502.74 C1222.56,2501.75 1223.54,2501.16 1224.57,2501.11 L1224.65,2501.11 C1232.28,2500.78 1239.67,2500.18 1246.94,2499.27 C1254.22,2498.28 1261.38,2497.01 1268.45,2495.52 C1275.53,2494 1282.51,2492.19 1289.44,2490.3 C1292.9,2489.27 1296.35,2488.32 1299.79,2487.23 C1301.51,2486.72 1303.22,2486.17 1304.93,2485.61 C1306.64,2485.05 1308.35,2484.53 1310.05,2483.95 L1320.24,2480.43 C1321.93,2479.85 1323.62,2479.22 1325.3,2478.59 L1330.36,2476.74 L1350.52,2469.24 C1357.24,2466.75 1363.96,2464.29 1370.73,2461.93 C1374.1,2460.76 1377.49,2459.59 1380.87,2458.48 C1382.56,2457.93 1384.26,2457.38 1385.94,2456.86 L1388.46,2456.1 C1389.25,2455.87 1390.19,2455.59 1390.79,2455.47 L1393.6,2454.93 C1404.46,2452.82 1414.97,2459.91 1417.08,2470.76 C1418.7,2479.12 1414.83,2487.29 1408.04,2491.56"/>
    <path fill="#FFAC32" d="M1621.8,2869.47 C1621.8,2869.47 1622.62,3074.99 1713.62,3199.56 C1713.62,3199.56 1593.37,3200.28 1580.37,3312.58 C1580.37,3312.58 1752.34,3352.17 2122.97,3302.41 C2122.97,3302.41 1971.98,2863.3 1621.8,2869.47"/>
    <path fill="#CF913E" d="M1780.08,3307.26 C1755.59,3307.26 1734.02,3306.77 1715.41,3306.03 C1661.53,3303.88 1624.52,3299.39 1604.04,3296.26 C1612.02,3267.33 1630.46,3246.07 1659.03,3232.92 C1686.52,3220.27 1713.53,3219.79 1713.74,3219.78 C1721.33,3219.74 1728.26,3215.45 1731.68,3208.67 C1735.09,3201.89 1734.43,3193.77 1729.95,3187.64 C1704.12,3152.28 1686.03,3109.59 1673.39,3068.52 C1684.66,3087.08 1696.99,3104.78 1710.39,3121.6 C1774.79,3202.47 1862.72,3261.87 1972.29,3298.64 C1895.49,3305.12 1831.37,3307.26 1780.08,3307.26"/>
    <path fill="#102770" d="M1604.04,3296.26 C1624.52,3299.39 1661.53,3303.88 1715.41,3306.03 C1792.17,3309.09 1919.13,3307.86 2094.8,3285.68 C2079.34,3248.17 2043.87,3170.88 1986.88,3094.9 C1888.14,2963.25 1772.45,2894.35 1642.77,2889.86 C1643.89,2910.56 1646.69,2945.12 1653.64,2985.07 C1663.85,3043.8 1685.38,3126.62 1729.95,3187.64 C1734.43,3193.77 1735.09,3201.89 1731.68,3208.67 C1728.26,3215.45 1721.33,3219.74 1713.74,3219.78 C1713.53,3219.79 1686.52,3220.27 1659.03,3232.92 C1630.46,3246.07 1612.02,3267.33 1604.04,3296.26 M1780.02,3347.7 C1754.14,3347.7 1731.41,3347.17 1711.86,3346.36 C1621.69,3342.65 1577.67,3332.71 1575.84,3332.29 C1565.8,3329.98 1559.1,3320.49 1560.28,3310.26 C1566.46,3256.87 1595.27,3217.19 1643.59,3195.51 C1656.11,3189.89 1668.4,3186.23 1679.1,3183.83 C1648.97,3133.02 1627.01,3068.42 1613.66,2991.25 C1601.93,2923.41 1601.59,2871.72 1601.58,2869.55 C1601.54,2858.49 1610.39,2849.45 1621.45,2849.26 C1705.36,2847.78 1785.17,2870.72 1858.69,2917.45 C1916.85,2954.42 1971.09,3006.26 2019.9,3071.51 C2102.37,3181.79 2140.51,3291.23 2142.1,3295.83 C2144.07,3301.56 2143.36,3307.87 2140.18,3313.03 C2137,3318.19 2131.67,3321.64 2125.67,3322.45 C1978.6,3342.2 1863.08,3347.7 1780.02,3347.7"/>
    <path fill="#FFAC32" d="M3074.38,3088.82 C3054.04,3201.76 2923.08,3224.37 2868.85,3201.76 C2841.29,3190.27 2855.1,3153.17 2875.33,3119.44 C2894.94,3086.71 2920.6,3057.2 2920.6,3057.2 C2920.6,3057.2 2943.37,3063.95 2972.72,3043.66 C2998.49,3025.79 3073.06,2987 3077.12,3054.36 C3077.65,3063.68 3076.86,3075.07 3074.38,3088.82"/>
    <path fill="#FFDEAD" d="M2939.64,3104.74 C2940.99,3096.11 2941.88,3087.35 2942.33,3078.46 C2954.12,3076.72 2968.82,3071.98 2984.73,3060.97 C2993.58,3054.85 3008.12,3046.52 3022.37,3041.55 C3031.17,3038.47 3037.95,3037.32 3042.79,3037.32 C3046.42,3037.32 3048.96,3037.97 3050.46,3038.93 C3053.12,3040.64 3055.44,3045.77 3056.04,3055.08 C3054,3055.26 3051.96,3055.49 3049.93,3055.78 L2957.07,3096.1 C2951.49,3099.07 2945.66,3102.01 2939.64,3104.74"/>
    <path fill="#CF913E" d="M2914.56,3188.52 C2912.65,3188.52 2910.76,3188.49 2908.91,3188.42 C2916.15,3177.18 2922.14,3165.35 2926.86,3152.95 C2926.97,3152.68 2927.07,3152.4 2927.18,3152.13 C2972.06,3148.99 3024.43,3128.66 3053.83,3083.86 C3053.76,3084.26 3053.69,3084.67 3053.62,3085.08 C3045.27,3131.46 3015.59,3156.41 2992.17,3169.17 C2967.45,3182.64 2938.8,3188.52 2914.56,3188.52"/>
    <path fill="#102770" d="M2929.63,3079.34 C2922.73,3087.85 2911.68,3102.04 2901.22,3117.9 C2878.85,3151.82 2872.99,3172.7 2874.76,3180.28 C2874.97,3181.15 2875.05,3181.52 2876.98,3182.32 C2902.33,3192.89 2952.35,3190.86 2992.17,3169.17 C3015.59,3156.41 3045.27,3131.46 3053.62,3085.08 C3058.87,3055.89 3055.2,3041.98 3050.46,3038.93 C3046.96,3036.68 3037.74,3036.18 3022.37,3041.55 C3008.12,3046.52 2993.58,3054.85 2984.73,3060.97 C2962.44,3076.4 2942.51,3079.5 2929.63,3079.34 M2914.91,3230.73 C2894.53,3230.73 2875.72,3227.47 2860.75,3221.23 C2846.68,3215.36 2837.07,3204.23 2833.71,3189.89 C2828.32,3166.88 2838.98,3135.61 2866.29,3094.3 C2884.62,3066.56 2903.91,3044.3 2904.72,3043.37 C2910.39,3036.84 2918.26,3034.05 2926.37,3036.89 C2928.63,3037.31 2942.26,3039.1 2960.73,3026.31 C2972.63,3018.07 3034.02,2978.22 3073.27,3003.47 C3095.79,3017.96 3103.14,3047.93 3095.11,3092.55 C3086.16,3142.27 3057.54,3181.57 3012.34,3206.19 C2988.15,3219.37 2960.25,3227.61 2931.66,3230.02 C2925.99,3230.5 2920.4,3230.73 2914.91,3230.73"/>
    <path fill="#FFAC32" d="M2907.97,3145.73 C2829.96,3350.48 2390.69,3321.26 2266.68,3321.26 C2188.12,3321.26 1873.12,3322.02 1707.45,3083.85 C1689.35,3057.77 1673.02,3028.9 1659.02,2996.8 C1657.81,2994.07 1656.59,2991.29 1655.48,2988.46 C1645.27,2964.19 1636.42,2938.16 1629.09,2910.15 C1604.53157,2816.93 1596.74,2702.52 1613.32,2562.18 C1619.84,2506.67 1630.25,2447.07 1644.91,2383.17 L2474.11,2292.63 C2474.11,2292.63 2506.97,2387.16 2554.03,2477.51 C2579.46,2526.29 2609.04,2573.86 2639.83,2604.65 C2727.59,2692.41 2985.97,2940.99 2907.97,3145.73"/>
    <path fill="#FFF" d="M2337.48,3184.43 C2292.68,3202.18 2250.22,3240.75 2229.09,3318.96 C2088.09,3315.22 1728.14,3278.21 1630.67,2908.66 C1601.81,2755.33 1647.78,2649.55 1705.34,2627.17 C1759.12,2606.27 1815.86,2594.67 1955.59,2857.9 C2095.37,3121.14 2309.06,3130.9 2309.06,3130.9 L2312.65,3128.93 C2317.25,3146.97 2325.29,3165.58 2337.48,3184.43"/>
    <path fill="#102770" d="M1663.65,3051.77 C1656.01,3038.58 1648.81,3024.76 1642.08,3010.26 C1642.41,3010.45 1642.74,3010.64 1643.07,3010.83 C1649.42,3024.9 1656.27,3038.54 1663.65,3051.77"/>
    <path fill="#CF913E" d="M2387.96,3302.46 C2358.61,3302.46 2332.04,3301.99 2309.8,3301.59 C2308.13,3301.56 2306.49,3301.53 2304.86,3301.5 C2305.41,3281.47 2313.07,3262.26 2323.72,3245.03 C2510.29,3241 2789.91,3213.84 2848.86,3059.09 C2872.6,2996.79 2837.66,2898.34 2812.72,2832.91 C2816.92,2839.02 2821.04,2845.19 2825.07,2851.42 C2829.6,2858.41 2833.93,2865.35 2838.06,2872.22 C2886.58,2955.37 2915.99,3046.09 2891.94,3130.5 C2891.04,3133.21 2890.09,3135.89 2889.07,3138.56 C2832.95,3285.87 2561.51,3302.46 2387.96,3302.46 M2240.93,3300.78 C2238.84,3300.73 2236.75,3300.69 2234.66,3300.63 C2234.88,3300 2235.09,3299.38 2235.31,3298.75 L2240.93,3300.78"/>
    <path fill="#CFD4E2" d="M2234.66,3300.63 C2011.05,3294.85 1845.4,3226.22 1742.02,3096.4 C1740.3,3094.25 1738.6,3092.07 1736.92,3089.88 C1738.95,3090.24 1740.95,3090.59 1742.97,3090.93 C1910.46,3218.07 2120.79,3245.23 2182.63,3245.23 C2201.6,3245.23 2228.51,3245.66 2260.82,3245.67 C2250.94,3260.43 2242.24,3277.96 2235.19,3298.71 L2235.31,3298.75 C2235.09,3299.38 2234.88,3300 2234.66,3300.63"/>
    <path fill="#FFDEAD" d="M2261.56,3245.67 C2282.98,3214.33 2309.78,3195.4 2337.48,3184.43 C2325.29,3165.58 2317.25,3146.97 2312.65,3128.93 L2312.63,3128.94 C2285.48,3023.02 2374.88,2934.62 2420.17,2897.76 C2389.99,2940.53 2315.33,3051.53 2382.72,3171.24 C2382.72,3171.24 2395.29,3171.62 2394.99,3171.87 C2389.91,3175.4 2348.63,3204.78 2323.72,3245.03 C2301.5,3245.51 2280.62,3245.67 2261.56,3245.67"/>
    <path fill="#FFF" d="M2261.35,3245.67 C2261.17,3245.67 2261,3245.67 2260.82,3245.67 C2282.25,3213.65 2309.25,3194.63 2337.11,3183.9 C2325.11,3165.19 2317.21,3146.82 2312.63,3128.94 L2312.65,3128.93 C2317.25,3146.97 2325.29,3165.58 2337.48,3184.43 C2309.78,3195.4 2282.98,3214.33 2261.56,3245.67 C2261.5,3245.67 2261.42,3245.67 2261.35,3245.67"/>
    <path fill="#ECD3B2" d="M2304.86,3301.5 C2290.15,3301.24 2277.33,3301.03 2266.66,3301.03 L2265.91,3301.03 C2257.5,3301.03 2249.18,3300.95 2240.93,3300.78 L2235.31,3298.75 C2242.55,3277.99 2251.46,3260.45 2261.56,3245.67 C2280.62,3245.67 2301.5,3245.51 2323.72,3245.03 C2313.07,3262.26 2305.41,3281.47 2304.86,3301.5"/>
    <path fill="#ECEEF3" d="M2235.31,3298.75 L2235.19,3298.71 C2242.24,3277.96 2250.94,3260.43 2260.82,3245.67 C2261,3245.67 2261.17,3245.67 2261.35,3245.67 C2261.42,3245.67 2261.5,3245.67 2261.56,3245.67 C2251.46,3260.45 2242.55,3277.99 2235.31,3298.75"/>
    <path fill="#102770" d="M1661.45,2401.71 C1593.08,2709.71 1620.17,2943.39 1742.02,3096.4 C1850.16,3232.19 2026.42,3301.04 2265.91,3301.03 L2266.66,3301.03 C2278.5,3301.03 2293.01,3301.29 2309.8,3301.59 C2463.51,3304.34 2823.46,3310.78 2889.07,3138.56 C2919.04,3059.89 2897.51,2963.29 2825.07,2851.42 C2763.74,2756.69 2682.58,2675.8 2634.1,2627.47 C2631.1,2624.48 2628.24,2621.63 2625.55,2618.94 C2548.06,2541.45 2479.97,2367.32 2460.48,2314.48 L1661.45,2401.71 M2388.26,3342.91 C2358.55,3342.91 2331.67,3342.43 2309.08,3342.03 C2292.48,3341.73 2278.14,3341.47 2266.66,3341.47 L2265.91,3341.47 C2265.64,3341.47 2265.37,3341.47 2265.1,3341.47 C2224.67,3341.47 2131.56,3341.3 2025.63,3314.32 C1890.99,3280.04 1784.92,3215.19 1710.39,3121.6 C1578.63,2956.16 1549.97,2706.19 1625.19,2378.65 C1627.12,2370.26 1634.15,2364.01 1642.71,2363.08 L2471.91,2272.55 C2481.26,2271.52 2490.1,2277.11 2493.2,2286 C2493.97,2288.2 2570.71,2506.91 2654.15,2590.34 C2656.83,2593.02 2659.67,2595.85 2662.65,2598.82 C2709.02,2645.05 2795.34,2731.09 2859.02,2829.44 C2938.85,2952.73 2961.68,3061.57 2926.86,3152.95 C2908.68,3200.7 2871.67,3239.98 2816.87,3269.7 C2772.31,3293.87 2714.8,3312.26 2645.95,3324.34 C2557.9,3339.79 2463.92,3342.91 2388.26,3342.91"/>
    <path fill="#102770" d="M2320.79,3195.98 C2320.15,3195 2319.56,3193.98 2319.02,3192.95 L2320.08,3194.82 C2311.31,3181 2303.63,3166.19 2298.07,3150.36 C2292.46,3134.56 2288.86,3117.84 2287.77,3100.91 C2286.66,3083.99 2288.03,3066.95 2291.53,3050.57 C2295.02,3034.17 2300.55,3018.43 2307.52,3003.62 C2310.99,2996.2 2314.81,2989.01 2318.92,2982.02 C2323.02,2975.04 2327.35,2968.25 2331.75,2961.53 C2340.66,2948.18 2350.11,2935.2 2361.07,2923.7 C2366.55,2917.95 2372.35,2912.54 2378.44,2907.49 C2384.51,2902.43 2390.87,2897.72 2397.52,2893.44 C2399.17,2892.35 2400.86,2891.32 2402.56,2890.3 C2404.24,2889.26 2405.96,2888.28 2407.69,2887.32 L2410.28,2885.89 L2412.92,2884.52 C2414.67,2883.6 2416.46,2882.73 2418.27,2881.88 C2421.87,2880.18 2425.56,2878.62 2429.34,2877.22 C2431.23,2876.51 2433.15,2875.86 2435.1,2875.25 C2436.07,2874.95 2437.06,2874.66 2438.07,2874.4 C2439.08,2874.12 2440.04,2873.88 2441.16,2873.61 C2444.99,2872.71 2448.83,2875.08 2449.74,2878.91 C2450.18,2880.76 2449.85,2882.61 2448.97,2884.13 L2448.52,2884.91 C2448.07,2885.68 2447.47,2886.49 2446.94,2887.28 C2446.4,2888.08 2445.85,2888.88 2445.28,2889.65 C2444.17,2891.22 2443.04,2892.77 2441.9,2894.29 C2439.64,2897.35 2437.34,2900.34 2435.03,2903.27 C2433.88,2904.74 2432.74,2906.21 2431.56,2907.65 C2430.4,2909.11 2429.24,2910.55 2428.05,2911.97 C2426.89,2913.41 2425.72,2914.83 2424.54,2916.23 C2423.36,2917.63 2422.22,2919.06 2421.02,2920.43 C2416.34,2926.03 2411.62,2931.48 2406.9,2936.87 C2402.18,2942.27 2397.5,2947.64 2392.77,2952.92 C2383.37,2963.52 2373.73,2973.86 2365.35,2985.1 C2361.13,2990.69 2357.3,2996.53 2353.79,3002.51 C2350.28,3008.48 2347.05,3014.58 2344.14,3020.77 C2338.32,3033.16 2333.86,3045.98 2331.09,3058.99 C2328.32,3072 2327.27,3085.2 2328.13,3098.28 C2328.98,3111.36 2331.74,3124.3 2336.18,3136.83 C2340.58,3149.37 2346.81,3161.44 2354.13,3172.99 L2355.19,3174.86 C2354.99,3174.4 2354.73,3173.95 2354.44,3173.54 C2360.63,3182.84 2358.12,3195.39 2348.83,3201.59 C2339.54,3207.78 2326.98,3205.27 2320.79,3195.98"/>
    <path fill="#102770" d="M2334.5,3166.2 C2340.77,3162.91 2347.43,3160.49 2354.19,3158.63 C2360.96,3156.76 2367.86,3155.51 2374.77,3154.77 C2388.61,3153.22 2402.5,3153.99 2415.94,3155.84 C2429.41,3157.73 2442.53,3160.93 2455.16,3165.27 C2461.47,3167.47 2467.66,3169.9 2473.68,3172.75 C2476.69,3174.15 2479.67,3175.64 2482.58,3177.25 C2485.52,3178.83 2488.35,3180.51 2491.2,3182.41 C2492.38,3183.21 2492.69,3184.8 2491.9,3185.98 C2491.37,3186.77 2490.48,3187.17 2489.6,3187.12 L2489.48,3187.11 C2486.33,3186.9 2483.08,3186.71 2479.91,3186.54 C2478.32,3186.45 2476.72,3186.4 2475.13,3186.34 C2473.55,3186.26 2471.96,3186.2 2470.38,3186.15 C2464.06,3185.92 2457.79,3185.81 2451.58,3185.83 C2439.16,3185.85 2426.94,3186.33 2414.99,3187.45 C2413.49,3187.54 2412.01,3187.77 2410.52,3187.93 L2406.08,3188.4 C2404.6,3188.53 2403.14,3188.81 2401.68,3189.01 C2400.22,3189.24 2398.76,3189.41 2397.3,3189.61 C2394.39,3190.02 2391.51,3190.46 2388.64,3190.95 L2384.35,3191.67 L2382.21,3192.06 L2380.08,3192.43 C2374.41,3193.46 2368.8,3194.57 2363.22,3195.72 C2357.62,3196.83 2352.1,3198.13 2346.4,3199.11 L2345.71,3199.23 C2336.1,3200.89 2326.96,3194.44 2325.31,3184.83 C2323.98,3177.1 2327.92,3169.66 2334.5,3166.2"/>
    <path fill="#102770" d="M2229.08,3339.21 C2227.37,3339.21 2225.63,3338.99 2223.9,3338.53 C2213.1,3335.68 2206.67,3324.61 2209.52,3313.82 C2211.61,3305.92 2213.75,3298.84 2216.06,3292.15 C2236.9,3230.83 2273.32,3188.82 2324.29,3167.27 C2334.58,3162.92 2346.44,3167.74 2350.79,3178.02 C2355.14,3188.31 2350.32,3200.17 2340.04,3204.52 C2300.14,3221.39 2271.3,3255.27 2254.33,3305.22 L2254.3,3305.33 C2252.31,3311.07 2250.45,3317.23 2248.62,3324.15 C2246.22,3333.22 2238.04,3339.21 2229.08,3339.21"/>
    <path fill="#CF913E" d="M1986.66,2617.39 C1860.15,2617.39 1740.24,2599.75 1632.93,2568.16 C1635.4,2546.75 1638.43,2524.92 1642.03,2502.63 C1654.92,2506.62 1668.03,2510.37 1681.34,2513.89 C1776.19,2538.99 1879.36,2551.72 1987.99,2551.72 C2096.81,2551.72 2200.12,2538.96 2295.07,2513.79 C2373.41,2493.02 2444.57,2464.19 2507.28,2427.85 C2516.15,2447.22 2525.93,2467.46 2536.42,2487.51 C2389.87,2568.41 2197.46,2617.39 1986.66,2617.39"/>
    <path fill="#102770" d="M1632.93,2568.16 C1626.34,2566.22 1619.8,2564.23 1613.32,2562.18 C1615.82,2540.86 1618.9,2518.94 1622.58,2496.39 C1629.01,2498.53 1635.49,2500.61 1642.03,2502.63 C1638.43,2524.92 1635.4,2546.75 1632.93,2568.16 M2536.42,2487.51 C2525.93,2467.46 2516.15,2447.22 2507.28,2427.85 C2513.2,2424.42 2519.03,2420.93 2524.8,2417.37 C2533.69,2436.89 2543.51,2457.3 2554.03,2477.51 C2548.24,2480.89 2542.37,2484.23 2536.42,2487.51"/>
    <path fill="#FFAC32" d="M2792.85,1374 C2761.46,1582.24 2711.92,1766.15 2711.92,1766.15 L2180.54,1254.29 C2180.54,1254.29 2263.95,1100 2378.01,968.808 L2378.11,968.757 C2477.7,854.302 2600.6,757.44 2711.92,796.063 C2842.04,841.209 2830.42,1124.97 2792.85,1374"/>
    <path fill="#FFDEAD" d="M2773.67,1365.34 C2802.48,1135.69 2801.11,898.305 2683.04,857.345 C2666.05,851.447 2648.79,848.709 2631.37,848.709 C2550.38,848.709 2466.23,907.97 2391.43,984.248 C2467.62,896.286 2567.44,807.722 2660.47,807.722 C2675.63,807.722 2690.61,810.074 2705.27,815.161 C2751.79,831.3 2781.17,888.386 2792.57,984.83 C2802.3,1067.03 2798.56,1176.18 2781.46,1309.26 C2779.05,1328.04 2776.44,1346.77 2773.67,1365.34"/>
    <path fill="#FC6DB1" d="M2328.41,1276.79 C2328.41,1276.79 2542.87,883.939 2654.69,945.302 C2766.51,1006.67 2614.59,1578.12 2614.59,1578.12 L2328.41,1276.79"/>
    <path fill="#102770" d="M2331.48,1276.4 L2613.31,1573.14 C2619.81,1548.07 2652.72,1418.47 2674.11,1284.29 C2705.33,1088.49 2698.2,972.028 2653.49,947.494 C2640.79,940.525 2625.95,939.447 2609.38,944.295 C2562.52,958.002 2499.5,1019.96 2427.13,1123.46 C2376.68,1195.61 2337.74,1265.1 2331.48,1276.4 M2615.86,1583.08 L2612.78,1579.84 L2325.34,1277.19 L2326.21,1275.59 C2326.62,1274.84 2367.99,1199.32 2423.01,1120.63 C2455.35,1074.38 2486.01,1036.08 2514.16,1006.8 C2549.54,970.004 2581.1,947.358 2607.98,939.495 C2625.87,934.263 2641.99,935.479 2655.89,943.11 C2682.24,957.567 2696.44,1000.26 2698.1,1070.01 C2699.41,1125.19 2693,1197.57 2679.04,1285.11 C2655.29,1434.05 2617.39,1577.33 2617,1578.76 L2615.86,1583.08"/>
    <path fill="#102770" d="M2205.8,1250.56 L2700.93,1727.51 C2718.49,1657.06 2758.86,1485.21 2781.46,1309.26 C2798.56,1176.18 2802.3,1067.03 2792.57,984.83 C2781.17,888.386 2751.79,831.3 2705.27,815.161 C2592.97,776.198 2462.37,897.734 2372.58,1006.55 C2290.5,1106.04 2226.87,1213.57 2205.8,1250.56 M2711.9,1786.38 C2706.74,1786.38 2701.69,1784.4 2697.87,1780.72 L2166.51,1268.86 C2159.97,1262.56 2158.43,1252.67 2162.75,1244.68 C2165.77,1239.09 2237.99,1106.23 2341.04,981.236 C2402.17,907.08 2461.44,851.374 2517.2,815.665 C2590.15,768.939 2657.9,755.915 2718.53,776.952 C2752.13,788.609 2779.04,813.988 2798.52,852.386 C2815.07,885.029 2826.59,928.041 2832.76,980.225 C2842.86,1065.77 2839.08,1178.33 2821.53,1314.77 C2791.84,1545.62 2732.03,1769.19 2731.43,1771.42 C2729.57,1778.32 2724.2,1783.73 2717.3,1785.65 C2715.52,1786.14 2713.7,1786.38 2711.9,1786.38"/>
    <path fill="#102770" d="M2353.34,1273.68 L2603.98,1537.59 C2616.65,1486.02 2640.12,1384.98 2656.65,1281.27 C2670.37,1195.14 2676.67,1124.21 2675.38,1070.44 C2673.46,990.453 2655.5,968.812 2644.96,963.03 C2636.42,958.343 2626.41,957.778 2614.36,961.302 C2591.37,968.027 2563.21,988.592 2530.66,1022.43 C2503.36,1050.81 2473.47,1088.13 2441.83,1133.36 C2400.8,1192.02 2367.41,1248.99 2353.34,1273.68 M2614.59,1598.34 C2609.12,1598.34 2603.79,1596.12 2599.93,1592.04 L2313.75,1290.72 C2307.7,1284.35 2306.45,1274.81 2310.66,1267.1 C2312.36,1263.99 2352.91,1189.96 2408.48,1110.48 C2484.94,1001.13 2550.38,937.881 2603,922.487 C2625.57,915.883 2646.24,917.596 2664.42,927.574 C2697.16,945.538 2713.97,991.99 2715.82,1069.59 C2717.16,1125.84 2710.67,1199.3 2696.54,1287.91 C2672.65,1437.72 2634.51,1581.88 2634.13,1583.31 C2632.25,1590.39 2626.69,1595.9 2619.59,1597.71 C2617.93,1598.14 2616.25,1598.34 2614.59,1598.34"/>
    <path fill="#CF913E" d="M2726.5,1618.22 C2706.6,1575.53 2682.86,1533.84 2655.88,1494.06 C2665.15,1453.67 2676.11,1402.86 2686.08,1348.68 C2712.84,1359.19 2741.7,1367.06 2772.74,1371.55 C2758.94,1462.81 2741.56,1549.74 2726.5,1618.22 M2344.19,1209.43 C2331.29,1202.47 2318.2,1195.86 2304.96,1189.6 C2288.66,1181.91 2272.24,1174.82 2255.71,1168.34 C2285.93,1121.23 2326.33,1062.61 2372.58,1006.55 C2376.68,1001.58 2380.88,996.579 2385.14,991.574 C2392.28,1012.92 2405.16,1047.44 2425.07,1087.24 C2419.6,1094.74 2414.07,1102.49 2408.48,1110.48 C2383.19,1146.65 2361.02,1181.69 2344.19,1209.43"/>
    <path fill="#102770" d="M2740.31,1649.49 C2739.04,1646.44 2737.75,1643.4 2736.44,1640.37 C2733.25,1632.96 2729.93,1625.57 2726.5,1618.22 C2741.56,1549.74 2758.94,1462.81 2772.74,1371.55 C2779.33,1372.51 2786.01,1373.31 2792.8,1373.95 L2792.85,1374 C2777.06,1478.75 2756.67,1577.36 2740.31,1649.49 M2255.71,1168.34 C2249.27,1165.81 2242.8,1163.37 2236.32,1161.03 C2271.44,1106.02 2320.88,1034.51 2378.01,968.808 L2378.11,968.757 C2378.11,968.757 2380.32,977.167 2385.14,991.574 C2380.88,996.579 2376.68,1001.58 2372.58,1006.55 C2326.33,1062.61 2285.93,1121.23 2255.71,1168.34"/>
    <path fill="#CD5FA4" d="M2624.27,1450.26 C2605.02,1425.16 2584.47,1401.03 2562.8,1378.14 C2507.19,1319.4 2445.73,1269.63 2379.35,1229.52 C2395.87,1202.31 2417.51,1168.13 2441.83,1133.36 C2443.36,1131.18 2444.89,1129.01 2446.4,1126.86 C2488.98,1200.4 2553.96,1282.28 2648.12,1331.39 C2640.45,1373.96 2632.06,1414.73 2624.27,1450.26"/>
    <path fill="#102770" d="M2655.88,1494.06 C2645.78,1479.17 2635.24,1464.56 2624.27,1450.26 C2632.06,1414.73 2640.45,1373.96 2648.12,1331.39 C2660.29,1337.73 2672.92,1343.52 2686.08,1348.68 C2676.11,1402.86 2665.15,1453.67 2655.88,1494.06 M2379.35,1229.52 C2367.78,1222.53 2356.06,1215.83 2344.19,1209.43 C2361.02,1181.69 2383.19,1146.65 2408.48,1110.48 C2414.07,1102.49 2419.6,1094.74 2425.07,1087.24 C2431.44,1099.99 2438.55,1113.29 2446.4,1126.86 C2444.89,1129.01 2443.36,1131.18 2441.83,1133.36 C2417.51,1168.13 2395.87,1202.31 2379.35,1229.52"/>
    <path fill="#FFAC32" d="M1792.79,1254.29 L1261.41,1766.15 C1261.41,1766.15 1197.96,1530.52 1169.2,1290.79 C1142.1,1065.32 1145.64,836.204 1261.41,796.063 C1372.73,757.44 1495.63,854.302 1595.22,968.757 C1709.37,1099.95 1792.79,1254.29 1792.79,1254.29"/>
    <path fill="#FFDEAD" d="M1195.67,1296.09 C1193.81,1295.76 1191.95,1295.43 1190.06,1295.08 C1174.51,1168.49 1171.36,1064.21 1180.72,984.968 C1192.12,888.44 1221.49,831.308 1268.04,815.161 C1282.71,810.072 1297.68,807.721 1312.84,807.721 C1394.53,807.721 1481.46,876.015 1553.02,952.22 C1486.81,891.708 1415.02,848.132 1345.57,848.132 C1328.17,848.132 1310.89,850.872 1293.91,856.765 C1187.62,893.64 1175.92,1089.74 1195.67,1296.09"/>
    <path fill="#FC6DB1" d="M1644.9,1276.79 C1644.9,1276.79 1430.44,883.939 1318.62,945.302 C1206.8,1006.67 1358.72,1578.12 1358.72,1578.12 L1644.9,1276.79"/>
    <path fill="#102770" d="M1344.47,941.318 C1335.56,941.318 1327.32,943.378 1319.82,947.494 C1275.11,972.03 1267.98,1088.51 1299.21,1284.33 C1320.6,1418.5 1353.5,1548.08 1360,1573.14 L1641.83,1276.4 C1635.57,1265.1 1596.63,1195.61 1546.18,1123.46 C1473.81,1019.96 1410.79,958.002 1363.93,944.295 C1357.14,942.309 1350.65,941.318 1344.47,941.318 M1357.45,1583.08 L1356.3,1578.76 C1355.93,1577.33 1318.02,1434.05 1294.27,1285.11 C1280.31,1197.57 1273.9,1125.19 1275.21,1070.01 C1276.87,1000.26 1291.07,957.567 1317.41,943.11 C1331.32,935.479 1347.44,934.262 1365.33,939.495 C1392.21,947.358 1423.77,970.004 1459.15,1006.8 C1487.3,1036.08 1517.96,1074.38 1550.3,1120.63 C1605.32,1199.32 1646.68,1274.84 1647.1,1275.59 L1647.97,1277.19 L1646.71,1278.51 L1357.45,1583.08"/>
    <path fill="#102770" d="M1312.84,807.721 C1297.68,807.721 1282.71,810.072 1268.04,815.161 C1221.49,831.308 1192.12,888.44 1180.72,984.968 C1171.01,1067.23 1174.77,1176.45 1191.89,1309.61 C1214.52,1485.52 1254.83,1657.13 1272.38,1727.51 L1767.51,1250.56 C1746.44,1213.57 1682.81,1106.04 1600.73,1006.55 C1522.67,911.947 1413.75,807.721 1312.84,807.721 M1261.41,1786.38 C1259.61,1786.38 1257.79,1786.14 1256.01,1785.65 C1249.11,1783.73 1243.74,1778.32 1241.88,1771.42 C1241.28,1769.19 1181.47,1545.62 1151.78,1314.77 C1134.23,1178.33 1130.45,1065.77 1140.55,980.225 C1146.72,928.041 1158.24,885.029 1174.79,852.386 C1194.27,813.988 1221.18,788.609 1254.78,776.952 C1315.42,755.913 1383.16,768.94 1456.11,815.665 C1511.87,851.374 1571.14,907.08 1632.27,981.236 C1735.32,1106.23 1807.54,1239.09 1810.56,1244.68 C1814.88,1252.67 1813.34,1262.56 1806.8,1268.86 L1275.44,1780.72 C1271.62,1784.4 1266.57,1786.38 1261.41,1786.38"/>
    <path fill="#102770" d="M1344.48,959.027 C1338.56,959.027 1333.21,960.359 1328.35,963.03 C1317.81,968.812 1299.85,990.453 1297.93,1070.44 C1296.64,1124.21 1302.94,1195.14 1316.66,1281.27 C1333.19,1384.98 1356.66,1486.02 1369.33,1537.59 L1619.97,1273.68 C1605.9,1248.99 1572.51,1192.02 1531.48,1133.36 C1499.84,1088.13 1469.95,1050.81 1442.65,1022.43 C1410.1,988.592 1381.94,968.027 1358.95,961.302 C1353.77,959.786 1348.96,959.027 1344.48,959.027 M1358.72,1598.34 C1357.05,1598.34 1355.38,1598.14 1353.72,1597.71 C1346.62,1595.9 1341.06,1590.39 1339.18,1583.31 C1338.79,1581.88 1300.66,1437.72 1276.77,1287.91 C1262.64,1199.3 1256.15,1125.84 1257.49,1069.59 C1259.34,991.99 1276.15,945.538 1308.89,927.574 C1327.07,917.596 1347.73,915.883 1370.31,922.487 C1422.93,937.881 1488.37,1001.13 1564.83,1110.48 C1620.4,1189.96 1660.95,1263.99 1662.65,1267.1 C1666.86,1274.81 1665.61,1284.35 1659.56,1290.72 L1373.38,1592.04 C1369.52,1596.12 1364.19,1598.34 1358.72,1598.34"/>
    <path fill="#CF913E" d="M1247.65,1622.06 C1242.98,1600.94 1238.08,1577.99 1233.12,1553.65 C1218.19,1473.61 1204.08,1383.92 1195.67,1296.09 C1223.72,1301 1249.82,1303.27 1274.1,1303.27 C1275.83,1303.27 1277.55,1303.26 1279.26,1303.23 C1291.25,1375.38 1306.16,1445.13 1318.1,1496.96 C1291.12,1537.06 1267.44,1579.07 1247.65,1622.06 M1629.77,1210.51 C1612.87,1182.6 1590.45,1147.12 1564.83,1110.48 C1563.28,1108.27 1561.74,1106.08 1560.21,1103.91 C1578.25,1060.84 1587.25,1020.73 1591.56,995.57 C1594.66,999.241 1597.71,1002.9 1600.73,1006.55 C1647.25,1062.94 1687.85,1121.92 1718.13,1169.17 C1702.32,1175.42 1686.61,1182.23 1671,1189.6 C1657.07,1196.18 1643.33,1203.15 1629.77,1210.51"/>
    <path fill="#CFB9A1" d="M1233.12,1553.65 C1218.3,1480.93 1202.97,1395.79 1191.89,1309.61 C1191.26,1304.73 1190.65,1299.89 1190.06,1295.08 C1191.95,1295.43 1193.81,1295.76 1195.67,1296.09 C1204.08,1383.92 1218.19,1473.61 1233.12,1553.65"/>
    <path fill="#CD5FA4" d="M1349.63,1452.93 C1339.8,1408.3 1328.98,1355.15 1319.8,1300.42 C1433.38,1285.77 1500.51,1216.91 1540.01,1145.69 C1561.2,1176.64 1580.01,1206.5 1594.67,1230.7 C1529.03,1270.6 1468.22,1319.97 1413.14,1378.14 C1390.7,1401.85 1369.47,1426.87 1349.63,1452.93"/>
    <path fill="#102770" d="M1233.94 1653.53C1213.19 1562.42 1185.57 1427.28 1169.2 1290.79 1176.26 1292.38 1183.23 1293.81 1190.06 1295.08 1190.65 1299.89 1191.26 1304.73 1191.89 1309.61 1202.97 1395.79 1218.3 1480.93 1233.12 1553.65 1238.08 1577.99 1242.98 1600.94 1247.65 1622.06 1244.85 1628.14 1242.13 1634.25 1239.49 1640.37 1237.6 1644.74 1235.75 1649.13 1233.94 1653.53M1718.13 1169.17C1687.85 1121.92 1647.25 1062.94 1600.73 1006.55 1597.71 1002.9 1594.66 999.241 1591.56 995.57 1594.42 978.869 1595.22 968.757 1595.22 968.757 1652.67 1034.78 1702.34 1106.68 1737.5 1161.81 1731.04 1164.17 1724.57 1166.62 1718.13 1169.17M1318.1 1496.96C1306.16 1445.13 1291.25 1375.38 1279.26 1303.23 1293.38 1303.04 1306.9 1302.08 1319.8 1300.42 1328.98 1355.15 1339.8 1408.3 1349.63 1452.93 1338.68 1467.31 1328.16 1482 1318.1 1496.96M1594.67 1230.7C1580.01 1206.5 1561.2 1176.64 1540.01 1145.69 1547.76 1131.73 1554.45 1117.67 1560.21 1103.91 1561.74 1106.08 1563.28 1108.27 1564.83 1110.48 1590.45 1147.12 1612.87 1182.6 1629.77 1210.51 1617.93 1216.94 1606.22 1223.68 1594.67 1230.7"/>
    <path fill="#FFAC32" d="M2780.13,1935.51 C2780.13,2320.53 2425.49,2531.5 1988,2531.5 C1628.25,2531.5 1324.47,2388.83 1227.86,2124.08 C1207.03,2066.85 1195.81,2003.91 1195.81,1935.51 C1195.81,1550.54 1550.5,1137.31 1988,1137.31 C2425.49,1137.31 2780.13,1550.54 2780.13,1935.51"/>
    <path fill="#FFDEAD" d="M2743.46,1793.82 C2655,1527.07 2415.41,1282.8 2124.99,1218.62 C2131.2,1200.88 2137.36,1186.46 2142.81,1175.45 C2447.45,1246.72 2681.13,1519.35 2743.46,1793.82 M1236.8,1775.82 C1305.05,1507.52 1535.13,1245.16 1833.13,1175.46 C1838.13,1185.55 1843.73,1198.52 1849.41,1214.28 C1559.27,1269.92 1327.27,1509.81 1236.8,1775.82"/>
    <path fill="#FFF" d="M2740.93,2135.33 C2533.31,2555.02 1987.97,2531.25 1987.97,2531.25 C1987.97,2531.25 1442.63,2555.02 1235.01,2135.33 C1240.7,2137.15 1705.28,2280.55 1834.63,1836.86 C1946.47,1453.24 1859.15,1217.76 1825.87,1162.01 C1850.79,1153.02 1913.76,1133.37 1987.97,1133.37 C2062.18,1133.37 2125.16,1153.02 2150.07,1162.01 C2116.79,1217.76 2029.48,1453.24 2141.32,1836.86 C2270.66,2280.55 2735.24,2137.15 2740.93,2135.33"/>
    <path fill="#102770" d="M1987.99,1157.53 C1553.23,1157.53 1216.02,1575.74 1216.02,1935.51 C1216.02,1999.84 1226.39,2060.95 1246.85,2117.16 C1283.57,2217.77 1351.79,2302.27 1449.62,2368.28 C1586.17,2460.49 1777.36,2511.27 1987.99,2511.27 C2199.07,2511.27 2390.49,2460.32 2526.98,2367.8 C2679.36,2264.76 2759.9,2115.28 2759.9,1935.51 C2759.9,1575.74 2422.71,1157.53 1987.99,1157.53 M1987.99,2551.72 C1879.36,2551.72 1776.19,2538.99 1681.34,2513.89 C1584.94,2488.39 1499.36,2450.67 1426.99,2401.8 C1375.94,2367.35 1331.7,2327.38 1295.53,2283 C1258.03,2237 1228.87,2185.86 1208.85,2131.01 C1186.77,2070.34 1175.58,2004.57 1175.58,1935.51 C1175.58,1886.68 1181.15,1836.49 1192.14,1786.35 C1202.87,1737.42 1218.8,1688.31 1239.49,1640.37 C1280.38,1545.63 1340.43,1454.95 1413.14,1378.14 C1489,1298.01 1575.76,1234.58 1671,1189.6 C1772.9,1141.48 1879.55,1117.08 1987.99,1117.08 C2096.42,1117.08 2203.07,1141.48 2304.96,1189.6 C2400.2,1234.58 2486.95,1298.01 2562.8,1378.14 C2635.51,1454.95 2695.55,1545.63 2736.44,1640.37 C2757.13,1688.31 2773.06,1737.42 2783.78,1786.35 C2794.77,1836.49 2800.35,1886.68 2800.35,1935.51 C2800.35,2034.47 2777.62,2125.44 2732.79,2205.88 C2690.34,2282.08 2628.72,2347.82 2549.65,2401.29 C2477.29,2450.34 2391.63,2488.19 2295.07,2513.79 C2200.12,2538.96 2096.81,2551.72 1987.99,2551.72"/>
    <path fill="#102770" d="M2130.97,1923.22 C2130.97,1964.85 2066.95,1998.6 1987.97,1998.6 C1909,1998.6 1844.97,1964.85 1844.97,1923.22 C1844.97,1881.59 1909,1847.84 1987.97,1847.84 C2066.95,1847.84 2130.97,1881.59 2130.97,1923.22"/>
    <path fill="#102770" d="M1987.97,1868.06 C1917.7,1868.06 1865.2,1897.18 1865.2,1923.22 C1865.2,1949.26 1917.7,1978.38 1987.97,1978.38 C2058.24,1978.38 2110.75,1949.26 2110.75,1923.22 C2110.75,1897.18 2058.24,1868.06 1987.97,1868.06 M1987.97,2018.83 C1946.55,2018.83 1907.29,2010.16 1877.43,1994.41 C1843.46,1976.51 1824.75,1951.22 1824.75,1923.22 C1824.75,1895.22 1843.46,1869.93 1877.43,1852.03 C1907.29,1836.28 1946.55,1827.61 1987.97,1827.61 C2029.39,1827.61 2068.65,1836.28 2098.52,1852.03 C2132.48,1869.93 2151.19,1895.22 2151.19,1923.22 C2151.19,1951.22 2132.48,1976.51 2098.52,1994.41 C2068.65,2010.16 2029.39,2018.83 1987.97,2018.83"/>
    <path fill="#CFD4E2" d="M1987.97,1893.91 C1956.32,1893.91 1934.26,1883.71 1934.26,1874.56 C1934.26,1874.41 1934.27,1874.26 1934.28,1874.11 C1950.31,1870.3 1968.46,1868.06 1987.97,1868.06 C2007.48,1868.06 2025.63,1870.3 2041.66,1874.11 C2041.67,1874.26 2041.68,1874.41 2041.68,1874.56 C2041.68,1883.71 2019.62,1893.91 1987.97,1893.91"/>
    <path fill="#CFD4E2" d="M1934.28,1874.11 C1935,1865.08 1956.85,1855.22 1987.97,1855.22 C2019.1,1855.22 2040.94,1865.08 2041.66,1874.11 C2025.63,1870.3 2007.48,1868.06 1987.97,1868.06 C1968.46,1868.06 1950.31,1870.3 1934.28,1874.11"/>
    <path fill="#102770" d="M1987.97,1898.91 C1955.69,1898.91 1930.26,1888.63 1929.29,1875.36 C1930.93,1874.92 1932.59,1874.51 1934.28,1874.11 C1934.27,1874.26 1934.26,1874.41 1934.26,1874.56 C1934.26,1883.71 1956.32,1893.91 1987.97,1893.91 C2019.62,1893.91 2041.68,1883.71 2041.68,1874.56 C2041.68,1874.41 2041.67,1874.26 2041.66,1874.11 C2043.35,1874.51 2045.01,1874.92 2046.65,1875.36 C2045.68,1888.63 2020.25,1898.91 1987.97,1898.91"/>
    <path fill="#102770" d="M2046.65,1875.36 C2045.01,1874.92 2043.35,1874.51 2041.66,1874.11 C2040.94,1865.08 2019.1,1855.22 1987.97,1855.22 C1956.85,1855.22 1935,1865.08 1934.28,1874.11 C1932.59,1874.51 1930.93,1874.92 1929.29,1875.36 C1929.27,1875.09 1929.26,1874.83 1929.26,1874.56 C1929.26,1860.91 1955.05,1850.22 1987.97,1850.22 C2020.89,1850.22 2046.68,1860.91 2046.68,1874.56 C2046.68,1874.83 2046.67,1875.09 2046.65,1875.36"/>
    <path fill="#CF913E" d="M2574.23,2158.82 C2662.4,2089.76 2726.83,2000.71 2758.36,1892.92 C2759.38,1907.19 2759.9,1921.39 2759.9,1935.51 C2759.9,2009.54 2746.24,2078.43 2719.53,2141.06 C2691.42,2147.82 2638.13,2158.22 2574.23,2158.82 M1391.86,2158.65 C1332.27,2157.15 1282.9,2147.44 1256.28,2141.03 C1252.94,2133.18 1249.79,2125.22 1246.85,2117.16 C1226.39,2060.95 1216.02,1999.84 1216.02,1935.51 C1216.02,1921.39 1216.54,1907.2 1217.56,1892.93 C1220.67,1903.61 1224.11,1914.11 1227.86,1924.42 C1260.68,2014.36 1317.41,2090.22 1392.12,2151.17 C1392.02,2153.67 1391.93,2156.15 1391.86,2158.65"/>
    <path fill="#CFD4E2" d="M2545.48,2354.8 L2545.41,2353.56 C2546.02,2353.03 2546.63,2352.49 2547.24,2351.96 C2551.55,2307.76 2555.37,2258.12 2557.69,2205.44 C2556.26,2206.34 2554.82,2207.24 2553.39,2208.12 C2553.51,2196.98 2553.49,2185.79 2553.32,2174.52 C2560.42,2169.41 2567.41,2164.17 2574.23,2158.82 C2638.13,2158.22 2691.42,2147.82 2719.53,2141.06 C2684.06,2224.24 2625.58,2296.36 2545.48,2354.8 M1400.44,2331.48 C1335.6,2277.64 1287.3,2213.84 1256.28,2141.03 C1282.9,2147.44 1332.27,2157.15 1391.86,2158.65 C1390.38,2210.29 1395.25,2262.65 1408.49,2312.13 C1404.28,2310.6 1402.1,2309.76 1402.1,2309.76 L1400.44,2331.48"/>
    <path fill="#102770" d="M1747.85,2515.75 C1614.04,2488.91 1495.62,2438.77 1403.12,2366.77 C1412.42,2369.69 1421.69,2372.53 1430.93,2375.29 C1432.58,2378.93 1434.29,2382.55 1436.06,2386.15 L1436.36,2386.74 L1436.91,2387.11 C1505.12,2433.18 1585.46,2469.13 1675.86,2494.06 C1699.3,2502.27 1723.33,2509.51 1747.85,2515.75 M2229.44,2515.49 C2253.92,2509.23 2277.92,2501.97 2301.34,2493.73 C2391.55,2468.73 2471.71,2432.71 2539.72,2386.6 L2540.66,2385.97 L2540.8,2384.85 C2540.84,2384.55 2540.88,2384.25 2540.92,2383.96 C2545.02,2382.56 2547.12,2381.78 2547.12,2381.78 L2545.48,2354.8 C2625.58,2296.36 2684.06,2224.24 2719.53,2141.06 C2746.24,2078.43 2759.9,2009.54 2759.9,1935.51 C2759.9,1921.39 2759.38,1907.19 2758.36,1892.92 C2763.67,1874.78 2768.04,1856.1 2771.44,1836.89 C2777.15,1872.17 2780.13,1907.54 2780.13,1942.68 C2780.13,2253.61 2548.86,2451.03 2229.44,2515.49 M1398.04,2362.77 C1320.41,2301.02 1261.54,2223.55 1227.86,2131.25 C1207.03,2074.02 1195.81,2011.08 1195.81,1942.68 C1195.81,1915.53 1197.59,1888.23 1201.03,1860.95 C1203.33,1861.78 1206.35,1862.86 1210.07,1864.16 C1212.31,1873.89 1214.81,1883.48 1217.56,1892.93 C1216.54,1907.2 1216.02,1921.39 1216.02,1935.51 C1216.02,1999.84 1226.39,2060.95 1246.85,2117.16 C1249.79,2125.22 1252.94,2133.18 1256.28,2141.03 C1287.3,2213.84 1335.6,2277.64 1400.44,2331.48 L1398.04,2362.77"/>
    <path fill="#102770" d="M1983.2,1986.17 C1961.44,1986.17 1939.58,1985.87 1917.62,1985.26 C1762.31,1980.96 1604.22,1961.69 1447.75,1927.98 C1284.09,1892.72 1199.15,1860.29 1195.61,1858.93 C1185.19,1854.91 1180,1843.21 1184.01,1832.79 C1188.03,1822.37 1199.73,1817.18 1210.16,1821.19 C1210.99,1821.51 1296.09,1853.93 1456.27,1888.44 C1710.73,1943.26 2098.14,1986.69 2498.69,1882.27 C2595.75,1856.99 2676.29,1829.14 2759.84,1791.96 C2770.04,1787.42 2782,1792.01 2786.54,1802.21 C2791.08,1812.42 2786.49,1824.37 2776.29,1828.91 C2690.64,1867.02 2608.17,1895.55 2508.89,1921.41 C2343.81,1964.44 2167.26,1986.17 1983.2,1986.17"/>
    <path fill="#66DECC" d="M2538.32,2384.54 C2395.81,2481.14 2201.78,2531.5 1987.99,2531.5 C1774.49,2531.5 1580.77,2481.25 1438.31,2385.04 C1364.73,2235.77 1392.49,2034.28 1452.01,1908.21 C1700.99,1961.85 2095.57,2008.26 2503.79,1901.84 C2564.41,2052.49 2555.16,2251.02 2538.32,2384.54"/>
    <path fill="#102770" d="M1440.26,2383.34 C1579.66,2477.27 1774.15,2529 1987.99,2529 C2202.1,2529 2396.66,2477.19 2535.98,2383.1 C2553.15,2246.23 2561.06,2052.85 2502.29,1904.81 C2339.3,1947.09 2164.95,1968.45 1983.2,1968.45 C1961.6,1968.45 1939.92,1968.15 1918.11,1967.55 C1764.53,1963.29 1608.21,1944.3 1453.42,1911.07 C1395.7,2034.67 1367.16,2234.36 1440.26,2383.34 M1987.99,2534 C1880.89,2534 1779.24,2521.47 1685.87,2496.76 C1591.39,2471.76 1507.63,2434.87 1436.91,2387.11 L1436.36,2386.74 L1436.06,2386.15 C1361.5,2234.89 1390.89,2031.82 1449.75,1907.14 L1450.59,1905.35 L1452.53,1905.77 C1708.87,1960.99 2099.23,2004.72 2503.16,1899.42 L2505.29,1898.87 L2506.11,1900.91 C2566.34,2050.6 2558.22,2246.7 2540.8,2384.85 L2540.66,2385.97 L2539.72,2386.6 C2469,2434.55 2385.16,2471.58 2290.52,2496.66 C2197.06,2521.43 2095.28,2534 1987.99,2534"/>
    <path fill="#C2F2EB" d="M2014.79,2240.35 C1838.29,2240.35 1628.55,2217.06 1401.66,2145.14 L1405.89,2089.79 C1405.89,2089.79 1667.83,2190.82 2016.11,2190.82 C2175.02,2190.82 2351.82,2169.81 2530.05,2108.59 C2533.46,2127.61 2536.23,2146.83 2538.45,2166.09 C2488.63,2182.48 2293.03,2240.35 2014.79,2240.35"/>
    <path fill="#ECEEF3" d="M2544.23,2355.71 C2544.27,2355.29 2544.32,2354.88 2544.36,2354.46 C2544.71,2354.16 2545.06,2353.86 2545.41,2353.56 L2545.48,2354.8 C2545.07,2355.1 2544.64,2355.41 2544.23,2355.71"/>
    <path fill="#9FA9C6" d="M2540.92 2383.96C2542.07 2374.78 2543.18 2365.36 2544.23 2355.71 2544.64 2355.41 2545.07 2355.1 2545.48 2354.8L2547.12 2381.78C2547.12 2381.78 2545.02 2382.56 2540.92 2383.96M1403.12 2366.77C1401.35 2366.21 1399.63 2365.67 1397.86 2365.11L1398.04 2362.77C1399.73 2364.11 1401.42 2365.44 1403.12 2366.77"/>
    <path fill="#ECEEF3" d="M1419.23,2346.45 C1412.82,2341.55 1406.56,2336.56 1400.44,2331.48 L1402.1,2309.76 C1402.1,2309.76 1404.28,2310.6 1408.49,2312.13 C1411.6,2323.75 1415.17,2335.2 1419.23,2346.45"/>
    <path fill="#9FA9C6" d="M1430.93,2375.29 C1421.69,2372.53 1412.42,2369.69 1403.12,2366.77 C1401.42,2365.44 1399.73,2364.11 1398.04,2362.77 L1400.44,2331.48 C1406.56,2336.56 1412.82,2341.55 1419.23,2346.45 C1422.75,2356.22 1426.65,2365.85 1430.93,2375.29"/>
    <path fill="#C2F2EB" d="M2484.36,2401 C2503.2,2387.94 2521.38,2374.01 2538.81,2359.22 C2537.91,2367.36 2536.96,2375.31 2535.98,2383.1 C2533.53,2384.75 2531.07,2386.39 2528.59,2388.02 C2518.08,2391.38 2503.22,2395.88 2484.36,2401 M1472.68,2387.27 C1460.95,2384.04 1449.14,2380.67 1437.3,2377.18 C1427.85,2356.96 1420.21,2335.85 1414.22,2314.17 C1415.05,2314.46 1415.91,2314.76 1416.82,2315.08 C1420.7,2327.84 1424.97,2340.36 1429.65,2352.62 C1443.52,2364.72 1457.88,2376.28 1472.68,2387.27"/>
    <path fill="#9FA9C6" d="M2528.59,2388.02 C2531.07,2386.39 2533.53,2384.75 2535.98,2383.1 C2536.96,2375.31 2537.91,2367.36 2538.81,2359.22 C2540.68,2357.64 2542.52,2356.06 2544.36,2354.46 C2544.32,2354.88 2544.27,2355.29 2544.23,2355.71 C2543.18,2365.36 2542.07,2374.78 2540.92,2383.96 C2537.88,2384.99 2533.76,2386.37 2528.59,2388.02 M1437.3,2377.18 C1435.2,2376.56 1433.03,2375.91 1430.93,2375.29 C1426.65,2365.85 1422.75,2356.22 1419.23,2346.45 C1415.17,2335.2 1411.6,2323.75 1408.49,2312.13 C1410.1,2312.71 1412.02,2313.39 1414.22,2314.17 C1420.21,2335.85 1427.85,2356.96 1437.3,2377.18"/>
    <path fill="#C2F2EB" d="M2542.91,2214.51 C2541.77,2198.4 2540.31,2182.24 2538.45,2166.09 C2542.77,2164.66 2546,2163.55 2548.08,2162.82 C2548.5,2179.07 2548.57,2195.22 2548.36,2211.21 C2546.55,2212.31 2544.72,2213.42 2542.91,2214.51 M2530.05,2108.59 C2520.48,2055.16 2505.89,2003.32 2484.43,1956.8 C2308.03,2001.66 2133.6,2018.12 1972.75,2018.12 C1768.23,2018.12 1585.69,1991.51 1449.12,1962.85 C1432.02,1994.97 1416.83,2032.58 1404.97,2073.31 C1414.66,2013.09 1432.04,1956.86 1453.42,1911.07 C1608.21,1944.3 1764.53,1963.29 1918.11,1967.55 C1939.92,1968.15 1961.6,1968.45 1983.2,1968.45 C2164.95,1968.45 2339.3,1947.09 2502.29,1904.81 C2526.46,1965.69 2539.35,2034.24 2544.96,2103.37 C2539.98,2105.14 2535.03,2106.87 2530.05,2108.59"/>
    <path fill="#9FA9C6" d="M2548.36,2211.21 C2548.57,2195.22 2548.5,2179.07 2548.08,2162.82 C2549.96,2162.16 2550.91,2161.81 2550.91,2161.81 L2547.32,2102.53 C2546.55,2102.8 2545.73,2103.1 2544.96,2103.37 C2539.35,2034.24 2526.46,1965.69 2502.29,1904.81 C2339.3,1947.09 2164.95,1968.45 1983.2,1968.45 C1961.6,1968.45 1939.92,1968.15 1918.11,1967.55 C1764.53,1963.29 1608.21,1944.3 1453.42,1911.07 C1432.04,1956.86 1414.66,2013.09 1404.97,2073.31 C1403.4,2078.73 1401.88,2084.21 1400.42,2089.73 C1409.5,2022.52 1428.37,1959.19 1452.44,1908.21 C1591.71,1938.22 1776.49,1965.96 1983.79,1965.95 C2147.07,1965.95 2324.35,1948.73 2504.22,1901.84 C2541.69,1994.98 2552.46,2106.39 2551.25,2209.45 C2550.28,2210.04 2549.32,2210.62 2548.36,2211.21"/>
    <path fill="#E7FAF7" d="M2538.45,2166.09 C2536.23,2146.83 2533.46,2127.61 2530.05,2108.59 C2535.03,2106.87 2539.98,2105.14 2544.96,2103.37 C2546.57,2123.19 2547.58,2143.07 2548.08,2162.82 C2546,2163.55 2542.77,2164.66 2538.45,2166.09"/>
    <path fill="#D9DDE8" d="M2548.08,2162.82 C2547.58,2143.07 2546.57,2123.19 2544.96,2103.37 C2545.73,2103.1 2546.55,2102.8 2547.32,2102.53 L2550.91,2161.81 C2550.91,2161.81 2549.96,2162.16 2548.08,2162.82"/>
    <path fill="#102770" d="M1988.11,2544.89 C1904.42,2544.89 1823.72,2535.07 1747.85,2515.75 C1823.6,2530.95 1904.27,2538.67 1988,2538.67 C2072.19,2538.67 2153.32,2530.86 2229.44,2515.49 C2153.25,2534.99 2072.19,2544.89 1988.11,2544.89"/>
    <path fill="#102770" d="M1988,2538.67 C1904.27,2538.67 1823.6,2530.95 1747.85,2515.75 C1723.33,2509.51 1699.3,2502.27 1675.86,2494.06 C1679.18,2494.97 1682.52,2495.88 1685.87,2496.76 C1779.24,2521.47 1880.89,2534 1987.99,2534 C2095.28,2534 2197.06,2521.43 2290.52,2496.66 C2294.15,2495.7 2297.75,2494.72 2301.34,2493.73 C2277.92,2501.97 2253.92,2509.23 2229.44,2515.49 C2153.32,2530.86 2072.19,2538.67 1988,2538.67"/>
    <path fill="#A9B1CB" d="M2545.41,2353.56 L2545.06,2347.89 C2549.57,2304.64 2552.85,2257.16 2553.39,2208.12 C2554.82,2207.24 2556.26,2206.34 2557.69,2205.44 C2555.37,2258.12 2551.55,2307.76 2547.24,2351.96 C2546.63,2352.49 2546.02,2353.03 2545.41,2353.56"/>
    <path fill="#55B9BA" d="M1987.99,2529 C1850.95,2529 1721.86,2507.75 1610.12,2467.77 C1561.06,2445.59 1515.03,2418.72 1472.68,2387.27 C1670.87,2441.92 1854.05,2460.32 2010.99,2460.32 C2230.63,2460.32 2398.77,2424.26 2484.36,2401 C2447.7,2426.42 2408.48,2448.55 2367.1,2467.33 C2255.12,2507.59 2125.58,2529 1987.99,2529 M2012.31,2410.79 C1712.47,2410.79 1476.6,2335.9 1416.82,2315.08 C1411.43,2297.38 1406.79,2279.24 1402.84,2260.77 C1400.46,2245.33 1398.79,2229.74 1397.78,2214.09 C1555.64,2308.79 1754.54,2357.98 1970.73,2357.98 C2186.56,2357.98 2385.16,2308.99 2542.91,2214.51 C2544.44,2236.36 2545.35,2258.1 2545.75,2279.43 C2544.84,2294.23 2543.73,2308.74 2542.46,2322.88 C2358.76,2388.49 2176.04,2410.79 2012.31,2410.79"/>
    <path fill="#102770" d="M1987.99,2534 C1880.89,2534 1779.24,2521.47 1685.87,2496.76 C1682.52,2495.88 1679.18,2494.97 1675.86,2494.06 C1653.4,2486.19 1631.48,2477.43 1610.12,2467.77 C1721.86,2507.75 1850.95,2529 1987.99,2529 C2125.58,2529 2255.12,2507.59 2367.1,2467.33 C2345.73,2477.03 2323.8,2485.83 2301.34,2493.73 C2297.75,2494.72 2294.15,2495.7 2290.52,2496.66 C2197.06,2521.43 2095.28,2534 1987.99,2534 M2545.06,2347.89 L2543.52,2322.5 C2543.17,2322.62 2542.82,2322.75 2542.46,2322.88 C2543.73,2308.74 2544.84,2294.23 2545.75,2279.43 C2545.99,2291.79 2546.05,2304.02 2545.97,2316.07 C2548.82,2282.44 2550.81,2246.48 2551.25,2209.45 C2551.96,2209 2552.67,2208.57 2553.39,2208.12 C2552.85,2257.16 2549.57,2304.64 2545.06,2347.89 M1402.84,2260.77 C1399.4,2244.69 1396.49,2228.36 1394.07,2211.85 C1395.3,2212.61 1396.53,2213.35 1397.78,2214.09 C1398.79,2229.74 1400.46,2245.33 1402.84,2260.77"/>
    <path fill="#C0C6D9" d="M2544.36,2354.46 C2544.6,2352.28 2544.83,2350.09 2545.06,2347.89 L2545.41,2353.56 C2545.06,2353.86 2544.71,2354.16 2544.36,2354.46"/>
    <path fill="#9EC9D2" d="M2010.99,2460.32 C1854.05,2460.32 1670.87,2441.92 1472.68,2387.27 C1457.88,2376.28 1443.52,2364.72 1429.65,2352.62 C1424.97,2340.36 1420.7,2327.84 1416.82,2315.08 C1476.6,2335.9 1712.47,2410.79 2012.31,2410.79 C2176.04,2410.79 2358.76,2388.49 2542.46,2322.88 C2541.35,2335.3 2540.12,2347.43 2538.81,2359.22 C2521.38,2374.01 2503.2,2387.94 2484.36,2401 C2398.77,2424.26 2230.63,2460.32 2010.99,2460.32"/>
    <path fill="#828FB5" d="M2538.81,2359.22 C2540.12,2347.43 2541.35,2335.3 2542.46,2322.88 C2542.82,2322.75 2543.17,2322.62 2543.52,2322.5 L2545.06,2347.89 C2544.83,2350.09 2544.6,2352.28 2544.36,2354.46 C2542.52,2356.06 2540.68,2357.64 2538.81,2359.22"/>
    <path fill="#9EC9D2" d="M2545.75,2279.43 C2545.35,2258.1 2544.44,2236.36 2542.91,2214.51 C2544.72,2213.42 2546.55,2212.31 2548.36,2211.21 C2548.04,2234.41 2547.12,2257.25 2545.75,2279.43"/>
    <path fill="#828FB5" d="M2545.97,2316.07 C2546.05,2304.02 2545.99,2291.79 2545.75,2279.43 C2547.12,2257.25 2548.04,2234.41 2548.36,2211.21 C2549.32,2210.62 2550.28,2210.04 2551.25,2209.45 C2550.81,2246.48 2548.82,2282.44 2545.97,2316.07"/>
    <path fill="#102770" d="M1454.68,2371.66 C1590.87,2461.73 1779.95,2511.27 1987.99,2511.27 C2195.19,2511.27 2383.44,2462.18 2519.39,2372.86 C2535.05,2243.16 2541.63,2065.56 2491.32,1925.9 C2311.7,1970.86 2118.78,1990.83 1917.62,1985.26 C1767.85,1981.11 1615.5,1963.05 1464.5,1931.53 C1410.54,2073.27 1406.34,2250.79 1454.68,2371.66 Z M1987.99,2551.72 C1879.36,2551.72 1776.19,2538.99 1681.34,2513.89 C1584.94,2488.39 1499.36,2450.67 1426.99,2401.8 C1423.73,2399.6 1421.18,2396.49 1419.66,2392.86 C1391.36,2325.39 1378.06,2241.49 1381.21,2150.23 C1384.23,2062.92 1402.74,1974.22 1433.33,1900.46 C1437.07,1891.44 1446.72,1886.39 1456.27,1888.44 C1710.73,1943.26 2098.13,1986.69 2498.69,1882.27 C2508.53,1879.71 2518.75,1884.85 2522.55,1894.29 C2584.2,2047.51 2576.07,2246.84 2558.38,2387.06 C2557.66,2392.83 2554.48,2398.01 2549.67,2401.27 C2477.29,2450.34 2391.63,2488.19 2295.07,2513.79 C2200.12,2538.96 2096.81,2551.72 1987.99,2551.72 L1987.99,2551.72 Z"/>
    <path fill="#102770" d="M2003.75 2207.97C1926.84 2207.97 1848.66 2203.48 1770.11 2194.52 1560.06 2170.58 1421.94 2123.64 1416.16 2121.65 1405.6 2118.02 1399.98 2106.51 1403.61 2095.95 1407.25 2085.39 1418.75 2079.77 1429.31 2083.41 1430.69 2083.88 1569.86 2131.1 1775.8 2154.47 1965.32 2175.97 2251.89 2181.09 2540.84 2083.37 2551.42 2079.79 2562.9 2085.47 2566.48 2096.05 2570.05 2106.63 2564.38 2118.11 2553.8 2121.68 2422.81 2165.98 2281.5 2193.54 2133.77 2203.6 2090.95 2206.51 2047.55 2207.97 2003.75 2207.97M2003.24 2435.83C1926.94 2435.83 1849.51 2431.33 1771.79 2422.37 1563.97 2398.38 1428.02 2351.35 1422.33 2349.36 1411.79 2345.67 1406.24 2334.14 1409.93 2323.6 1413.62 2313.06 1425.15 2307.5 1435.69 2311.19 1437.05 2311.66 1573.93 2358.94 1777.57 2382.32 1964.97 2403.84 2249 2408.96 2537.81 2311.12 2548.39 2307.54 2559.86 2313.21 2563.45 2323.79 2567.03 2334.37 2561.36 2345.85 2550.78 2349.43 2419.85 2393.78 2279.05 2421.38 2132.3 2431.45 2089.77 2434.37 2046.68 2435.83 2003.24 2435.83"/>
    <path fill="#CF913E" d="M2095.01,3034.15 C2083.59,3024.62 2072.08,3014.14 2060.63,3002.64 C2065.04,3001.17 2069.44,2999.66 2073.82,2998.12 L2084.24,2994.46 L2094.59,2990.64 C2101.52,2988.15 2108.35,2985.43 2115.22,2982.81 C2122.1,2980.19 2128.89,2977.39 2135.76,2974.79 L2156.25,2966.65 C2163.04,2963.85 2169.85,2961.07 2176.62,2958.22 C2183.37,2955.31 2190.11,2952.4 2196.78,2949.33 C2203.42,2946.19 2210.07,2943.07 2216.59,2939.71 C2219.85,2938.02 2223.11,2936.33 2226.33,2934.59 C2229.57,2932.86 2232.82,2931.14 2235.99,2929.3 C2238.98,2927.61 2241.96,2925.89 2244.92,2924.15 C2212.8,2955.83 2162.16,2998.76 2095.01,3034.15"/>
    <path fill="#CFD4E2" d="M1837.57,3098.96 C1807.36,3098.96 1775.82,3096.46 1742.97,3090.93 C1738.73,3087.71 1734.51,3084.42 1730.32,3081.07 C1719.4,3066.11 1709.33,3050.45 1700.09,3034.06 C1707.49,3036.12 1714.93,3037.91 1722.38,3039.45 C1752.41,3045.57 1782.68,3047.9 1812.7,3047.92 C1827.71,3047.89 1842.67,3047.23 1857.55,3046.09 C1872.44,3044.94 1887.25,3043.32 1901.96,3041.18 C1916.68,3039.06 1931.32,3036.59 1945.84,3033.61 L1951.29,3032.52 L1956.72,3031.35 L1967.56,3028.97 L1978.36,3026.41 L1983.75,3025.11 L1989.12,3023.73 L1999.86,3020.97 L2010.53,3018.02 L2015.87,3016.55 L2021.18,3014.98 L2031.8,3011.86 C2041.44,3008.88 2051.07,3005.83 2060.63,3002.64 C2072.08,3014.14 2083.59,3024.62 2095.01,3034.15 C2025.95,3070.54 1939.43,3098.96 1837.57,3098.96"/>
    <path fill="#A9B1CB" d="M1742.97,3090.93 C1740.95,3090.59 1738.95,3090.24 1736.92,3089.88 C1734.69,3086.97 1732.49,3084.03 1730.32,3081.07 C1734.51,3084.42 1738.73,3087.71 1742.97,3090.93"/>
    <path fill="#102770" d="M1736.92 3089.88C1727.21 3088.14 1717.38 3086.14 1707.45 3083.85 1694.76 3065.57 1682.95 3045.92 1672.19 3024.74 1674.04 3025.47 1675.9 3026.19 1677.75 3026.89 1685.15 3029.59 1692.6 3031.97 1700.09 3034.06 1709.33 3050.45 1719.4 3066.11 1730.32 3081.07 1732.49 3084.03 1734.69 3086.97 1736.92 3089.88M1723.04 1799.19C1721.26 1797.32 1719.73 1795.42 1718.13 1793.59L1715.71 1790.88C1714.92 1789.98 1714.19 1789.06 1713.34 1788.21 1710.15 1784.7 1706.97 1781.34 1703.74 1778.15 1697.3 1771.76 1690.72 1765.99 1683.96 1760.88 1670.44 1750.65 1656.21 1743.11 1641.17 1739.1 1626.13 1735.09 1610.17 1734.85 1593.39 1738.23 1585.01 1739.91 1576.46 1742.45 1567.75 1745.6 1559.06 1748.87 1550.36 1752.85 1541.08 1756.82L1540.79 1756.94C1536.84 1758.64 1532.27 1756.8 1530.58 1752.86 1529.51 1750.37 1529.88 1747.59 1531.26 1745.48 1537.23 1736.53 1544.54 1728.47 1552.87 1721.2 1561.27 1714.03 1570.82 1707.81 1581.35 1703.01 1591.87 1698.21 1603.41 1694.86 1615.41 1693.54 1627.39 1692.2 1639.77 1692.88 1651.68 1695.59 1663.59 1698.27 1675.01 1702.91 1685.23 1709.19 1695.45 1715.47 1704.44 1723.38 1711.96 1732.24 1719.48 1741.12 1725.53 1751.02 1729.86 1761.46 1732.06 1766.67 1733.72 1772.07 1735.02 1777.5 1735.66 1780.21 1736.09 1783 1736.52 1785.73 1736.85 1788.5 1737.07 1791.28 1737.14 1794.06 1737.25 1798.42 1733.81 1802.04 1729.46 1802.15 1727.15 1802.21 1725.05 1801.28 1723.57 1799.74L1723.04 1799.19M2233.91 1793.63C2234.15 1790.86 2234.54 1788.09 2235.05 1785.34 2235.65 1782.65 2236.25 1779.9 2237.06 1777.22 2238.7 1771.89 2240.69 1766.6 2243.21 1761.54 2248.2 1751.39 2254.85 1741.9 2262.92 1733.51 2270.98 1725.14 2280.45 1717.81 2291.05 1712.18 2301.64 1706.56 2313.33 1702.64 2325.38 1700.71 2337.43 1698.76 2349.84 1698.86 2361.71 1700.95 2373.6 1703.02 2384.91 1707.08 2395.11 1712.54 2405.31 1717.99 2414.45 1724.8 2422.39 1732.48 2430.24 1740.26 2437.03 1748.77 2442.43 1758.07 2444.58 1761.78 2443.32 1766.54 2439.6 1768.7 2437.26 1770.06 2434.5 1770.06 2432.24 1768.94L2431.92 1768.77C2422.9 1764.22 2414.47 1759.71 2406.01 1755.9 2397.5 1752.21 2389.14 1749.14 2380.88 1746.93 2364.35 1742.5 2348.4 1741.74 2333.14 1744.8 2317.88 1747.85 2303.2 1754.49 2289.07 1763.85 2281.99 1768.53 2275.06 1773.87 2268.24 1779.85 2264.81 1782.83 2261.43 1785.98 2258.03 1789.28 2257.13 1790.07 2256.34 1790.94 2255.5 1791.79L2252.91 1794.35C2251.2 1796.08 2249.55 1797.88 2247.65 1799.63L2247.12 1800.12C2243.92 1803.08 2238.92 1802.88 2235.97 1799.68 2234.4 1797.98 2233.72 1795.76 2233.91 1793.63"/>
    <path fill="#FFAC32" d="M2302.88,2869.4 C2297.07,2872.74 2291.3,2876.03 2285.54,2879.26 L2285.49,2879.26 C1980.04,3050.64 1759.17,3049.02 1659.73,2997.15 C1621.25,2977.08 1600.93,2949.53 1600.93,2921.52 C1600.93,2903.32 1605.18,2888.87 1613.32,2876.88 C1618.02,2869.96 1624.08,2863.84 1631.32,2858.38 C1673.63,2826.33 1757.8,2814.9 1869.02,2775.27 C1878.12,2772.03 1887.83,2768.09 1897.99,2763.59 C1965.93,2733.76 2053.04,2680.08 2094.14,2653.94 C2108.85,2644.59 2117.65,2638.77 2117.65,2638.77 L2302.88,2869.4"/>
    <path fill="#FFDEAD" d="M1645.38,2927.68 C1639.24,2922.41 1633.77,2916.57 1629.09,2910.15 C1627.08,2907.42 1625.22,2904.58 1623.51,2901.64 C1624.85,2897.03 1626.82,2892.88 1629.3,2888.97 C1632.03,2884.7 1635.65,2880.82 1639.89,2877.15 C1644.16,2873.47 1649.18,2870.1 1654.61,2867.02 C1665.51,2860.83 1678.11,2855.77 1691.12,2851.16 C1704.16,2846.57 1717.73,2842.45 1731.45,2838.42 C1758.94,2830.41 1787.05,2822.68 1815.01,2814.11 C1829,2809.83 1842.97,2805.36 1856.89,2800.65 C1860.36,2799.45 1863.84,2798.29 1867.31,2797.07 L1877.79,2793.37 C1885.01,2790.75 1892.04,2787.92 1898.97,2784.97 C1926.42,2773.11 1952.73,2759.78 1978.49,2745.78 C1984.94,2742.29 1991.31,2738.7 1997.72,2735.16 L2016.79,2724.32 C2023.11,2720.68 2029.5,2717.14 2035.96,2713.72 C2039.26,2711.92 2042.58,2710.14 2045.88,2708.34 C2006.6,2746.56 1943.98,2796.1 1860.38,2826.48 C1749.46,2866.8 1663.02,2883.8 1645.38,2927.68"/>
    <path fill="#CF913E" d="M1812.65,3007.92 C1784.83,3007.91 1757.12,3005.72 1730.43,3000.27 C1717.11,2997.51 1704.08,2993.92 1691.6,2989.36 C1685.41,2987.01 1679.26,2984.55 1673.45,2981.66 C1667.61,2978.81 1661.94,2975.73 1656.68,2972.27 C1652.54,2969.57 1648.58,2966.7 1644.9,2963.64 C1640.9,2949.75 1641.25,2937.97 1645.38,2927.68 C1682.14,2959.21 1743.78,2970.83 1814.65,2970.83 C1932.94,2970.84 2077.04,2938.45 2174.44,2912.2 C2169.34,2914.64 2164.24,2917.06 2159.17,2919.57 L2139.86,2928.7 C2133.38,2931.64 2126.88,2934.55 2120.36,2937.4 C2117.09,2938.81 2113.8,2940.17 2110.52,2941.54 C2107.25,2942.93 2103.95,2944.26 2100.63,2945.54 C2094,2948.11 2087.39,2950.72 2080.7,2953.13 L2070.7,2956.82 L2060.65,2960.35 C2047.25,2965.08 2033.74,2969.39 2020.19,2973.58 L2009.99,2976.58 L2004.9,2978.08 L1999.78,2979.5 L1989.54,2982.32 L1979.26,2984.97 L1974.13,2986.29 L1968.97,2987.52 L1958.66,2989.98 L1948.31,2992.24 L1943.14,2993.36 L1937.95,2994.39 C1924.12,2997.23 1910.23,2999.57 1896.31,3001.58 C1882.4,3003.61 1868.44,3005.13 1854.48,3006.2 C1840.53,3007.28 1826.56,3007.89 1812.65,3007.92"/>
    <path fill="#CFB9A1" d="M1644.9,2963.64 C1643.9,2962.81 1642.92,2961.96 1641.96,2961.1 C1637.53,2957.07 1633.59,2952.75 1630.38,2948.23 C1627.16,2943.72 1624.68,2939.01 1623.07,2934.28 C1622.73,2933.09 1622.37,2931.91 1622.05,2930.73 L1621.7,2928.94 C1621.58,2928.35 1621.41,2927.76 1621.37,2927.17 C1621.28,2925.98 1620.99,2924.8 1621.02,2923.61 L1620.94,2921.84 C1620.91,2921.57 1620.94,2921.17 1620.94,2920.81 L1620.97,2919.69 C1621.09,2913.75 1621.79,2908.13 1623.14,2903 C1623.25,2902.54 1623.38,2902.09 1623.51,2901.64 C1625.22,2904.58 1627.08,2907.42 1629.09,2910.15 C1633.77,2916.57 1639.24,2922.41 1645.38,2927.68 C1641.25,2937.97 1640.9,2949.75 1644.9,2963.64"/>
    <path fill="#66DADD" d="M1897.98,2763.59 C1896.67,2772.64 1893.18,2780.98 1887.57,2785.89 C1880.34,2792.16 1869.82,2794.48 1864.21,2802.27 C1856.88,2812.38 1861.18,2826.33 1861.23,2838.82 C1861.38,2859.95 1847.63,2879.92 1828.87,2889.63 C1810.12,2899.38 1787.27,2899.53 1767.3,2892.66 C1752.99,2887.7 1738.33,2879.21 1723.77,2883.15 C1717.5,2884.87 1712.09,2888.77 1706.13,2891.34 C1688.84,2898.93 1667.86,2894.93 1652.64,2883.76 C1643.64,2877.14 1636.51,2868.29 1631.31,2858.38 C1673.62,2826.33 1757.79,2814.91 1869.01,2775.27 C1878.11,2772.04 1887.82,2768.09 1897.98,2763.59"/>
    <path fill="#102770" d="M1731.67,2867.12 C1743.26,2867.12 1753.89,2871.35 1763.56,2875.19 C1766.59,2876.39 1769.45,2877.53 1772.21,2878.48 C1789.37,2884.39 1807.98,2883.59 1821.95,2876.32 C1836.59,2868.74 1846.33,2853.72 1846.23,2838.92 C1846.22,2836.2 1845.94,2833.17 1845.64,2829.97 C1844.76,2820.38 1843.69,2808.73 1849.31,2797.93 C1815.69,2809.13 1784.95,2817.9 1757.2,2825.81 C1712.91,2838.44 1676.54,2848.82 1652.07,2862.71 C1654.93,2866.15 1658.09,2869.14 1661.53,2871.68 C1673.18,2880.23 1688.68,2882.62 1700.1,2877.61 C1701.87,2876.84 1703.72,2875.85 1705.69,2874.8 C1709.72,2872.64 1714.29,2870.2 1719.8,2868.69 C1723.86,2867.59 1727.82,2867.12 1731.67,2867.12 Z M1795.45,2912.46 C1784.52,2912.46 1773.32,2910.6 1762.42,2906.84 C1758.99,2905.66 1755.68,2904.34 1752.48,2903.07 C1743.13,2899.35 1734.3,2895.84 1727.69,2897.63 C1725.47,2898.24 1722.73,2899.71 1719.83,2901.26 C1717.53,2902.49 1714.92,2903.89 1712.08,2905.11 C1690.92,2914.39 1664.08,2910.77 1643.76,2895.85 C1633.25,2888.11 1624.6,2877.86 1618.03,2865.36 C1614.62,2858.87 1616.4,2850.85 1622.25,2846.43 C1650.46,2825.06 1693.93,2812.66 1748.97,2796.96 C1782.95,2787.27 1821.47,2776.29 1863.98,2761.14 C1872.37,2758.16 1881.77,2754.37 1891.91,2749.88 C1896.9,2747.67 1902.7,2748.34 1907.05,2751.64 C1911.4,2754.94 1913.61,2760.35 1912.83,2765.75 C1910.9,2779.03 1905.43,2790.2 1897.44,2797.18 C1893.16,2800.89 1888.62,2803.34 1884.62,2805.5 C1881.04,2807.44 1877.66,2809.26 1876.38,2811.04 C1874.29,2813.91 1874.92,2820.68 1875.52,2827.22 C1875.86,2830.93 1876.21,2834.76 1876.23,2838.76 C1876.41,2864.51 1860.15,2890.33 1835.77,2902.95 C1823.62,2909.26 1809.76,2912.46 1795.45,2912.46 L1795.45,2912.46 Z"/>
    <path fill="#102770" d="M2306.2,2875.18 C2301.29,2881.2 2295.91,2886.46 2290.4,2891.55 C2287.64,2894.07 2284.79,2896.46 2281.92,2898.81 C2279.05,2901.17 2276.14,2903.45 2273.19,2905.67 C2267.27,2910.09 2261.16,2914.18 2254.96,2918.13 C2251.87,2920.12 2248.69,2921.94 2245.52,2923.8 C2242.36,2925.65 2239.19,2927.5 2235.99,2929.3 C2232.82,2931.14 2229.57,2932.86 2226.33,2934.59 C2223.11,2936.33 2219.85,2938.02 2216.59,2939.71 C2210.07,2943.07 2203.42,2946.19 2196.78,2949.33 C2190.11,2952.4 2183.37,2955.31 2176.62,2958.22 C2169.85,2961.07 2163.04,2963.85 2156.25,2966.65 L2135.76,2974.79 C2128.89,2977.39 2122.1,2980.19 2115.22,2982.81 C2108.35,2985.43 2101.52,2988.15 2094.59,2990.64 L2084.24,2994.46 L2073.82,2998.12 C2059.93,3003.02 2045.89,3007.51 2031.8,3011.86 L2021.18,3014.98 L2015.87,3016.55 L2010.53,3018.02 L1999.86,3020.97 L1989.12,3023.73 L1983.75,3025.11 L1978.36,3026.41 L1967.56,3028.97 L1956.72,3031.35 L1951.29,3032.52 L1945.84,3033.61 C1931.32,3036.59 1916.68,3039.06 1901.96,3041.18 C1887.25,3043.32 1872.44,3044.94 1857.55,3046.09 C1842.67,3047.23 1827.71,3047.89 1812.7,3047.92 C1782.68,3047.9 1752.41,3045.57 1722.38,3039.45 C1707.38,3036.34 1692.45,3032.26 1677.75,3026.89 C1670.43,3024.11 1663.12,3021.18 1655.98,3017.64 C1648.82,3014.15 1641.75,3010.32 1634.92,3005.83 C1628.08,3001.38 1621.42,2996.43 1615.13,2990.77 C1608.87,2985.07 1602.96,2978.68 1597.78,2971.41 C1592.62,2964.16 1588.19,2955.98 1585.15,2947 C1584.45,2944.74 1583.77,2942.45 1583.18,2940.14 L1582.44,2936.61 C1582.2,2935.43 1581.93,2934.26 1581.81,2933.05 C1581.53,2930.64 1581.12,2928.25 1581.08,2925.81 L1580.94,2922.17 C1580.91,2921.53 1580.94,2921.03 1580.95,2920.49 L1580.98,2918.89 C1581.15,2910.38 1582.15,2901.54 1584.49,2892.68 C1586.78,2883.83 1590.68,2875.06 1595.76,2867.18 C1600.85,2859.26 1607.23,2852.47 1613.93,2846.72 C1620.64,2840.97 1627.73,2836.29 1634.87,2832.24 C1649.17,2824.15 1663.58,2818.52 1677.81,2813.44 C1692.05,2808.43 1706.18,2804.16 1720.21,2800.03 C1748.27,2791.86 1775.95,2784.25 1803.31,2775.86 C1816.99,2771.68 1830.57,2767.33 1844.06,2762.76 C1847.42,2761.6 1850.8,2760.48 1854.15,2759.29 L1864.13,2755.77 C1870.51,2753.46 1876.9,2750.89 1883.29,2748.17 C1908.96,2737.08 1934.32,2724.27 1959.39,2710.64 C1965.66,2707.24 1971.89,2703.73 1978.14,2700.28 C1984.37,2696.78 1990.58,2693.21 1996.79,2689.65 C2002.97,2686.05 2009.05,2682.25 2015.09,2678.39 L2033.11,2666.63 C2045.14,2658.82 2057.67,2651.85 2070.77,2645.7 C2077.35,2642.7 2084.14,2640.01 2091.29,2637.85 C2094.84,2636.73 2098.52,2635.8 2102.26,2634.98 C2106.02,2634.18 2109.87,2633.49 2113.96,2633.21 L2114.09,2633.2 C2118.28,2632.92 2121.9,2636.09 2122.18,2640.28 C2122.28,2641.73 2121.95,2643.14 2121.32,2644.33 C2119.37,2648.03 2117.16,2651.29 2114.84,2654.42 C2112.53,2657.53 2110.1,2660.49 2107.57,2663.28 C2102.52,2668.91 2097.11,2673.98 2091.43,2678.64 C2080.04,2687.91 2067.89,2696.02 2055.19,2703.21 C2048.83,2706.8 2042.37,2710.23 2035.96,2713.72 C2029.5,2717.14 2023.11,2720.68 2016.79,2724.32 L1997.72,2735.16 C1991.31,2738.7 1984.94,2742.29 1978.49,2745.78 C1952.73,2759.78 1926.42,2773.11 1898.97,2784.97 C1892.04,2787.92 1885.01,2790.75 1877.79,2793.37 L1867.31,2797.07 C1863.84,2798.29 1860.36,2799.45 1856.89,2800.65 C1842.97,2805.36 1829,2809.83 1815.01,2814.11 C1787.05,2822.68 1758.94,2830.41 1731.45,2838.42 C1717.73,2842.45 1704.16,2846.57 1691.12,2851.16 C1678.11,2855.77 1665.51,2860.83 1654.61,2867.02 C1649.18,2870.1 1644.16,2873.47 1639.89,2877.15 C1635.65,2880.82 1632.03,2884.7 1629.3,2888.97 C1626.58,2893.26 1624.47,2897.84 1623.14,2903 C1621.79,2908.13 1621.09,2913.75 1620.97,2919.69 L1620.94,2920.81 C1620.94,2921.17 1620.91,2921.57 1620.94,2921.84 L1621.02,2923.61 C1620.99,2924.8 1621.28,2925.98 1621.37,2927.17 C1621.41,2927.76 1621.58,2928.35 1621.7,2928.94 L1622.05,2930.73 C1622.37,2931.91 1622.73,2933.09 1623.07,2934.28 C1624.68,2939.01 1627.16,2943.72 1630.38,2948.23 C1633.59,2952.75 1637.53,2957.07 1641.96,2961.1 C1646.43,2965.12 1651.4,2968.83 1656.68,2972.27 C1661.94,2975.73 1667.61,2978.81 1673.45,2981.66 C1679.26,2984.55 1685.41,2987.01 1691.6,2989.36 C1704.08,2993.92 1717.11,2997.51 1730.43,3000.27 C1757.12,3005.72 1784.83,3007.91 1812.65,3007.92 C1826.56,3007.89 1840.53,3007.28 1854.48,3006.2 C1868.44,3005.13 1882.4,3003.61 1896.31,3001.58 C1910.23,2999.57 1924.12,2997.23 1937.95,2994.39 L1943.14,2993.36 L1948.31,2992.24 L1958.66,2989.98 L1968.97,2987.52 L1974.13,2986.29 L1979.26,2984.97 L1989.54,2982.32 L1999.78,2979.5 L2004.9,2978.08 L2009.99,2976.58 L2020.19,2973.58 C2033.74,2969.39 2047.25,2965.08 2060.65,2960.35 L2070.7,2956.82 L2080.7,2953.13 C2087.39,2950.72 2094,2948.11 2100.63,2945.54 C2103.95,2944.26 2107.25,2942.93 2110.52,2941.54 C2113.8,2940.17 2117.09,2938.81 2120.36,2937.4 C2126.88,2934.55 2133.38,2931.64 2139.86,2928.7 L2159.17,2919.57 C2165.56,2916.41 2172,2913.38 2178.42,2910.29 L2188.05,2905.66 L2197.73,2901.13 C2204.16,2898.06 2210.67,2895.14 2217.17,2892.19 C2230.18,2886.3 2243.18,2880.37 2256.81,2875.49 C2263.58,2872.96 2270.52,2870.71 2277.6,2868.67 C2284.68,2866.62 2291.87,2864.75 2299.54,2863.63 L2299.65,2863.61 C2303.54,2863.04 2307.16,2865.74 2307.73,2869.64 C2308.03,2871.69 2307.41,2873.69 2306.2,2875.18"/>
    <polygon fill="#FFF" points="1323.54 2739.53 1405.89 2739.53 1405.89 2568.35 1323.54 2568.35"/>
    <path fill="#102770" d="M1326.04,2737.03 L1403.39,2737.03 L1403.39,2570.85 L1326.04,2570.85 L1326.04,2737.03 Z M1321.04,2742.03 L1408.39,2742.03 L1408.39,2565.85 L1321.04,2565.85 L1321.04,2742.03 Z"/>
    <path fill="#CFD4E2" d="M1343.78,2668.27 L1343.78,2616.8 C1350.3,2613.85 1356.73,2610.74 1362.88,2607.75 C1370.82,2603.9 1378.53,2600.17 1385.67,2597.14 L1385.67,2650.42 L1343.78,2668.27"/>
    <path fill="#102770" d="M1343.78,2719.29 L1385.67,2719.29 L1385.67,2588.57 L1343.78,2588.57 L1343.78,2719.29 Z M1405.89,2759.74 L1323.56,2759.74 C1312.39,2759.74 1303.34,2750.68 1303.34,2739.51 L1303.34,2568.35 C1303.34,2557.18 1312.39,2548.13 1323.56,2548.13 L1405.89,2548.13 C1417.06,2548.13 1426.11,2557.18 1426.11,2568.35 L1426.11,2739.51 C1426.11,2750.68 1417.06,2759.74 1405.89,2759.74 L1405.89,2759.74 Z"/>
    <path fill="#FFF" d="M1413.2,2848.32 L1307.58,2848.32 C1280.21,2848.32 1258.02,2826.13 1258.02,2798.76 L1258.02,2758.13 C1258.02,2730.76 1280.21,2708.57 1307.58,2708.57 L1413.2,2708.57 C1440.58,2708.57 1462.77,2730.76 1462.77,2758.13 L1462.77,2798.76 C1462.77,2826.13 1440.58,2848.32 1413.2,2848.32"/>
    <path fill="#102770" d="M1307.58,2711.07 C1281.63,2711.07 1260.52,2732.18 1260.52,2758.13 L1260.52,2798.76 C1260.52,2824.71 1281.63,2845.82 1307.58,2845.82 L1413.2,2845.82 C1439.15,2845.82 1460.27,2824.71 1460.27,2798.76 L1460.27,2758.13 C1460.27,2732.18 1439.15,2711.07 1413.2,2711.07 L1307.58,2711.07 M1413.2,2850.82 L1307.58,2850.82 C1278.87,2850.82 1255.52,2827.46 1255.52,2798.76 L1255.52,2758.13 C1255.52,2729.43 1278.87,2706.07 1307.58,2706.07 L1413.2,2706.07 C1441.91,2706.07 1465.27,2729.43 1465.27,2758.13 L1465.27,2798.76 C1465.27,2827.46 1441.91,2850.82 1413.2,2850.82"/>
    <path fill="#CFD4E2" d="M1442.54,2784.97 C1415.35,2778.84 1386.74,2776.1 1359.25,2776.1 C1332.52,2776.1 1304.75,2778.69 1278.24,2784.45 L1278.24,2758.13 C1278.24,2758.05 1278.24,2757.96 1278.24,2757.88 C1286.62,2751.4 1297.12,2747.54 1308.52,2747.54 L1414.18,2747.54 C1424.71,2747.54 1434.47,2750.83 1442.5,2756.44 C1442.53,2757 1442.54,2757.57 1442.54,2758.13 L1442.54,2784.97"/>
    <path fill="#102770" d="M1307.58,2728.79 C1291.4,2728.79 1278.24,2741.96 1278.24,2758.13 L1278.24,2798.76 C1278.24,2814.94 1291.4,2828.1 1307.58,2828.1 L1413.2,2828.1 C1429.38,2828.1 1442.54,2814.94 1442.54,2798.76 L1442.54,2758.13 C1442.54,2741.96 1429.38,2728.79 1413.2,2728.79 L1307.58,2728.79 M1413.2,2868.54 L1307.58,2868.54 C1269.1,2868.54 1237.8,2837.24 1237.8,2798.76 L1237.8,2758.13 C1237.8,2719.66 1269.1,2688.35 1307.58,2688.35 L1413.2,2688.35 C1451.68,2688.35 1482.99,2719.66 1482.99,2758.13 L1482.99,2798.76 C1482.99,2837.24 1451.68,2868.54 1413.2,2868.54"/>
    <path fill="#2CDFF9" d="M1582.63,2937.75 C1582.63,3050.44 1566.86,3236.73 1458.52,3329.9 L1259.89,3329.9 C1220.56,3296.08 1193.46,3249.98 1174.86,3199.57 C1142.2,3111.15 1135.78,3009.54 1135.78,2937.75 C1135.78,2825.12 1255.39,2786.09 1359.23,2786.09 C1412.72,2786.09 1470.4,2796.45 1513.78,2821.98 L1513.83,2821.98 C1554.52,2845.89 1582.63,2883.2 1582.63,2937.75"/>
    <path fill="#75FDFF" d="M1480.06,3057.83 C1480.06,3136.11 1427.48,3199.56 1362.62,3199.56 C1297.76,3199.56 1245.18,3136.11 1245.18,3057.83 C1245.18,2979.55 1297.76,2916.09 1362.62,2916.09 C1427.48,2916.09 1480.06,2979.55 1480.06,3057.83"/>
    <path fill="#E7CFFD" d="M1135.82,2934.45 C1135.8,2932.19 1135.8,2929.96 1135.8,2927.76 C1135.8,2860.45 1178.52,2819.42 1235.07,2797.31 C1235.98,2797.89 1236.89,2798.46 1237.8,2799.03 C1237.81,2801.42 1237.94,2803.77 1238.18,2806.1 C1181.03,2827.56 1137.21,2867.86 1135.82,2934.45 M1561.2,2855.01 C1559.51,2853.94 1557.83,2852.86 1556.09,2851.84 L1556.04,2851.84 C1552.61,2849.82 1549.08,2847.89 1545.47,2846.06 C1544.08,2844.67 1542.66,2843.32 1541.21,2841.99 C1544.23,2841.65 1547.18,2841.29 1550.06,2840.92 C1554.1,2845.36 1557.82,2850.05 1561.2,2855.01"/>
    <path fill="#ECD3B2" d="M1482.64,2805.81 C1482.87,2803.49 1482.99,2801.14 1482.99,2798.76 L1482.99,2797.18 C1489.05,2799.54 1494.95,2802.12 1500.67,2804.93 C1494.81,2805.29 1488.8,2805.59 1482.64,2805.81"/>
    <path fill="#9FA9C6" d="M1541.21,2841.99 C1532.99,2834.49 1523.78,2827.83 1513.83,2821.98 L1513.78,2821.98 C1504.01,2816.23 1493.52,2811.25 1482.51,2806.99 C1482.55,2806.6 1482.6,2806.2 1482.64,2805.81 C1488.8,2805.59 1494.81,2805.29 1500.67,2804.93 C1505.17,2807.14 1509.55,2809.5 1513.79,2811.99 L1513.84,2811.99 C1527.56,2820.05 1539.82,2829.66 1550.06,2840.92 C1547.18,2841.29 1544.23,2841.65 1541.21,2841.99 M1237.8,2799.03 C1236.89,2798.46 1235.98,2797.89 1235.07,2797.31 C1235.98,2796.95 1236.89,2796.6 1237.8,2796.26 L1237.8,2798.76 C1237.8,2798.85 1237.8,2798.94 1237.8,2799.03"/>
    <path fill="#ECEEF3" d="M1442.54,2794.96 C1415.34,2788.83 1386.73,2786.09 1359.23,2786.09 C1332.51,2786.09 1304.74,2788.67 1278.24,2794.43 L1278.24,2784.45 C1304.75,2778.69 1332.52,2776.1 1359.25,2776.1 C1386.74,2776.1 1415.35,2778.84 1442.54,2784.97 L1442.54,2794.96"/>
    <path fill="#9FA9C6" d="M1482.51,2806.99 C1469.77,2802.05 1456.33,2798.07 1442.54,2794.96 L1442.54,2784.97 C1456.51,2788.11 1470.1,2792.16 1482.99,2797.18 L1482.99,2798.76 C1482.99,2801.14 1482.87,2803.49 1482.64,2805.81 C1482.6,2806.2 1482.55,2806.6 1482.51,2806.99 M1238.18,2806.1 C1237.94,2803.77 1237.81,2801.42 1237.8,2799.03 C1237.8,2798.94 1237.8,2798.85 1237.8,2798.76 L1237.8,2796.26 C1250.71,2791.38 1264.3,2787.48 1278.24,2784.45 L1278.24,2794.43 C1264.44,2797.43 1250.98,2801.29 1238.18,2806.1"/>
    <path fill="#ABF2FD" d="M1209.14,3205.95 C1199.43,3204.79 1189.42,3203.02 1179.11,3200.6 C1177.65,3196.95 1176.24,3193.28 1174.88,3189.58 C1143.22,3103.87 1136.21,3005.77 1135.82,2934.45 C1137.21,2867.86 1181.03,2827.56 1238.18,2806.1 C1250.98,2801.29 1264.44,2797.43 1278.24,2794.43 C1304.74,2788.67 1332.51,2786.09 1359.23,2786.09 C1386.73,2786.09 1415.34,2788.83 1442.54,2794.96 C1456.33,2798.07 1469.77,2802.05 1482.51,2806.99 C1493.52,2811.25 1504.01,2816.23 1513.78,2821.98 L1513.83,2821.98 C1523.78,2827.83 1532.99,2834.49 1541.21,2841.99 C1542.66,2843.32 1544.08,2844.67 1545.47,2846.06 C1536.21,2836.86 1525.54,2828.87 1513.83,2821.98 L1513.78,2821.98 C1513.78,2821.98 1513.4,2825.71 1512.49,2832.45 C1477.58,2820.92 1438.53,2815.95 1401.5,2815.95 C1297.66,2815.95 1178.05,2854.98 1178.05,2967.61 C1178.05,3033.12 1183.39,3123.46 1209.14,3205.95"/>
    <path fill="#26BADE" d="M1458.52,3329.9 L1259.89,3329.9 C1220.56,3296.08 1193.46,3249.98 1174.86,3199.57 C1176.27,3199.93 1177.71,3200.27 1179.11,3200.6 C1197.52,3246.68 1223.46,3288.57 1259.91,3319.91 L1265.12,3319.91 C1244.88,3293.01 1229.2,3262.14 1217.12,3229.43 C1214.27,3221.69 1211.61,3213.86 1209.14,3205.95 C1218.68,3207.08 1227.93,3207.63 1236.9,3207.63 C1267.76,3207.63 1295.28,3201.14 1319.8,3189.84 C1333.06,3196.12 1347.51,3199.56 1362.62,3199.56 C1427.48,3199.56 1480.06,3136.11 1480.06,3057.83 C1480.06,3037.5 1476.51,3018.16 1470.13,3000.69 C1497.76,2928.13 1509.01,2858.26 1512.49,2832.45 C1524.01,2836.25 1535.08,2840.77 1545.47,2846.06 C1568.38,2868.81 1582.63,2898.91 1582.63,2937.75 C1582.63,3050.44 1566.86,3236.73 1458.52,3329.9"/>
    <path fill="#61D2E2" d="M1362.62,3199.56 C1347.51,3199.56 1333.06,3196.12 1319.8,3189.84 C1394.39,3155.48 1441.21,3076.62 1470.13,3000.69 C1476.51,3018.16 1480.06,3037.5 1480.06,3057.83 C1480.06,3136.11 1427.48,3199.56 1362.62,3199.56"/>
    <path fill="#8CC9E1" d="M1265.12,3319.91 L1259.91,3319.91 C1223.46,3288.57 1197.52,3246.68 1179.11,3200.6 C1189.42,3203.02 1199.43,3204.79 1209.14,3205.95 C1211.61,3213.86 1214.27,3221.69 1217.12,3229.43 C1229.2,3262.14 1244.88,3293.01 1265.12,3319.91 M1545.47,2846.06 C1535.08,2840.77 1524.01,2836.25 1512.49,2832.45 C1513.4,2825.71 1513.78,2821.98 1513.78,2821.98 L1513.83,2821.98 C1525.54,2828.87 1536.21,2836.86 1545.47,2846.06"/>
    <path fill="#102770" d="M1267.61,3309.7 L1450.83,3309.7 C1542.89,3224.93 1562.43,3061.31 1562.43,2937.76 C1562.43,2894.14 1541.44,2860.36 1500.04,2837.35 C1464.03,2817.34 1414.02,2806.32 1359.22,2806.32 C1304.42,2806.32 1254.41,2817.34 1218.4,2837.35 C1177,2860.36 1156.01,2894.14 1156.01,2937.76 C1156.01,3061.31 1175.55,3224.93 1267.61,3309.7 Z M1458.52,3350.14 L1259.92,3350.14 C1255.08,3350.14 1250.4,3348.4 1246.73,3345.25 C1195.67,3301.34 1158.95,3234.27 1137.57,3145.91 C1122.97,3085.53 1115.57,3015.5 1115.57,2937.76 C1115.57,2879.19 1144.33,2832.25 1198.75,2802 C1240.67,2778.71 1297.66,2765.87 1359.22,2765.87 C1420.78,2765.87 1477.77,2778.71 1519.69,2802 C1574.11,2832.25 1602.87,2879.19 1602.87,2937.76 C1602.87,3015.5 1595.47,3085.53 1580.87,3145.91 C1559.49,3234.27 1522.77,3301.34 1471.71,3345.25 C1468.04,3348.4 1463.36,3350.14 1458.52,3350.14 L1458.52,3350.14 Z"/>
    <path fill="#FFF" d="M1258.02,2609.52 C1287.99,2659.23 1361.48,2598.68 1401.56,2588.93 C1441.64,2579.18 1522.89,2571.6 1531.56,2547.77 C1540.22,2523.94 1463.31,2463.27 1374.48,2487.1 C1285.65,2510.94 1235.81,2572.68 1258.02,2609.52"/>
    <path fill="#102770" d="M1260.16,2608.23 C1280.58,2642.08 1323.14,2621.46 1360.7,2603.25 C1375.51,2596.07 1389.5,2589.29 1400.97,2586.51 C1410.95,2584.08 1423.45,2581.78 1436.69,2579.36 C1475.22,2572.3 1523.17,2563.5 1529.21,2546.91 C1531.13,2541.62 1527.55,2533.3 1519.62,2524.65 C1506.99,2510.88 1485.76,2498.42 1462.83,2491.32 C1442.83,2485.13 1411.39,2479.79 1375.12,2489.52 C1346.24,2497.27 1319.86,2509.57 1298.83,2525.09 C1279.64,2539.26 1265.55,2555.79 1259.16,2571.64 C1253.64,2585.34 1253.99,2597.99 1260.16,2608.23 M1292.36,2631.38 C1276.19,2631.38 1264.19,2624.59 1255.88,2610.81 C1248.86,2599.17 1248.4,2584.98 1254.52,2569.77 C1269.09,2533.62 1315.92,2500.22 1373.83,2484.69 C1411.24,2474.65 1443.68,2480.15 1464.31,2486.54 C1488.05,2493.89 1510.1,2506.88 1523.31,2521.27 C1532.79,2531.62 1536.56,2541.33 1533.91,2548.62 C1526.89,2567.91 1479.45,2576.6 1437.59,2584.28 C1424.43,2586.69 1412,2588.97 1402.15,2591.36 C1391.2,2594.03 1377.44,2600.69 1362.88,2607.75 C1344.19,2616.81 1323.02,2627.07 1304.17,2630.31 C1300.01,2631.03 1296.07,2631.38 1292.36,2631.38"/>
    <path fill="#A97C48" d="M1273.75,2627.59 C1264.59,2625.29 1256.59,2619.73 1250.44,2609.52 C1244.84,2600.23 1243.83,2589.37 1246.86,2577.93 C1248.09,2579.86 1249.4,2581.63 1250.78,2583.22 C1249.27,2593.31 1250.98,2602.68 1255.88,2610.81 C1260.61,2618.66 1266.54,2624.24 1273.75,2627.59"/>
    <path fill="#CFD4E2" d="M1292.57,2626.35 C1279.47,2626.35 1268.13,2621.44 1260.16,2608.23 C1256.49,2602.14 1254.88,2595.21 1255.34,2587.71 C1262.56,2593.72 1271.14,2596.13 1280.54,2596.13 C1315.23,2596.13 1360.98,2563.21 1389.64,2556.23 C1425.01,2547.63 1492.38,2540.71 1513.72,2522.83 C1522.38,2532.23 1526.31,2541.34 1523.97,2547.77 C1521.37,2554.92 1512.23,2560.61 1499.64,2565.33 C1481.37,2571.17 1457.64,2575.52 1436.69,2579.36 C1423.45,2581.78 1410.95,2584.08 1400.97,2586.51 C1397.41,2587.37 1393.61,2588.62 1389.62,2590.15 C1369.83,2596.29 1343.34,2612.27 1317.99,2621.68 C1309.11,2624.54 1300.52,2626.35 1292.57,2626.35"/>
    <path fill="#102770" d="M1284.83,2628.88 C1280.99,2628.88 1277.28,2628.48 1273.75,2627.59 C1266.54,2624.24 1260.61,2618.66 1255.88,2610.81 C1250.98,2602.68 1249.27,2593.31 1250.78,2583.22 C1252.23,2584.9 1253.75,2586.39 1255.34,2587.71 C1254.88,2595.21 1256.49,2602.14 1260.16,2608.23 C1268.13,2621.44 1279.47,2626.35 1292.57,2626.35 C1300.52,2626.35 1309.11,2624.54 1317.99,2621.68 C1306.45,2625.96 1295.15,2628.88 1284.83,2628.88 M1389.62,2590.15 C1393.61,2588.62 1397.41,2587.37 1400.97,2586.51 C1410.95,2584.08 1423.45,2581.78 1436.69,2579.36 C1457.64,2575.52 1481.37,2571.17 1499.64,2565.33 C1470.25,2576.35 1422.03,2582.11 1393.98,2588.93 C1392.56,2589.28 1391.11,2589.68 1389.62,2590.15"/>
    <path fill="#102770" d="M1275.87,2600.01 C1279.11,2606.09 1283.32,2611.32 1299.11,2608.6 C1314.83,2605.88 1334.82,2596.16 1352.47,2587.59 C1368.41,2579.84 1383.46,2572.53 1396.78,2569.28 C1409.43,2566.21 1424.25,2564.69 1439.95,2563.08 C1466.97,2560.32 1503.49,2556.58 1511.43,2543.34 C1509.28,2539.12 1501.63,2530 1486.36,2520.93 C1471.4,2512.04 1431.07,2492.86 1379.72,2506.63 C1325.64,2521.14 1285.25,2545.79 1274.32,2570.97 C1270.06,2580.79 1270.55,2590.02 1275.87,2600.01 Z M1291.63,2649.74 C1261.48,2649.74 1246.65,2631.18 1240.17,2619.02 C1229.07,2598.18 1228.05,2575.99 1237.22,2554.86 C1253.42,2517.55 1301.54,2485.73 1369.24,2467.57 C1401.89,2458.81 1436.36,2459.44 1468.9,2469.41 C1495.68,2477.61 1519.99,2491.9 1535.61,2508.62 C1555.18,2529.57 1553.46,2546.25 1550.69,2554.33 C1544.34,2572.82 1528.42,2586.04 1503.35,2593.6 C1485.02,2599.13 1464.2,2601.26 1444.07,2603.32 C1429.79,2604.78 1416.3,2606.16 1406.34,2608.58 C1397.23,2610.8 1384.08,2617.19 1370.15,2623.96 C1350.09,2633.71 1327.35,2644.76 1305.99,2648.45 C1300.86,2649.34 1296.08,2649.74 1291.63,2649.74 L1291.63,2649.74 Z"/>
    <path fill="#66DADD" d="M1512.3,2568.35 C1512.3,2568.35 1438.46,2708.57 1514.29,2708.57 C1590.12,2708.57 1512.3,2568.35 1512.3,2568.35"/>
    <path fill="#102770" d="M1512.79,2609.73 C1510.94,2614.41 1509.08,2619.38 1507.34,2624.48 C1492.59,2667.57 1498.36,2682.36 1500.48,2685.87 C1501.34,2687.29 1503.62,2691.07 1514.29,2691.07 C1524.65,2691.07 1526.7,2687.59 1527.47,2686.27 C1529.51,2682.81 1534.9,2668.14 1518.77,2624.69 C1516.84,2619.5 1514.81,2614.46 1512.79,2609.73 Z M1514.29,2726.07 C1489.14,2726.07 1476.6,2714.04 1470.51,2703.95 C1458.72,2684.42 1459.98,2654.58 1474.37,2612.72 C1484.06,2584.54 1496.3,2561.18 1496.82,2560.2 C1499.81,2554.51 1505.68,2550.92 1512.11,2550.84923 C1518.51,2550.79 1524.48,2554.24 1527.6,2559.86 C1528.15,2560.84 1541.09,2584.27 1551.58,2612.5 C1567.18,2654.51 1569.16,2684.45 1557.63,2704.03 C1551.71,2714.09 1539.39,2726.07 1514.29,2726.07 L1514.29,2726.07 Z"/>
  </g>
</svg>
