<svg xmlns="http://www.w3.org/2000/svg" width="4000" height="4000" viewBox="0 0 4000 4000">
  <g fill="none" fill-rule="evenodd">
    <polygon fill="#02DAFF" points=".06 4000 4000 4000 4000 .04 .06 .04"/>
    <path fill="#0198D4" d="M2000,3271.87 C1516.69,3271.87 1124.9,3230.86 1124.9,3180.28 C1124.9,3163.94 1165.82,3148.59 1237.5,3135.31 C1255.18,3153.53 1275.4,3169.34 1297.42,3181.95 C1327.91,3199.36 1361.61,3210.91 1396.25,3216.14 L1409.28,3217.78 L1422.38,3218.79 L1435.5,3219.18 C1437.51,3219.23 1439.39,3219.24 1441.23,3219.24 C1442.01,3219.24 1442.78,3219.24 1443.55,3219.24 C1444.29,3219.24 1445.03,3219.24 1445.77,3219.24 C1446.47,3219.24 1447.17,3219.24 1447.88,3219.24 L1496.7,3219.27 L1594.34,3219.33 L1789.61,3218.94 L1984.89,3217.72 L2035.82,3217.35 L2086.76,3217.72 L2282.04,3218.94 L2477.32,3219.33 L2574.96,3219.27 L2623.78,3219.24 C2624.49,3219.24 2625.19,3219.24 2625.89,3219.24 C2626.63,3219.24 2627.37,3219.24 2628.11,3219.24 C2628.88,3219.24 2629.65,3219.24 2630.43,3219.24 C2632.27,3219.24 2634.15,3219.23 2636.16,3219.18 L2649.29,3218.79 L2662.38,3217.78 L2675.42,3216.14 C2710.05,3210.9 2743.75,3199.35 2774.24,3181.93 C2790.81,3172.45 2806.35,3161.16 2820.56,3148.38 C2855.83,3158.32 2875.1,3169.06 2875.1,3180.28 C2875.1,3230.86 2483.31,3271.87 2000,3271.87"/>
    <path fill="#B5CFDD" d="M1315.19,2580.76 C1257.19,2632.03 1245.8,2760.97 1350.14,2835.63 C1417.43,2883.78 1479.14,2881.7 1530.7,2829.52 C1614.22,2744.98 1570.54,2677.96 1505.86,2626.4 C1441.17,2574.83 1370.04,2532.28 1315.19,2580.76"/>
    <path fill="#000072" d="M1370.29,2562.12 C1351.45,2562.12 1333.44,2568.18 1316.96,2582.76 C1288.34,2608.06 1272.01,2652.06 1274.35,2697.58 C1277.13,2751.5 1304.59,2799.76 1351.69,2833.46 C1418.31,2881.12 1477.89,2879.16 1528.8,2827.64 C1560.53,2795.53 1575.69,2763.62 1573.86,2732.81 C1571.82,2698.34 1549.03,2664.22 1504.19,2628.48 C1460.94,2594 1413.45,2562.12 1370.29,2562.12 M1442.57,2872.78 C1412.77,2872.78 1381.19,2861.13 1348.59,2837.8 C1300.14,2803.13 1271.89,2753.43 1269.03,2697.85 C1266.6,2650.75 1283.62,2605.11 1313.42,2578.76 C1370.65,2528.17 1443.65,2573.4 1507.52,2624.31 C1553.6,2661.05 1577.05,2696.43 1579.18,2732.5 C1581.11,2764.88 1565.43,2798.15 1532.59,2831.39 C1505.34,2858.97 1475.01,2872.78 1442.57,2872.78"/>
    <path fill="#E1ECF1" d="M1482.06,2649.73 C1441.61,2618.96 1399.31,2593.91 1360.55,2593.91 C1343.41,2593.91 1326.97,2598.8 1311.67,2610.27 C1316.07,2604.01 1321.03,2598.39 1326.5,2593.55 C1339.19,2582.33 1353.51,2576.62 1370.17,2576.62 C1399.97,2576.62 1437.23,2594.89 1486.05,2632.55 C1484.68,2638.27 1483.35,2643.99 1482.06,2649.73"/>
    <path fill="#8697B5" d="M1349.84,2812.99 C1348.74,2812.35 1347.64,2811.73 1346.52,2811.12 C1311.37,2780.92 1291,2740.9 1288.74,2696.84 C1287.73,2677.19 1290.48,2657.92 1296.39,2640.7 C1317.16,2676.61 1350.53,2704.67 1392.47,2720.99 C1417.12,2730.59 1440.12,2735.36 1461.25,2735.36 C1462.93,2735.36 1464.6,2735.33 1466.25,2735.27 C1465.92,2737.56 1465.61,2739.83 1465.3,2742.12 C1461.83,2742.14 1458.34,2742.3 1454.86,2742.61 C1413.12,2746.25 1377.82,2769.91 1349.84,2812.99"/>
    <path fill="#7E90BD" d="M1461.25,2735.36 C1440.12,2735.36 1417.12,2730.59 1392.47,2720.99 C1350.53,2704.67 1317.16,2676.61 1296.39,2640.7 C1297.15,2638.48 1297.96,2636.29 1298.83,2634.15 C1318.8,2670.87 1352.11,2699.56 1394.4,2716.02 C1418.84,2725.53 1441.35,2730.29 1461.85,2730.29 C1463.58,2730.29 1465.29,2730.25 1466.99,2730.18 C1466.74,2731.87 1466.49,2733.58 1466.25,2735.27 C1464.6,2735.33 1462.93,2735.36 1461.25,2735.36"/>
    <path fill="#000072" d="M1370.17,2576.62 C1353.51,2576.62 1339.19,2582.33 1326.5,2593.55 C1301.08,2616.02 1286.62,2655.59 1288.74,2696.84 C1291.28,2746.29 1316.62,2790.65 1360.08,2821.75 C1420.9,2865.26 1472.74,2863.89 1518.55,2817.52 C1547.29,2788.43 1561.06,2760.22 1559.48,2733.67 C1557.69,2703.51 1536.67,2672.79 1495.21,2639.75 C1441.86,2597.22 1401.8,2576.62 1370.17,2576.62 M1442.86,2887.62001 C1410.22,2887.63 1375.73,2874.93 1340.21,2849.51 C1288.12,2812.24 1257.73,2758.65 1254.64,2698.59 C1252,2647.21 1270.87,2597.16 1303.88,2567.97 C1377.87,2502.55 1475.02,2579.98 1516.5,2613.05 C1565.96,2652.48 1591.17,2691.27 1593.56,2731.65 C1595.74,2768.28 1578.67,2805.25 1542.84,2841.51 C1512.49,2872.24 1478.79,2887.62001 1442.86,2887.62001"/>
    <path fill="#B5CFDD" d="M2577.06,2871.13 C2571.53,3053.24 2440.46,3196.66 2282.65,3196.66 L1769.3,3196.66 C1611.49,3196.66 1480.42,3053.24 1474.89,2871.13 C1474.67,2862.54 1474.58,2853.87 1474.67,2845.15 C1475.29,2781.27 1484.8,2715.1 1499.68,2650.2 C1510.48,2603.06 1524.07,2556.58 1539.12,2512.09 C1540.62,2507.53 1542.17,2503.02 1543.77,2498.55 C1546.82,2489.74 1549.92,2481.02 1553.06,2472.39 C1562.4,2446.71 1572.14,2421.88 1581.97,2398.15 C1640.58,2256.06 1701.44,2154.52 1701.44,2154.52 L2350.55,2154.52 C2350.55,2154.52 2432.4,2291.03 2497.78,2469.24 C2498.44,2471.1 2499.15,2473.01 2499.82,2474.87 C2500.74,2477.39 2501.63,2479.87 2502.52,2482.39 C2543.06,2595.71 2576.17,2724.61 2577.28,2845.28 C2577.37,2853.91 2577.28,2862.54 2577.06,2871.13"/>
    <path fill="#000072" d="M1702.96,2157.18 C1695.72,2169.47 1638.76,2267.45 1584.43,2399.17 C1574.09,2424.15 1564.37,2449.09 1555.57,2473.3 C1552.43,2481.92 1549.34,2490.63 1546.29,2499.42 C1544.69,2503.89 1543.15,2508.39 1541.65,2512.93 C1525.64,2560.28 1512.39,2606.66 1502.28,2650.8 C1486.3,2720.5 1477.91,2785.9 1477.34,2845.17 C1477.25,2853.45 1477.33,2862.16 1477.56,2871.06 C1483.06,3052.14 1611.21,3193.99 1769.3,3193.99 L2282.65,3193.99 C2440.74,3193.99 2568.89,3052.14 2574.39,2871.05 L2574.39,2871.06 C2574.63,2861.94 2574.7,2853.52 2574.61,2845.31 C2573.65,2740.77 2548.55,2618.97 2500,2483.29 C2499.12,2480.77 2498.24,2478.3 2497.31,2475.79 L2495.27,2470.14 C2434.08,2303.36 2357.52,2171.58 2349.03,2157.18 L1702.96,2157.18 M2282.65,3199.33 L1769.3,3199.33 C1692.06,3199.33 1618.8,3165.46 1563.02,3103.98 C1507.16,3042.42 1474.91,2959.75 1472.22,2871.22 C1471.99,2862.24 1471.92,2853.46 1472,2845.12 C1472.58,2785.46 1481.02,2719.68 1497.08,2649.6 C1507.23,2605.29 1520.53,2558.74 1536.59,2511.24 C1538.1,2506.68 1539.65,2502.14 1541.25,2497.65 C1544.31,2488.85 1547.41,2480.12 1550.55,2471.47 C1559.39,2447.2 1569.13,2422.18 1579.5,2397.13 C1637.51,2256.48 1698.54,2154.16 1699.15,2153.14 L1699.93,2151.85 L2352.06,2151.85 L2352.84,2153.14 C2353.66,2154.51 2435.57,2291.91 2500.29,2468.32 L2502.33,2473.97 C2503.25,2476.48 2504.14,2478.97 2505.03,2481.51 C2553.78,2617.74 2578.98,2740.12 2579.95,2845.25 C2580.03,2853.53 2579.96,2862.02 2579.73,2871.2 L2579.73,2871.22 C2577.04,2959.75 2544.79,3042.42 2488.93,3103.98 C2433.14,3165.46 2359.88,3199.33 2282.65,3199.33"/>
    <path fill="#FFF" d="M2289.84,2840.52 C2289.84,3016.47 2169.68,3159.11 2021.45,3159.11 C1873.22,3159.11 1753.06,3016.47 1753.06,2840.52 C1753.06,2664.56 1873.22,2521.92 2021.45,2521.92 C2169.68,2521.92 2289.84,2664.56 2289.84,2840.52"/>
    <path fill="#000072" d="M1711.23,2171.57 C1677.85,2229.82 1483.3,2582.4 1491.99,2870.6 C1497.22,3043.88 1619.03,3179.62 1769.29,3179.62 L2282.67,3179.62 C2432.94,3179.62 2554.75,3043.88 2559.97,2870.6 C2568.66,2582.4 2374.12,2229.82 2340.74,2171.57 L1711.23,2171.57 M2282.67,3213.76 L1769.29,3213.76 C1687.95,3213.76 1610.9,3178.21 1552.35,3113.66 C1494.2,3049.54 1460.64,2963.58 1457.87,2871.62 C1448.1,2547.94 1677.02,2162 1686.76,2145.73 L1691.74,2137.43 L2360.23,2137.43 L2365.2,2145.73 C2374.95,2162 2603.86,2547.94 2594.1,2871.62 C2591.33,2963.58 2557.77,3049.54 2499.61,3113.66 C2441.06,3178.21 2364.02,3213.76 2282.67,3213.76"/>
    <path fill="#B5CFDD" d="M2888.21428,2953.67 C2888.13,2964.72 2887.43,2975.37 2886.16,2985.52 C2879.2,3040.3 2855.5,3082.3 2827.05,3113.99 C2777.96,3168.68 2707.1,3198.73 2633.61,3198.73 L1438.01,3198.73 C1364.53,3198.73 1293.66,3168.68 1244.58,3114.03 C1210.88,3076.49 1183.78,3024.37 1183.40542,2953.67 C1182.55,2790.49 1302.96,2789.59 1363.67,2843.22 C1367.23,2838.55 1360.31,2828.4 1360.31,2828.4 C1426.76,2718.72 1522.6,2761.5 1583.06,2806.58 C1593.17,2807.8 1599.36,2808.62 1599.36,2808.62 C1599.36,2808.62 1661.67,2859.71 1688.48,2943.89 C1711.04,3014.67 1765.57,3070.72 1836.56,3092.62 C1901.49,3112.68 1968.63,3122.67 2035.85,3122.67 C2102.99,3122.67 2170.22,3112.68 2235.1,3092.62 L2250.21,3087.95 C2320.42,3066.29 2374.54,3011.15 2397.55,2941.35 C2408.81,2907.29 2425.76,2878.75 2441.85,2856.97 C2462.6,2828.81 2481.89,2811.98 2485.33,2809.07 C2485.65,2808.79 2485.86,2808.62 2485.86,2808.62 C2518.41,2783.9 2561.84,2759.21 2605.57,2759.21 C2642.82,2759.21 2680.28,2777.14 2711.31,2828.4 L2709.72,2828.56 C2711.89,2831.1 2714.1,2833.72 2716.27,2836.46 C2761.67,2802.81 2831.84,2797.53 2866.8,2856.32 C2875.89,2871.55 2882.6,2891.08 2885.92,2915.52 C2886.49,2919.65 2886.9,2923.91 2887.23,2928.29 C2887.35,2929.15 2887.43,2930.09 2887.47,2930.99 C2888.01,2938.16 2888.25,2945.73 2888.21428,2953.67"/>
    <path fill="#000072" d="M1282.71,2814.33 C1269.72,2814.33 1257.16,2816.78 1245.93,2821.88 C1206.98,2839.57 1185.73,2886.37 1186.07574,2953.66 C1186.4,3014.53 1206.75,3067.89 1246.56,3112.25 C1294.4,3165.52 1364.18,3196.07 1438.02,3196.07 L2633.61,3196.07 C2707.45,3196.07 2777.23,3165.5 2825.06,3112.21 C2857.77,3075.78 2877.44,3033.05 2883.52,2985.19 C2884.79,2975.05 2885.47,2964.44 2885.54626,2953.65 C2885.59,2945.84 2885.34,2938.29 2884.81,2931.19 C2884.77,2930.29 2884.7,2929.44 2884.59,2928.66 C2884.21,2923.7 2883.79,2919.58 2883.28,2915.88 C2880.16,2892.91 2873.84,2873.32 2864.51,2857.69 C2851.16,2835.23 2831.39,2820.81 2807.35,2815.98 C2778.29,2810.16 2744.84,2818.6 2717.86,2838.6 L2715.78,2840.14 L2714.18,2838.12 C2712.03,2835.41 2709.84,2832.81 2707.69,2830.29 L2704.39,2826.43 L2706.81,2826.18 C2679.87,2783.51 2645.83,2761.87 2605.57,2761.87 C2561.13,2761.87 2516.82,2788.45 2487.47,2810.75 L2487.09,2811.07 C2483.47,2814.13 2464.58,2830.62 2444,2858.55 C2424.46,2884.99 2409.69,2913.13 2400.09,2942.18 C2376.57,3013.51 2320.84,3068.96 2251,3090.5 L2235.89,3095.17 C2171.14,3115.19 2103.84,3125.34 2035.85,3125.34 C1967.88,3125.34 1900.56,3115.19 1835.77,3095.17 C1765.02,3073.34 1709.01,3017.09 1685.94,2944.7 C1661.05,2866.55 1604.53,2816.55 1598.23,2811.17 C1596.29,2810.91 1590.75,2810.2 1582.74,2809.22 L1582.04,2809.14 L1581.47,2808.72 C1546.83,2782.9 1495.19,2754.14 1445.74,2763.79 C1413.66,2770.05 1385.99,2791.77 1363.46,2828.36 C1365.6,2831.9 1369.59,2839.86 1365.79,2844.83 L1364.05,2847.11 L1361.9,2845.21 C1339.23,2825.19 1310.02,2814.33 1282.71,2814.33 M2633.61,3201.4 L1438.02,3201.4 C1362.67,3201.4 1291.44,3170.2 1242.59,3115.81 C1201.88,3070.45 1181.07,3015.9 1180.73572,2953.69 C1180.38,2884.16 1202.75,2835.63 1243.73,2817.03 C1279.16,2800.93 1327.08,2809.67 1361.83,2838.15 C1361.28,2835.53 1359.67,2832.2 1358.11,2829.89 L1357.15,2828.48 L1358.03,2827.01 C1381.53,2788.23 1410.69,2765.2 1444.71,2758.55 C1495.79,2748.58 1548.59,2777.66 1584.09,2804.01 C1593.8,2805.2 1599.71,2805.98 1599.71,2805.98 L1600.46,2806.08 L1601.05,2806.56 C1601.68,2807.08 1664.28,2859.12 1691.02,2943.08 C1713.56,3013.81 1768.27,3068.76 1837.35,3090.07 C1901.63,3109.93 1968.42,3120 2035.85,3120 C2103.3,3120 2170.08,3109.93 2234.32,3090.07 L2249.42,3085.4 C2317.62,3064.37 2372.05,3010.2 2395.02,2940.51 C2404.8,2910.92 2419.83,2882.28 2439.7,2855.39 C2460.64,2826.98 2479.95,2810.12 2483.61,2807.04 L2484.21,2806.52 C2514.24,2783.71 2559.64,2756.54 2605.57,2756.54 C2648.94,2756.54 2685.28,2780.25 2713.6,2827.01 L2715.77,2830.61 L2715.01,2830.69 C2715.59,2831.39 2716.17,2832.09 2716.76,2832.81 C2744.57,2813.01 2778.64,2804.79 2808.4,2810.75 C2833.96,2815.88 2854.95,2831.17 2869.09,2854.96 C2878.8,2871.22 2885.35,2891.47 2888.56,2915.16 C2889.09,2918.96 2889.52,2923.19 2889.89,2928.09 C2890,2928.85 2890.09,2929.89 2890.14,2930.87 C2890.67,2938.04 2890.92,2945.74 2890.88414,2953.69 C2890.8,2964.68 2890.1,2975.51 2888.81,2985.85 C2882.59,3034.81 2862.48,3078.53 2829.03,3115.77 C2780.19,3170.19 2708.97,3201.4 2633.61,3201.4"/>
    <path fill="#7E90BD" d="M2035.82 3180.15L1992.71 3179.84C1996.22 3177.22 1999.56 3174.35 2002.66 3171.24 2015.88 3158.42 2025.29 3143.08 2032.39 3127.76L2033.43 3125.33C2034.24 3125.34 2035.04 3125.34 2035.85 3125.34 2037.33 3125.34 2038.81 3125.33 2040.29 3125.32 2053.13 3151.78 2069.34 3169.23 2092.36 3179.75L2086.76 3179.78 2035.82 3180.15M2314.93 3178.49C2348.82 3168.16 2382.15 3150.43 2410.88 3120.04L2633.63 3120.04C2707.11 3120.04 2777.98 3089.98 2827.03 3035.31 2843.09 3017.44 2857.65 2996.27 2868.53 2971.38 2867.42 2984.32 2865.3 2997.1 2862.06 3009.55 2854.52 3038.45 2840.99 3065.53 2822.33 3088.99 2803.61 3112.46 2780.55 3132.3 2754.38 3147.02 2728.2 3161.68 2699.24 3171.36 2669.5 3175.64L2658.32 3177.03 2647.07 3177.89 2635.8 3178.2C2634.21 3178.25 2632.51 3178.26 2630.77 3178.26 2629.86 3178.26 2628.95 3178.26 2628.03 3178.26 2627.13 3178.25 2626.23 3178.25 2625.34 3178.25 2624.81 3178.25 2624.29 3178.25 2623.78 3178.25L2574.96 3178.23 2477.32 3178.17 2314.93 3178.49M1706.88 3178.39L1594.34 3178.17 1496.7 3178.23 1447.88 3178.25C1447.37 3178.25 1446.85 3178.25 1446.32 3178.25 1445.43 3178.25 1444.53 3178.25 1443.63 3178.26 1442.71 3178.26 1441.8 3178.26 1440.89 3178.26 1439.15 3178.26 1437.45 3178.25 1435.86 3178.2L1424.59 3177.89 1413.34 3177.03 1402.16 3175.64C1372.42 3171.37 1343.46 3161.69 1317.28 3147.03 1291.11 3132.31 1268.05 3112.48 1249.33 3089.01 1230.66 3065.55 1217.13 3038.48 1209.58 3009.57 1206.35 2997.12 1204.22 2984.35 1203.12 2971.4 1214 2996.32 1228.55 3017.5 1244.57 3035.36 1293.67 3089.98 1364.53 3120.04 1438.02 3120.04L1630.7 3120.04 1632.23 3121.83C1652.74 3145.5 1678.43 3165.19 1706.88 3178.39M2282.49 2766.13C2282.08 2764.1 2281.66 2762.1 2281.22 2760.09 2287.02 2744.48 2292.12 2727.65 2296.37 2709.51 2292.63 2728.56 2287.97 2747.58 2282.49 2766.13"/>
    <path fill="#B2B2D4" d="M2035.85,3120 C2035.81,3120 2035.77,3120 2035.72,3120 L2036.75,3117.61 C2037.1,3118.42 2037.45,3119.21 2037.8,3120 C2037.15,3120 2036.5,3120 2035.85,3120 M2036.89,3032.92 C2035.42,3029.5 2033.76,3026.17 2031.94,3022.95 C2022.95,3006.92 2010.29,2993.92 1996.67,2983.31 C1983.08,2972.38 1967.99,2964.68 1952.9,2957.53 C1945.2,2954.53 1937.59,2951.02 1929.79,2948.47 L1918.08,2944.67 L1912.23,2942.77 L1910.76,2942.3 L1909.64,2941.9 L1907.4,2941.12 C1895.35,2937.12 1883.96,2929.01 1873.58,2919.52 C1863.17,2909.96 1853.95,2898.46 1845.53,2886.31 C1831.55,2866.06 1820.04,2843.67 1810.47,2820.38 C1861.01,2908.12 1932.36,2941.79 1987.18,2957.67 C2001.52,2961.83 2014.31,2966.44 2025.73,2971.39 C2037.15,2966.44 2049.94,2961.83 2064.24,2957.67 C2130.13,2938.57 2231.53,2893.74 2281.22,2760.09 C2281.66,2762.1 2282.08,2764.1 2282.49,2766.13 C2255.22,2858.32 2207.64,2939 2152.01,2955.11 C2133.28,2960.53 2116.59,2966.88 2101.97,2974.13 C2098.37,2975.8 2094.82,2977.68 2091.35,2979.77 C2065.68,2994.34 2047.45,3012.1 2036.89,3032.92"/>
    <path fill="#000072" d="M2035.85,3125.34 C2035.04,3125.34 2034.24,3125.34 2033.43,3125.33 L2035.72,3120 C2035.77,3120 2035.81,3120 2035.85,3120 C2036.5,3120 2037.15,3120 2037.8,3120 C2038.62,3121.81 2039.44,3123.59 2040.29,3125.32 C2038.81,3125.33 2037.33,3125.34 2035.85,3125.34"/>
    <path fill="#E1ECF1" d="M1380.38 2837.32C1379.29 2836.14 1378.17 2834.97 1377.04 2833.83 1399.29 2798.62 1426.43 2779.38 1457.76 2776.63 1460.54 2776.38 1463.32 2776.27 1466.11 2776.27 1489.9 2776.27 1514 2784.74 1536.04 2796.58 1536.16 2798.25 1536.28 2799.92 1536.4 2801.59 1536.72 2805.97 1537.06 2810.35 1537.4 2814.73 1514.95 2803.56 1490.54 2795.8 1466.05 2795.8 1436.51 2795.8 1406.86 2807.09 1380.38 2837.32M2691.24 2837.3C2664.77 2807.08 2635.1 2795.8 2605.57 2795.8 2570.66 2795.8 2535.91 2811.55 2506.77 2830.5 2507.3 2824.74 2507.79 2819.07 2508.23 2813.45 2536.65 2793.69 2571.37 2776.26 2605.48 2776.26 2608.28 2776.26 2611.09 2776.38 2613.88 2776.63 2645.21 2779.38 2672.35 2798.62 2694.6 2833.82 2693.46 2834.96 2692.34 2836.12 2691.24 2837.3M2652.6 2953.09L2652.51 2952.83C2666.38 2930.29 2679.33 2907.45 2692.78 2885.58 2697.13 2878.56 2700.7 2873.06 2705.44 2867.81 2710.1 2862.57 2715.24 2857.7 2720.89 2853.42 2732.09 2844.75 2744.93 2838.04 2758.31 2833.73 2768.13 2830.63 2778.29 2828.95 2788.2 2828.95 2791.82 2828.95 2795.42 2829.17 2798.94 2829.63 2812.15 2831.36 2824.22 2836.66 2834.12 2844.91 2846.45 2855.2 2855.07 2870.01 2860.67 2886.78 2846.23 2871.77 2825.37 2858.86 2795.4 2855.58 2791.99 2855.2 2788.6 2855.02 2785.27 2855.02 2707.38 2855.02 2652.6 2953.09 2652.6 2953.09"/>
    <path fill="#000072" d="M2636.89,2966.58 C2644.48,2934.3 2654.91,2903.26 2668.46,2872.66 C2670.3,2868.77 2671.79,2865.2 2674.14,2860.9 C2676.4,2856.81 2678.89,2852.87 2681.58,2849.08 C2687,2841.54 2693.29,2834.7 2700.15,2828.58 C2713.96,2816.43 2730.12,2807.15 2747.62,2801.21 C2765.13,2795.39 2784.12,2792.73 2803.29,2794.95 C2822.41,2797.09 2841.51,2804.92 2856.75,2817.34 C2864.45,2823.46 2871.03,2830.76 2876.62,2838.5 C2879.55,2842.33 2881.87,2846.43 2884.35,2850.46 C2886.46,2854.62 2888.84,2858.72 2890.54,2863 C2897.97,2879.96 2902.25,2897.56 2904.53,2914.96 C2906.79,2932.47 2907.48,2949.53 2906.75,2967 C2905.97,2984.4 2903.6,3001.86 2899.42,3018.97 C2891.06,3053.21 2874.94,3085.67 2853.32,3113.32 C2831.71,3140.93 2804.71,3164.5 2774.24,3181.93 C2743.75,3199.35 2710.05,3210.9 2675.42,3216.14 L2662.38,3217.78 L2649.29,3218.79 L2636.16,3219.18 C2633.31,3219.26 2630.71,3219.25 2628.11,3219.24 C2626.68,3219.24 2625.25,3219.23 2623.78,3219.24 L2574.96,3219.27 L2477.32,3219.33 L2282.04,3218.94 L2086.76,3217.72 L1989.12,3217.01 L1891.48,3215.82 C1882.06,3215.71 1874.51,3207.97 1874.61881,3198.54 C1874.73,3189.26 1882.26,3181.8 1891.48,3181.68 L1989.12,3180.49 L2086.76,3179.78 L2282.04,3178.56 L2477.32,3178.17 L2574.96,3178.23 L2623.78,3178.25 C2625.17,3178.25 2626.6,3178.25 2628.03,3178.26 C2630.71,3178.27 2633.38,3178.28 2635.8,3178.2 L2647.07,3177.89 L2658.32,3177.03 L2669.5,3175.64 C2699.24,3171.36 2728.2,3161.68 2754.38,3147.02 C2780.55,3132.3 2803.61,3112.46 2822.33,3088.99 C2840.99,3065.53 2854.52,3038.45 2862.06,3009.55 C2865.82,2995.08 2868.08,2980.18 2868.98,2965.08 C2869.86,2950.04 2869.44,2934.45 2867.73,2919.66 C2864.35,2890.11 2854.09,2861.58 2834.12,2844.91 C2824.22,2836.66 2812.15,2831.36 2798.94,2829.63 C2785.75,2827.9 2771.71,2829.5 2758.31,2833.73 C2744.93,2838.04 2732.09,2844.75 2720.89,2853.42 C2715.24,2857.7 2710.1,2862.57 2705.44,2867.81 C2700.7,2873.06 2697.13,2878.56 2692.78,2885.58 C2676.12,2912.66 2660.23,2941.24 2642.43,2968.87 L2642.4,2968.92 C2641.49,2970.32 2639.61,2970.73 2638.2,2969.82 C2637.09,2969.11 2636.61,2967.79 2636.89,2966.58"/>
    <path fill="#E1ECF1" d="M1394.41,2911.45 C1370.82,2884.73 1334.95,2855.02 1292.07,2855.02 C1288.74,2855.02 1285.36,2855.2 1281.95,2855.58 C1245.31,2859.59 1222.28,2877.98 1207.97,2897.03 C1213.22,2876.07 1222.72,2857.24 1237.54,2844.96 C1238.71,2843.82 1240,2842.87 1241.35,2842 L1245.3,2839.25 C1248.16,2837.8 1250.82,2835.96 1253.88,2834.88 C1259.73,2832.16 1266.15,2830.66 1272.7,2829.69 C1276,2829.17 1279.36,2828.97 1282.76,2828.97 C1286.13,2828.97 1289.53,2829.16 1292.93,2829.41 C1299.76,2830.24 1306.62,2831.6 1313.32,2833.76 C1319.96,2836.03 1326.63,2838.52 1332.83,2841.98 C1336.03,2843.54 1338.97,2845.51 1342.06,2847.28 C1344.93,2849.33 1348.03,2851.16 1350.71,2853.46 C1356.47,2857.64 1361.41,2862.68 1366.17,2867.82 C1368.42,2870.49 1370.72,2873.15 1372.61,2876.05 C1374.6,2878.67 1376.79,2882.35 1378.86,2885.59 C1384.09,2894.08 1389.25,2902.73 1394.41,2911.45"/>
    <path fill="#000072" d="M2431.74 2875.11C2427.74 2875.11 2423.74 2873.72 2420.5 2870.88 2413.41 2864.68 2412.69 2853.9 2418.89 2846.81 2422.91 2842.2 2518.66 2733.99 2616.78 2742.61 2660.59 2746.43 2697.31 2772.32 2725.92 2819.57 2730.81 2827.63 2728.23 2838.13 2720.16 2843.01 2712.1 2847.89 2701.6 2845.32 2696.72 2837.25 2674.08 2799.86 2646.21 2779.47 2613.88 2776.63 2533.02 2769.56 2445.46 2868.29 2444.59 2869.29 2441.21 2873.13 2436.48 2875.11 2431.74 2875.11M1429.22 2968.87C1411.41 2941.24 1395.52 2912.66 1378.86 2885.59 1376.79 2882.35 1374.6 2878.67 1372.61 2876.05 1370.72 2873.15 1368.42 2870.49 1366.17 2867.82 1361.41 2862.68 1356.47 2857.64 1350.71 2853.46 1348.03 2851.16 1344.93 2849.33 1342.06 2847.28 1338.97 2845.51 1336.03 2843.54 1332.83 2841.98 1326.63 2838.52 1319.96 2836.03 1313.32 2833.76 1306.62 2831.6 1299.76 2830.24 1292.93 2829.41 1286.11 2828.91 1279.26 2828.65 1272.7 2829.69 1266.15 2830.66 1259.73 2832.16 1253.88 2834.88 1250.82 2835.96 1248.16 2837.8 1245.3 2839.25L1241.35 2842C1240 2842.87 1238.71 2843.82 1237.54 2844.96 1217.52 2861.55 1207.21 2890.11 1203.96 2919.7 1202.38 2934.52 1201.75 2950.06 1202.66 2965.11 1203.56 2980.2 1205.83 2995.11 1209.58 3009.57 1217.13 3038.48 1230.66 3065.55 1249.33 3089.01 1268.05 3112.48 1291.11 3132.31 1317.28 3147.03 1343.46 3161.69 1372.42 3171.37 1402.16 3175.64L1413.34 3177.03 1424.59 3177.89 1435.86 3178.2C1438.28 3178.28 1440.96 3178.27 1443.63 3178.26 1445.06 3178.25 1446.49 3178.25 1447.88 3178.25L1496.7 3178.23 1594.34 3178.17 1789.61 3178.56 1984.89 3179.78 2082.52 3180.49 2180.16 3181.68C2189.59 3181.79 2197.14 3189.53 2197.02141 3198.96 2196.91 3208.24 2189.39 3215.7 2180.16 3215.82L2082.52 3217.01 1984.89 3217.72 1789.61 3218.94 1594.34 3219.33 1496.7 3219.27 1447.88 3219.24C1446.41 3219.23 1444.98 3219.24 1443.55 3219.24 1440.95 3219.25 1438.35 3219.26 1435.5 3219.18L1422.38 3218.79 1409.28 3217.78 1396.25 3216.14C1361.61 3210.91 1327.91 3199.36 1297.42 3181.95 1266.96 3164.51 1239.95 3140.95 1218.33 3113.34 1196.72 3085.69 1180.59 3053.24 1172.23 3019 1168.05 3001.89 1165.67 2984.44 1164.89 2967.03L1164.61 2953.98 1164.96 2941.03C1165 2936.73 1165.38 2932.38 1165.78 2928.04 1166.22 2923.69 1166.39 2919.36 1167.17 2914.99 1169.38 2897.6 1173.64 2879.99 1181.05 2863.02 1188.33 2846.07 1199.68 2829.84 1214.9 2817.39 1216.73 2815.75 1218.72 2814.31 1220.79 2812.96 1222.83 2811.59 1224.85 2810.17 1226.94 2808.87 1231.3 2806.59 1235.54 2804.01 1240.17 2802.34 1249.2 2798.41 1258.81 2796.24 1268.34 2795.01 1277.92 2793.71 1287.45 2794.13 1296.81 2795.04 1306.11 2796.26 1315.24 2798.27 1324 2801.23 1341.47 2807.21 1357.71 2816.37 1371.45 2828.63 1378.41 2834.63 1384.53 2841.66 1390.04 2849.1 1395.49 2856.59 1399.93 2865.33 1403.19 2872.67 1416.73 2903.27 1427.16 2934.3 1434.75 2966.58 1435.14 2968.21 1434.12 2969.84 1432.49 2970.23 1431.21 2970.53 1429.92 2969.97 1429.24 2968.92L1429.22 2968.87"/>
    <path fill="#000072" d="M1639.91,2875.11 C1635.16,2875.11 1630.43,2873.14 1627.06,2869.29 C1626.18,2868.29 1538.6,2769.6 1457.76,2776.63 C1425.43,2779.47 1397.56,2799.86 1374.92,2837.25 C1370.05,2845.31 1359.56,2847.9 1351.48,2843.01 C1343.42,2838.13 1340.83,2827.63 1345.72,2819.57 C1374.33,2772.32 1411.05,2746.43 1454.86,2742.61 C1553.01,2733.99 1648.73,2842.2 1652.76,2846.81 C1658.96,2853.91 1658.23,2864.69 1651.14,2870.89 C1647.9,2873.73 1643.9,2875.11 1639.91,2875.11"/>
    <path fill="#B5CFDD" d="M2216.24,1332.8 C2216.24,1332.8 2489.65,866.104 2864.13,1101.19 C2907.16,1128.2 3110.97,1283.46 3108.35,1506.15 C3107.98,1537.93 3087.12,1575.37 3046.82,1553.31 C3046.82,1553.31 3071.34,1690.19 2998.7,1785.44 C2926.06,1880.69 2890.61,1800.45 2890.61,1800.45 C2890.61,1800.45 2820.36,1953.18 2710.85,1881.95 L2216.24,1332.8"/>
    <path fill="#000072" d="M2712.6,1879.9 C2739.48,1897.29 2766.24,1902.31 2792.14,1894.82 C2851.57,1877.64 2887.83,1800.12 2888.19,1799.34 L2890.66,1793.97 L2893.05,1799.37 C2893.17,1799.64 2905.3,1826.38 2928.87,1829.15 C2949.03,1831.52 2971.83,1816.26 2996.58,1783.82 C3067.64,1690.63 3044.44,1555.14 3044.19,1553.78 L3043.21,1548.3 L3048.1,1550.97 C3061.8,1558.47 3073.82,1559.31 3083.83,1553.45 C3098.64,1544.79 3105.49,1523.44 3105.69,1506.12 C3108.08,1302.42 2931.11,1146.38 2862.71,1103.45 C2765.66,1042.52 2666.7,1023.82 2568.57,1047.84 C2367.66,1097.02 2232.45,1311.34 2219.54,1332.49 L2712.6,1879.9 M2768.58,1903.54 C2749.03,1903.54 2729.21,1897.07 2709.4,1884.18 L2708.87,1883.73 L2212.95,1333.14 L2213.94,1331.45 C2215.32,1329.09 2354.74,1094.71 2567.27,1042.67 C2666.87,1018.27 2767.23,1037.21 2865.54,1098.93 C2934.65,1142.3 3113.44,1300.03 3111.02,1506.18 C3110.82,1523.62 3104.28,1547.68 3086.52,1558.06 C3079.12,1562.39 3067.03,1565.62 3050.21,1557.99 C3053.72,1583.96 3065.37,1702.41 3000.82,1787.06 C2974.84,1821.12 2950.48,1837.09 2928.22,1834.44 C2907.96,1832.04 2895.65,1814.92 2890.69,1806.35 C2881.63,1824.03 2847.3,1884.42 2793.62,1899.95 C2785.34,1902.34 2776.98,1903.54 2768.58,1903.54"/>
    <path fill="#E1ECF1" d="M3083.82,1430.84 C3028.74,1282.93 2897.64,1184.07 2864.12,1163.05 C2788.79,1115.77 2717.51,1096.87 2651.77,1096.87 C2498.18,1096.87 2374.62,1199.87 2298.87,1284.73 C2291.71,1281.61 2284.46,1278.59 2277.19,1275.71 C2333.53,1203.86 2438,1094.58 2572.12,1061.8 C2598.51,1055.35 2624.98,1052.13 2651.47,1052.13 C2719.51,1052.13 2787.7,1073.37 2855.05,1115.64 C2912.82,1151.91 3050.24,1271 3083.82,1430.84"/>
    <path fill="#000072" d="M2721.99,1868.8 C2744.92,1883.2 2766.54,1887.2 2788.04,1881.01 C2841.02,1865.77 2874.78,1794.02 2875.11,1793.3 L2890.97,1759.05 L2906.23,1793.55 C2906.28,1793.65 2915.6,1813.17 2930.67,1814.85 C2945.04,1816.36 2964.35,1802.32 2985.12,1775.09 C3052.2,1687.12 3030.24,1557.6 3030.01,1556.3 L3023.81,1521.27 L3055.02,1538.33 C3063.97,1543.24 3071.22,1544.13 3076.56,1541.02 C3084.91,1536.13 3091.11,1521.39 3091.29,1505.95 C3093.6,1308.88 2921.55,1157.39 2855.05,1115.64 C2761.48,1056.9 2666.29,1038.79 2572.12,1061.8 C2393.2,1105.53 2267.02,1285.42 2237.54,1330.95 L2721.99,1868.8 M2768.44,1917.98 C2746.18,1917.98 2723.78,1910.72 2701.54,1896.25 L2699.67,1895.03 L2195.2,1334.95 L2201.51,1324.17 C2207.28,1314.32 2345.44,1082.15 2563.85,1028.68 C2667.37,1003.32 2771.46,1022.86 2873.21,1086.73 C2875.76,1088.33 3128.44,1249.95 3125.43,1506.35 C3125.18,1527.55 3116.74,1557.07 3093.79,1570.49 C3087.23,1574.33 3078.13,1577.65 3066.77,1576.98 C3070.37,1623.36 3069.54,1720.69 3012.27,1795.79 C2982.98,1834.2 2954.09,1852.03 2926.53,1848.75 C2912.1,1847.04 2900.87,1839.85 2892.63,1831.92 C2875.67,1859.01 2843.18,1900.61 2797.62,1913.78 C2787.94,1916.58 2778.2,1917.98 2768.44,1917.98"/>
    <path fill="#B5CFDD" d="M1783.77,1332.8 C1783.77,1332.8 1510.36,866.104 1135.88,1101.19 C1092.85,1128.2 889.033,1283.46 891.651,1506.15 C892.025,1537.93 912.89,1575.37 953.188,1553.31 C953.188,1553.31 928.671,1690.19 1001.31,1785.44 C1073.95,1880.69 1109.39,1800.45 1109.39,1800.45 C1109.39,1800.45 1179.65,1953.18 1289.15,1881.95 L1783.77,1332.8"/>
    <path fill="#000072" d="M1109.35,1793.98 L1111.82,1799.34 C1112.18,1800.12 1148.48,1877.66 1207.89,1894.83 C1233.78,1902.31 1260.53,1897.29 1287.41,1879.9 L1780.46,1332.49 C1767.55,1311.34 1632.35,1097.02 1431.44,1047.84 C1333.3,1023.82 1234.34,1042.52 1137.3,1103.45 C1068.9,1146.38 891.924,1302.42 894.319,1506.12 C894.521,1523.43 901.359,1544.79 916.177,1553.45 C926.184,1559.31 938.203,1558.47 951.907,1550.97 L956.795,1548.3 L955.813,1553.78 C955.571,1555.14 932.361,1690.63 1003.43,1783.82 C1028.17,1816.26 1050.95,1831.53 1071.13,1829.15 C1094.71,1826.38 1106.84,1799.64 1106.96,1799.37 L1109.35,1793.98 M1231.43,1903.54 C1223.02,1903.54 1214.67,1902.34 1206.39,1899.95 C1152.71,1884.42 1118.37,1824.03 1109.32,1806.35 C1104.36,1814.92 1092.05,1832.04 1071.79,1834.44 C1049.59,1837.06 1025.17,1821.12 999.187,1787.06 C934.639,1702.41 946.284,1583.96 949.792,1557.99 C932.983,1565.62 920.886,1562.39 913.484,1558.06 C896.865,1548.34 889.204,1525 888.982,1506.18 C886.56,1300.03 1065.36,1142.3 1134.46,1098.93 C1232.78,1037.2 1333.13,1018.28 1432.73,1042.67 C1645.27,1094.71 1784.68,1329.09 1786.07,1331.45 L1787.06,1333.14 L1290.61,1884.18 C1270.8,1897.07 1250.98,1903.54 1231.43,1903.54"/>
    <path fill="#E1ECF1" d="M916.399,1429.85 C950.324,1270.5 1087.31,1151.83 1144.96,1115.64 C1212.31,1073.37 1280.5,1052.13 1348.54,1052.13 C1375.03,1052.13 1401.5,1055.35 1427.89,1061.8 C1574.46,1097.62 1685.64,1224.82 1737.25,1294.68 C1730.87,1297.7 1724.51,1300.83 1718.22,1304.03 C1644.77,1216.4 1513.93,1096.42 1348.22,1096.42 C1282.46,1096.42 1211.21,1115.31 1135.86,1162.61 C1102.39,1183.63 971.604,1282.25 916.399,1429.85"/>
    <path fill="#FF7878" d="M1696.96,1495.07 C1757.23,1654.49 1598.21,1792.11 1427.78,1792.11 C1257.36,1792.11 1079.79,1680.7 1079.79,1495.07 C1079.79,1324.64 1218.44,1173.53 1388.37,1186.49 C1538.14,1197.9 1648.78,1367.63 1696.96,1495.07"/>
    <path fill="#000072" d="M1368.16,1188.38 C1300.72,1188.38 1235.82,1214.42 1183.53,1262.88 C1119.29,1322.4 1082.46,1407.03 1082.46,1495.07 C1082.46,1679.33 1258.03,1789.44 1427.78,1789.44 C1526.66,1789.44 1622.84,1742.72 1672.81,1670.41 C1698.63,1633.04 1723.36,1572.44 1694.47,1496.01 C1643.55,1361.34 1532.79,1200.17 1388.17,1189.14 C1381.48,1188.64 1374.81,1188.38 1368.16,1188.38 M1427.78,1794.78 C1255.41,1794.78 1077.12,1682.67 1077.12,1495.07 C1077.12,1405.55 1114.58,1319.49 1179.9,1258.96 C1238.45,1204.71 1312.53,1178 1388.58,1183.83 C1535.69,1195.04 1647.99,1357.99 1699.46,1494.13 C1722.64,1555.44 1714.73,1619.13 1677.2,1673.45 C1626.26,1747.15 1528.36,1794.78 1427.78,1794.78"/>
    <path fill="#FF7878" d="M1549.52,1768.39 C1511.76,1783.61 1470.15,1792.11 1427.79,1792.11 C1257.37,1792.11 1079.77,1680.7 1079.77,1495.09 C1079.77,1324.62 1218.46,1173.54 1388.39,1186.47 C1425.84,1189.3 1460.81,1202.05 1493.04,1221.57 C1589.54,1280.14 1660.8,1399.52 1696.97,1495.09 C1742.25,1614.87 1663.68,1722.39 1549.52,1768.39"/>
    <path fill="#000072" d="M1368.22,1188.37 C1300.74,1188.37 1235.8,1214.43 1183.5,1262.91 C1119.28,1322.43 1082.44,1407.06 1082.44,1495.09 C1082.44,1679.34 1258.03,1789.45 1427.79,1789.45 C1468.6,1789.45 1510.35,1781.31 1548.52,1765.91 L1548.53,1765.91 C1652.17,1724.16 1742.05,1621.89 1694.48,1496.03 C1677.29,1450.63 1611.89,1296.83 1491.66,1223.85 C1457.99,1203.46 1423.18,1191.78 1388.19,1189.13 C1381.52,1188.62 1374.85,1188.37 1368.22,1188.37 M1427.79,1794.78 C1255.41,1794.78 1077.1,1682.68 1077.1,1495.09 C1077.1,1405.58 1114.56,1319.53 1179.87,1258.99 C1238.43,1204.73 1312.52,1178.01 1388.6,1183.81 C1424.42,1186.52 1460.03,1198.46 1494.42,1219.29 C1616.12,1293.15 1682.13,1448.34 1699.46,1494.15 C1748.31,1623.36 1656.5,1728.16 1550.52,1770.86 C1511.71,1786.51 1469.27,1794.78 1427.79,1794.78"/>
    <path fill="#B25476" d="M1374.17,1630.63 C1351.14,1591.58 1337.71,1546.14 1337.71,1495.09 C1337.71,1387.36 1393.06,1287.41 1476.7,1231.69 C1530.12,1261.59 1576.42,1311.86 1613.45,1368.16 C1515.53,1438.88 1433.48,1530.68 1374.17,1630.63"/>
    <path fill="#000072" d="M1368.2,1202.79 C1304.39,1202.79 1242.91,1227.48 1193.32,1273.44 C1132.02,1330.25 1096.86,1411.03 1096.86,1495.07 C1096.86,1670.32 1265.11,1775.04 1427.78,1775.04 C1522.08,1775.04 1613.6,1730.76 1660.96,1662.23 C1684.83,1627.69 1707.68,1571.69 1680.99,1501.1 C1631.57,1370.39 1524.95,1214.01 1387.08,1203.51 C1380.77,1203.03 1374.47,1202.79 1368.2,1202.79 M1427.78,1809.18 C1248.33,1809.18 1062.72,1691.69 1062.72,1495.07 C1062.72,1401.55 1101.86,1311.64 1170.11,1248.4 C1231.63,1191.39 1309.6,1163.38 1389.67,1169.46 C1543.53,1181.19 1659.97,1348.94 1712.93,1489.03 C1737.83,1554.91 1729.35,1623.31 1689.05,1681.64 C1635.51,1759.12 1532.95,1809.18 1427.78,1809.18"/>
    <path fill="#FF7878" d="M2282.49,1495.07 C2222.22,1654.49 2381.24,1792.11 2551.66,1792.11 C2722.09,1792.11 2899.66,1680.7 2899.66,1495.07 C2899.66,1324.64 2761.01,1173.53 2591.07,1186.49 C2441.31,1197.9 2330.67,1367.63 2282.49,1495.07"/>
    <path fill="#000072" d="M2611.29,1188.38 C2604.64,1188.38 2597.97,1188.63 2591.28,1189.14 C2446.67,1200.17 2335.9,1361.34 2284.99,1496.01 C2256.09,1572.44 2280.81,1633.04 2306.64,1670.41 C2356.6,1742.72 2452.78,1789.44 2551.66,1789.44 C2721.41,1789.44 2896.99,1679.33 2896.99,1495.07 C2896.99,1407.03 2860.15,1322.4 2795.92,1262.88 C2743.64,1214.43 2678.72,1188.38 2611.29,1188.38 M2551.66,1794.78 C2451.08,1794.78 2353.18,1747.15 2302.25,1673.45 C2264.72,1619.13 2256.81,1555.44 2280,1494.13 L2282.49,1495.07 L2280,1494.13 C2331.46,1357.99 2443.76,1195.04 2590.87,1183.83 C2666.91,1178.01 2741,1204.71 2799.55,1258.96 C2864.87,1319.49 2902.33,1405.55 2902.33,1495.07 C2902.33,1682.67 2724.04,1794.78 2551.66,1794.78"/>
    <path fill="#FF7878" d="M2899.67,1495.09 C2899.67,1680.7 2722.07,1792.11 2551.65,1792.11 C2517.03,1792.11 2482.86,1786.45 2450.95,1776.04 C2325.67,1735.32 2234.44,1622.09 2282.47,1495.09 C2321.25,1392.53 2400.48,1262.52 2508.05,1209.75 C2534.12,1196.96 2561.88,1188.68 2591.09,1186.47 C2761.03,1173.54 2899.67,1324.62 2899.67,1495.09"/>
    <path fill="#000072" d="M2611.27,1188.37 C2604.63,1188.37 2597.97,1188.62 2591.29,1189.13 C2563.7,1191.22 2536.09,1198.97 2509.22,1212.15 C2403.38,1264.07 2323.98,1392.84 2284.97,1496.03 C2266.25,1545.52 2268.09,1596.12 2290.29,1642.37 C2318.71,1701.58 2377.57,1749.38 2451.77,1773.51 C2484.23,1784.09 2517.83,1789.45 2551.65,1789.45 C2721.41,1789.45 2897,1679.34 2897,1495.09 C2897,1407.04 2860.16,1322.41 2795.95,1262.89 C2743.66,1214.42 2678.72,1188.37 2611.27,1188.37 M2551.65,1794.78 C2517.27,1794.78 2483.11,1789.33 2450.12,1778.58 C2374.54,1754.01 2314.52,1705.2 2285.48,1644.68 C2262.63,1597.09 2260.73,1545.03 2279.98,1494.15 C2319.35,1390 2399.64,1259.97 2506.88,1207.36 C2534.35,1193.88 2562.62,1185.95 2590.89,1183.81 C2666.92,1178.02 2741.03,1204.72 2799.57,1258.97 C2864.88,1319.5 2902.33,1405.56 2902.33,1495.09 C2902.33,1682.68 2724.03,1794.78 2551.65,1794.78"/>
    <path fill="#B25476" d="M2665.16,1600.58 C2596.49,1494.98 2502.33,1400.33 2391.22,1332.73 C2429.52,1283.1 2475.54,1241.46 2527.5,1219.55 C2622.14,1271.97 2686.39,1379.02 2686.39,1495.09 C2686.39,1533.55 2678.77,1568.83 2665.16,1600.58"/>
    <path fill="#000072" d="M2611.25 1202.79C2604.98 1202.79 2598.68 1203.03 2592.37 1203.51 2454.5 1214.01 2347.88 1370.39 2298.46 1501.1 2271.77 1571.69 2294.62 1627.69 2318.49 1662.23 2365.85 1730.76 2457.37 1775.04 2551.66 1775.04 2714.33 1775.04 2882.59 1670.32 2882.59 1495.07 2882.59 1411.03 2847.43 1330.25 2786.13 1273.44 2736.54 1227.49 2675.06 1202.79 2611.25 1202.79M2551.66 1809.18C2446.49 1809.18 2343.94 1759.12 2290.4 1681.64 2250.1 1623.31 2241.62 1554.91 2266.52 1489.03 2319.48 1348.94 2435.92 1181.19 2589.78 1169.46 2669.85 1163.36 2747.82 1191.39 2809.34 1248.4 2877.59 1311.64 2916.73 1401.55 2916.73 1495.07 2916.73 1691.69 2731.12 1809.18 2551.66 1809.18M1109.08 1758.92L1124.9 1793.32C1125.23 1794.02 1158.99 1865.77 1211.96 1881.01 1233.46 1887.2 1255.09 1883.21 1278.01 1868.8L1762.46 1330.95C1732.99 1285.42 1606.81 1105.53 1427.89 1061.8 1333.73 1038.78 1238.53 1056.91 1144.96 1115.64 1078.46 1157.39 906.403 1308.88 908.72 1505.95 908.902 1521.38 915.095 1536.13 923.447 1541.02 928.797 1544.15 936.036 1543.23 944.993 1538.33L976.282 1521.21 969.993 1556.32C969.765 1557.6 947.8 1687.12 1014.88 1775.09 1035.73 1802.42 1055.05 1816.45 1069.47 1814.84 1084.52 1813.06 1093.69 1793.74 1093.78 1793.55L1109.08 1758.92M1231.57 1917.98C1221.8 1917.98 1212.07 1916.59 1202.38 1913.78 1156.82 1900.61 1124.34 1859.01 1107.38 1831.92 1099.14 1839.84 1087.91 1847.04 1073.48 1848.75 1045.83 1852.01 1017.02 1834.19 987.735 1795.79 930.461 1720.69 929.636 1623.36 933.238 1576.98 921.843 1577.64 912.771 1574.33 906.213 1570.49 883.264 1557.07 874.83 1527.55 874.58 1506.35 871.567 1249.95 1124.25 1088.33 1126.8 1086.73 1228.55 1022.86 1332.64 1003.33 1436.16 1028.68 1654.56 1082.15 1792.72 1314.32 1798.5 1324.17L1804.81 1334.95 1300.34 1895.03 1298.46 1896.25C1276.22 1910.72 1253.82 1917.98 1231.57 1917.98"/>
    <path fill="#7E90BD" d="M2146.85,2558.76 C2109.42,2535.24 2066.75,2521.92 2021.45,2521.92 C1976.84,2521.92 1934.77,2534.85 1897.75,2557.71 C1775,2547.46 1662.7,2522.12 1568.82,2479.75 C1576.35,2459.08 1584.1,2438.97 1591.94,2419.53 C1678.82,2454.11 1781.64,2476.61 1896.77,2486.22 C1938.83,2497.08 1982.1,2502.51 2025.38,2502.51 C2067.56,2502.51 2109.73,2497.36 2150.75,2487.06 C2267.82,2478.13 2372.44,2456.03 2460.86,2421.58 C2468.71,2441.11 2476.47,2461.33 2483.99,2482.09 C2387.76,2524.57 2272.57,2549.45 2146.85,2558.76"/>
    <path fill="#B2B2D4" d="M2029.01,2563 C1984.22,2563 1940.35,2561.26 1897.75,2557.71 C1934.77,2534.85 1976.84,2521.92 2021.45,2521.92 C2066.75,2521.92 2109.42,2535.24 2146.85,2558.76 C2108.47,2561.61 2069.11,2563 2029.01,2563"/>
    <path fill="#000072" d="M2483.99,2482.09 C2476.47,2461.33 2468.71,2441.11 2460.86,2421.58 C2466.28,2419.47 2471.65,2417.31 2476.96,2415.1 C2484,2432.63 2490.98,2450.71 2497.78,2469.24 C2498.44,2471.1 2499.15,2473.01 2499.82,2474.87 C2494.6,2477.33 2489.33,2479.74 2483.99,2482.09 M1568.82,2479.75 C1563.51,2477.35 1558.26,2474.9 1553.06,2472.39 C1560.48,2452 1568.15,2432.14 1575.91,2412.94 C1581.19,2415.18 1586.54,2417.38 1591.94,2419.53 C1584.1,2438.97 1576.35,2459.08 1568.82,2479.75"/>
    <path fill="#B5CFDD" d="M2029,1244.34 C2441.84,1244.34 2770.61,1649.67 2770.61,1976.72 C2770.61,2329.29 2438.58,2474.49 2029,2474.49 C1619.42,2474.49 1287.4,2329.29 1287.4,1976.72 C1287.4,1649.67 1616.17,1244.34 2029,1244.34"/>
    <path fill="#000072" d="M2029,1247 C1838.56,1247 1652.58,1333.2 1505.33,1489.71 C1370.54,1632.98 1290.06,1815.04 1290.06,1976.71 C1290.06,2142.28 1362.71,2269.73 1505.98,2355.53 C1633.01,2431.61 1813.87,2471.82 2029,2471.82 C2244.13,2471.82 2424.99,2431.61 2552.03,2355.53 C2695.3,2269.73 2767.94,2142.28 2767.94,1976.71 C2767.94,1815.04 2687.47,1632.98 2552.68,1489.71 C2405.43,1333.2 2219.45,1247 2029,1247 M2029,2477.15 C1812.91,2477.15 1631.1,2436.68 1503.24,2360.1 C1358.24,2273.27 1284.73,2144.28 1284.73,1976.71 C1284.73,1813.72 1365.74,1630.29 1501.44,1486.05 C1649.71,1328.46 1837.07,1241.67 2029,1241.67 C2220.94,1241.67 2408.3,1328.46 2556.56,1486.05 C2692.27,1630.29 2773.28,1813.72 2773.28,1976.71 C2773.28,2144.28 2699.76,2273.27 2554.77,2360.1 C2426.9,2436.68 2245.1,2477.15 2029,2477.15"/>
    <path fill="#E1ECF1" d="M1338.47,1787.43 C1373.6,1686.22 1434.69,1585.82 1515.82,1499.58 C1588.55,1422.28 1670.82,1362.46 1758.39,1322.11 C1755.9,1328.34 1754,1334.19 1752.76,1339.58 L1757.96,1340.77 C1758.02,1340.54 1758.07,1340.31 1758.13,1340.08 L1787.11,1339.05 C1581.12,1420.93 1417.27,1598.66 1338.47,1787.43 M2719.51,1787.36 C2633.55,1581.56 2446.49,1388.83 2213.99,1319.23 C2225.35,1314.2 2236.13,1307.55 2245.45,1299.87 C2353.24,1338.8 2454.64,1406.53 2542.19,1499.58 C2623.3,1585.8 2684.38,1686.17 2719.51,1787.36"/>
    <path fill="#7E90BD" d="M2288.06,2434.37 C2291.04,2432.95 2293.98,2431.52 2296.89,2430.09 C2303.77,2426.7 2310.45,2423.29 2316.88,2419.88 C2328.42,2413.74 2339.13,2407.58 2348.69,2401.47 C2358.33,2395.29 2374.43,2374 2390.24,2342.34 C2561.25,2291.45 2690.54,2197.2 2743.87,2051.29 C2745.52,2049.78 2747.18,2048.25 2748.82,2046.69 C2713.94,2295.73 2491.92,2395.7 2288.06,2434.37 M1754.83,2431.4 C1559.34,2391.51 1351.91,2293.71 1311.5,2061.47 C1315.01,2064.84 1318.52,2068.1 1322.05,2071.26 C1378.93,2204.41 1501.98,2291.9 1662.49,2340.75 C1673.05,2362.16 1683.88,2379.33 1693.11,2391 C1699.15,2398.64 1704.5,2403.91 1708.64,2406.48 C1722.08,2414.79 1737.76,2423.15 1754.83,2431.4"/>
    <path fill="#FFF" d="M2254.76,2252.63 C2254.76,2353.46 2153.69,2405.78 2029,2405.78 C1904.32,2405.78 1803.24,2353.46 1803.24,2252.63 C1803.24,2151.79 1904.32,2113.46 2029,2113.46 C2153.69,2113.46 2254.76,2151.79 2254.76,2252.63"/>
    <path fill="#000072" d="M2029,1261.41 C1842.57,1261.41 1660.32,1345.99 1515.82,1499.58 C1383.48,1640.25 1304.47,1818.61 1304.47,1976.71 C1304.47,2410.58 1811.16,2457.42 2029,2457.42 C2246.85,2457.42 2753.54,2410.58 2753.54,1976.71 C2753.54,1818.61 2674.53,1640.25 2542.19,1499.58 C2397.69,1345.99 2215.44,1261.41 2029,1261.41 M2029,2491.56 C1810.3,2491.56 1625.94,2450.38 1495.83,2372.46 C1346.2,2282.85 1270.32,2149.7 1270.32,1976.71 C1270.32,1637.26 1608.74,1227.27 2029,1227.27 C2449.26,1227.27 2787.68,1637.26 2787.68,1976.71 C2787.68,2149.7 2711.81,2282.85 2562.17,2372.46 C2432.07,2450.38 2247.7,2491.56 2029,2491.56"/>
    <path fill="#000072" d="M1559.98 2020.37C1556.33 2012.22 1554.29 2003.29 1553.88 1994.62 1553.28 1985.86 1554.09 1977.2 1555.54 1968.61 1558.71 1951.52 1565.45 1934.99 1575.58 1920.22 1585.73 1905.52 1599.39 1892.47 1615.76 1883.54 1632.02 1874.51 1650.58 1869.53 1668.78 1868.76 1686.83 1868.1 1705.55 1870.91 1722.73 1878.41 1739.89 1885.85 1754.91 1897.87 1765.82 1912.29 1776.84 1926.67 1783.99 1943.21 1787.48 1960.05 1790.96 1976.87 1791.08 1994.19 1787.02 2010.39 1786.05 2014.25 1782.13 2016.59 1778.27 2015.63 1775.27 2014.87 1773.19 2012.34 1772.86 2009.44L1772.84 2009.22C1769.65 1980.12 1757.47 1953.38 1739.11 1935.31 1729.93 1926.33 1719.31 1919.67 1707.78 1915.74 1696.29 1911.74 1683.76 1910.43 1671.01 1911.12 1645.8 1912.93 1623.25 1923.94 1605.64 1943.43 1596.87 1953.07 1589.34 1964.53 1583.68 1977.02 1578.06 1989.53 1574.11 2003.01 1573.71 2016.65L1573.69 2017.65C1573.57 2021.61 1570.27 2024.72 1566.32 2024.61 1563.48 2024.53 1561.08 2022.8 1559.98 2020.37M2484.29 2016.65C2483.9 2003.01 2479.94 1989.53 2474.33 1977.02 2468.66 1964.53 2461.14 1953.07 2452.37 1943.43 2434.76 1923.94 2412.2 1912.93 2386.99 1911.12 2374.25 1910.43 2361.72 1911.74 2350.22 1915.74 2338.69 1919.67 2328.08 1926.33 2318.9 1935.31 2300.53 1953.38 2288.36 1980.12 2285.17 2009.22L2285.15 2009.42C2284.71 2013.38 2281.15 2016.23 2277.2 2015.8 2274.12 2015.46 2271.71 2013.22 2270.99 2010.39 2266.93 1994.19 2267.05 1976.87 2270.53 1960.05 2274.02 1943.21 2281.17 1926.67 2292.19 1912.29 2303.09 1897.87 2318.11 1885.85 2335.28 1878.41 2352.46 1870.91 2371.18 1868.1 2389.22 1868.76 2407.43 1869.53 2425.98 1874.51 2442.25 1883.54 2458.61 1892.47 2472.27 1905.52 2482.42 1920.22 2492.56 1934.99 2499.3 1951.52 2502.46 1968.61 2503.92 1977.2 2504.73 1985.86 2504.12 1994.62 2503.72 2003.29 2501.67 2012.22 2498.02 2020.37 2496.41 2023.98 2492.17 2025.6 2488.55 2023.98 2485.97 2022.83 2484.4 2020.32 2484.32 2017.66L2484.29 2016.65M2020.28 1842.56C2031.51 1839.33 2043.55 1839.33 2054.78 1842.56 2125.85 1863.01 2185.74 1968.71 2200.8 2049.61 2214.69 2124.18 2209.27 2239.84 2037.53 2239.84 1865.79 2239.84 1860.37 2124.18 1874.26 2049.61 1889.32 1968.71 1949.21 1863.01 2020.28 1842.56"/>
    <path fill="#B5CFDD" d="M1755.36,1340.18 C1778,1241.48 2019.22,993.52 2104.89,1104.44 C2117.5,1120.76 2135.33,1168.73 2090.38,1199.87 C2049.37,1228.28 2012.74,1262.76 2021.88,1255.98 C2066.05,1223.22 2241.51,1143.28 2272.13,1229.81 C2286.72,1271.02 2234.86,1315.34 2188.18,1324.77 L1755.36,1340.18"/>
    <path fill="#000072" d="M1757.96,1340.77 L1752.76,1339.58 C1769.97,1264.55 1915.28,1100.15 2022.42,1076.62 C2058.93,1068.61 2087.39,1077.42 2107,1102.81 C2114.03,1111.9 2124.91,1133.78 2121.15,1158.09 C2118.42,1175.71 2108.58,1190.51 2091.9,1202.06 C2073.77,1214.62 2056.75,1228.19 2044.11,1238.86 C2092.22,1211.92 2181.73,1175.9 2235.52,1192.32 C2254.99,1198.26 2268.15,1210.58 2274.65,1228.92 C2279.5,1242.63 2277.64,1257.68 2269.28,1272.44 C2254.71,1298.15 2221.58,1320.75 2188.71,1327.39 L2187.66,1322.16 C2219.12,1315.8 2250.77,1294.27 2264.64,1269.81 C2272.22,1256.44 2273.94,1242.91 2269.62,1230.7 C2263.72,1214.04 2251.72,1202.84 2233.96,1197.42 C2170.84,1178.15 2056.34,1233.75 2023.47,1258.13 C2022.24,1259.04 2020.96,1259.97 2019.4,1259.28 L2017.97,1258.64 L2017.81,1257.06 C2017.42,1252.85 2061.52,1216.61 2088.86,1197.68 C2104.29,1186.99 2113.38,1173.39 2115.88,1157.28 C2119.37,1134.71 2108.84,1113.91 2102.78,1106.07 C2084.54,1082.46 2057.9,1074.31 2023.57,1081.83 C1918.03,1105 1774.9,1266.89 1757.96,1340.77"/>
    <path fill="#E1ECF1" d="M1776.52,1296.97 C1822.11,1216.23 1935.83,1101.1 2023.57,1081.83 C2031.82,1080.03 2039.63,1079.12 2046.99,1079.12 C2070.22,1079.12 2088.92,1088.13 2102.78,1106.07 C2108.84,1113.91 2119.37,1134.71 2115.88,1157.28 C2113.55,1172.34 2105.46,1185.19 2091.82,1195.54 C2092.27,1176.45 2084.16,1159.09 2077.52,1150.48 C2062.4,1130.91 2042.41,1122.51 2019.65,1122.51 C1944.27,1122.51 1838.3,1214.52 1776.52,1296.97"/>
    <path fill="#9999C7" d="M1765.76,1311.88 C1807.97,1222.98 1951.83,1076.45 2046.98,1076.45 C2069.76,1076.45 2089.74,1084.85 2104.88,1104.45 C2117.36,1120.6 2134.98,1167.79 2091.64,1198.95 C2091.73,1197.81 2091.79,1196.67 2091.82,1195.54 C2105.46,1185.19 2113.55,1172.34 2115.88,1157.28 C2119.37,1134.71 2108.84,1113.91 2102.78,1106.07 C2088.92,1088.13 2070.22,1079.12 2046.99,1079.12 C2039.63,1079.12 2031.82,1080.03 2023.57,1081.83 C1935.83,1101.1 1822.11,1216.23 1776.52,1296.97 C1772.76,1301.98 1769.17,1306.96 1765.76,1311.88"/>
    <path fill="#E1ECF1" d="M2247.27,1291.24 C2247.4,1286.13 2246.62,1280.98 2244.8,1275.89 C2233.27,1243.31 2208.73,1232.08 2179.61,1232.08 C2131.37,1232.08 2070.57,1262.91 2035.56,1278.62 C2034.52,1279.08 2033.26,1279.31 2031.9,1279.31 C2023.84,1279.31 2012.12,1271.43 2019.95,1259.46 C2020.14,1259.5 2020.31,1259.52 2020.49,1259.52 C2021.58,1259.52 2022.54,1258.82 2023.47,1258.13 C2033.03,1251.04 2049.49,1241.31 2069.58,1231.55 C2073.77,1230.03 2077.66,1228.38 2080.65,1226.34 C2118.28,1209.21 2165.45,1193.44 2204.07,1193.44 C2214.82,1193.44 2224.92,1194.66 2233.96,1197.42 C2251.72,1202.84 2263.72,1214.04 2269.62,1230.7 C2273.94,1242.91 2272.22,1256.44 2264.64,1269.81 C2260.36,1277.35 2254.4,1284.61 2247.27,1291.24"/>
    <path fill="#9999C7" d="M2247.01,1294.97 C2247.15,1293.73 2247.24,1292.48 2247.27,1291.24 C2254.4,1284.61 2260.36,1277.35 2264.64,1269.81 C2272.22,1256.44 2273.94,1242.91 2269.62,1230.7 C2263.72,1214.04 2251.72,1202.84 2233.96,1197.42 C2224.92,1194.66 2214.82,1193.44 2204.07,1193.44 C2165.45,1193.44 2118.28,1209.21 2080.65,1226.34 C2082.76,1224.9 2084.42,1223.26 2085.4,1221.35 C2122.6,1205.07 2167.55,1190.84 2204.53,1190.84 C2236.2,1190.84 2262.02,1201.28 2272.11,1229.81 C2280.26,1252.78 2267.77,1276.68 2247.01,1294.97 M2020.49,1259.52 C2020.31,1259.52 2020.14,1259.5 2019.95,1259.46 C2023.96,1253.33 2033.08,1246.14 2050.44,1238.37 C2056.07,1235.85 2063.17,1233.86 2069.58,1231.55 C2049.49,1241.31 2033.03,1251.04 2023.47,1258.13 C2022.54,1258.82 2021.58,1259.52 2020.49,1259.52"/>
    <path fill="#000072" d="M1755.38 1357.25C1754.11 1357.25 1752.83 1357.11 1751.55 1356.82 1742.36 1354.71 1736.62 1345.55 1738.72 1336.36 1757.09 1256.26 1905.58 1087.53 2019.34 1062.55 2061.16 1053.37 2095.42 1064.25 2118.4 1094 2129.7 1108.63 2139.33 1134.8 2135.39 1160.3 2133.84 1170.26 2130.37 1179.6 2125.09 1188.13 2165.26 1175.41 2207.65 1168.75 2239.72 1178.54 2263.47 1185.79 2280.24 1201.55 2288.23 1224.11 2294.51 1241.88 2292.29 1261.04 2281.81 1279.54 2265.33 1308.62 2228.22 1334.1 2191.56 1341.51 2182.33 1343.37 2173.32 1337.4 2171.45 1328.16 2169.58 1318.92 2175.56 1309.91 2184.8 1308.04 2212.03 1302.54 2240.34 1283.47 2252.11 1262.71 2257.65 1252.93 2258.97 1243.78 2256.04 1235.51 2251.63 1223.05 2243.28 1215.32 2229.76 1211.2 2175.07 1194.5 2064.99 1245.26 2032.05 1269.69 2024.39 1275.37 2017.75 1274.31 2013.53 1272.43L2004.41 1268.36 2003.47 1258.4C2002.58 1248.81 2006.04 1245.2 2030.57 1224.44 2042.18 1214.62 2060.29 1199.94 2080.66 1185.84 2092.89 1177.37 2099.75 1167.3 2101.64 1155.07 2104.19 1138.63 2096.9 1122.02 2091.38 1114.87 2076.63 1095.78 2055.45 1089.57 2026.66 1095.9 1928.73 1117.4 1788.13 1273.64 1772 1343.99 1770.19 1351.89 1763.16 1357.25 1755.38 1357.25M1937.99 2260.07C1953.54 2266.88 1969.41 2272.33 1985.65 2275.93 2001.89 2279.5 2018.41 2281.39 2034.95 2281.31 2051.48 2281.25 2068.01 2279.36 2084.17 2275.63 2100.37 2271.97 2116.2 2266.47 2131.58 2259.47L2131.72 2259.41C2138.52 2256.31 2146.54 2259.32 2149.63 2266.12 2152.42 2272.24 2150.26 2279.35 2144.84 2282.97 2128.87 2293.63 2111.09 2301.78 2092.48 2307.26 2073.85 2312.68 2054.4 2315.43 2034.95 2315.38 1996.11 2315.27 1957.09 2304.04 1925.41 2282.37 1919.55 2278.36 1918.05 2270.37 1922.05 2264.51 1925.6 2259.33 1932.27 2257.55 1937.81 2259.99L1937.99 2260.07"/>
    <path fill="#B5CFDD" d="M1749.94,2628.68 C1756.53,2765.05 1822.32,2933.35 1906.32,2957.67 C2030.19,2993.55 2040.73,3064.52 2022.61,3109.99 C1998.8,3169.75 1964.12,3190.15 1888.77,3190.15 C1813.42,3190.15 1692.4,3195.18 1621.42,3080.66 C1536.62,2943.84 1549.7,2659.42 1549.7,2659.42 L1749.94,2628.68"/>
    <path fill="#000072" d="M1869.61,3192.85 C1793.56,3192.85 1685.16,3188.55 1619.15,3082.07 C1534.89,2946.11 1546.9,2662.15 1547.03,2659.3 L1552.36,2659.55 C1552.23,2662.38 1540.29,2944.71 1623.69,3079.25 C1691.07,3187.98 1804.53,3187.68 1879.62,3187.5 L1888.77,3187.48 C1963.6,3187.48 1996.75,3167.68 2020.13,3109 C2025.72,3094.98 2032.88,3066.91 2018.04,3036.57 C2001.5,3002.74 1963.66,2977.06 1905.58,2960.23 C1820.54,2935.61 1753.9,2765.8 1747.27,2628.8 L1752.6,2628.55 C1759.14,2763.75 1824.18,2931.11 1907.06,2955.11 C1966.65,2972.37 2005.6,2998.98 2022.84,3034.23 C2038.58,3066.42 2031,3096.13 2025.09,3110.98 C2001.01,3171.4 1965.34,3192.81 1888.77,3192.81 L1879.63,3192.83 C1876.36,3192.84 1873.02,3192.85 1869.61,3192.85"/>
    <path fill="#C4D9E4" d="M1995.8,3076 C1981.82,3020.41 1943.23,2999.01 1906.72,2991.84 C1847.61,2980.23 1797.38,2935.97 1775.51,2874.12 C1770.22,2859.16 1764.87,2842.78 1759.61,2825.09 C1748.79,2779.62 1744.61,2744.02 1744.68888,2716.15 C1745.19,2719.23 1745.72,2722.29 1746.29,2725.34 C1752.04,2757.07 1761.77,2787.98 1773.99,2817.9 C1780.09,2832.87 1786.69,2847.69 1794.2,2862.14 C1801.63,2876.63 1809.78,2890.86 1819.19,2904.49 C1828.63,2918.09 1839.11,2931.27 1851.79,2942.97 C1864.47,2954.54 1879.08,2965.28 1896.88,2971.35 L1908.52,2975.21 L1919.19,2978.68 C1926.3,2980.98 1932.96,2984.12 1939.88,2986.77 C1953.05,2993.04 1966.14,2999.72 1977,3008.57 C1988.04,3017.15 1997.61,3027.15 2004.01,3038.58 C2006.99,3043.86 2009.27,3049.43 2010.84,3055.17 C2006.29,3063.06 2001.31,3069.98 1995.8,3076"/>
    <path fill="#7E90BD" d="M1877.13,3174.17 C1870.65,3174.17 1864.15,3174.13 1857.79,3174.12 C1842.38,3173.94 1827.12,3173.43 1812.07,3172.1 C1782,3169.51 1752.71,3163.23 1725.85,3151.8 C1699.01,3140.37 1675.42,3122.72 1656.35,3100.79 L1649.25,3092.49 C1646.86,3089.75 1645.02,3086.53 1642.87,3083.57 C1638.72,3077.54 1634.38,3071.63 1630.91,3065.11 C1623.57,3052.35 1617.2,3038.79 1611.78,3024.74 C1595.88,2983.88 1585.87,2940.3 1579,2896.03 C1589.31,2935.07 1603.08,2971.58 1621.43,3001.18 C1686.66,3106.44 1794.12,3110.7 1869.61,3110.7 C1876.27,3110.7 1882.68,3110.67 1888.79,3110.67 C1940.29,3110.67 1972.78,3101.13 1995.8,3076 C1997.58,3083.08 1998.96,3090.72 1999.89,3098.96 C2000.74,3106.52 2000.85,3113.7 2000.31,3120.51 C1994.83,3131.1 1988.3,3140.57 1980.46,3148.18 C1962.04,3166.49 1933.7,3172.6 1903.97,3173.78 C1895.41,3174.1 1886.3,3174.17 1877.13,3174.17"/>
    <path fill="#8997C2" d="M2000.31,3120.51 C2000.85,3113.7 2000.74,3106.52 1999.89,3098.96 C1998.96,3090.72 1997.58,3083.08 1995.8,3076 C2001.31,3069.98 2006.29,3063.06 2010.84,3055.17 C2012.66,3061.81 2013.52,3068.68 2013.39,3075.61 L2013.28,3080.46 C2013.13,3082.07 2012.84,3083.68 2012.64,3085.29 C2012.37,3088.54 2011.46,3091.71 2010.71,3094.9 C2009.99,3098.1 2008.65,3101.11 2007.65,3104.29 L2003.34,3114.31 C2002.37,3116.42 2001.36,3118.49 2000.31,3120.51"/>
    <path fill="#000072" d="M1755.26,2628.42 C1765.05,2658.92 1771.53,2688.56 1778.78,2718.31 C1786.4,2747.88 1794.45,2777.31 1804.82,2805.92 C1815.41,2834.38 1828.68,2861.9 1845.53,2886.31 C1853.95,2898.46 1863.17,2909.96 1873.58,2919.52 C1883.96,2929.01 1895.35,2937.12 1907.4,2941.12 L1909.64,2941.9 L1910.76,2942.3 L1912.23,2942.77 L1918.08,2944.67 L1929.79,2948.47 C1937.59,2951.02 1945.2,2954.53 1952.9,2957.53 C1967.99,2964.68 1983.08,2972.38 1996.67,2983.31 C2010.29,2993.92 2022.95,3006.92 2031.94,3022.95 C2040.98,3038.88 2045.76,3057.62 2045.4,3076.05 L2045.19,3082.96 C2044.99,3085.25 2044.62,3087.51 2044.33,3089.78 C2043.87,3094.37 2042.7,3098.78 2041.62,3103.22 C2040.57,3107.65 2038.81,3111.9 2037.37,3116.17 L2032.39,3127.76 C2025.29,3143.08 2015.88,3158.42 2002.66,3171.24 C1989.63,3184.31 1972.48,3192.99 1955.7,3198.06 C1938.76,3203.16 1921.86,3205.02 1905.42,3205.76 C1888.67,3206.36 1873.52,3206.15 1857.5,3206.13 C1841.55,3205.94 1825.44,3205.41 1809.24,3203.99 C1776.89,3201.19 1744.02,3194.35 1713.11,3181.16 C1682.19,3168.02 1654.22,3147.21 1632.23,3121.83 L1624.05,3112.23 C1621.31,3109.04 1619.19,3105.43 1616.74,3102.05 C1611.99,3095.17 1607.09,3088.38 1603.15,3081.04 C1594.86,3066.62 1587.88,3051.68 1582,3036.48 C1558.39,2975.6 1547.58,2912.18 1540.58,2849.06 C1538.83,2833.25 1537.59,2817.42 1536.4,2801.59 C1535.31,2785.76 1533.78,2769.96 1532.85,2754.12 C1531.93,2738.27 1532.16,2722.38 1533.43,2706.52 C1534.98,2690.66 1537.76,2674.84 1544.37,2659.18 C1545.59,2656.28 1548.92,2654.93 1551.82,2656.15 C1553.36,2656.8 1554.46,2658.06 1554.97,2659.52 L1555.03,2659.67 C1560.42,2675.35 1562.91,2690.91 1564.53,2706.41 C1565.94,2721.91 1566.77,2737.39 1567,2752.89 C1567.24,2768.39 1567.28,2783.92 1568.36,2799.38 C1569.46,2814.84 1570.71,2830.28 1572.41,2845.66 C1579.15,2907 1589.87,2968.44 1611.78,3024.74 C1617.2,3038.79 1623.57,3052.35 1630.91,3065.11 C1634.38,3071.63 1638.72,3077.54 1642.87,3083.57 C1645.02,3086.53 1646.86,3089.75 1649.25,3092.49 L1656.35,3100.79 C1675.42,3122.72 1699.01,3140.37 1725.85,3151.8 C1752.71,3163.23 1782,3169.51 1812.07,3172.1 C1827.12,3173.43 1842.38,3173.94 1857.79,3174.12 C1873.14,3174.15 1889.37,3174.32 1903.97,3173.78 C1933.7,3172.6 1962.04,3166.49 1980.46,3148.18 C1989.81,3139.12 1997.29,3127.4 2003.34,3114.31 L2007.65,3104.29 C2008.65,3101.11 2009.99,3098.1 2010.71,3094.9 C2011.46,3091.71 2012.37,3088.54 2012.64,3085.29 C2012.84,3083.68 2013.13,3082.07 2013.28,3080.46 L2013.39,3075.61 C2013.62,3062.69 2010.44,3049.97 2004.01,3038.58 C1997.61,3027.15 1988.04,3017.15 1977,3008.57 C1966.14,2999.72 1953.05,2993.04 1939.88,2986.77 C1932.96,2984.12 1926.3,2980.98 1919.19,2978.68 L1908.52,2975.21 L1896.88,2971.35 C1879.08,2965.28 1864.47,2954.54 1851.79,2942.97 C1839.11,2931.27 1828.63,2918.09 1819.19,2904.49 C1809.78,2890.86 1801.63,2876.63 1794.2,2862.14 C1786.69,2847.69 1780.09,2832.87 1773.99,2817.9 C1761.77,2787.98 1752.04,2757.07 1746.29,2725.34 C1740.4,2693.76 1737.98,2661.1 1744.61,2628.93 C1745.22,2625.95 1748.13,2624.04 1751.11,2624.65 C1753.13,2625.07 1754.65,2626.53 1755.24,2628.35 L1755.26,2628.42"/>
    <path fill="#B5CFDD" d="M2309.14,2628.68 C2302.54,2765.05 2236.76,2933.35 2152.75,2957.67 C2028.88,2993.55 2018.34,3064.52 2036.47,3109.99 C2060.28,3169.75 2094.95,3190.15 2170.3,3190.15 C2245.66,3190.15 2366.67,3195.18 2437.65,3080.66 C2522.46,2943.84 2509.38,2659.42 2509.38,2659.42 L2309.14,2628.68"/>
    <path fill="#000072" d="M2189.46,3192.85 C2186.05,3192.85 2182.71,3192.84 2179.44,3192.83 L2170.3,3192.81 C2093.74,3192.81 2058.07,3171.4 2033.99,3110.98 C2028.07,3096.13 2020.5,3066.42 2036.24,3034.23 C2053.47,2998.98 2092.42,2972.37 2152.01,2955.11 C2234.89,2931.11 2299.93,2763.75 2306.47,2628.55 L2311.8,2628.8 C2305.18,2765.8 2238.53,2935.61 2153.5,2960.23 C2095.42,2977.06 2057.58,3002.74 2041.03,3036.57 C2026.19,3066.91 2033.35,3094.98 2038.94,3109 C2062.32,3167.68 2095.47,3187.48 2170.3,3187.48 L2179.46,3187.5 C2254.55,3187.68 2368,3187.98 2435.39,3079.25 C2518.78,2944.71 2506.84,2662.38 2506.71,2659.55 L2512.04,2659.3 C2512.17,2662.15 2524.19,2946.11 2439.92,3082.07 C2373.92,3188.55 2265.51,3192.85 2189.46,3192.85"/>
    <path fill="#C4D9E4" d="M2065.07,3077.9 C2056.84,3069.39 2049.8,3058.98 2043.54,3046.42 C2047.25,3032.61 2052.5,3020.97 2058.86,3011.18 C2079.27,2989.63 2110.96,2972.55 2153.5,2960.23 C2164.34,2957.09 2174.87,2951.6 2185.03,2944.11 C2220.18,2923.07 2248.31,2889.05 2263.23,2846.85 C2271.84,2822.5 2280.62,2794.48 2288.85,2762.91 C2295.49,2739.89 2300.87,2716.24 2304.8,2692.74 C2306.59,2683.55 2308.32,2674.15 2309.97,2664.52 C2319.22,2695.03 2320.89,2744.59 2301.72,2825.09 C2296.47,2842.78 2291.11,2859.16 2285.82,2874.12 C2263.96,2935.97 2213.72,2980.23 2154.62,2991.84 C2117.69,2999.09 2078.64,3020.89 2065.07,3077.9"/>
    <path fill="#C2C2DD" d="M2091.35,2979.77 C2094.82,2977.68 2098.37,2975.8 2101.97,2974.13 C2098.3,2975.96 2094.76,2977.83 2091.35,2979.77"/>
    <path fill="#35358F" d="M2058.86,3011.18 C2067.87,2997.33 2079.1,2987.16 2091.35,2979.77 C2094.76,2977.83 2098.3,2975.96 2101.97,2974.13 C2111.78,2969.59 2121.98,2966.54 2132.03,2964.57 C2150.8,2960.88 2168.67,2953.9 2185.03,2944.11 C2174.87,2951.6 2164.34,2957.09 2153.5,2960.23 C2110.96,2972.55 2079.27,2989.63 2058.86,3011.18 M2288.85,2762.91 C2294.5,2741.2 2299.9,2717.8 2304.8,2692.74 C2300.87,2716.24 2295.49,2739.89 2288.85,2762.91"/>
    <path fill="#7E90BD" d="M2189.06,3187.51 C2185.8,3187.51 2182.59,3187.5 2179.46,3187.5 L2170.3,3187.48 C2125.43,3187.48 2095.55,3180.36 2073.77,3162.01 C2063.97,3144.76 2058.63,3123.96 2061.44,3098.96 C2062.29,3091.45 2063.51,3084.45 2065.07,3077.9 C2087.98,3101.62 2120.11,3110.67 2170.29,3110.67 C2176.4,3110.67 2182.81,3110.7 2189.47,3110.7 C2264.95,3110.7 2372.42,3106.44 2437.64,3001.18 C2484.55,2925.5 2501.54,2804.68 2507.32,2711.8 C2506.54,2800.39 2496.89,2980.02 2435.39,3079.25 C2370.81,3183.44 2263.95,3187.51 2189.06,3187.51 M2048.14,3129.06 C2044.89,3122.95 2041.84,3116.27 2038.94,3109 C2033.49,3095.32 2026.54,3068.29 2039.97,3038.82 C2041.13,3041.44 2042.32,3043.97 2043.54,3046.42 C2041.47,3054.14 2039.88,3062.54 2038.85,3071.68 C2036.34,3094 2040.3,3112.98 2048.14,3129.06"/>
    <path fill="#000072" d="M2189.31,3190.2 C2182.71,3190.2 2176.35,3190.16 2170.29,3190.16 C2094.96,3190.16 2060.29,3169.76 2036.47,3110.01 C2028,3088.72 2025.8,3061.87 2038.58,3035.62 C2039.04,3036.7 2039.5,3037.77 2039.97,3038.82 C2026.54,3068.29 2033.49,3095.32 2038.94,3109 C2041.84,3116.27 2044.89,3122.95 2048.14,3129.06 C2054.8,3142.69 2064.25,3154.24 2074.91,3163.96 C2074.52,3163.31 2074.14,3162.66 2073.77,3162.01 C2095.55,3180.36 2125.43,3187.48 2170.3,3187.48 L2179.46,3187.5 C2182.59,3187.5 2185.8,3187.51 2189.06,3187.51 C2263.95,3187.51 2370.81,3183.44 2435.39,3079.25 C2496.89,2980.02 2506.54,2800.39 2507.32,2711.8 C2508.4,2694.42 2509.09,2678.02 2509.51,2663.08 C2510.68,2696.63 2516.81,2952.94 2437.64,3080.68 C2372.37,3185.96 2264.81,3190.2 2189.31,3190.2"/>
    <path fill="#8997C2" d="M2073.77,3162.01 C2063.73,3153.54 2055.41,3142.7 2048.14,3129.06 C2040.3,3112.98 2036.34,3094 2038.85,3071.68 C2039.88,3062.54 2041.47,3054.14 2043.54,3046.42 C2049.8,3058.98 2056.84,3069.39 2065.07,3077.9 C2063.51,3084.45 2062.29,3091.45 2061.44,3098.96 C2058.63,3123.96 2063.97,3144.76 2073.77,3162.01"/>
    <path fill="#252586" d="M2074.91,3163.96 C2064.25,3154.24 2054.8,3142.69 2048.14,3129.06 C2055.41,3142.7 2063.73,3153.54 2073.77,3162.01 C2074.14,3162.66 2074.52,3163.31 2074.91,3163.96"/>
    <path fill="#000072" d="M2314.47,2628.93 C2321.1,2661.1 2318.68,2693.76 2312.78,2725.34 C2307.04,2757.07 2297.3,2787.98 2285.08,2817.9 C2278.99,2832.87 2272.38,2847.69 2264.87,2862.14 C2257.45,2876.63 2249.29,2890.86 2239.89,2904.49 C2230.45,2918.09 2219.97,2931.27 2207.28,2942.97 C2194.6,2954.54 2179.99,2965.28 2162.19,2971.35 L2150.55,2975.21 L2139.88,2978.68 C2132.77,2980.98 2126.12,2984.12 2119.2,2986.77 C2106.02,2993.04 2092.94,2999.72 2082.08,3008.57 C2071.04,3017.15 2061.46,3027.15 2055.07,3038.58 C2048.63,3049.97 2045.45,3062.69 2045.68,3075.61 L2045.8,3080.46 C2045.95,3082.07 2046.24,3083.68 2046.44,3085.29 C2046.71,3088.54 2047.62,3091.71 2048.37,3094.9 C2049.09,3098.11 2050.42,3101.11 2051.43,3104.29 L2055.74,3114.31 C2061.79,3127.4 2069.27,3139.12 2078.61,3148.18 C2097.03,3166.49 2125.37,3172.6 2155.1,3173.78 C2169.71,3174.32 2185.94,3174.15 2201.28,3174.12 C2216.69,3173.94 2231.95,3173.43 2247,3172.1 C2277.08,3169.51 2306.36,3163.23 2333.22,3151.8 C2360.07,3140.37 2383.66,3122.72 2402.73,3100.79 L2409.82,3092.49 C2412.21,3089.75 2414.05,3086.53 2416.2,3083.57 C2420.35,3077.54 2424.69,3071.63 2428.16,3065.11 C2435.51,3052.35 2441.87,3038.79 2447.3,3024.74 C2469.2,2968.44 2479.92,2907 2486.67,2845.66 C2488.36,2830.28 2489.62,2814.84 2490.71,2799.38 C2491.79,2783.92 2491.84,2768.39 2492.08,2752.89 C2492.3,2737.39 2493.13,2721.91 2494.54,2706.41 C2496.16,2690.91 2498.66,2675.35 2504.05,2659.67 L2504.09,2659.54 C2505.11,2656.57 2508.35,2654.99 2511.32,2656.01 C2512.9,2656.56 2514.1,2657.75 2514.71,2659.18 C2521.31,2674.84 2524.1,2690.66 2525.64,2706.52 C2526.92,2722.38 2527.15,2738.27 2526.22,2754.12 C2525.29,2769.96 2523.76,2785.76 2522.68,2801.59 C2521.49,2817.42 2520.25,2833.25 2518.49,2849.06 C2511.49,2912.18 2500.69,2975.6 2477.08,3036.48 C2471.19,3051.68 2464.22,3066.62 2455.92,3081.04 C2451.98,3088.38 2447.09,3095.17 2442.34,3102.05 C2439.88,3105.43 2437.76,3109.04 2435.02,3112.23 L2426.85,3121.83 C2404.85,3147.21 2376.89,3168.02 2345.96,3181.16 C2315.05,3194.35 2282.19,3201.19 2249.84,3203.99 C2233.63,3205.42 2217.52,3205.94 2201.57,3206.13 C2185.55,3206.15 2170.4,3206.36 2153.66,3205.76 C2137.21,3205.02 2120.32,3203.16 2103.37,3198.06 C2086.59,3192.99 2069.44,3184.31 2056.41,3171.24 C2043.2,3158.42 2033.78,3143.08 2026.69,3127.76 L2021.71,3116.17 C2020.26,3111.9 2018.51,3107.65 2017.46,3103.22 C2016.38,3098.78 2015.2,3094.37 2014.74,3089.79 C2014.45,3087.51 2014.09,3085.25 2013.89,3082.96 L2013.67,3076.05 C2013.31,3057.62 2018.09,3038.88 2027.14,3022.95 C2036.12,3006.92 2048.78,2993.92 2062.41,2983.31 C2075.99,2972.38 2091.09,2964.68 2106.17,2957.53 C2113.88,2954.53 2121.48,2951.02 2129.29,2948.47 L2140.99,2944.67 L2146.85,2942.77 L2148.31,2942.3 L2149.43,2941.9 L2151.68,2941.12 C2163.73,2937.12 2175.12,2929.01 2185.49,2919.52 C2195.9,2909.96 2205.13,2898.46 2213.54,2886.31 C2230.39,2861.9 2243.67,2834.38 2254.25,2805.92 C2264.62,2777.31 2272.67,2747.88 2280.29,2718.31 C2287.54,2688.56 2294.02,2658.92 2303.81,2628.42 L2303.83,2628.36 C2304.76,2625.47 2307.86,2623.87 2310.75,2624.8 C2312.71,2625.43 2314.08,2627.06 2314.47,2628.93"/>
    <path fill="#6EE5CF" d="M2348.7,2401.45 C2314.83,2423.13 2266.56,2445.34 2217.79,2465.16 C2097.79,2513.91 1961.25,2514.98 1840.5,2468.11 C1791.43,2449.06 1742.83,2427.61 1708.63,2406.46 C1684.23,2391.35 1617.78,2282.09 1616.76,2151.32 C1616.76,2151.32 1765.27,2120.87 1852.94,2030.87 C1940.61,1940.87 2025.08,1947.18 2025.08,1947.18 C2025.08,1947.18 2109.46,1939.55 2198.51,2028.16 C2287.58,2116.78 2436.55,2144.91 2436.55,2144.91 C2437.57,2275.67 2372.86,2385.96 2348.7,2401.45"/>
    <path fill="#10C6A3" d="M2029.04,2451.69 C1969.65,2452.15 1911.86,2441.64 1857.29,2420.46 C1803.58,2399.6 1762.35,2380.49 1734.7,2363.61 C1719.59,2349.4 1678.49,2278.34 1667.77,2190.22 C1722.51,2173.63 1819.31,2136.52 1886.84,2067.2 C1950.6,2001.74 2009.83,1997.98 2021.06,1997.9 C2021.44,1997.89 2021.76,1997.9 2022.01,1997.9 L2026.97,1998.44 L2029.14,1997.84 C2029.35,1997.84 2029.61,1997.8281 2029.9,1997.8281 C2041.12,1997.74 2100.42,2000.57 2165.18,2065.01 C2233.79,2133.27 2331.16,2168.86 2386.15,2184.6 C2376.81,2272.88 2336.84,2344.57 2321.96,2359.02 C2294.59,2376.31 2253.65,2396.09 2200.26,2417.78 C2146.03,2439.81 2088.42,2451.22 2029.04,2451.69"/>
    <path fill="#000072" d="M2453.11 2161.41C2442.94 2161.41 2436.66 2160.97 2435.3 2160.86 2426.49 2160.16 2419.91 2152.46 2420.6 2143.64 2421.3 2134.84 2428.95 2128.25 2437.8 2128.95 2439.73 2129.11 2632.01 2141.93 2758.3 1989.89 2763.95 1983.08 2774.04 1982.15 2780.84 1987.8 2787.64 1993.45 2788.57 2003.54 2782.92 2010.34 2667.68 2149.08 2506.66 2161.41 2453.11 2161.41M1577.99 2169.91C1512.34 2169.91 1381.54 2151.71 1276.25 2023.24 1270.65 2016.41 1271.65 2006.32 1278.48 2000.72 1285.32 1995.11 1295.41 1996.12 1301.01 2002.95 1432.67 2163.6 1606.78 2136.76 1614.12 2135.55 1622.82 2134.07 1631.08 2139.98 1632.54 2148.69 1634.01 2157.39 1628.16 2165.63 1619.45 2167.11 1617.29 2167.48 1601.99 2169.91 1577.99 2169.91"/>
    <path fill="#2F917E" d="M1775.78 2200.48C1812.57 2177.38 1851.39 2157.89 1891.61 2141.18 1911.64 2132.64 1932.27 2125.32 1953.4 2119.04 1974.54 2112.79 1996.29 2107.76 2019.75 2106.68 2043.4 2105.93 2065.68 2110.56 2087.08 2116.05 2108.51 2121.75 2129.21 2128.97 2149.38 2137.3 2159.51 2141.38 2169.5 2145.69 2179.42 2150.16 2189.24 2154.82 2199.06 2159.47 2208.75 2164.37 2228.01 2174.42 2247.08 2184.72 2265.29 2196.66 2265.93 2197.08 2266.11 2197.95 2265.69 2198.6 2265.33 2199.15 2264.64 2199.36 2264.04 2199.15 2223.19 2184.92 2182.8 2170.3 2142.13 2157.59 2121.74 2151.46 2101.42 2145.28 2080.98 2140.85 2075.88 2139.57 2070.79 2138.56 2065.7 2137.66 2060.61 2136.7 2055.51 2135.66 2050.47 2135.17 2040.29 2133.64 2030.5 2132.99 2020.64 2133.31 2001.03 2134.07 1980.35 2138.29 1960.03 2143.46 1939.64 2148.64 1919.25 2154.6 1898.92 2161.12 1858.29 2174.2 1817.86 2188.78 1777 2202.97L1776.98 2202.98C1776.25 2203.24 1775.45 2202.85 1775.2 2202.12 1774.98 2201.49 1775.24 2200.82 1775.78 2200.48M1805.11 2318.47C1841.95 2324.45 1878.27 2331.54 1914.5 2337.95 1932.64 2341.09 1950.72 2344.09 1968.73 2346.63 1986.7 2349.17 2004.77 2351.29 2022.07 2351.46 2039.3 2351.62 2057.1 2349.41 2075.01 2346.79 2092.94 2344.26 2110.88 2340.57 2128.94 2337.25 2164.98 2330.09 2201.09 2322.06 2237.75 2315.09L2237.77 2315.08C2238.53 2314.94 2239.27 2315.44 2239.41 2316.2 2239.53 2316.83 2239.21 2317.44 2238.65 2317.72 2205.03 2334.27 2170.04 2347.45 2134.13 2358.17 2116.19 2363.66 2097.99 2368.31 2079.37 2371.95 2060.76 2375.46 2041.67 2378.29 2021.81 2378.11 2002.03 2377.78 1983.21 2375.11 1964.65 2371.6 1946.09 2368.11 1927.81 2363.82 1909.81 2358.67 1873.76 2348.66 1838.44 2336.52 1804.29 2321.12 1803.59 2320.81 1803.27 2319.98 1803.59 2319.27 1803.86 2318.68 1804.51 2318.37 1805.11 2318.47M1772.92 2255.68C1814.37 2251.73 1855.75 2249.97 1897.1 2248.83 1938.43 2247.52 1979.78 2247.35 2020.92 2247.08 2062.03 2246.74 2103.36 2246.24 2144.7 2246.87 2186.06 2247.31 2227.46 2248.43 2268.98 2251.8 2269.75 2251.86 2270.32 2252.54 2270.26433 2253.31 2270.21 2253.96 2269.71 2254.48 2269.09 2254.58 2227.96 2261.25 2186.7 2265.37 2145.38 2268.41 2104.05 2271.56 2062.69 2273.46 2021.08 2273.72 1979.51 2273.84 1938.14 2272.57 1896.77 2270.06 1855.42 2267.66 1814.1 2264.29 1772.85 2258.46 1772.09 2258.36 1771.55 2257.65 1771.66 2256.88 1771.76 2256.23 1772.29 2255.75 1772.92 2255.68"/>
    <path fill="#7E90BD" d="M2390.24,2342.34 C2412.41,2297.94 2433.99,2233.13 2436.35,2160.94 C2434,2233.13 2412.41,2297.94 2390.24,2342.34"/>
    <path fill="#5865A6" d="M2288.06,2434.37 C2291.04,2432.95 2293.98,2431.52 2296.89,2430.09 C2293.98,2431.52 2291.04,2432.95 2288.06,2434.37 M1754.85,2431.4 L1754.83,2431.4 C1737.76,2423.15 1722.08,2414.79 1708.64,2406.48 C1704.5,2403.91 1699.15,2398.64 1693.11,2391 C1699.14,2398.63 1704.49,2403.9 1708.63,2406.46 C1722.09,2414.78 1737.78,2423.15 1754.85,2431.4 M2316.88,2419.88 C2328.42,2413.74 2339.13,2407.57 2348.7,2401.45 C2358.34,2395.27 2374.44,2373.99 2390.24,2342.34 C2374.43,2374 2358.33,2395.29 2348.69,2401.47 C2339.13,2407.58 2328.42,2413.74 2316.88,2419.88"/>
    <path fill="#000072" d="M2242.18,2455.02 C2257.94,2448.3 2273.39,2441.39 2288.06,2434.37 C2273.4,2441.39 2257.94,2448.31 2242.18,2455.02 M1807.24,2454.76 C1788.99,2447.18 1771.27,2439.34 1754.83,2431.4 L1754.85,2431.4 C1771.29,2439.35 1789,2447.18 1807.24,2454.76"/>
    <path fill="#4DA0B3" d="M2025.39,2502.49 C1962.5,2502.49 1899.61,2491.04 1840.5,2468.09 C1829.34,2463.77 1818.19,2459.31 1807.24,2454.76 C1789,2447.18 1771.29,2439.35 1754.85,2431.4 C1737.78,2423.15 1722.09,2414.78 1708.63,2406.46 C1704.49,2403.9 1699.14,2398.63 1693.11,2391 C1665.05,2355.51 1622.18,2269.1 1617.24,2167.45 C1618.34,2167.29 1619.09,2167.17 1619.45,2167.11 C1623.38,2166.44 1626.73,2164.4 1629.09,2161.55 C1648.39,2238.75 1684.48,2297.06 1703.8,2313.83 C1715.94,2339.46 1727.93,2357.24 1734.7,2363.61 C1762.35,2380.49 1803.58,2399.6 1857.29,2420.46 C1910.71,2441.19 1967.19,2451.7 2025.26,2451.7 C2026.51,2451.7 2027.78,2451.7 2029.04,2451.69 C2088.42,2451.22 2146.03,2439.81 2200.26,2417.78 C2253.65,2396.09 2294.59,2376.31 2321.96,2359.02 C2328.63,2352.54 2340.33,2334.58 2352.06,2308.78 C2371.11,2291.74 2406.31,2232.83 2424.37,2155.28 C2427.03,2158.4 2430.89,2160.51 2435.3,2160.86 C2435.52,2160.88 2435.87,2160.9 2436.35,2160.94 C2433.99,2233.13 2412.41,2297.94 2390.24,2342.34 C2374.44,2373.99 2358.34,2395.27 2348.7,2401.45 C2339.13,2407.57 2328.42,2413.74 2316.88,2419.88 C2310.45,2423.29 2303.77,2426.7 2296.89,2430.09 C2293.98,2431.52 2291.04,2432.95 2288.06,2434.37 C2273.39,2441.39 2257.94,2448.3 2242.18,2455.02 C2234.12,2458.45 2225.97,2461.83 2217.81,2465.14 C2156.55,2490.03 2090.97,2502.49 2025.39,2502.49"/>
    <path fill="#0B8A94" d="M2025.26,2451.7 C1967.19,2451.7 1910.71,2441.19 1857.29,2420.46 C1803.58,2399.6 1762.35,2380.49 1734.7,2363.61 C1727.93,2357.24 1715.94,2339.46 1703.8,2313.83 C1705.28,2315.12 1706.67,2316.16 1707.94,2316.95 C1742.11,2338.13 1790.73,2359.6 1839.8,2378.62 C1898.9,2401.56 1961.81,2413.02 2024.69,2413.02 C2090.28,2413.02 2155.84,2400.56 2217.11,2375.67 C2265.89,2355.88 2314.11,2333.65 2347.99,2311.94 C2349.25,2311.14 2350.61,2310.08 2352.06,2308.78 C2340.33,2334.58 2328.63,2352.54 2321.96,2359.02 C2294.59,2376.31 2253.65,2396.09 2200.26,2417.78 C2146.03,2439.81 2088.42,2451.22 2029.04,2451.69 C2027.78,2451.7 2026.51,2451.7 2025.26,2451.7"/>
    <path fill="#000072" d="M2436.35 2160.94L2436.35 2160.94C2435.87 2160.9 2435.52 2160.88 2435.3 2160.86 2430.89 2160.51 2427.03 2158.4 2424.37 2155.28 2425.33 2151.18 2426.23 2147.03 2427.09 2142.83 2433.15 2144.26 2436.55 2144.89 2436.55 2144.89 2436.59 2150.27 2436.52 2155.63 2436.35 2160.94M1617.24 2167.45C1616.98 2162.11 1616.82 2156.73 1616.78 2151.31 1616.78 2151.31 1620.17 2150.62 1626.16 2149.1 1627.09 2153.31 1628.06 2157.45 1629.09 2161.55 1626.73 2164.4 1623.38 2166.44 1619.45 2167.11 1619.09 2167.17 1618.34 2167.29 1617.24 2167.45"/>
    <path fill="#000072" d="M1634.18,2164.78 C1639.49,2287.05 1701.91,2382.22 1717.62,2391.94 C1746.87,2410.03 1790.29,2430.3 1846.68,2452.19 C1962.92,2497.31 2095.85,2496.27 2211.36,2449.34 C2267.4,2426.57 2310.51,2405.63 2339.49,2387.07 C2355.06,2377.07 2415.94,2280.95 2419.34,2158.63 C2379.17,2149.15 2262.96,2116.36 2186.47,2040.27 C2104.02,1958.21 2027.39,1964.12 2026.62,1964.18 L2025.21,1964.31 L2023.81,1964.21 C2020.73,1964.02 1945.56,1960.25 1865.17,2042.78 C1789.88,2120.07 1674.19,2154.66 1634.18,2164.78 Z M2025.34,2519.42 C1960.25,2519.42 1895.15,2507.63 1834.33,2484.02 C1775.99,2461.38 1730.68,2440.17 1699.65,2420.98 C1670.24,2402.77 1600.77,2289.11 1599.69,2151.46 L1599.58,2137.44 L1613.32,2134.6 C1614.76,2134.31 1757.84,2104.02 1840.71,2018.96 C1927.77,1929.59 2012.61,1929.51 2024.95,1930.08 C2037.27,1929.36 2122.12,1928.06 2210.55,2016.06 C2294.93,2100 2438.27,2127.86 2439.71,2128.13 L2453.51,2130.74 L2453.62,2144.78 C2454.69,2282.44 2387.02,2397.16 2357.91,2415.82 L2357.9,2415.83 C2327.17,2435.5 2282.19,2457.42 2224.22,2480.97 C2161.16,2506.59 2093.25,2519.42 2025.34,2519.42 L2025.34,2519.42 Z"/>
  </g>
</svg>
