<svg xmlns="http://www.w3.org/2000/svg" width="4000" height="4000" viewBox="0 0 4000 4000">
  <g fill="none" fill-rule="evenodd">
    <polygon fill="#02DAFF" points=".06 4000 4000 4000 4000 .04 .06 .04"/>
    <path fill="#06A4D4" d="M2055,3270 C1649.07,3270 1320,3220.75 1320,3160 C1320,3099.25 1649.07,3050 2055,3050 C2460.93,3050 2790,3099.25 2790,3160 C2790,3220.75 2460.93,3270 2055,3270"/>
    <path fill="#5C6C7E" d="M1629.96,2715.1 C1629.96,2715.1 1593.35,2882.27 1668.11,3016.19 C1668.11,3016.19 1613.13,3109.47 1682.9,3145.41 C1752.67,3181.35 1906.06,3144.55 1927.12,3103.51 C1948.16,3062.46 1911.82,2916.97 1911.82,2916.97 C1911.82,2916.97 1893.16,2832.93 1904.68,2794.15"/>
    <path fill="#B9BCBB" d="M1645.13,2796.64 C1645.13,2796.64 1657.64,2948.85 1695.17,3000.97 C1695.17,3000.97 1674.32,3013.49 1657.64,2992.63 C1640.97,2971.78 1609.69,2832.08 1645.13,2796.64"/>
    <path fill="#455665" d="M1848.42,2813.14 C1901.59,3019.55 1907.06,3081.41 1791.34,3115.81 C1712.08,3139.38 1667.69,3109.81 1647.57,3088.8 C1648.15,3110.42 1656.78,3131.93 1682.9,3145.39 C1752.67,3181.32 1906.06,3144.53 1927.12,3103.49 C1948.16,3062.45 1911.82,2916.87 1911.82,2916.87 C1911.82,2916.87 1898.15,2856.92 1901.45,2813.14 L1848.42,2813.14"/>
    <path fill="#102770" d="M1758.15,3178.86 C1727.05,3178.86 1697.36,3173.97 1674.31,3162.1 C1652.7,3150.96 1638.57,3134.31 1632.29,3112.6 C1621.65,3075.75 1637.98,3034.65 1646.87,3016.32 C1575.92,2879.59 1610.11,2718.04 1611.63,2711.08 C1613.84,2700.96 1623.88,2694.55 1633.98,2696.77 C1644.09,2698.98 1650.5,2708.98 1648.3,2719.1 C1647.95,2720.7 1614.22,2881.15 1684.49,3007.05 C1687.74,3012.87 1687.66,3019.98 1684.27,3025.72 C1677.2,3037.83 1660.51,3075.26 1668.37,3102.27 C1671.73,3113.79 1679.29,3122.44 1691.5,3128.73 C1730.43,3148.79 1803.27,3142.46 1855.07,3125.83 C1892.4,3113.85 1907.43,3100.78 1910.43,3094.94 C1922.7,3070.99 1907.98,2979.11 1893.61,2921.51 C1891.49,2911.95 1874.15,2831.02 1886.7,2788.8 C1889.65,2778.87 1900.12,2773.2 1910.03,2776.16 C1919.97,2779.12 1925.63,2789.56 1922.67,2799.5 C1914.37,2827.42 1925.25,2890.83 1930.14,2912.9 C1936.38,2937.86 1966.9,3067.03 1943.82,3112.06 C1931.27,3136.51 1894.87,3152.48 1866.54,3161.57 C1834.31,3171.91 1795.22,3178.86 1758.15,3178.86"/>
    <path fill="#5C6C7E" d="M2486.32,2690.25 C2486.32,2690.25 2542.54,2851.25 2484.32,2994.01 C2484.32,2994.01 2549.95,3079.27 2485.02,3124.18 C2420.09,3169.08 2263.53,3152.88 2237.75,3114.96 C2211.99,3077.04 2230.71,2927.88 2230.71,2927.88 C2230.71,2927.88 2239.24,2842.03 2223.19,2805.08"/>
    <path fill="#455665" d="M2505.98,3101.75 C2436.59,3129.99 2315.11,3117.88 2280.01,3097.83 C2236.22,3072.81 2289.39,2813.14 2289.39,2813.14 L2226.14,2813.14 C2238.1,2850.67 2230.71,2927.78 2230.71,2927.78 C2230.71,2927.78 2211.99,3076.99 2237.75,3114.92 C2263.53,3152.84 2420.09,3169.05 2485.02,3124.15 C2494.72,3117.44 2501.45,3109.84 2505.98,3101.75"/>
    <path fill="#102770" d="M2368.96,3170.02 C2345.72,3170.02 2323,3167.88 2303.18,3164.18 C2274.62,3158.86 2237.4,3147.83 2222.23,3125.51 C2193.92,3083.84 2208.82,2951.62 2212.1,2925.54 C2214.27,2903.48 2217.53,2839.14 2205.98,2812.56 C2201.85,2803.05 2206.21,2792 2215.71,2787.87 C2225.21,2783.74 2236.27,2788.1 2240.4,2797.6 C2257.89,2837.86 2250.31,2920.45 2249.39,2929.73 C2241.94,2989.25 2238.26,3082.33 2253.27,3104.42 C2256.82,3109.64 2272.78,3120.34 2310.06,3127.29 C2363.86,3137.33 2437.56,3134.17 2474.34,3108.74 C2485.88,3100.77 2492.41,3091.01 2494.32,3078.92 C2498.72,3051.14 2477.84,3016.45 2469.43,3005.43 C2465.39,3000.14 2464.43,2993.09 2466.94,2986.93 C2521.85,2852.29 2469.14,2697.98 2468.6,2696.44 C2465.19,2686.65 2470.35,2675.95 2480.13,2672.54 C2489.92,2669.12 2500.62,2674.29 2504.03,2684.07 C2506.37,2690.77 2559.53,2846.54 2505.42,2991.55 C2516.39,3008.53 2537.31,3046.86 2531.42,3084.61 C2527.9,3107.14 2515.88,3125.64 2495.69,3139.61 C2464.13,3161.44 2415.51,3170.02 2368.96,3170.02"/>
    <path fill="#5C6C7E" d="M2454.38,2106.5 C2454.38,2106.5 2572.97,2585.06 2479.98,2745.45 C2423.93,2842.16 2038,2924.42 1670.7,2791.45 C1509.37,2733.04 1658.56,2133.74 1658.56,2133.74"/>
    <path fill="#FEF2F4" d="M2511.47,2455.45 C2069.9,2274.41 1695.92,2419.37 1601.92,2462.4 C1587.47,2612.65 1593.75,2763.59 1670.7,2791.45 C2038,2924.42 2423.93,2842.16 2479.98,2745.45 C2516.73,2682.07 2520.42,2569.03 2511.47,2455.45"/>
    <path fill="#B9C6CC" d="M2479.98 2745.45C2487.18 2733.05 2493.07 2718.68 2497.88 2702.84 2497.63 2694.02 2499.17 2685.51 2504.37 2677.42L2504.38 2677.38C2507.24 2664.02 2509.52 2649.91 2511.23 2635.12 2462.71 2676.14 2436.38 2791.43 2126.76 2807.07 1655.24 2830.88 1601.35 2653.82 1601.35 2653.82 1601.35 2653.82 1600.68 2654.02 1599.59 2654.39L1599.6 2654.5C1600.08 2658.68 1600.61 2662.81 1601.19 2666.87 1601.22 2667.05 1601.24 2667.24 1601.26 2667.42 1601.83 2671.38 1602.45 2675.29 1603.12 2679.12 1603.15 2679.33 1603.18 2679.55 1603.22 2679.75 1603.9 2683.63 1604.62 2687.43 1605.41 2691.16 1605.43 2691.28 1605.46 2691.4 1605.48 2691.52 1609.52 2710.76 1614.98 2728.03 1622.07 2742.74 1622.33 2743.27 1622.61 2743.78 1622.87 2744.31 1623.99 2746.58 1625.15 2748.8 1626.36 2750.93 1626.79 2751.69 1627.24 2752.42 1627.68 2753.16 1628.76 2755 1629.88 2756.8 1631.03 2758.54 1631.59 2759.36 1632.15 2760.17 1632.72 2760.97 1633.82 2762.53 1634.94 2764.05 1636.09 2765.52 1636.75 2766.34 1637.41 2767.16 1638.07 2767.95 1639.22 2769.31 1640.39 2770.61 1641.59 2771.88 1642.31 2772.65 1643.05 2773.42 1643.8 2774.16 1645 2775.35 1646.25 2776.47 1647.5 2777.57 1648.3 2778.26 1649.09 2778.97 1649.91 2779.63 1651.22 2780.68 1652.57 2781.65 1653.94 2782.61 1654.77 2783.18 1655.57 2783.8 1656.41 2784.34 1657.93 2785.31 1659.51 2786.18 1661.1 2787.03 1661.85 2787.44 1662.57 2787.9 1663.34 2788.29 1665.73 2789.46 1668.18 2790.53 1670.7 2791.45 1803.06 2839.37 1964.28 2859.03 2111.8 2860.15 2301.03 2853.8 2447.14 2802.11 2479.98 2745.45M2515.52 2561.25C2515.85 2527.06 2514.3 2491.29 2511.47 2455.45 2386.63 2404.27 2267.2 2379.15 2157.96 2370.41 2158.56 2400.25 2194.97 2518.2 2330.05 2550.62 2410.64 2569.96 2461.16 2564.76 2515.52 2561.25M1964.14 2372.35C1964.14 2372.35 1961.51 2372.1 1957.02 2371.67 1780.86 2387.9 1651.87 2439.54 1601.92 2462.4 1596.02 2523.73 1593.58 2585.17 1597.99 2638.31 1679.73 2637.42 2002.42 2618.44 1964.14 2372.35"/>
    <path fill="#102770" d="M1670.7 2810.22C1668.58 2810.22 1666.43 2809.86 1664.32 2809.09 1588.21 2781.54 1561.69 2656.9 1585.48 2438.65 1602.55 2282.07 1639.98 2130.71 1640.35 2129.2 1642.86 2119.15 1653.02 2113.02 1663.09 2115.53 1673.15 2118.03 1679.27 2128.21 1676.77 2138.27 1620.69 2363.63 1571.19 2735.46 1677.09 2773.81 1686.84 2777.33 1691.88 2788.09 1688.35 2797.84 1685.58 2805.47 1678.38 2810.22 1670.7 2810.22M2072.41 2879.64C2017.7 2879.64 1955.86 2875.88 1888.6 2865.69 1878.35 2864.14 1871.3 2854.57 1872.85 2844.33 1874.41 2834.08 1883.96 2827.05 1894.22 2828.59 2039.43 2850.58 2158.46 2841.72 2232.74 2830.41 2242.95 2828.84 2252.56 2835.89 2254.11 2846.13 2255.68 2856.38 2248.63 2865.95 2238.39 2867.51 2196.03 2873.96 2139.6 2879.64 2072.41 2879.64M2479.96 2764.22C2476.77 2764.22 2473.53 2763.41 2470.57 2761.69 2461.6 2756.49 2458.55 2745.01 2463.75 2736.04 2551.92 2583.97 2437.34 2115.73 2436.17 2111.01 2433.67 2100.96 2439.81 2090.78 2449.87 2088.29 2459.91 2085.79 2470.1 2091.93 2472.59 2101.99 2477.51 2121.83 2591.92 2589.81 2496.22 2754.86 2492.74 2760.87 2486.44 2764.22 2479.96 2764.22"/>
    <path fill="#5C6C7E" d="M1687.29,2284.88 C1687.29,2284.88 1678.5,2332.23 1687.3,2363.79 C1701.82,2415.86 1876.65,2249.37 1929.5,2379.57 C1982.34,2509.75 1770.95,2643.9 1572.79,2588.66 C1374.63,2533.43 1489.12,2158.65 1608.03,2099.46 C1608.03,2099.46 1731.33,2111.27 1687.29,2284.88"/>
    <path fill="#455665" d="M1699.11,2373.98 C1693.17,2373.16 1689.05,2370.09 1687.3,2363.79 C1683.61,2350.58 1683.03,2334.62 1683.58,2320.49 C1676.69,2303.81 1670.15,2291.04 1670.15,2291.04 C1670.15,2291.04 1604.48,2369.22 1670.15,2394.24 C1694.15,2403.39 1700.57,2392.03 1699.11,2373.98"/>
    <path fill="#B9BCBB" d="M1561.44,2138.5 C1474.93,2240.28 1415.47,2479.13 1524.12,2564.46 C1543.66,2564.07 1557.57,2563.13 1557.57,2563.13 C1401.19,2441.16 1579.46,2147.18 1579.46,2147.18 C1576.27,2142.4 1569.97,2139.66 1561.44,2138.5"/>
    <path fill="#102770" d="M1667.52,2617.22 C1635.32,2617.22 1602.03,2613.04 1568.6,2603.72 C1500.79,2584.82 1459.07,2528.41 1451.11,2444.89 C1438.27,2310.21 1513.95,2128.82 1601.07,2085.46 C1608.78,2081.62 1618.19,2084.75 1622.03,2092.49 C1625.88,2100.22 1622.73,2109.61 1615,2113.46 C1546.61,2147.5 1469.94,2312.9 1482.24,2441.92 C1486.94,2491.25 1507.2,2554.14 1576.99,2573.6 C1704.21,2609.05 1832.44,2561.4 1888.52,2498.55 C1920.61,2462.59 1930.02,2422.42 1915.01,2385.45 C1907.77,2367.63 1897.56,2356.17 1883.76,2350.42 C1849.06,2335.95 1795.52,2358.31 1752.5,2376.26 C1715.1,2391.87 1688.09,2403.14 1669.44,2394.09 C1662.07,2390.52 1656.94,2384.22 1654.62,2375.88 C1644.52,2339.7 1670.22,2284.32 1673.19,2278.13 C1676.92,2270.33 1686.26,2267.05 1694.04,2270.77 C1701.83,2274.5 1705.12,2283.83 1701.4,2291.62 C1692.38,2310.53 1680.07,2346.95 1684.41,2366.15 C1693.84,2366.96 1721.66,2355.24 1740.45,2347.4 C1788.84,2327.21 1849.07,2302.08 1895.79,2321.55 C1917.38,2330.56 1933.6,2348.09 1943.99,2373.69 C1963.72,2422.3 1952.31,2474.04 1911.85,2519.37 C1863.1,2574.02 1770.99,2617.22 1667.52,2617.22"/>
    <path fill="#5C6C7E" d="M2427.61,2219.64 C2427.61,2219.64 2440.02,2266.25 2433.67,2298.29 C2423.19,2351.14 2236,2196.79 2193.31,2330.04 C2150.63,2463.3 2371.8,2583.02 2565.2,2514.85 C2758.61,2446.68 2615.55,2080.7 2492.39,2029.58 C2492.39,2029.58 2370.32,2049.52 2427.61,2219.64"/>
    <path fill="#455665" d="M2489.55 2015.82C2489.55 2160.33 2279.98 2277.48 2021.47 2277.48 1762.96 2277.48 1553.39 2160.33 1553.39 2015.82 1553.39 1871.31 1762.96 1754.15 2021.47 1754.15 2279.98 1754.15 2489.55 1871.31 2489.55 2015.82M2228.93 2440.11C2228.93 2440.11 2456.18 2571.47 2575.03 2475.56 2693.87 2379.65 2625.07 2217.02 2593.79 2152.39 2593.79 2152.39 2752.25 2438.04 2579.21 2511 2406.14 2583.97 2228.93 2440.11 2228.93 2440.11"/>
    <path fill="#102770" d="M2448.02,2550.43 C2354.44,2550.44 2270.04,2515.35 2221.49,2468.17 C2177.79,2425.73 2162.5,2374.98 2178.41,2325.27 C2186.79,2299.14 2201.56,2280.59 2222.31,2270.13 C2267.47,2247.38 2329.6,2268.49 2379.53,2285.45 C2398.79,2291.99 2427.25,2301.63 2436.77,2300.46 C2439.45,2280.85 2424.45,2245.59 2414.04,2227.42 C2409.75,2219.93 2412.35,2210.37 2419.83,2206.08 C2427.33,2201.78 2436.87,2204.37 2441.17,2211.85 C2444.6,2217.83 2474.49,2271.3 2467.2,2308.04 C2465.52,2316.53 2460.89,2323.17 2453.8,2327.26 C2435.89,2337.62 2408.02,2328.16 2369.47,2315.06 C2325.07,2299.98 2269.82,2281.22 2236.38,2298.06 C2223.21,2304.69 2214,2316.71 2208.2,2334.81 C2196.1,2372.61 2208.55,2412.01 2243.28,2445.74 C2304.06,2504.79 2435.73,2543.91 2560,2500.1 C2627.17,2476.42 2642.85,2413.67 2644.18,2365.2 C2647.73,2234.98 2558.3,2073.87 2486.4,2044.02 C2478.42,2040.71 2474.64,2031.56 2477.95,2023.58 C2481.27,2015.6 2490.41,2011.83 2498.39,2015.14 C2588.07,2052.36 2679.08,2232.74 2675.44,2366.06 C2673.19,2448.43 2635.89,2506.51 2570.4,2529.6 C2529.32,2544.07 2487.83,2550.43 2448.02,2550.43"/>
    <path fill="#5C6C7E" d="M1776.99,1126.93 C1776.99,1275.14 1674.29,1395.29 1547.6,1395.29 C1420.92,1395.29 1318.23,1275.14 1318.23,1126.93 C1318.23,978.735 1420.92,858.585 1547.6,858.585 C1674.29,858.585 1776.99,978.735 1776.99,1126.93"/>
    <path fill="#BFCFD9" d="M1369.21,964.851 C1366.19,968.479 1362.36,971.094 1359.09,974.111 C1341.08,1004.46 1328.31,1039.34 1322.25,1077.02 C1322.3,1076.91 1395.84,860.448 1659.03,896.652 C1659.03,896.652 1517.31,786.928 1369.21,964.851"/>
    <path fill="#455665" d="M1760,1025.56 C1749.54,1004.4 1740,986.188 1740,986.188 C1552.46,990.451 1377.72,1207.82 1377.72,1207.82 C1352.15,1160.94 1335.09,1071.43 1335.09,1071.43 L1322.25,1077.04 C1319.65,1093.21 1318.23,1109.87 1318.23,1126.93 C1318.23,1275.14 1420.92,1395.29 1547.6,1395.29 C1585.92,1395.29 1622,1384.25 1653.75,1364.81 C1687.28,1325.78 1716.93,1264.07 1757.04,1220.61 C1760.17,1217.21 1763.03,1213.8 1765.64,1210.36 C1772.98,1184.09 1776.99,1156.07 1776.99,1126.93 C1776.99,1091.05 1770.92,1056.84 1760,1025.56"/>
    <path fill="#5C6C7E" d="M2694.52,1112.81 C2694.52,1261.02 2591.82,1381.16 2465.13,1381.16 C2338.44,1381.16 2235.75,1261.02 2235.75,1112.81 C2235.75,964.619 2338.44,844.462 2465.13,844.462 C2591.82,844.462 2694.52,964.619 2694.52,1112.81"/>
    <path fill="#BFCFD9" d="M2294.08,978.723 C2294.08,978.723 2354.82,844.462 2600.96,911.593 C2600.96,911.593 2517.85,818.887 2425.15,844.462 C2332.44,870.038 2294.08,978.723 2294.08,978.723"/>
    <path fill="#455665" d="M2626.53,1195.04 C2483.01,1014.72 2307.84,990.115 2262.64,986.749 C2245.5,1024.33 2235.75,1067.24 2235.75,1112.81 C2235.75,1261.02 2338.44,1381.16 2465.13,1381.16 C2591.82,1381.16 2694.52,1261.02 2694.52,1112.81 C2694.52,1070.13 2685.95,1029.81 2670.81,993.975 C2668.42,1108.41 2626.53,1195.04 2626.53,1195.04"/>
    <path fill="#102770" d="M1547.6 877.35C1431.47 877.35 1336.99 989.313 1336.99 1126.94 1336.99 1264.56 1431.47 1376.53 1547.6 1376.53 1663.74 1376.53 1758.22 1264.56 1758.22 1126.94 1758.22 989.313 1663.74 877.35 1547.6 877.35zM1547.6 1414.06C1410.78 1414.06 1299.46 1285.26 1299.46 1126.94 1299.46 968.62 1410.78 839.821 1547.6 839.821 1684.44 839.821 1795.75 968.62 1795.75 1126.94 1795.75 1285.26 1684.44 1414.06 1547.6 1414.06L1547.6 1414.06zM2465.13 863.227C2349 863.227 2254.52 975.19 2254.52 1112.81 2254.52 1250.43 2349 1362.4 2465.13 1362.4 2581.27 1362.4 2675.75 1250.43 2675.75 1112.81 2675.75 975.19 2581.27 863.227 2465.13 863.227zM2465.13 1399.93C2328.3 1399.93 2216.99 1271.13 2216.99 1112.81 2216.99 954.496 2328.3 825.698 2465.13 825.698 2601.96 825.698 2713.28 954.496 2713.28 1112.81 2713.28 1271.13 2601.96 1399.93 2465.13 1399.93L2465.13 1399.93z"/>
    <path fill="#FEF2F4" d="M2720,1596.55 C2720,1945.61 2397.64,2228.59 2000,2228.59 C1602.35,2228.59 1280,1945.61 1280,1596.55 C1280,1247.48 1602.35,964.515 2000,964.515 C2397.64,964.515 2720,1247.48 2720,1596.55"/>
    <path fill="#FFFEFD" d="M1863.87,975.846 C1632,1014.8 1439.64,1151.34 1344.4,1334.93 C1343.71,1353.73 1351.15,1362.18 1351.15,1362.18 C1351.15,1362.18 1660.77,868.047 2298.77,1043.18 C2298.77,1043.18 2091.43,954.351 1863.87,975.846"/>
    <path fill="#CEB2B8" d="M2009.07,2076.21 C1918.47,2076.21 1827.15,2063.23 1736.04,2037.31 C1483.31,1965.4 1322.34,1820.84 1315.61,1814.73 L1336.65,1791.58 C1338.25,1793.04 1499.77,1937.88 1745.78,2007.56 C2074.65,2100.7 2390.53,2022.63 2684.66,1775.49 L2704.78,1799.44 C2538.39,1939.25 2361.77,2027.12 2179.84,2060.62 C2123.37,2071.02 2066.36,2076.21 2009.07,2076.21"/>
    <path fill="#CEB2B8" d="M2387.36,1696.77 C2384.45,1679.39 2354.1,1649.34 2324.57,1652.76 C2290.51,1656.71 2248,1659.6 2218.78,1653.81 C2182.59,1646.62 2100.12,1633.8 2022.62,1634.76 C1941.83,1633.8 1860.89,1646.62 1824.71,1653.81 C1795.48,1659.6 1752.02,1656.71 1717.98,1652.76 C1688.44,1649.34 1657.61,1679.39 1654.7,1696.77 C1629.69,1845.9 1663.5,2002.02 1663.5,2002.02 C1663.5,2002.02 1727.98,2097.19 1973.5,2123.13 C1989.05,2124.77 2006.25,2125.59 2018.76,2126 L2018.76,2126.3 C2018.76,2126.27 2020.94,2126.21 2022.41,2126.18 C2023.54,2126.2 2025.02,2126.28 2025.02,2126.3 L2025.02,2126.08 C2037.53,2125.65 2053.97,2124.75 2069.29,2123.13 C2314.81,2097.19 2377.93,2002.02 2377.93,2002.02 C2377.93,2002.02 2412.36,1845.9 2387.36,1696.77"/>
    <path fill="#B9BCBB" d="M2215.27,1703.28 C2215.27,1787.43 2125.57,1855.66 2014.91,1855.66 C1904.26,1855.66 1814.57,1787.43 1814.57,1703.28 C1814.57,1619.14 1904.26,1550.91 2014.91,1550.91 C2125.57,1550.91 2215.27,1619.14 2215.27,1703.28"/>
    <path fill="#B9BCBB" d="M2719.76,1580.06 C2701.37,1680.55 2556.01,2233.51 1942.46,2158.26 C1264.78,2075.15 1296.75,1557.3 1296.75,1557.3 L1280.68,1569.84 C1280.27,1578.7 1280,1587.61 1280,1596.55 C1280,1945.61 1602.35,2228.59 2000,2228.59 C2397.64,2228.59 2720,1945.61 2720,1596.55 C2720,1591.04 2719.92,1585.55 2719.76,1580.06"/>
    <path fill="#5C6C7E" d="M2497.29 1446.84C2540.67 1561.29 2498.23 1683.51 2402.49 1719.8 2306.73 1756.1 2193.94 1692.73 2150.55 1578.28 2107.17 1463.82 2149.61 1341.61 2245.36 1305.32 2341.11 1269.02 2453.91 1332.39 2497.29 1446.84M1524.03 1446.84C1480.64 1561.29 1523.09 1683.51 1618.83 1719.8 1714.58 1756.1 1827.37 1692.73 1870.75 1578.28 1914.14 1463.82 1871.7 1341.61 1775.95 1305.32 1680.2 1269.02 1567.41 1332.39 1524.03 1446.84"/>
    <path fill="#102770" d="M2000,983.281 C1613.34,983.281 1298.76,1258.39 1298.76,1596.55 C1298.76,1934.71 1613.34,2209.82 2000,2209.82 C2386.66,2209.82 2701.24,1934.71 2701.24,1596.55 C2701.24,1258.39 2386.66,983.281 2000,983.281 Z M2000,2247.35 C1592.64,2247.35 1261.23,1955.4 1261.23,1596.55 C1261.23,1237.7 1592.64,945.751 2000,945.751 C2407.36,945.751 2738.77,1237.7 2738.77,1596.55 C2738.77,1955.4 2407.36,2247.35 2000,2247.35 L2000,2247.35 Z"/>
    <path fill="#102770" d="M1828.83,1528.47 C1828.83,1579.63 1799.71,1621.11 1763.78,1621.11 C1727.84,1621.11 1698.72,1579.63 1698.72,1528.47 C1698.72,1477.31 1727.84,1435.83 1763.78,1435.83 C1799.71,1435.83 1828.83,1477.31 1828.83,1528.47"/>
    <path fill="#FFF" d="M1807.62,1527.05 C1807.62,1551.66 1794.32,1571.6 1777.92,1571.6 C1761.52,1571.6 1748.22,1551.66 1748.22,1527.05 C1748.22,1502.44 1761.52,1482.51 1777.92,1482.51 C1794.32,1482.51 1807.62,1502.44 1807.62,1527.05"/>
    <path fill="#102770" d="M2222.31,1520.61 C2222.31,1469.45 2251.44,1427.96 2287.37,1427.96 C2323.3,1427.96 2352.43,1469.45 2352.43,1520.61 C2352.43,1571.76 2323.3,1613.24 2287.37,1613.24 C2251.44,1613.24 2222.31,1571.76 2222.31,1520.61"/>
    <path fill="#FFF" d="M2243.53,1522.02 C2243.53,1497.41 2256.83,1477.47 2273.23,1477.47 C2289.63,1477.47 2302.93,1497.41 2302.93,1522.02 C2302.93,1546.63 2289.63,1566.57 2273.23,1566.57 C2256.83,1566.57 2243.53,1546.63 2243.53,1522.02"/>
    <path fill="#FEF2F4" d="M2217.37,1725.66 C2217.37,1811.57 2126.73,1881.22 2014.91,1881.22 C1903.1,1881.22 1812.45,1811.57 1812.45,1725.66 C1812.45,1639.75 1903.1,1570.09 2014.91,1570.09 C2126.73,1570.09 2217.37,1639.75 2217.37,1725.66"/>
    <path fill="#102770" d="M2112.15,1612.19 C2112.15,1662.23 2069.65,1688.93 2017.26,1688.93 C1964.86,1688.93 1922.37,1662.23 1922.37,1612.19 C1922.37,1574.67 2112.15,1574.67 2112.15,1612.19"/>
    <path fill="#102770" d="M2018.77,1749.8 C2008.4,1749.8 2000,1741.4 2000,1731.04 L2000,1643.47 C2000,1633.1 2008.4,1624.7 2018.77,1624.7 C2029.13,1624.7 2037.53,1633.1 2037.53,1643.47 L2037.53,1731.04 C2037.53,1741.4 2029.13,1749.8 2018.77,1749.8"/>
    <path fill="#102770" d="M2003.27 1717.41C1910.08 1717.41 1815.81 1704.21 1721.43 1677.85 1461.54 1605.28 1293.49 1460.14 1286.46 1454 1279.96 1448.32 1279.3 1438.44 1284.98 1431.94 1290.66 1425.44 1300.53 1424.77 1307.04 1430.45 1308.72 1431.92 1477.61 1577.59 1730.99 1648.05 2069.65 1742.24 2390.49 1664.65 2684.66 1417.47 2691.28 1411.91 2701.14 1412.77 2706.7 1419.38 2712.25 1426 2711.39 1435.86 2704.78 1441.42 2538.37 1581.24 2360.19 1668.97 2175.18 1702.16 2118.46 1712.33 2061.07 1717.41 2003.27 1717.41M2003.11 2051.01C1911.61 2051.01 1819.19 2038.14 1726.76 2012.44 1469.47 1940.91 1303.98 1796.77 1297.06 1790.67 1290.58 1784.96 1289.96 1775.08 1295.67 1768.61 1301.37 1762.13 1311.25 1761.5 1317.74 1767.21 1319.39 1768.66 1485.6 1913.24 1736.31 1982.63 2071.43 2075.39 2390.49 1997.1 2684.66 1749.91 2691.28 1744.36 2701.14 1745.22 2706.7 1751.83 2712.25 1758.44 2711.39 1768.3 2704.78 1773.86 2538.39 1913.68 2360.78 2001.63 2176.9 2035.27 2119.52 2045.76 2061.5 2051.01 2003.11 2051.01"/>
    <path fill="#53FFA0" d="M2387.36,1658.41 C2384.45,1641.03 2354.1,1610.99 2324.57,1614.41 C2290.51,1618.34 2248,1621.24 2218.78,1615.45 C2182.59,1608.26 2100.12,1595.44 2022.62,1596.41 C1941.83,1595.44 1860.89,1608.26 1824.71,1615.45 C1795.48,1621.24 1752.02,1618.34 1717.98,1614.41 C1688.44,1610.99 1657.61,1641.03 1654.7,1658.41 C1629.69,1807.54 1663.5,1963.66 1663.5,1963.66 C1663.5,1963.66 1727.98,2058.82 1973.5,2084.77 C1989.05,2086.41 2006.25,2087.23 2018.76,2087.64 L2018.76,2087.94 C2018.76,2087.91 2020.94,2087.85 2022.41,2087.82 C2023.54,2087.84 2025.02,2087.92 2025.02,2087.94 L2025.02,2087.71 C2037.53,2087.29 2053.97,2086.4 2069.29,2084.77 C2314.81,2058.82 2377.93,1963.66 2377.93,1963.66 C2377.93,1963.66 2412.36,1807.54 2387.36,1658.41"/>
    <path fill="#B4FED1" d="M2099.09,1648.41 C2099.09,1666.94 2064.75,1681.97 2022.37,1681.97 C1980.01,1681.97 1945.66,1666.94 1945.66,1648.41 C1945.66,1629.87 1980.01,1614.84 2022.37,1614.84 C2064.75,1614.84 2099.09,1629.87 2099.09,1648.41"/>
    <path fill="#B4FED1" d="M2324.57,1614.41 C2290.51,1618.34 2248,1621.24 2218.78,1615.45 C2182.59,1608.26 2100.12,1595.44 2022.62,1596.41 C1941.83,1595.44 1860.89,1608.26 1824.71,1615.45 C1795.48,1621.24 1752.02,1618.34 1717.98,1614.41 C1690.08,1611.17 1661.07,1637.79 1655.47,1655.4 L1665.41,1683.04 L1667.55,1674.51 C1667.55,1674.51 1678.2,1648.95 1722.95,1651.08 C1767.71,1653.2 1791.15,1663.86 1831.65,1659.6 C1872.13,1655.33 2083.1,1610.59 2196.06,1653.2 C2296.54,1691.14 2366.61,1653.16 2380.86,1644.32 C2369.86,1628.51 2346.99,1611.81 2324.57,1614.41"/>
    <path fill="#43D481" d="M2378.06,1963.66 C2378.06,1963.66 2393.25,1894.44 2396.03,1804.18 C2054.97,2014.87 1773.82,1889.88 1645.95,1806.08 C1648.74,1895.42 1663.5,1963.66 1663.5,1963.66 C1663.5,1963.66 1727.98,2058.82 1973.5,2084.77 C1989.05,2086.41 2006.25,2087.23 2018.76,2087.64 L2018.76,2087.94 C2018.76,2087.91 2020.94,2087.85 2022.41,2087.82 C2023.54,2087.84 2025.02,2087.92 2025.02,2087.94 L2025.02,2087.71 C2037.53,2087.29 2053.97,2086.4 2069.29,2084.77 C2314.81,2058.82 2378.06,1963.66 2378.06,1963.66"/>
    <path fill="#102770" d="M1678.12,1957.06 C1689.1,1970.48 1760.23,2046.67 1973.6,2069.22 C1984.87,2070.41 2000.14,2071.18 2009.26,2071.64 C2012.48,2071.8 2015.06,2071.94 2016.65,2072.04 C2017.17,2072.07 2017.69,2072.13 2018.19,2072.22 C2018.45,2072.2 2018.71,2072.19 2018.98,2072.18 C2019.2,2072.17 2019.43,2072.17 2019.65,2072.18 C2019.76,2072.18 2019.85,2072.19 2019.96,2072.19 C2020.48,2072.12 2021.01,2072.08 2021.54,2072.07 C2040.36,2071.65 2051.71,2070.75 2066.07,2069.22 C2279.3,2046.69 2351.28,1970.56 2362.57,1956.94 C2367.34,1933.85 2394.16,1793.51 2371.94,1661 C2370.27,1651.01 2347.12,1627.57 2326.37,1629.94 C2278.2,1635.51 2240.99,1635.79 2215.74,1630.79 C2169.5,1621.6 2091.24,1611.18 2022.81,1612.05 C1932.38,1610.95 1844.46,1627.46 1827.76,1630.78 C1802.27,1635.83 1764.73,1635.55 1716.18,1629.94 C1695.64,1627.52 1671.74,1651.28 1670.12,1661 C1647.89,1793.56 1673.55,1933.94 1678.12,1957.06 Z M2015.64,2103.57342 C2014.32,2103.57342 2013.01,2103.41 2011.75,2103.09 C2010.58,2103.02 2009.21,2102.95 2007.68,2102.88 C1998.24,2102.4 1982.44,2101.6 1970.31,2100.32 C1720.32,2073.91 1653.19,1976.43 1650.46,1972.29 C1649.39,1970.67 1648.63,1968.87 1648.22,1966.97 C1646.81,1960.48 1614.06,1806.19 1639.28,1655.83 C1643.48,1630.74 1682.13,1594.49 1719.77,1598.88 C1764.45,1604.04 1799.69,1604.46 1821.67,1600.11 C1838.91,1596.68 1929.61,1579.69 2022.8,1580.77 C2093.11,1579.86 2174.11,1590.63 2221.83,1600.11 C2243.88,1604.48 2277.85,1604.07 2322.77,1598.87 C2360.95,1594.49 2398.49,1630.18 2402.78,1655.83 C2428,1806.26 2393.85,1960.61 2392.38,1967.11 C2391.96,1968.99 2391.19,1970.78 2390.11,1972.38 C2387.34,1976.51 2319.28,2073.91 2069.37,2100.32 C2055.22,2101.83 2043.22,2102.8 2024.96,2103.27 C2023.52,2103.56 2021.98,2103.64 2020.48,2103.51 C2020.11,2103.49 2019.47,2103.46 2018.96,2103.45 L2018.96,2103.42 C2017.92,2103.52 2016.6,2103.59 2015.64,2103.57342 L2015.64,2103.57342 Z"/>
    <path fill="#BFCFD9" d="M1517.91,908.801 C1525.05,921.543 1508.99,944.113 1482.04,959.219 C1455.09,974.319 1427.46,976.237 1420.31,963.507 C1413.18,950.759 1429.24,928.189 1456.19,913.089 C1483.14,897.977 1510.77,896.059 1517.91,908.801"/>
    <path fill="#102770" d="M2408.93 1405.76C2321.53 1405.76 2269.85 1329.86 2267.55 1326.39 2262.76 1319.2 2264.7 1309.49 2271.89 1304.7 2279.06 1299.92 2288.76 1301.85 2293.55 1309.02 2294.15 1309.9 2344.99 1383.84 2424.93 1373.43 2433.47 1372.31 2441.34 1378.36 2442.46 1386.92 2443.58 1395.48 2437.54 1403.33 2428.98 1404.45 2422.1 1405.34 2415.42 1405.76 2408.93 1405.76M1651.64 1442.31C1645.14 1442.31 1638.46 1441.88 1631.57 1440.98 1623.01 1439.85 1616.98 1431.99 1618.12 1423.42 1619.25 1414.86 1627.13 1408.84 1635.67 1409.97 1715.52 1420.54 1766.47 1345.46 1766.97 1344.7 1771.74 1337.52 1781.45 1335.53 1788.63 1340.3 1795.82 1345.06 1797.82 1354.72 1793.08 1361.92 1790.77 1365.43 1739.1 1442.31 1651.64 1442.31M2071.96 2868.81C1937.29 2868.81 1829.35 2842.74 1822.02 2840.92 1811.96 2838.43 1805.83 2828.27 1808.31 2818.21 1810.8 2808.15 1820.95 2802.03 1831.03 2804.49 1833.87 2805.19 2118.78 2873.84 2335.54 2786.54 2345.17 2782.66 2356.09 2787.32 2359.96 2796.93 2363.83 2806.54 2359.18 2817.48 2349.57 2821.35 2259.39 2857.67 2159.96 2868.81 2071.96 2868.81"/>
  </g>
</svg>
