<svg xmlns="http://www.w3.org/2000/svg" width="4000" height="4000" viewBox="0 0 4000 4000">
  <g fill="none" fill-rule="evenodd">
    <polygon fill="#FFCC80" points=".06 4000 4000 4000 4000 .04 .06 .04"/>
    <path fill="#B79A7B" d="M1987.35,3230 C1581.42,3230 1252.35,3180.75 1252.35,3120 C1252.35,3059.25 1581.42,3010 1987.35,3010 C2393.28,3010 2722.35,3059.25 2722.35,3120 C2722.35,3180.75 2393.28,3230 1987.35,3230"/>
    <path fill="#FECA29" d="M933.222,2243.28 C932.826,2230.56 933.117,2218 934.294,2205.33 C931.665,2233.59 936.719,2198.71 939.017,2191.05 C940.859,2184.94 948.595,2168.84 937.6,2193.61 C939.559,2189.2 941.932,2185 944.304,2180.82 C947.423,2175.33 957.881,2161.9 941.203,2183.75 C944.829,2178.99 948.991,2174.72 953.2,2170.54 C957.852,2165.92 970.835,2156.99 949.055,2173.39 C952.512,2170.79 956.208,2168.55 959.892,2166.31 C963.588,2164.07 967.477,2162.2 971.348,2160.34 C946.776,2172.17 960.382,2165.28 966.754,2163.14 C974.548,2160.52 1005.17,2156.12 973.691,2160.03 C984.12,2158.73 994.672,2158.86 1005.14,2159.48 C1011.56,2159.87 1028.36,2162.96 1000.41,2158.51 C1005.03,2159.24 1009.6,2160.31 1014.15,2161.38 C1023.44,2163.54 1032.48,2166.69 1041.38,2170.13 C1014.18,2159.63 1044.67,2172.37 1051.38,2176.28 C1055.69,2178.8 1059.84,2181.61 1063.96,2184.42 C1083.74,2197.85 1054.78,2176.03 1066.39,2186.05 C1074.24,2192.82 1081.38,2200.44 1088.22,2208.28 C1091.89,2212.48 1102.6,2227.78 1087.7,2206.96 C1090.86,2211.38 1093.7,2216.03 1096.53,2220.66 C1100.28,2226.81 1115,2260.25 1104.88,2234.62 C1109.98,2247.54 1113.45,2261.1 1116.26,2274.73 C1117.33,2279.89 1119.49,2301.03 1116.77,2275.84 C1117.47,2282.39 1117.71,2288.97 1117.95,2295.54 C1118.55,2311.76 1117.01,2328.04 1115.65,2344.19 C1112.53,2381.41 1106.87,2418.36 1103.09,2455.51 C1095.15,2533.64 1102.88,2611.89 1140.55,2681.32 C1225.74,2838.29 1427.91,2874.99 1585.89,2873.05 C1772.57,2870.77 1947.8,2794 2047.26,2623.84 C2071.73,2581.96 2056.4,2525.41 2016.18,2500.99 C1974.97,2475.95 1922.12,2491.41 1897.69,2533.2 C1893.14,2540.99 1888.45,2548.63 1883.57,2556.2 C1883.38,2556.49 1866.29,2579.52 1876.44,2566.49 C1865.87,2580.07 1854.01,2592.52 1841.8,2604.5 C1835.76,2610.43 1829.35,2615.94 1822.95,2621.43 C1835.97,2610.24 1814.75,2627.22 1813.94,2627.81 C1798.1,2639.18 1781.16,2648.8 1763.94,2657.68 C1762.9,2658.22 1738.06,2669.15 1754.27,2662.38 C1746.54,2665.62 1738.65,2668.38 1730.76,2671.14 C1714.84,2676.72 1698.51,2680.91 1682.11,2684.65 C1673.82,2686.54 1665.44,2687.98 1657.08,2689.42 C1675.08,2686.32 1647.36,2690.42 1646.13,2690.54 C1626.14,2692.56 1605.95,2693.03 1585.89,2693.46 C1506.12,2695.18 1452.84,2690 1377.62,2661.01 C1391.76,2666.46 1365,2654.91 1365.3,2655.05 C1357.18,2651.01 1349.4,2646.34 1341.63,2641.66 C1322.97,2630.43 1321.36,2628.21 1308.02,2614.64 C1307.85,2614.46 1289.41,2591.45 1299.06,2604.99 C1294.21,2598.18 1290.18,2590.78 1286.18,2583.42 C1273.89,2560.78 1290.87,2599.09 1282.45,2575.25 C1278.96,2565.35 1276.75,2555 1274.68,2544.7 C1269.61,2519.36 1276.01,2563.11 1273.92,2537.18 C1273.27,2529.19 1273.21,2521.14 1273.13,2513.12 C1272.94,2496.68 1274.17,2480.23 1275.53,2463.86 C1278.6,2426.76 1284.28,2389.93 1288.04,2352.9 C1295.16,2283.03 1286.01,2218.98 1258.83,2154.82 C1215.11,2051.66 1110.13,1988.77 1005.14,1979.89 C941.203,1974.48 877.934,1999.81 830.725,2043.55 C777.693,2092.68 757.784,2172.1 760.017,2243.28 C761.544,2292.19 798.254,2333.08 846.622,2333.08 C892.665,2333.08 934.755,2292.23 933.222,2243.28"/>
    <path fill="#A64247" d="M1315.72,2829.08 C1330.06,2818.62 1344.6,2806.46 1358.78,2792.62 C1398.41,2753.97 1425.84,2712.15 1435.47,2679.77 C1418.09,2675.29 1400.1,2669.52 1380.69,2662.15 C1386.4,2664.14 1365.03,2654.92 1365.3,2655.05 C1358.56,2651.7 1352.08,2647.89 1345.62,2644.02 C1321.38,2657.34 1295.04,2676.89 1269.86,2701.46 C1246.71,2724.04 1227.79,2747.69 1214.06,2769.92 C1244.26,2794.82 1278.81,2814.19 1315.72,2829.08"/>
    <path fill="#C34E4E" d="M1200.91,2635.03 C1236.71,2624.53 1268.31,2610.16 1292.37,2594.53 C1290.23,2590.87 1288.2,2587.14 1286.18,2583.42 C1285.2,2581.61 1284.42,2580.23 1283.78,2579.14 C1283.44,2578.08 1283,2576.8 1282.45,2575.25 C1278.96,2565.35 1276.75,2555 1274.68,2544.7 C1274.55,2544.02 1274.42,2543.41 1274.3,2542.83 C1274.24,2541.5 1274.12,2539.67 1273.92,2537.18 C1273.27,2529.19 1273.21,2521.14 1273.13,2513.12 C1273.07,2508 1273.18,2502.88 1273.36,2497.75 C1242.92,2496.3 1204.89,2501.14 1165.07,2512.82 C1141.68,2519.68 1120.09,2528.2 1101.2,2537.64 C1103.62,2576.01 1111.19,2613.63 1125.62,2649.4 C1148.8,2647.52 1174.45,2642.78 1200.91,2635.03"/>
    <path fill="#A64247" d="M1315.72,2829.08 C1330.06,2818.62 1344.6,2806.46 1358.78,2792.62 C1398.41,2753.97 1425.84,2712.15 1435.47,2679.77 C1418.09,2675.29 1400.1,2669.52 1380.69,2662.15 C1386.4,2664.14 1365.03,2654.92 1365.3,2655.05 C1358.56,2651.7 1352.08,2647.89 1345.62,2644.02 C1321.38,2657.34 1295.04,2676.89 1269.86,2701.46 C1246.71,2724.04 1227.79,2747.69 1214.06,2769.92 C1244.26,2794.82 1278.81,2814.19 1315.72,2829.08"/>
    <path fill="#D08F34" d="M955.007,2168.88 C959.257,2165.17 965.244,2160.99 957.572,2166.91 C957.129,2167.12 957.164,2167.11 957.549,2166.93 C956.832,2167.48 955.975,2168.14 955.007,2168.88 Z M940.159,2187.81 C940.911,2185.86 941.774,2183.79 942.427,2182.3 C942.503,2182.21 942.59,2182.11 942.666,2182.02 C942.17,2183.2 941.336,2185.13 940.159,2187.81 Z M942.847,2181.59 C942.765,2181.7 942.678,2181.81 942.59,2181.92 C943.377,2180.15 943.709,2179.53 942.847,2181.59 Z M1841.8,2604.5 C1836.47,2609.73 1830.85,2614.61 1825.22,2619.46 C1832.96,2612.65 1814.69,2627.26 1813.94,2627.81 C1798.1,2639.18 1781.16,2648.8 1763.94,2657.68 C1763.24,2658.04 1751.65,2663.16 1749.26,2664.34 C1743.14,2666.74 1736.96,2668.97 1730.76,2671.14 C1714.84,2676.72 1698.51,2680.91 1682.11,2684.65 C1674.98,2686.28 1667.79,2687.56 1660.6,2688.8 C1670.49,2687 1647.25,2690.43 1646.13,2690.54 C1626.14,2692.56 1605.95,2693.03 1585.89,2693.46 C1507.24,2695.16 1454.29,2690.1 1380.71,2662.16 C1383.85,2663.25 1378.72,2660.92 1373.51,2658.63 C1379.95,2702.92 1380.15,2759.69 1343.4,2775.44 C1280.72,2802.3 1158.35,2673.96 1146.41,2506.81 C1134.47,2339.66 1206.1,2112.82 1003.14,2109.84 C849.857,2107.58 865.108,2253.41 881.758,2324.95 C911.943,2310.69 934.347,2279.2 933.222,2243.28 C932.936,2234.2 933.157,2225.19 933.647,2216.18 C934.23,2216.51 937.349,2196.61 939.017,2191.05 C939.104,2190.77 939.209,2190.45 939.32,2190.13 C940.894,2186.97 942.566,2183.88 944.304,2180.82 C944.765,2180.02 945.382,2179.04 946.041,2178.04 C948.361,2175.47 950.751,2172.97 953.2,2170.54 L953.241,2170.5 C955.433,2169.06 957.653,2167.67 959.892,2166.31 C960.954,2165.67 962.061,2165.1 963.157,2164.51 C964.417,2163.99 965.687,2163.5 966.754,2163.14 C970.561,2161.86 979.789,2160.16 984.592,2159.2 C991.442,2158.93 998.31,2159.08 1005.14,2159.48 C1005.35,2159.5 1005.59,2159.52 1005.82,2159.54 C1008.6,2160.11 1011.38,2160.73 1014.15,2161.38 C1019.62,2162.65 1025.01,2164.3 1030.33,2166.11 C1030.48,2166.54 1046.7,2173.55 1051.38,2176.28 C1055.69,2178.8 1059.84,2181.61 1063.96,2184.42 C1064.91,2185.06 1065.64,2185.54 1066.37,2186.03 L1066.39,2186.05 C1074.24,2192.82 1081.38,2200.44 1088.22,2208.28 C1088.79,2208.94 1089.54,2209.88 1090.34,2210.9 C1092.46,2214.11 1094.52,2217.38 1096.53,2220.66 C1099.21,2225.06 1107.51,2243.42 1108.3,2244.13 C1111.61,2254.13 1114.13,2264.41 1116.26,2274.73 C1116.51,2275.91 1116.81,2277.94 1117.09,2280.05 C1117.51,2285.21 1117.76,2290.38 1117.95,2295.54 C1118.55,2311.76 1117.01,2328.04 1115.65,2344.19 C1112.53,2381.41 1106.87,2418.36 1103.09,2455.51 C1095.15,2533.64 1102.88,2611.89 1140.55,2681.32 C1225.74,2838.29 1427.91,2874.99 1585.89,2873.05 C1722.77,2871.38 1853.46,2829.59 1952.67,2740.36 L1967.22,2691.87 L1854.08,2592.04 C1850.04,2596.26 1845.95,2600.42 1841.8,2604.5 L1841.8,2604.5 Z"/>
    <path fill="#A53D54" d="M1180.75,2640.35 C1164.11,2604.2 1152.06,2562.82 1147.5,2518.41 C1130.82,2524.11 1113.35,2530.62 1101.41,2537.64 L1101.41,2537.73 C1101.41,2542.41 1101.98,2547.08 1102.43,2551.73 C1102.44,2551.87 1102.41,2552.01 1102.42,2552.14 C1102.88,2556.79 1103.39,2561.43 1104.01,2566.05 C1104.02,2566.16 1104.02,2566.27 1104.04,2566.38 C1104.67,2571.03 1105.37,2575.67 1106.17,2580.28 L1105.44,2580.52 C1106.25,2585.19 1107.38,2589.85 1107.38,2594.48 L1107.38,2594.51 C1113.35,2613.17 1119.32,2631.51 1125.29,2649.39 L1125.29,2649.4 C1143.19,2648 1161.4,2645 1180.75,2640.35"/>
    <path fill="#C34E4E" d="M957.572,2166.91 C957.129,2167.12 957.158,2167.11 957.554,2166.93 C956.832,2167.48 955.975,2168.14 954.995,2168.89 C959.24,2165.18 965.244,2160.98 957.572,2166.91 Z M942.834,2181.61 C942.753,2181.71 942.672,2181.83 942.584,2181.94 C943.372,2180.15 943.715,2179.52 942.834,2181.61 Z M940.176,2187.77 C940.917,2185.83 941.774,2183.79 942.421,2182.31 C942.497,2182.21 942.584,2182.12 942.66,2182.03 C942.17,2183.21 941.336,2185.11 940.176,2187.77 Z M1051.38,2176.28 C1055.69,2178.8 1059.84,2181.61 1063.96,2184.42 C1064.91,2185.06 1065.64,2185.55 1066.37,2186.03 L1066.39,2186.05 C1073.86,2192.49 1080.65,2199.72 1087.19,2207.15 C1131.12,2179.78 1190.65,2136.84 1219.58,2090.13 C1166.71,2025.58 1085.94,1986.73 1005.14,1979.89 C941.203,1974.48 877.934,1999.81 830.725,2043.55 C777.693,2092.68 757.784,2172.1 760.017,2243.28 C761.544,2292.19 798.254,2333.08 846.622,2333.08 C892.665,2333.08 934.755,2292.23 933.222,2243.28 C932.925,2233.87 933.018,2224.55 933.554,2215.2 C933.478,2221.33 937.157,2197.26 939.017,2191.05 C939.104,2190.77 939.215,2190.44 939.325,2190.11 C940.899,2186.96 942.579,2183.87 944.304,2180.82 C944.759,2180.02 945.376,2179.05 946.036,2178.05 C948.361,2175.47 950.751,2172.97 953.2,2170.54 L953.229,2170.51 C955.427,2169.07 957.653,2167.67 959.892,2166.31 C960.959,2165.66 962.073,2165.1 963.163,2164.51 C964.417,2163.99 965.687,2163.49 966.754,2163.14 C970.561,2161.86 979.783,2160.15 984.592,2159.2 C991.437,2158.93 998.31,2159.08 1005.14,2159.48 C1005.35,2159.5 1005.58,2159.52 1005.81,2159.54 C1008.6,2160.11 1011.38,2160.73 1014.15,2161.38 C1019.62,2162.65 1024.99,2164.29 1030.3,2166.1 C1030.58,2166.58 1046.72,2173.56 1051.38,2176.28 L1051.38,2176.28 Z"/>
    <path fill="#F1B8C4" d="M1286.97,2257 C1282.41,2222.39 1273.15,2188.61 1258.83,2154.82 C1215.11,2051.66 1110.13,1988.77 1005.14,1979.89 C941.203,1974.48 877.934,1999.81 830.725,2043.55 C793.258,2078.26 772.388,2128.09 764.11,2179.45 C766.581,2191.11 769.642,2202.75 773.309,2214.3 C773.309,2214.3 806.141,1996.41 1041.94,2023.28 C1277.74,2050.14 1283.71,2274 1283.71,2274 C1283.71,2274 1285.12,2267.8 1286.97,2257"/>
    <path fill="#A33C55" d="M961.006,2164.19 L960.983,2164.21 C960.56,2164.58 959.548,2165.39 957.572,2166.91 C957.409,2166.99 957.362,2167.01 957.328,2167.03 L957.345,2167.02 L957.438,2166.98 L957.549,2166.93 L957.543,2166.93 L957.554,2166.93 C956.832,2167.48 955.975,2168.14 954.995,2168.89 L955.024,2168.86 L955.007,2168.88 L955.112,2168.79 C955.989,2168.03 956.919,2167.26 957.8,2166.56 L957.834,2166.53 L957.998,2166.4 C958.155,2166.28 958.304,2166.16 958.458,2166.04 L958.505,2166 L958.65,2165.89 C959.271,2165.4 959.799,2165 960.236,2164.67 L960.446,2164.51 C960.606,2164.4 960.74,2164.3 960.854,2164.22 C961.029,2164.09 961.152,2164.01 961.204,2163.98 L961.233,2163.97 C961.271,2163.95 961.181,2164.04 961.006,2164.19 Z M942.847,2181.59 L942.817,2181.63 C942.742,2181.73 942.66,2181.83 942.584,2181.94 L942.59,2181.92 C942.678,2181.72 942.735,2181.6 942.812,2181.43 C942.861,2181.32 942.896,2181.25 942.94,2181.15 C943.007,2181 943.068,2180.87 943.121,2180.76 C943.167,2180.66 943.19,2180.62 943.223,2180.55 L943.33,2180.34 L943.336,2180.32 C943.412,2180.2 943.278,2180.55 942.847,2181.59 Z M940.159,2187.81 C940.282,2187.48 940.421,2187.16 940.549,2186.83 L940.556,2186.82 C940.882,2186 941.197,2185.21 941.517,2184.44 C941.838,2183.66 942.147,2182.93 942.421,2182.31 L942.468,2182.25 L942.666,2182.02 C942.17,2183.2 941.336,2185.13 940.159,2187.81 Z M1015.8,2160.86 C1015.42,2160.82 1014.03,2160.62 1011.3,2160.21 C1011.13,2160.18 1010.94,2160.15 1010.76,2160.13 C1010.21,2160.04 1009.77,2159.98 1009.12,2159.88 L1009.14,2159.88 L1009.11,2159.87 C1009.89,2159.97 1010.68,2160.07 1011.43,2160.17 C1011.55,2160.19 1011.65,2160.21 1011.77,2160.22 C1012.44,2160.31 1013.06,2160.4 1013.62,2160.49 L1013.82,2160.52 C1015.45,2160.76 1016.39,2160.93 1015.8,2160.86 Z M1009.93,2160.45 C1011.34,2160.76 1012.75,2161.05 1014.15,2161.38 C1014.48,2161.45 1014.79,2161.56 1015.11,2161.63 C1020.02,2162.69 1024.27,2163.15 1029.77,2164.83 L1029.77,2165.93 L1029.98,2166 C1030.15,2166 1030.33,2166 1030.33,2166 C1030.35,2166 1030.58,2166.24 1030.94,2166.43 C1033.96,2167.99 1047.22,2173.83 1051.38,2176.26 C1055.69,2178.77 1059.84,2181.6 1063.96,2184.41 C1064.91,2185.04 1065.64,2185.53 1066.37,2186.02 L1066.39,2186.05 C1069.22,2188.49 1071.87,2191.07 1074.47,2193.7 C1078.85,2198.03 1083.11,2202.51 1087.19,2207.15 C1102.15,2197.83 1118.93,2186.66 1135.69,2174.19 C1115.03,2138.72 1075.52,2114.93 1003.17,2109.84 C892.333,2102.03 865.128,2253.39 881.775,2324.94 C881.962,2324.85 882.142,2324.75 882.329,2324.66 C885.669,2323.05 888.904,2321.23 892.033,2319.22 C892.28,2319.06 892.534,2318.91 892.779,2318.75 C894.268,2317.77 895.722,2316.73 897.154,2315.67 C897.634,2315.3 898.109,2314.94 898.582,2314.57 C900.654,2312.96 902.654,2311.26 904.581,2309.48 L904.691,2309.38 C906.604,2307.6 908.443,2305.74 910.206,2303.81 C910.854,2303.1 911.506,2302.4 912.133,2301.66 C913.045,2300.59 913.937,2299.5 914.803,2298.38 C915.555,2297.41 916.278,2296.42 916.992,2295.43 C917.709,2294.42 918.45,2293.43 919.12,2292.39 C920.373,2290.48 921.551,2288.53 922.653,2286.52 C923.119,2285.67 923.544,2284.79 923.981,2283.92 C924.743,2282.42 925.474,2280.9 926.147,2279.36 C926.529,2278.48 926.905,2277.6 927.258,2276.71 C927.401,2276.35 927.508,2275.98 927.649,2275.62 C928.214,2274.14 928.768,2272.64 929.251,2271.12 C929.438,2270.55 929.654,2269.99 929.823,2269.41 C930.546,2266.97 931.14,2264.47 931.642,2261.95 C931.793,2261.21 931.898,2260.46 932.027,2259.71 C932.105,2259.24 932.143,2258.77 932.213,2258.3 C932.446,2256.79 932.677,2255.27 932.826,2253.73 C932.896,2252.97 932.977,2252.2 933.029,2251.42 C933.21,2248.73 933.309,2246.02 933.222,2243.28 C932.925,2233.87 933.018,2224.55 933.554,2215.2 C933.548,2215.56 933.56,2215.79 933.58,2215.95 C933.601,2216.09 933.629,2216.14 933.665,2216.14 L933.671,2216.15 L933.741,2216.07 L933.784,2215.97 L933.843,2215.84 L933.916,2215.62 C933.953,2215.49 933.998,2215.33 934.041,2215.16 L934.073,2215.04 C934.102,2214.94 934.125,2214.83 934.148,2214.72 C934.219,2214.42 934.3,2214.09 934.376,2213.72 L934.422,2213.53 C934.481,2213.25 934.545,2212.92 934.609,2212.61 C934.668,2212.33 934.726,2212.06 934.784,2211.75 C934.889,2211.23 934.997,2210.68 935.111,2210.11 L935.157,2209.85 C935.764,2206.72 936.469,2202.89 937.157,2199.38 C937.198,2199.18 937.235,2198.98 937.273,2198.78 L937.306,2198.62 C937.396,2198.16 937.489,2197.72 937.58,2197.27 C937.62,2197.06 937.664,2196.85 937.705,2196.64 L937.743,2196.47 C937.97,2195.36 938.191,2194.36 938.401,2193.46 C938.451,2193.25 938.503,2193.02 938.55,2192.82 C938.591,2192.67 938.625,2192.5 938.661,2192.36 L938.667,2192.35 C938.789,2191.86 938.905,2191.42 939.017,2191.05 C939.104,2190.77 939.215,2190.44 939.325,2190.11 C940.899,2186.96 942.579,2183.87 944.304,2180.82 C944.759,2180.02 945.376,2179.05 946.036,2178.05 C948.361,2175.47 950.751,2172.97 953.2,2170.54 L953.229,2170.51 C955.427,2169.07 957.653,2167.67 959.892,2166.31 C960.959,2165.66 962.073,2165.1 963.163,2164.51 C964.417,2163.99 965.687,2163.49 966.754,2163.14 C970.561,2161.86 979.783,2160.15 984.592,2159.2 C991.437,2158.93 998.31,2159.08 1005.14,2159.48 C1005.35,2159.5 1005.59,2159.52 1005.82,2159.54 C1007.24,2159.83 1008.59,2160.13 1009.93,2160.45 L1009.93,2160.45 Z"/>
    <path fill="#102770" d="M1135.69 2290.84C1135.75 2292.19 1135.8 2293.54 1135.85 2294.87 1136.44 2310.97 1135.1 2326.76 1133.81 2342.04L1133.5 2345.68C1131.68 2367.4 1128.98 2389.22 1126.37 2410.31 1124.46 2425.74 1122.5 2441.69 1120.9 2457.32 1112.25 2542.47 1123.83 2612.94 1156.3 2672.77 1244.29 2834.95 1462.96 2856.68 1585.67 2855.15 1784.18 2852.72 1942.62 2767.36 2031.8 2614.8 2050.96 2582.02 2039.32 2535.99 2006.89 2516.3 1991.86 2507.17 1974.13 2504.54 1956.98 2508.88 1938.83 2513.48 1922.86 2525.63 1913.16 2542.24 1908.55 2550.13 1903.66 2558.09 1898.62 2565.9 1898.58 2565.97 1897.76 2567.14 1896.49 2568.86 1895.48 2570.22 1894.08 2572.13 1892.7 2574 1892.14 2575.22 1891.43 2576.39 1890.57 2577.49 1880.88 2589.94 1869.7 2602.21 1854.33 2617.29 1847.88 2623.62 1841.15 2629.41 1834.65 2635L1834.63 2635.01C1833.25 2636.19 1831.75 2637.13 1830.17 2637.82 1829.1 2638.66 1828.14 2639.42 1827.49 2639.94 1825.82 2641.25 1824.62 2642.18 1824.42 2642.33 1809.9 2652.75 1793.3 2662.68 1772.15 2673.6 1771.79 2673.78 1769.37 2674.89 1766.41 2676.22 1765.81 2676.48 1765.19 2676.76 1764.57 2677.04 1763.53 2677.77 1762.4 2678.4 1761.18 2678.91 1752.98 2682.34 1744.71 2685.23 1736.72 2688.03 1718.4 2694.45 1700.05 2698.93 1686.1 2702.11 1677.38 2704.1 1668.67 2705.6 1660.25 2707.05L1660.11 2707.07C1658.68 2707.3 1657.24 2707.36 1655.87 2707.26 1654.83 2707.41 1653.81 2707.55 1652.89 2707.68 1650.27 2708.06 1648.27 2708.33 1647.93 2708.36 1626.8 2710.49 1605.27 2710.95 1586.27 2711.36 1506.02 2713.09 1450.7 2708.37 1371.17 2677.71 1369.51 2677.07 1368 2676.21 1366.66 2675.18 1363.33 2673.71 1359.75 2672.15 1358.46 2671.61 1358.07 2671.44 1357.69 2671.27 1357.31 2671.08 1348.4 2666.64 1339.9 2661.52 1332.39 2657 1313.82 2645.83 1309.9 2642.14 1297.81 2629.8L1295.25 2627.19C1294.97 2626.9 1294.32 2626.18 1293.32 2624.94 1291.73 2622.99 1290.41 2621.36 1289.31 2620.02 1287.47 2618.82 1285.83 2617.28 1284.48 2615.39 1280.09 2609.23 1276.44 2602.91 1273.01 2596.69 1270.7 2594.55 1268.48 2591.52 1266.58 2587.25 1264.6 2582.79 1263.8 2578.99 1263.76 2575.76 1261.37 2568.06 1259.62 2560.37 1258.08 2552.94 1256.84 2550.15 1255.87 2546.69 1255.27 2542.41 1254.66 2538.09 1254.88 2534.55 1255.63 2531.65 1255.34 2525.56 1255.28 2519.56 1255.22 2513.71 1255.02 2495.97 1256.33 2478.64 1257.68 2462.37 1259.48 2440.65 1262.18 2418.83 1264.8 2397.73 1266.69 2382.43 1268.65 2366.6 1270.23 2351.09 1277.14 2283.18 1268.28 2223.03 1242.34 2161.81 1203.93 2071.16 1110.23 2006.75 1003.63 1997.73 947.028 1992.96 888.488 2014.44 842.897 2056.69 799.806 2096.61 775.514 2166.15 777.917 2242.72 779.186 2283.35 809.367 2315.17 846.623 2315.17 864.313 2315.17 882.096 2307.28 895.421 2293.54 908.825 2279.71 915.895 2262.06 915.324 2243.84 914.928 2231.3 915.187 2219.47 916.105 2207.82 916.208 2206.41 916.334 2205.06 916.452 2203.77L916.461 2203.68 916.461 2203.67C916.769 2200.39 917.941 2197.4 919.733 2194.9 919.528 2192.06 919.997 2189.13 921.232 2186.35 921.872 2184.9 922.448 2183.6 922.96 2182.44 923.156 2181.85 923.351 2181.29 923.546 2180.74 924 2178.05 925.08 2175.43 926.808 2173.09 928.361 2170.17 930.036 2167.97 931.955 2166.34L933.566 2164.22C933.742 2164 933.913 2163.77 934.083 2163.55 935.026 2162.12 936.193 2160.8 937.57 2159.65 939.401 2157.87 941.193 2156.53 942.931 2155.57 949.474 2149.47 954.674 2146.46 959.821 2146.01 960.812 2145.53 961.891 2145.02 963.058 2144.45 963.195 2144.39 963.336 2144.32 963.473 2144.25L963.488 2144.25 963.585 2144.2C965.626 2143.24 967.76 2142.69 969.894 2142.53 970.412 2142.41 970.944 2142.32 971.481 2142.26L971.486 2142.26C977.804 2141.47 983.971 2140.7 989.328 2141.13 991.583 2141.1 993.8 2141.13 995.895 2141.17 998.214 2140.56 1000.69 2140.42 1003.22 2140.82L1003.4 2140.85C1005.77 2141.23 1007.81 2141.55 1009.54 2141.82 1015.49 2142.24 1021.34 2143.01 1025.91 2145.94 1032.61 2147.85 1038.78 2150.01 1044.05 2151.98 1045.27 2152.44 1046.48 2152.9 1047.65 2153.35L1047.83 2153.42C1050.31 2154.38 1052.45 2155.82 1054.19 2157.6 1056.76 2158.84 1058.84 2159.9 1060.4 2160.81 1063.87 2162.84 1067.2 2165.01 1070.3 2167.08 1073.07 2168.21 1076.1 2169.97 1079.42 2172.52 1082.86 2175.16 1085.17 2177.82 1086.67 2180.39 1090.27 2183.93 1093.99 2187.84 1097.99 2192.3 1099.61 2193.43 1101.06 2194.85 1102.26 2196.54L1102.27 2196.54 1102.29 2196.58C1103.23 2197.89 1104.07 2199.06 1104.81 2200.09 1108.37 2204.31 1111.37 2208.38 1112.67 2212.8 1113.85 2214.91 1115.3 2217.81 1117.1 2221.53 1118.99 2223.29 1120.52 2225.48 1121.53 2228.04 1122.18 2229.68 1122.91 2231.53 1123.58 2233.48 1127.3 2243.82 1130.47 2255.35 1133.4 2269.17 1133.99 2270.66 1134.4 2272.25 1134.57 2273.92L1134.58 2273.93 1134.58 2273.99 1135.79 2285.08C1136.02 2287.17 1135.97 2289.09 1135.69 2290.84zM1574.45 2891.03C1441.98 2891.03 1218.97 2863.36 1124.81 2689.86 1089.3 2624.41 1076 2544.96 1085.27 2453.7 1086.9 2437.68 1088.9 2421.53 1090.83 2405.92 1093.39 2385.17 1096.05 2363.71 1097.81 2342.69L1098.12 2339.02C1099.38 2324.15 1100.56 2310.11 1100.06 2296.2 1099.89 2291.66 1099.73 2287.3 1099.43 2283.06 1098.96 2279.56 1098.75 2278.5 1098.72 2278.35 1096.49 2267.54 1094.14 2258.42 1091.52 2250.37 1089.93 2247.68 1088.6 2244.89 1087.4 2242.41 1085.6 2238.64 1082.24 2231.63 1081.24 2229.98 1079.59 2227.27 1077.89 2224.49 1076.15 2221.82 1075.57 2221.07 1075.06 2220.44 1074.73 2220.06 1067.37 2211.62 1061.4 2205.49 1055.49 2200.31 1054.93 2199.93 1054.4 2199.57 1053.9 2199.23 1050.1 2196.65 1046.19 2193.99 1042.35 2191.75 1040.49 2190.67 1033.68 2187.53 1030.03 2185.85 1028.32 2185.07 1026.2 2184.09 1024.02 2182.86 1018.91 2181.13 1014.4 2179.82 1010.09 2178.82 1007.8 2178.29 1005.64 2177.78 1003.55 2177.33 997.257 2176.96 991.803 2176.84 986.876 2176.99 986.447 2177.09 986.007 2177.18 985.563 2177.26 982.272 2177.9 974.572 2179.4 972.472 2180.11 972.023 2180.26 971.354 2180.51 970.475 2180.86 970.041 2181.11 969.611 2181.36 969.196 2181.62 967.628 2182.57 966.11 2183.49 964.655 2184.41 963.268 2185.8 961.823 2187.26 960.412 2188.79 960.187 2189.14 960.006 2189.43 959.87 2189.67 958.585 2191.94 957.272 2194.25 956.066 2196.56 955.48 2198.77 954.279 2205.13 953.551 2209.01 952.975 2212.06 952.316 2215.56 951.286 2218.95 950.919 2226.64 950.866 2234.49 951.125 2242.72 951.999 2270.72 941.349 2297.62 921.144 2318.47 901.11 2339.13 873.947 2350.99 846.623 2350.99 789.899 2350.99 743.996 2303.92 742.116 2243.84 739.357 2155.77 767.213 2077.98 818.551 2030.41 871.52 1981.33 940.133 1956.42 1006.65 1962.05 1126.33 1972.17 1231.79 2045.1 1275.32 2147.84 1303.32 2213.92 1313.31 2281.59 1305.86 2354.72 1304.24 2370.61 1302.26 2386.64 1300.34 2402.14 1297.77 2422.88 1295.11 2444.33 1293.38 2465.34 1292.09 2480.76 1290.86 2497.13 1291.03 2512.92 1291.11 2521.15 1291.19 2528.51 1291.77 2535.74 1291.87 2537 1291.99 2538.54 1292.05 2540.24 1292.12 2540.57 1292.18 2540.88 1292.24 2541.18 1294.11 2550.52 1296.2 2560.37 1299.34 2569.3 1299.61 2570.04 1299.9 2570.89 1300.22 2571.82 1300.87 2572.95 1301.44 2574 1301.92 2574.88 1304.74 2580.07 1307.45 2585.06 1310.37 2589.7 1312.18 2591.48 1313.64 2593.23 1314.68 2594.48 1317.12 2597.41 1319.84 2600.78 1321.16 2602.41L1321.4 2602.71 1323.4 2604.74C1333.84 2615.4 1335.45 2617.04 1350.86 2626.31 1357.99 2630.6 1365.35 2635.04 1372.82 2638.79 1374.18 2639.38 1378.27 2641.15 1382.02 2642.81 1383.75 2643.58 1386.08 2644.61 1388.48 2645.98 1460.1 2672.98 1511.4 2677.15 1585.5 2675.55 1603.83 2675.16 1624.62 2674.71 1644.33 2672.73 1644.53 2672.7 1646 2672.48 1647.86 2672.22 1651.48 2671.71 1655.13 2671.19 1658.62 2670.95 1658.72 2670.93 1658.81 2670.91 1658.89 2670.9L1658.65 2670.95 1658.86 2670.94C1665.52 2669.78 1671.85 2668.62 1678.12 2667.19 1691.15 2664.22 1708.24 2660.06 1724.84 2654.24 1731.42 2651.93 1737.67 2649.75 1743.74 2647.34 1746.38 2645.94 1749.14 2644.7 1751.77 2643.53 1753.85 2642.6 1755.6 2641.82 1756.16 2641.55 1775.28 2631.68 1790.47 2622.62 1803.49 2613.26L1805.29 2611.82C1808.59 2609.22 1811.92 2606.59 1815.25 2604.44 1820.14 2600.2 1824.82 2596.08 1829.24 2591.73 1841.99 2579.22 1851.52 2568.93 1859.61 2558.89 1860.33 2557.71 1861.14 2556.49 1862.05 2555.26 1863.93 2552.67 1866.19 2549.6 1867.66 2547.61L1868.8 2546.06C1873.45 2538.83 1877.97 2531.46 1882.23 2524.17 1896.75 2499.32 1920.79 2481.1 1948.19 2474.16 1974.73 2467.44 2002.18 2471.53 2025.48 2485.68 2074.8 2515.63 2091.85 2583.04 2062.72 2632.88 1966.94 2796.72 1797.68 2888.38 1586.1 2890.96 1582.31 2891.01 1578.42 2891.03 1574.45 2891.03L1574.45 2891.03zM3120.29 2286.68C3065.04 2286.68 3018.36 2373.62 3018.36 2476.52 3018.36 2579.43 3065.04 2666.36 3120.29 2666.36 3175.56 2666.36 3222.24 2579.43 3222.24 2476.52 3222.24 2373.62 3175.56 2286.68 3120.29 2286.68zM3120.29 2702.18C3043.05 2702.18 2982.54 2603.06 2982.54 2476.52 2982.54 2349.98 3043.05 2250.87 3120.29 2250.87 3197.55 2250.87 3258.06 2349.98 3258.06 2476.52 3258.06 2603.06 3197.55 2702.18 3120.29 2702.18L3120.29 2702.18zM2742.09 2190.8C2686.83 2190.8 2640.14 2277.74 2640.14 2380.64 2640.14 2483.54 2686.83 2570.48 2742.09 2570.48 2797.35 2570.48 2844.03 2483.54 2844.03 2380.64 2844.03 2277.74 2797.35 2190.8 2742.09 2190.8zM2742.09 2606.3C2664.84 2606.3 2604.32 2507.18 2604.32 2380.64 2604.32 2254.1 2664.84 2154.98 2742.09 2154.98 2819.34 2154.98 2879.85 2254.1 2879.85 2380.64 2879.85 2507.18 2819.34 2606.3 2742.09 2606.3L2742.09 2606.3z"/>
    <path fill="#FECA29" d="M2249.35,1986.45 C2249.35,1986.45 2407.81,2503.54 2322.22,2651.18 C2270.62,2740.2 1915.36,2815.92 1577.26,2693.52 C1428.75,2639.75 1571.4,2130.7 1571.4,2130.7"/>
    <path fill="#FECA29" d="M2249.35,1986.45 C2249.35,1986.45 2407.81,2503.54 2322.22,2651.18 C2270.62,2740.2 1915.36,2815.92 1577.26,2693.52 C1428.75,2639.75 1571.4,2130.7 1571.4,2130.7"/>
    <path fill="#D08F34" d="M2331.91,2342.83 C2308.58,2330.07 2295.55,2318.76 2295.55,2318.76 C2283.61,2434.17 2343.3,2533.66 2343.3,2533.66 L2347.24,2536 C2349.19,2478.61 2342.54,2410.84 2331.91,2342.83"/>
    <path fill="#FAE38D" d="M2212.07,2526.39 C2212.07,2652.9 2090.44,2755.45 1940.39,2755.45 C1790.35,2755.45 1668.72,2652.9 1668.72,2526.39 C1668.72,2399.89 1790.35,2297.34 1940.39,2297.34 C2090.44,2297.34 2212.07,2399.89 2212.07,2526.39"/>
    <path fill="#D0A57D" d="M1691.65,2618.51 C1733.72,2699.13 1829.23,2755.45 1940.39,2755.45 C2039.27,2755.45 2125.79,2710.9 2173.32,2644.32 C1924.19,2772.07 1755.71,2671.33 1691.65,2618.51"/>
    <path fill="#102770" d="M1947.03,2775.25 C1847.18,2775.25 1713.65,2761.95 1571.16,2710.36 C1500.62,2684.82 1476.97,2576.93 1500.88,2389.68 C1517.94,2255.94 1553.8,2127.16 1554.16,2125.87 C1556.83,2116.35 1566.75,2110.8 1576.23,2113.46 C1585.76,2116.13 1591.31,2126.01 1588.65,2135.53 C1535.25,2326.16 1486.6,2641.65 1583.36,2676.68 C1783.18,2749.03 1964.79,2743.54 2055.27,2733.83 C2200.58,2718.24 2287.48,2675.4 2306.73,2642.2 C2387.44,2502.97 2233.79,1996.8 2232.23,1991.7 C2229.33,1982.24 2234.65,1972.23 2244.11,1969.33 C2253.56,1966.42 2263.58,1971.75 2266.48,1981.21 C2273.04,2002.62 2426.21,2507.51 2337.71,2660.17 C2307.91,2711.58 2198.54,2754.48 2059.08,2769.44 C2030.06,2772.56 1991.95,2775.25 1947.03,2775.25"/>
    <path fill="#FECA29" d="M1566.39,2660.53 C1566.39,2660.53 1543.34,2835.72 1612.15,2959 C1612.15,2959 1561.55,3044.86 1625.77,3077.95 C1689.99,3111.03 1831.19,3077.15 1850.58,3039.38 C1869.95,3001.59 1825.85,2846.36 1825.85,2846.36 C1825.85,2846.36 1808.66,2768.99 1819.28,2733.3"/>
    <path fill="#C34E4E" d="M1630.44 2731.45L1562.76 2740.39C1563.07 2762.19 1564.46 2787.06 1567.81 2813.21L1639.97 2803.68C1665.45 2800.32 1683.98 2781.42 1681.34 2761.47 1678.71 2741.53 1655.92 2728.09 1630.44 2731.45M1701.38 2885.72C1698.75 2865.78 1675.95 2852.34 1650.48 2855.7L1577.16 2865.38C1582.75 2889.2 1590.29 2913.08 1600.52 2935.79L1660.01 2927.93C1685.49 2924.57 1704.02 2905.67 1701.38 2885.72"/>
    <path fill="#D08F34" d="M1850.58,3039.38 C1869.95,3001.59 1825.85,2846.36 1825.85,2846.36 C1825.85,2846.36 1808.66,2768.99 1819.28,2733.3 L1789.27,2724.66 C1788.2,2725.83 1787.15,2727.11 1786.16,2728.66 C1742.38,2796.31 1837.89,2939.58 1806.05,3011.22 C1776.6,3077.49 1617.81,3041.6 1594.19,3035.85 C1596.91,3052.22 1605.76,3067.65 1625.77,3077.95 C1689.99,3111.03 1831.19,3077.15 1850.58,3039.38"/>
    <path fill="#FAE38D" d="M1850.58,3039.38 C1857.68,3025.51 1856.24,2995.83 1851.56,2963.81 C1764.09,2933.08 1668.96,2948.91 1605.68,2971.96 C1594.47,2997.22 1576.97,3052.81 1625.77,3077.95 C1689.99,3111.03 1831.19,3077.15 1850.58,3039.38"/>
    <path fill="#D0A57D" d="M1852.42,3034.77 C1852.73,3033.8 1853.02,3032.79 1853.28,3031.73 C1853.38,3031.33 1853.48,3030.94 1853.58,3030.53 C1853.89,3029.11 1854.17,3027.62 1854.4,3026.05 C1854.46,3025.72 1854.49,3025.36 1854.54,3025.02 C1854.71,3023.73 1854.86,3022.41 1854.99,3021.05 C1855.04,3020.42 1855.09,3019.79 1855.14,3019.15 C1855.22,3017.94 1855.29,3016.69 1855.34,3015.42 C1855.37,3014.79 1855.41,3014.18 1855.42,3013.54 C1855.47,3011.78 1855.49,3009.98 1855.4825,3008.13 C1855.4825,3007.3 1855.45,3006.45 1855.44,3005.6 C1855.41,3004.45 1855.38,3003.28 1855.34,3002.09 C1855.31,3001.08 1855.27,3000.07 1855.22,2999.04 C1855.16,2997.98 1855.1,2996.9 1855.03,2995.82 C1854.9,2993.71 1854.74,2991.58 1854.56,2989.4 C1854.49,2988.6 1854.43,2987.8 1854.36,2986.99 C1854.23,2985.58 1854.08,2984.15 1853.94,2982.71 C1853.86,2981.97 1853.78,2981.22 1853.7,2980.48 C1853.53,2978.95 1853.36,2977.43 1853.17,2975.88 C1853.13,2975.53 1853.09,2975.16 1853.04,2974.8 C1852.6,2971.18 1852.1,2967.51 1851.56,2963.81 C1838.21,2959.12 1824.68,2955.63 1811.11,2952.97 C1813.91,2974.93 1813.28,2994.93 1806.05,3011.22 C1776.6,3077.49 1617.81,3041.6 1594.19,3035.85 C1594.51,3037.78 1594.93,3039.68 1595.42,3041.57 C1595.49,3041.8 1595.55,3042.03 1595.62,3042.26 C1596.13,3044.13 1596.72,3045.97 1597.42,3047.78 C1597.46,3047.89 1597.52,3048 1597.56,3048.11 C1598.25,3049.86 1599.05,3051.59 1599.94,3053.29 C1600.02,3053.46 1600.1,3053.63 1600.2,3053.8 C1601.1,3055.49 1602.13,3057.14 1603.24,3058.76 C1603.44,3059.04 1603.64,3059.32 1603.84,3059.6 C1605.01,3061.22 1606.25,3062.81 1607.65,3064.35 C1607.73,3064.44 1607.82,3064.52 1607.9,3064.61 C1609.25,3066.07 1610.71,3067.47 1612.28,3068.84 C1612.56,3069.09 1612.82,3069.33 1613.1,3069.58 C1614.73,3070.94 1616.47,3072.26 1618.34,3073.52 C1618.71,3073.77 1619.1,3074.02 1619.48,3074.26 C1621.45,3075.55 1623.52,3076.79 1625.77,3077.95 C1689.99,3111.03 1831.19,3077.15 1850.58,3039.38 C1851.12,3038.32 1851.59,3037.13 1852.04,3035.9 C1852.17,3035.53 1852.29,3035.15 1852.42,3034.77"/>
    <path fill="#102770" d="M1695.04,3109.37 C1666.31,3109.37 1638.88,3104.85 1617.57,3093.87 C1597.52,3083.54 1584.4,3068.09 1578.58,3047.92 C1568.78,3014 1583.65,2976.22 1591.9,2959.13 C1526.6,2832.97 1547.68,2665.42 1548.63,2658.19 C1549.91,2648.39 1558.96,2641.48 1568.71,2642.78 C1578.51,2644.06 1585.42,2653.05 1584.14,2662.85 C1583.92,2664.55 1562.76,2833.76 1627.79,2950.27 C1630.9,2955.82 1630.81,2962.61 1627.58,2968.09 C1621.11,2979.18 1605.84,3013.42 1613.01,3038.06 C1616.05,3048.49 1622.9,3056.33 1633.98,3062.03 C1669.66,3080.42 1736.49,3074.59 1784.05,3059.32 C1818.22,3048.36 1831.94,3036.49 1834.65,3031.2 C1844.61,3011.76 1828.89,2922.66 1808.62,2851.25 C1808.54,2850.98 1808.47,2850.7 1808.4,2850.43 C1806.81,2843.6 1793.18,2782.57 1804.81,2743.45 C1807.63,2733.97 1817.63,2728.58 1827.09,2731.39 C1836.56,2734.21 1841.96,2744.18 1839.15,2753.66 C1831.64,2778.91 1839.44,2825.5 1843.19,2841.9 C1851.15,2869.96 1887.9,3005.83 1866.52,3047.54 C1854.87,3070.24 1821.2,3085.02 1795,3093.43 C1765.28,3102.96 1729.24,3109.37 1695.04,3109.37"/>
    <path fill="#FECA29" d="M1610.13,2061.03 C1610.13,2061.03 1504.81,2141.16 1447.36,2281.4 C1387.43,2427.72 1329.53,2671.05 1423.43,2737.54 C1634.06,2886.69 1586.19,2401.6 1605.34,2266.37"/>
    <path fill="#C34E4E" d="M1501.31 2322.91L1430.15 2324.54C1420.44 2353.52 1411.3 2384.78 1403.49 2416.74L1503.41 2414.45C1528.69 2413.87 1548.71 2392.91 1548.13 2367.63 1547.55 2342.35 1526.59 2322.33 1501.31 2322.91M1484.46 2466.78L1389.93 2466.78C1383.29 2497.86 1378.33 2528.84 1375.81 2558.35L1484.46 2558.35C1509.74 2558.35 1530.24 2537.86 1530.24 2512.57 1530.24 2487.28 1509.74 2466.78 1484.46 2466.78"/>
    <path fill="#D08F34" d="M1599.11,2286.91 C1539.42,2294.86 1583.2,2609.26 1527.48,2684.87 C1471.76,2760.49 1380.23,2649.06 1380.23,2649.06 L1378.68,2656.16 C1385.33,2691.81 1399.37,2720.51 1423.43,2737.54 C1624.6,2880 1589.97,2443.91 1603.14,2286.64 C1601.81,2286.57 1600.49,2286.72 1599.11,2286.91"/>
    <path fill="#FAE38D" d="M1374.64,2622.15 C1377.75,2673.49 1392.12,2715.37 1423.43,2737.54 C1523.25,2808.22 1564.99,2736.44 1583.34,2626.99 C1494.72,2579.67 1416.71,2602.01 1374.64,2622.15"/>
    <path fill="#D0A57D" d="M1435.8,2745.7 C1437.72,2746.88 1439.65,2748.11 1441.53,2749.18 C1442.8,2749.92 1444.03,2750.53 1445.28,2751.21 C1446.88,2752.08 1448.51,2753 1450.08,2753.79 C1451.42,2754.47 1452.73,2755.02 1454.04,2755.64 C1455.47,2756.3 1456.92,2757.02 1458.32,2757.62 C1459.7,2758.21 1461.03,2758.67 1462.38,2759.2 C1463.66,2759.69 1464.96,2760.24 1466.22,2760.68 C1467.63,2761.17 1469,2761.54 1470.38,2761.95 C1471.53,2762.3 1472.69,2762.7 1473.81,2763 C1475.22,2763.37 1476.59,2763.62 1477.96,2763.91 C1479.01,2764.13 1480.08,2764.41 1481.11,2764.59 C1482.51,2764.84 1483.87,2764.97 1485.24,2765.13 C1486.19,2765.24 1487.16,2765.41 1488.1,2765.48 C1489.49,2765.59 1490.84,2765.59 1492.21,2765.62 C1493.07,2765.64 1493.95,2765.71 1494.8,2765.69 C1496.2,2765.67 1497.54,2765.53 1498.9,2765.41 C1499.67,2765.35 1500.45,2765.33 1501.21,2765.24 C1502.61,2765.06 1503.96,2764.78 1505.32,2764.52 C1505.99,2764.38 1506.68,2764.3 1507.34,2764.14 C1508.72,2763.82 1510.06,2763.39 1511.41,2762.96 C1512.01,2762.77 1512.61,2762.63 1513.2,2762.42 C1514.57,2761.94 1515.9,2761.35 1517.22,2760.76 C1517.74,2760.53 1518.28,2760.35 1518.79,2760.1 C1520.16,2759.45 1521.47,2758.7 1522.78,2757.94 C1523.22,2757.68 1523.69,2757.46 1524.13,2757.19 C1525.47,2756.36 1526.78,2755.44 1528.08,2754.5 C1528.46,2754.24 1528.84,2754 1529.2,2753.73 C1530.53,2752.72 1531.83,2751.62 1533.1,2750.5 C1533.41,2750.23 1533.73,2749.99 1534.04,2749.71 C1535.35,2748.53 1536.62,2747.25 1537.87,2745.94 C1538.12,2745.68 1538.39,2745.44 1538.64,2745.18 C1539.92,2743.8 1541.17,2742.34 1542.4,2740.84 C1542.6,2740.6 1542.8,2740.38 1542.99,2740.14 C1544.26,2738.56 1545.49,2736.9 1546.7,2735.2 C1546.84,2735 1546.98,2734.82 1547.12,2734.62 C1548.37,2732.84 1549.58,2730.98 1550.77,2729.06 C1550.85,2728.91 1550.95,2728.78 1551.04,2728.64 C1552.26,2726.64 1553.45,2724.57 1554.61,2722.43 L1553.17,2722.22 C1554.36,2720.01 1555.09,2717.72 1555.09,2715.38 L1555.09,2715.36 C1567.03,2691.72 1576.04,2661.19 1581.78,2626.99 C1570.83,2621.14 1560.81,2616.36 1550.23,2612.51 C1545.42,2643.58 1538.57,2669.3 1527.09,2684.87 C1471.37,2760.49 1380.04,2649.06 1380.04,2649.06 L1378.61,2656.06 C1378.67,2656.42 1378.78,2656.8 1378.85,2657.17 C1379.58,2661.01 1380.43,2664.78 1381.34,2668.46 C1381.51,2669.15 1381.71,2669.83 1381.89,2670.52 C1382.76,2673.86 1383.71,2677.12 1384.73,2680.3 C1384.91,2680.87 1385.09,2681.46 1385.28,2682.03 C1386.46,2685.57 1387.75,2689.01 1389.13,2692.34 C1389.39,2692.96 1389.67,2693.57 1389.93,2694.18 C1391.24,2697.2 1392.63,2700.15 1394.12,2702.98 C1394.32,2703.35 1394.49,2703.75 1394.69,2704.12 C1396.33,2707.16 1398.1,2710.08 1399.96,2712.89 C1400.36,2713.5 1400.77,2714.08 1401.18,2714.67 C1402.97,2717.26 1404.83,2719.77 1406.83,2722.14 C1407,2722.35 1407.17,2722.57 1407.34,2722.78 C1409.47,2725.27 1411.74,2727.59 1414.1,2729.82 C1414.66,2730.34 1415.22,2730.86 1415.79,2731.37 C1418.23,2733.55 1420.74,2735.64 1423.43,2737.54 C1426.56,2739.76 1429.63,2741.84 1432.65,2743.77 C1433.71,2744.46 1434.74,2745.04 1435.8,2745.7"/>
    <path fill="#102770" d="M1493.74,2783.62 C1469.66,2783.62 1442.67,2773.11 1413.07,2752.16 C1304.23,2675.07 1372.99,2415.71 1430.79,2274.61 C1489.41,2131.51 1594.82,2050.17 1599.28,2046.78 C1607.15,2040.78 1618.39,2042.31 1624.38,2050.18 C1630.36,2058.05 1628.84,2069.28 1620.98,2075.27 C1619.97,2076.04 1518.72,2154.46 1463.93,2288.19 C1393.73,2459.58 1359.31,2670.19 1433.78,2722.93 C1466.61,2746.18 1492.85,2753.13 1511.75,2743.63 C1573.96,2712.33 1578.28,2519.68 1581.13,2392.2 C1582.32,2339.53 1583.33,2294.04 1587.61,2263.86 C1589,2254.07 1598.13,2247.29 1607.85,2248.64 C1617.64,2250.03 1624.45,2259.09 1623.07,2268.89 C1619.09,2296.96 1618.1,2341.47 1616.94,2393 C1613.53,2545.22 1609.29,2734.65 1527.85,2775.62 C1517.25,2780.96 1505.86,2783.62 1493.74,2783.62"/>
    <path fill="#FECA29" d="M2233.37,2103.64 C2233.37,2103.64 2446.69,2162.24 2499.19,2151.58 C2551.69,2140.93 2641.86,2030.04 2732.53,2082.33 C2843.37,2146.26 2802.54,2348.68 2569.19,2407.28 C2335.84,2465.87 2300.85,2366.43 2300.85,2366.43"/>
    <path fill="#FECA29" d="M2233.37,2103.64 C2233.37,2103.64 2446.69,2162.24 2499.19,2151.58 C2551.69,2140.93 2641.86,2030.04 2732.53,2082.33 C2843.37,2146.26 2802.54,2348.68 2569.19,2407.28 C2335.84,2465.87 2300.85,2366.43 2300.85,2366.43"/>
    <path fill="#C34E4E" d="M2499.19,2151.58 C2482.92,2154.88 2451.21,2151.53 2415.19,2145.34 L2409.31,2166.32 C2402.47,2190.66 2416.67,2215.93 2441.02,2222.77 C2465.36,2229.6 2490.64,2215.4 2497.47,2191.06 L2509.42,2148.49 C2505.87,2149.86 2502.45,2150.92 2499.19,2151.58"/>
    <path fill="#D08F34" d="M2569.19,2407.28 C2610.43,2396.92 2645.53,2382.01 2674.97,2364.23 L2641.78,2322.74 C2446.77,2450.09 2295.55,2318.76 2295.55,2318.76 C2294.8,2325.98 2294.33,2333.13 2294.11,2340.21 L2300.85,2366.43 C2300.85,2366.43 2335.84,2465.87 2569.19,2407.28"/>
    <path fill="#FAE38D" d="M2732.53,2082.33 C2665.84,2043.87 2599.45,2093.66 2548.09,2126.95 C2537.28,2193.06 2530.47,2314.67 2603.19,2397.16 C2806.17,2328.35 2837.73,2143 2732.53,2082.33"/>
    <path fill="#D08F34" d="M1571.4,2130.7 C1571.4,2130.7 1568.3,2141.81 1563.49,2160.81 C1637.17,2227.18 1763.7,2271.01 1907.52,2271.01 C2077.56,2271.01 2223.49,2209.78 2286.38,2122.42 C2266.45,2042.25 2249.35,1986.45 2249.35,1986.45 L1571.4,2130.7"/>
    <path fill="#102770" d="M2439.27,2443.54 C2310.87,2443.54 2285.24,2376.04 2283.95,2372.38 C2280.67,2363.05 2285.57,2352.82 2294.9,2349.54 C2304.23,2346.24 2314.45,2351.16 2317.74,2360.49 C2317.95,2360.99 2353.37,2443 2564.83,2389.9 C2703.86,2354.99 2763.44,2269.12 2772.22,2206.2 C2778.71,2159.66 2760.53,2119.15 2723.59,2097.85 C2671.1,2067.59 2616.8,2103.27 2568.87,2134.76 C2544.11,2151.03 2522.72,2165.08 2502.75,2169.13 C2447.02,2180.44 2289.44,2126.73 2271.65,2120.56 C2262.31,2117.33 2257.35,2107.13 2260.59,2097.78 C2263.83,2088.44 2274.04,2083.49 2283.37,2086.72 C2347,2108.75 2460.93,2141.09 2495.62,2134.03 C2508.82,2131.35 2528.44,2118.46 2549.21,2104.82 C2600.14,2071.36 2669.9,2025.53 2741.48,2066.82 C2791.52,2095.68 2816.27,2149.63 2807.69,2211.15 C2796.89,2288.65 2729.7,2385.43 2573.55,2424.65 C2519.53,2438.21 2475.34,2443.54 2439.27,2443.54"/>
    <path fill="#FECA29" d="M2294.12,2649.65 C2294.12,2649.65 2351.6,2821.38 2293.66,2950.12 C2293.66,2950.12 2351.48,3031.31 2290.33,3069.81 C2229.2,3108.29 2085.61,3086.69 2063.04,3050.73 C2040.49,3014.75 2051.63,2857.14 2051.63,2857.14 C2051.63,2857.14 2062.09,2778.57 2048.44,2743.93"/>
    <path fill="#FECA29" d="M2294.12,2649.65 C2294.12,2649.65 2351.6,2821.38 2293.66,2950.12 C2293.66,2950.12 2351.48,3031.31 2290.33,3069.81 C2229.2,3108.29 2085.61,3086.69 2063.04,3050.73 C2040.49,3014.75 2051.63,2857.14 2051.63,2857.14 C2051.63,2857.14 2062.09,2778.57 2048.44,2743.93"/>
    <path fill="#C34E4E" d="M2244.22 2737.79L2312.46 2739.66C2314.41 2761.38 2315.61 2786.26 2314.98 2812.62L2242.22 2810.62C2216.53 2809.91 2196.14 2793.04 2196.7 2772.93 2197.25 2752.82 2218.52 2737.08 2244.22 2737.79M2189.65 2898.58C2190.2 2878.47 2211.48 2862.74 2237.16 2863.45L2311.08 2865.48C2308 2889.75 2302.97 2914.28 2295.16 2937.92L2235.16 2936.27C2209.48 2935.57 2189.09 2918.7 2189.65 2898.58"/>
    <path fill="#D08F34" d="M2116.47,3031.11 C2056.77,3019.18 2084.64,2935.6 2092.59,2848.05 C2099.71,2769.77 2087.77,2736.11 2085.15,2729.84 L2048.44,2743.93 C2062.09,2778.57 2051.63,2857.14 2051.63,2857.14 C2051.63,2857.14 2040.49,3014.75 2063.04,3050.73 C2085.61,3086.69 2229.2,3108.29 2290.33,3069.81 C2311.43,3056.52 2318.36,3038.16 2318.39,3019.8 L2311.48,3007.24 C2295.56,3066.93 2176.17,3043.05 2116.47,3031.11"/>
    <path fill="#FAE38D" d="M2290.33,3069.81 C2341.02,3037.89 2309.98,2976.69 2297.87,2956.67 C2198.96,2932.93 2109.87,2945.81 2049.16,2962.54 C2050.11,2999.59 2053.64,3035.73 2063.04,3050.73 C2085.61,3086.69 2229.2,3108.29 2290.33,3069.81"/>
    <path fill="#D0A57D" d="M2298.01,3064.21 C2299.9,3062.63 2301.64,3061 2303.24,3059.32 C2303.53,3059.01 2303.81,3058.69 2304.09,3058.38 C2307.31,3054.83 2309.92,3051.09 2311.95,3047.21 C2312.11,3046.92 2312.28,3046.63 2312.42,3046.33 C2313.38,3044.41 2314.22,3042.47 2314.93,3040.49 C2315.03,3040.22 2315.11,3039.95 2315.2,3039.68 C2316.62,3035.55 2317.52,3031.31 2317.98,3027.04 C2318.01,3026.83 2318.44,3026.62 2318.46,3026.4 C2318.67,3024.27 2319.2,3022.13 2319.2,3019.99 L2319.2,3019.78 L2311.89,3007.24 C2295.97,3066.93 2176.37,3043.05 2116.67,3031.11 C2083.13,3024.41 2077.84,2995.07 2080.52,2955.13 C2069.72,2957.43 2056.54,2959.93 2050.57,2962.54 L2050.57,2962.68 C2050.57,2964.74 2049.98,2966.8 2050.05,2968.86 C2050.07,2969.27 2049.73,2969.67 2049.73978,2970.08 C2049.81,2972.05 2049.72,2974.02 2049.81,2975.97 C2049.82,2976.39 2049.75,2976.81 2049.77,2977.23 C2050.07,2983.36 2050.39,2989.37 2050.86,2995.2 C2050.9,2995.64 2050.9,2996.1 2050.94,2996.54 C2051.06,2997.98 2051.19,2999.4 2051.32,3000.82 C2051.41,3001.75 2051.49,3002.68 2051.59,3003.6 C2051.72,3004.88 2051.85,3006.15 2052,3007.4 C2052.11,3008.43 2052.23,3009.46 2052.36,3010.47 C2052.5,3011.62 2052.65,3012.76 2052.8,3013.89 C2052.96,3015.03 2053.12,3016.14 2053.29,3017.25 C2053.44,3018.22 2053.57,3019.2 2053.73,3020.14 C2053.99,3021.74 2054.27,3023.29 2054.55,3024.81 C2054.69,3025.54 2054.83,3026.27 2054.98,3026.99 C2055.29,3028.55 2055.62,3030.07 2055.96,3031.54 C2056.12,3032.2 2056.29,3032.83 2056.45,3033.47 C2056.73,3034.59 2057.02,3035.7 2057.32,3036.77 C2057.51,3037.41 2057.7,3038.04 2057.89,3038.66 C2058.2,3039.66 2058.52,3040.63 2058.85,3041.57 C2059.05,3042.14 2059.25,3042.71 2059.46,3043.25 C2059.83,3044.21 2060.21,3045.12 2060.6,3046 C2060.8,3046.42 2060.98,3046.87 2061.17,3047.28 C2061.77,3048.52 2062.39,3049.68 2063.04,3050.73 C2085.61,3086.69 2229.2,3108.29 2290.33,3069.81 C2292.71,3068.31 2294.86,3066.72 2296.89,3065.1 C2297.26,3064.8 2297.64,3064.51 2298.01,3064.21"/>
    <path fill="#102770" d="M2198.22,3108.15 C2172.14,3108.15 2145.9,3105 2123.05,3099.79 C2096.24,3093.67 2061.42,3081.84 2047.87,3060.24 C2023.45,3021.29 2031.84,2883.17 2033.76,2855.88 C2033.79,2855.51 2033.82,2855.14 2033.87,2854.78 C2036.61,2834.19 2041.56,2775.31 2031.78,2750.49 C2028.16,2741.29 2032.68,2730.89 2041.88,2727.27 C2051.09,2723.64 2061.48,2728.17 2065.1,2737.36 C2079.74,2774.51 2070.87,2848.09 2069.45,2858.94 C2065.05,2922 2064.85,3019.89 2078.22,3041.22 C2081.37,3046.24 2096.05,3056.89 2131.02,3064.87 C2179.73,3075.98 2246.82,3076.04 2280.79,3054.65 C2291.33,3048.01 2297.49,3039.61 2299.62,3028.96 C2304.65,3003.8 2286.48,2970.99 2279.05,2960.48 C2275.4,2955.3 2274.73,2948.54 2277.33,2942.77 C2331.65,2822.09 2277.69,2656.98 2277.14,2655.33 C2274.01,2645.95 2279.07,2635.81 2288.45,2632.68 C2297.84,2629.53 2307.97,2634.6 2311.1,2643.97 C2313.49,2651.09 2367.63,2816.25 2313.84,2948.47 C2323.52,2964.78 2341.62,3001.16 2334.77,3035.82 C2330.7,3056.41 2318.96,3072.94 2299.87,3084.96 C2273.57,3101.52 2236.07,3108.15 2198.22,3108.15"/>
    <path fill="#53FFA0" d="M3170.25,2318.39 C3174.6,2305.54 3166.03,2274.95 3146.04,2267.5 C3123,2258.89 3094.97,2246.76 3078.46,2233.11 C3058.03,2216.19 3010.21,2180.08 2960.62,2155.02 C2909.64,2127.56 2853.64,2109.47 2828.08,2102.37 C2807.45,2096.63 2780.86,2080.24 2760.64,2066.26 C2743.1,2054.11 2712.8,2064.41 2704.74,2075.32 C2635.67,2168.9 2601.45,2286.76 2601.45,2286.76 C2601.45,2286.76 2608.52,2373.18 2755.26,2472.36 C2764.55,2478.64 2775.83,2485.24 2783.03,2489.35 L2782.93,2489.56 C2782.94,2489.53 2784.2,2490.14 2785.15,2490.6 C2785.85,2491 2786.61,2491.47 2786.61,2491.48 L2786.69,2491.32 C2797.87,2496.8 2805.66,2500.1 2815.97,2504.06 C2981.22,2567.79 3055.32,2523.75 3055.32,2523.75 C3055.32,2523.75 3132.94,2428.57 3170.25,2318.39"/>
    <path fill="#B4FED1" d="M2990.66,2215.92 C2984.05,2228.58 2956.87,2227.45 2929.95,2213.4 C2903.03,2199.34 2886.56,2177.68 2893.18,2165.01 C2899.79,2152.35 2926.97,2153.48 2953.89,2167.54 C2980.81,2181.6 2997.27,2203.25 2990.66,2215.92"/>
    <path fill="#B4FED1" d="M3146.04,2267.5 C3123,2258.89 3094.97,2246.76 3078.46,2233.11 C3058.03,2216.19 3010.21,2180.08 2960.62,2155.02 C2909.64,2127.56 2853.64,2109.47 2828.08,2102.37 C2807.45,2096.63 2780.86,2080.24 2760.64,2066.26 C2744.07,2054.78 2716.14,2063.34 2706.31,2073.51 L2702.76,2095.7 L2707.16,2090.58 C2707.16,2090.58 2723.05,2076.65 2750.73,2092.95 C2778.4,2109.26 2789.49,2124.31 2816.74,2134.84 C2843.99,2145.35 2993.99,2184.78 3050.56,2251.36 C3100.87,2310.61 3158.93,2307.91 3171.15,2306.61 C3169.8,2292.16 3161.23,2273.16 3146.04,2267.5"/>
    <path fill="#43D481" d="M3055.45,2523.83 C3055.45,2523.83 3089.81,2481.57 3123.76,2420.84 C2831.91,2451.62 2697.86,2272.96 2646.51,2173.29 C2616.42,2235.24 2601.45,2286.76 2601.45,2286.76 C2601.45,2286.76 2608.52,2373.18 2755.26,2472.36 C2764.55,2478.64 2775.83,2485.24 2783.03,2489.35 L2782.93,2489.56 C2782.94,2489.53 2784.2,2490.14 2785.15,2490.6 C2785.85,2491 2786.61,2491.47 2786.61,2491.48 L2786.69,2491.32 C2797.87,2496.8 2805.66,2500.1 2815.97,2504.06 C2981.22,2567.79 3055.45,2523.83 3055.45,2523.83"/>
    <path fill="#102770" d="M2790.28,2476.46 C2790.69,2476.62 2791.1,2476.8 2791.51,2477 C2805.06,2483.75 2809.73,2485.55 2819.04,2489.12 L2820.41,2489.65 C2960.51,2543.69 3032.32,2517.41 3045.27,2511.61 C3057.42,2496.25 3123.39,2410.26 3156.11,2313.6 C3158.16,2307.56 3152.24,2285.74 3140.83,2281.48 C3107.81,2269.15 3083.63,2256.75 3068.95,2244.62 C3043.05,2223.16 2997.37,2190.32 2953.89,2168.34 C2897.2,2137.82 2835.82,2120.01 2824.08,2116.75 C2805.59,2111.6 2781.39,2098.74 2752.15,2078.53 C2741.99,2071.5 2720.54,2079.05 2716.75,2084.19 C2656.13,2166.31 2622.5,2269.24 2616.69,2287.95 C2619.21,2301.6 2638.18,2375.35 2762.71,2459.52 C2769.14,2463.87 2778.44,2469.38 2784.01,2472.68 C2786.29,2474.03 2788.09,2475.1 2789.09,2475.72 C2789.36,2475.89 2789.62,2476.07 2789.87,2476.25 L2789.91,2476.27 C2790.04,2476.33 2790.16,2476.39 2790.28,2476.46 Z M2976.73,2553.09 C2936.24,2553.09 2880.92,2544.98 2809.68,2517.5 L2808.34,2516.99 C2799.1,2513.44 2793.4,2511.25 2779.63,2504.42 L2779.53,2504.39 C2778.63,2504.05 2777.79,2503.63 2777,2503.15 L2776.96,2503.22 L2776.2,2502.78 C2775.57,2502.51 2774.93,2502.21 2774.27,2501.87 C2773.18,2501.31 2772.17,2500.62 2771.27,2499.83 C2770.54,2499.4 2769.71,2498.9 2768.79,2498.35 C2762.56,2494.66 2753.16,2489.09 2745.99,2484.24 C2594.97,2382.17 2586.84,2291.63 2586.56,2287.83 C2586.44,2286.07 2586.63,2284.3 2587.12,2282.6 C2588.55,2277.68 2622.88,2161.09 2692.74,2066.46 C2705.35,2049.38 2744.59,2036.99 2769.14,2053.99 C2795.25,2072.04 2817.02,2083.8 2832.08,2087.99 C2849.31,2092.78 2910.05,2110.83 2967.69,2141.88 C3013.04,2164.79 3060.9,2199.19 3087.98,2221.62 C3096.3,2228.49 3114.03,2239.61 3151.27,2253.51 C3179.05,2263.89 3191.18,2303.08 3184.39,2323.17 C3146.64,2434.66 3069.65,2529.02 3066.39,2532.99 C3065.27,2534.34 3063.93,2535.49 3062.42,2536.37 C3060.5,2537.5 3032.88,2553.09 2976.73,2553.09 L2976.73,2553.09 Z"/>
    <path fill="#FAE38D" d="M2612.39,2132.34 C2612.39,2132.34 2674.67,2071.11 2727,2135.6 C2779.33,2200.1 2611.36,2256.01 2583.17,2251.02"/>
    <path fill="#102770" d="M2586.66 2269.15C2584.15 2269.15 2581.93 2268.99 2580.05 2268.65 2570.31 2266.93 2563.81 2257.64 2565.53 2247.9 2567.26 2238.16 2576.51 2231.66 2586.3 2233.39 2603.72 2235.73 2696.63 2205.52 2716.13 2170.79 2719.6 2164.6 2721.64 2157.42 2713.09 2146.89 2701.31 2132.36 2688.81 2124.89 2674.89 2124.05 2648.69 2122.49 2625.13 2144.93 2624.89 2145.16 2617.81 2152.01 2606.48 2151.88 2599.6 2144.81 2592.71 2137.75 2592.8 2126.48 2599.84 2119.56 2601.23 2118.19 2634.49 2085.92 2676.73 2088.28 2701.02 2089.65 2722.61 2101.77 2740.9 2124.32 2757.41 2144.66 2759.44 2167.83 2746.64 2189.58 2719.44 2235.77 2622.68 2269.15 2586.66 2269.15M2223.93 3081.88C2223.23 3081.88 2222.52 3081.83 2221.8 3081.73 2213.64 3080.56 2207.97 3073 2209.14 3064.84 2212.33 3042.57 2199.13 3018.84 2199 3018.61 2194.96 3011.44 2197.46 3002.34 2204.62 2998.28 2211.78 2994.22 2220.85 2996.7 2224.93 3003.83 2225.69 3005.15 2243.34 3036.51 2238.69 3069.06 2237.62 3076.51 2231.24 3081.88 2223.93 3081.88M1710.51 3093.82C1703.2 3093.82 1696.82 3088.44 1695.75 3081 1691.38 3050.34 1699.8 3020.34 1700.16 3019.08 1702.43 3011.15 1710.7 3006.58 1718.61 3008.83 1726.53 3011.09 1731.12 3019.34 1728.87 3027.26 1728.75 3027.68 1721.86 3052.66 1725.3 3076.78 1726.47 3084.94 1720.8 3092.5 1712.64 3093.67 1711.92 3093.77 1711.21 3093.82 1710.51 3093.82M1501.58 2773.45C1498.21 2773.45 1494.83 2772.32 1492.04 2769.99 1463.61 2746.3 1462.79 2700.05 1462.79 2694.85 1462.79 2686.61 1469.47 2679.93 1477.72 2679.93 1485.95 2679.93 1492.62 2686.6 1492.64 2694.83 1492.69 2705.11 1496.1 2734.52 1511.15 2747.06 1517.48 2752.34 1518.34 2761.75 1513.06 2768.08 1510.1 2771.62 1505.86 2773.45 1501.58 2773.45L1501.58 2773.45zM1950.6 2762.69C1841.54 2762.69 1758.05 2735.51 1752.63 2733.71 1743.25 2730.58 1738.18 2720.44 1741.31 2711.05 1744.44 2701.68 1754.57 2696.62 1763.95 2699.72 1765.92 2700.38 1963.13 2764.31 2141.6 2692.16 2150.77 2688.46 2161.21 2692.88 2164.91 2702.05 2168.62 2711.22 2164.2 2721.65 2155.03 2725.36 2085.11 2753.62 2013.59 2762.69 1950.6 2762.69"/>
    <path fill="#FECA29" d="M1448.9,1156.63 C1462.29,1275.62 1383.85,1382.14 1273.68,1394.55 C1163.51,1406.96 1063.33,1320.57 1049.92,1201.58 C1036.51,1082.59 1114.96,976.071 1225.13,963.66 C1335.3,951.245 1435.48,1037.65 1448.9,1156.63"/>
    <path fill="#FBEE7D" d="M1063.6,1151.18 C1063.6,1151.18 1107.38,946.22 1334.22,1001.94 C1334.22,1001.94 1258.6,932.293 1165.08,984.029 C1071.56,1035.76 1063.6,1151.18 1063.6,1151.18"/>
    <path fill="#D08F34" d="M1405.25,1166.87 C1415.48,1257.59 1354.19,1338.98 1268.37,1348.65 C1182.56,1358.32 1104.71,1292.6 1094.48,1201.88 C1084.26,1111.15 1145.54,1029.76 1231.37,1020.1 C1317.17,1010.44 1395.04,1076.14 1405.25,1166.87"/>
    <path fill="#FAE38D" d="M1392.85,1175.32 C1401.75,1254.3 1349.15,1325.06 1275.36,1333.38 C1201.58,1341.69 1134.56,1284.4 1125.66,1205.43 C1116.76,1126.45 1169.36,1055.68 1243.15,1047.37 C1316.93,1039.06 1383.95,1096.35 1392.85,1175.32"/>
    <path fill="#D0A57D" d="M1327.55,1067.63 C1373.72,1156.74 1342.78,1233.99 1256.44,1262.93 C1205.78,1279.91 1164.71,1266.05 1137.42,1249.44 C1161.41,1304.5 1216.2,1340.05 1275.36,1333.38 C1349.15,1325.06 1401.75,1254.3 1392.85,1175.32 C1387.63,1129 1362.4,1090.16 1327.55,1067.63"/>
    <path fill="#102770" d="M1257.43,1061.49 C1253.24,1061.49 1249.03,1061.73 1244.82,1062.2 C1213.29,1065.75 1185.07,1082.3 1165.38,1108.8 C1145.45,1135.61 1136.61,1169.33 1140.49,1203.76 C1148.45,1274.43 1208.14,1325.91 1273.69,1318.55 C1305.23,1314.99 1333.44,1298.44 1353.14,1271.95 C1373.06,1245.14 1381.9,1211.42 1378.01,1176.99 C1374.14,1142.57 1358.02,1111.66 1332.63,1089.96 C1310.89,1071.38 1284.57,1061.49 1257.43,1061.49 Z M1261.19,1349.1 C1185.77,1349.11 1120,1288.48 1110.83,1207.1 C1106.1,1165.13 1116.97,1123.89 1141.42,1091 C1166.1,1057.79 1201.64,1037.03 1241.48,1032.54 C1281.29,1028.04 1320.57,1040.39 1352.02,1067.27 C1383.19,1093.9 1402.95,1131.68 1407.67,1173.65 C1412.4,1215.62 1401.54,1256.85 1377.09,1289.75 C1352.41,1322.96 1316.88,1343.72 1277.03,1348.21 C1271.72,1348.81 1266.42,1349.1 1261.19,1349.1 L1261.19,1349.1 Z"/>
    <path fill="#102770" d="M1246.11,980.387 C1239.83,980.387 1233.51,980.737 1227.14,981.454 C1178.86,986.894 1135.7,1012.4 1105.6,1053.27 C1075.19,1094.56 1061.74,1146.52 1067.72,1199.57 C1080,1308.55 1171.46,1387.99 1271.68,1376.75 C1371.86,1365.47 1443.37,1267.62 1431.1,1158.63 C1419.6,1056.58 1338.62,980.387 1246.11,980.387 Z M1252.71,1413.64 C1142.2,1413.64 1045.69,1323.91 1032.13,1203.58 C1025.13,1141.54 1040.99,1080.61 1076.76,1032.03 C1112.85,983.034 1164.83,952.431 1223.12,945.864 C1342.95,932.36 1452.2,1026.02 1466.69,1154.62 C1481.18,1283.23 1395.49,1398.85 1275.69,1412.35 C1267.98,1413.21 1260.3,1413.64 1252.71,1413.64 L1252.71,1413.64 Z"/>
    <path fill="#102770" d="M1246.11,980.387 C1239.83,980.387 1233.51,980.737 1227.14,981.454 C1178.86,986.894 1135.7,1012.4 1105.6,1053.27 C1075.19,1094.56 1061.74,1146.52 1067.72,1199.57 C1080,1308.55 1171.46,1387.99 1271.68,1376.75 C1371.86,1365.47 1443.37,1267.62 1431.1,1158.63 C1419.6,1056.58 1338.62,980.387 1246.11,980.387 Z M1252.71,1413.64 C1142.2,1413.64 1045.69,1323.91 1032.13,1203.58 C1025.13,1141.54 1040.99,1080.61 1076.76,1032.03 C1112.85,983.034 1164.83,952.431 1223.12,945.864 C1342.95,932.36 1452.2,1026.02 1466.69,1154.62 C1481.18,1283.23 1395.49,1398.85 1275.69,1412.35 C1267.98,1413.21 1260.3,1413.64 1252.71,1413.64 L1252.71,1413.64 Z"/>
    <path fill="#FECA29" d="M2288.43,1079.1 C2301.82,1198.09 2402.01,1284.49 2512.19,1272.07 C2622.36,1259.66 2700.8,1153.14 2687.4,1034.15 C2673.99,915.168 2573.81,828.768 2463.64,841.188 C2353.46,853.596 2275.02,960.118 2288.43,1079.1"/>
    <path fill="#D08F34" d="M2345.39,1068.59 C2355.3,1156.55 2429.95,1220.35 2512.13,1211.1 C2594.31,1201.84 2652.89,1123.03 2642.99,1035.06 C2633.07,947.098 2558.42,883.283 2476.24,892.55 C2394.06,901.807 2335.48,980.618 2345.39,1068.59"/>
    <path fill="#FAE38D" d="M2347.22,1084.86 C2356.12,1163.84 2423.15,1221.12 2496.93,1212.81 C2570.71,1204.5 2623.31,1133.74 2614.42,1054.76 C2605.51,975.78 2538.49,918.489 2464.71,926.808 C2390.92,935.12 2338.32,1005.88 2347.22,1084.86"/>
    <path fill="#D0A57D" d="M2526.31,1124.09 C2507.77,1125.73 2487.8,1126.09 2466.54,1124.59 C2382.65,1118.69 2367.78,1043.43 2368,989.648 C2351.39,1016.66 2343.29,1049.95 2347.22,1084.86 C2356.12,1163.84 2423.15,1221.12 2496.93,1212.81 C2554.16,1206.37 2598.62,1162.33 2611.55,1106.05 C2588.26,1114.06 2559.58,1121.15 2526.31,1124.09"/>
    <path fill="#102770" d="M2362.05,1083.19 C2370.02,1153.85 2429.73,1205.38 2495.26,1197.99 C2560.74,1190.6 2607.55,1127.1 2599.59,1056.43 C2595.7,1022 2579.59,991.093 2554.2,969.391 C2529.1,947.941 2497.92,938.071 2466.38,941.637 C2400.89,949.018 2354.09,1012.52 2362.05,1083.19 Z M2482.77,1228.53 C2407.35,1228.53 2341.56,1167.9 2332.39,1086.53 C2322.58,999.501 2381.19,921.2 2463.04,911.979 C2502.87,907.487 2542.14,919.816 2573.59,946.703 C2604.75,973.337 2624.51,1011.12 2629.24,1053.09 C2639.05,1140.12 2580.44,1218.42 2498.6,1227.64 C2493.29,1228.24 2488,1228.53 2482.77,1228.53 L2482.77,1228.53 Z"/>
    <path fill="#102770" d="M2484.8,857.905 C2478.44,857.905 2472.05,858.261 2465.65,858.984 C2417.37,864.421 2374.21,889.924 2344.11,930.8 C2313.7,972.092 2300.25,1024.05 2306.23,1077.1 C2312.2,1130.15 2336.87,1177.81 2375.71,1211.3 C2414.15,1244.45 2461.94,1259.71 2510.18,1254.28 C2610.36,1242.99 2681.88,1145.14 2669.6,1036.15 C2663.62,983.107 2638.94,935.446 2600.11,901.955 C2566.76,873.202 2526.41,857.905 2484.8,857.905 Z M2490.92,1291.18 C2440.75,1291.18 2392.26,1272.87 2352.32,1238.42 C2306.63,1199.02 2277.62,1143.15 2270.63,1081.11 C2263.64,1019.06 2279.49,958.141 2315.27,909.56 C2351.35,860.558 2403.34,829.958 2461.64,823.393 C2519.93,816.799 2577.42,835.09 2623.5,874.831 C2669.19,914.233 2698.2,970.102 2705.2,1032.15 C2719.67,1160.76 2634,1276.37 2514.2,1289.87 C2506.42,1290.74 2498.65,1291.18 2490.92,1291.18 L2490.92,1291.18 Z"/>
    <path fill="#FECA29" d="M2629.07,1510.31 C2623.46,1505.75 2617.73,1501.73 2611.97,1497.94 C2565.46,1165.25 2224.33,932.185 1842.07,975.249 C1497,1014.13 1234.67,1264.91 1207.96,1559.53 C1096.84,1702.47 1173.38,2095.88 1663.87,2194.82 C1771.55,2233.24 2030.17,2215.09 2074.02,2202.34 C2722.01,2121.22 2782.9,1635.15 2629.07,1510.31"/>
    <path fill="#FBEE7D" d="M1273.73,1341.95 C1318.64,1287.05 1646.13,912.817 2148.07,1019.85 C2148.07,1019.85 2082.1,990.045 1983.89,971.766 C1937.6,968.793 1890.16,969.831 1842.07,975.249 C1586.55,1004.04 1376.44,1149.02 1273.73,1341.95"/>
    <path fill="#D19032" d="M1818.24,1739.62 C1762.3,1739.62 1705.63,1734.89 1648.4,1725.4 C1389.25,1682.44 1211.66,1558.63 1204.23,1553.38 C1197.49,1548.62 1195.89,1539.32 1200.64,1532.58 C1205.39,1525.86 1214.71,1524.25 1221.44,1528.99 C1223.21,1530.25 1401.73,1654.53 1654.42,1696.14 C1992.22,1751.77 2295.25,1641.27 2555.12,1367.74 C2560.8,1361.77 2570.24,1361.52 2576.22,1367.2 C2582.19,1372.88 2582.43,1382.32 2576.76,1388.3 C2429.85,1542.93 2266.22,1647.89 2090.42,1700.28 C2002.45,1726.49 1911.38,1739.62 1818.24,1739.62"/>
    <path fill="#C34E4E" d="M1833.46,975.998 C1822.52,977.231 1811.68,978.703 1800.88,980.298 L1826.01,1375.15 C1830,1438.68 1868.94,1487.92 1912.98,1485.15 C1957.04,1482.39 1989.49,1428.64 1985.5,1365.13 L1960.36,970.262 C1918.68,969.332 1876.29,971.174 1833.46,975.998"/>
    <path fill="#C34E4E" d="M2091.12 1316.65C2091.75 1347.43 2067.32 1372.89 2036.54 1373.52L1764.89 1379.08C1734.12 1379.71 1708.66 1355.27 1708.03 1324.5 1707.4 1293.72 1731.83 1268.26 1762.61 1267.64L2034.26 1262.07C2065.04 1261.44 2090.49 1285.88 2091.12 1316.65M2184.34 1105.69C2185.13 1144.17 2148.4 1176.12 2102.31 1177.06L1693.41 1185.43C1647.32 1186.38 1609.32 1155.96 1608.53 1117.49 1607.75 1079.02 1644.47 1047.07 1690.56 1046.13L2099.46 1037.75C2145.54 1036.81 2183.55 1067.22 2184.34 1105.69"/>
    <path fill="#FAE38D" d="M2370.2,1698.71 C2261.47,1637.25 2175.97,1543.46 1933.34,1552.41 C1690.71,1561.36 1539.76,1771.44 1396.27,1762.44 C1286.15,1755.53 1207.18,1663.64 1176.37,1621.25 C1121.35,1793.1 1232.53,2107.81 1663.87,2194.82 C1771.55,2233.24 2030.17,2215.09 2074.02,2202.34 C2682.18,2126.21 2773.18,1693.39 2654.91,1537.26 C2604.02,1656.32 2463.67,1751.54 2370.2,1698.71"/>
    <path fill="#D0A57D" d="M2699.32,1702.38 C2674.15,1785.64 2591.75,2068.39 2085.15,2162.31 C1529.98,2265.22 1228.05,1905.2 1228.05,1905.2 L1220.38,1911.99 C1290.63,2033.81 1430.29,2147.7 1663.87,2194.82 C1771.55,2233.24 2030.17,2215.09 2074.02,2202.34 C2525.37,2145.84 2691.82,1892.89 2699.32,1702.38"/>
    <path fill="#D0A57D" d="M1859.78,2067.85 C1808.34,2067.85 1756.35,2063.75 1703.97,2055.55 C1450.25,2015.81 1278.02,1895.1 1270.82,1889.98 L1288.1,1865.64 C1289.82,1866.86 1462.68,1987.84 1709.77,2026.25 C2040.15,2077.59 2339.45,1964.93 2599.36,1691.38 L2621,1711.94 C2474.12,1866.53 2311.73,1972.16 2138.31,2025.89 C2048.13,2053.84 1954.9,2067.85 1859.78,2067.85"/>
    <path fill="#102770" d="M1930.96,988.154 C1902.28,988.154 1873.28,989.753 1844.07,993.044 C1512.27,1030.43 1252.24,1269.35 1225.8,1561.15 C1225.48,1564.56 1224.21,1567.82 1222.1,1570.52 C1174.33,1631.97 1167.72,1737.02 1205.26,1838.14 C1267.97,2007.06 1436.41,2130.67 1667.4,2177.26 C1668.24,2177.43 1669.07,2177.66 1669.88,2177.95 C1774.69,2215.35 2028.09,2197.05 2069.02,2185.15 C2069.93,2184.88 2070.86,2184.69 2071.79,2184.57 C2384.8,2145.39 2607.51,1996.67 2667.56,1786.77 C2697.93,1680.61 2677.46,1572.64 2617.79,1524.21 L2617.78,1524.21 C2613.34,1520.6 2608.36,1517 2602.12,1512.89 C2597.82,1510.06 2594.95,1505.51 2594.24,1500.42 C2552.88,1204.57 2264.28,988.154 1930.96,988.154 Z M1867.41,2235.85 C1790.16,2235.85 1709.92,2229.9 1659.08,2212.12 C1416.3,2162.82 1238.68,2031.1 1171.68,1850.61 C1130.74,1740.34 1138.29,1624.23 1190.61,1552.79 C1221.14,1246.48 1493.38,996.515 1840.06,957.453 C2028.98,936.169 2214.7,980.004 2363,1080.88 C2509.4,1180.46 2603.45,1324.63 2628.55,1487.54 C2632.88,1490.57 2636.73,1493.46 2640.36,1496.4 C2711.96,1554.52 2736.73,1675.17 2701.99,1796.62 C2682.06,1866.3 2633.53,1968.21 2515.5,2058.08 C2404.13,2142.88 2256.78,2197.34 2077.55,2219.95 C2050.99,2227.03 1961.43,2235.85 1867.41,2235.85 L1867.41,2235.85 Z"/>
    <path fill="#D0A57D" d="M2300.39,1646.96 C2295.63,1630.33 2262.72,1604.36 2234.29,1610.95 C2201.51,1618.53 2160.36,1626.03 2131.23,1623.58 C2095.13,1620.55 2013.27,1617.1 1937.78,1626.57 C1858.87,1634.5 1781.33,1655.91 1746.81,1666.89 C1718.95,1675.76 1676.24,1677.71 1642.59,1677.61 C1613.41,1677.51 1586.64,1710.2 1585.7,1727.48 C1577.7,1875.7 1627.84,2024.28 1627.84,2024.28 C1627.84,2024.28 1701.26,2110.01 1943.62,2108.34 C1958.96,2108.23 1976.81,2107.03 1988.14,2106.15 L1988.18,2106.45 C1988.17,2106.41 1991.23,2106.05 1992.67,2105.87 C1993.76,2105.75 1996.16,2105.61 1996.16,2105.64 L1996.14,2105.41 C2013.06,2103.09 2023.23,2101.01 2037.99,2097.74 C2274.64,2045.47 2325.24,1945.73 2325.24,1945.73 C2325.24,1945.73 2341.17,1789.7 2300.39,1646.96"/>
    <path fill="#102770" d="M1737.32,1556.11 C1742.92,1606.02 1719.08,1649.68 1684.04,1653.64 C1648.98,1657.58 1616.01,1620.32 1610.39,1570.42 C1604.77,1520.52 1628.62,1476.85 1663.67,1472.9 C1698.72,1468.96 1731.69,1506.21 1737.32,1556.11"/>
    <path fill="#FFF" d="M1716.47,1557.07 C1719.17,1581.08 1708.39,1601.98 1692.39,1603.79 C1676.39,1605.59 1661.23,1587.61 1658.52,1563.59 C1655.82,1539.58 1666.6,1518.67 1682.6,1516.87 C1698.6,1515.07 1713.76,1533.06 1716.47,1557.07"/>
    <path fill="#102770" d="M2114.3,1505.32 C2108.68,1455.42 2132.54,1411.76 2167.58,1407.81 C2202.64,1403.85 2235.61,1441.12 2241.23,1491.02 C2246.86,1540.92 2223,1584.59 2187.95,1588.54 C2152.89,1592.48 2119.93,1555.22 2114.3,1505.32"/>
    <path fill="#FFF" d="M2135.15,1504.37 C2132.45,1480.37 2143.23,1459.44 2159.23,1457.64 C2175.23,1455.85 2190.4,1473.84 2193.1,1497.85 C2195.81,1521.85 2185.02,1542.76 2169.03,1544.56 C2153.03,1546.37 2137.86,1528.38 2135.15,1504.37"/>
    <path fill="#D0A57D" d="M2146.37,1685.51 C2156.26,1773.32 2071.64,1854.95 1957.35,1867.83 C1843.07,1880.7 1742.41,1819.95 1732.51,1732.14 C1722.62,1644.33 1807.25,1562.7 1921.52,1549.83 C2035.81,1536.95 2136.47,1597.7 2146.37,1685.51"/>
    <path fill="#102770" d="M1945.04,1741.68 C1936.05,1741.68 1928.29,1734.92 1927.26,1725.77 L1917.09,1635.46 C1915.98,1625.63 1923.05,1616.76 1932.88,1615.66 C1942.68,1614.53 1951.57,1621.61 1952.68,1631.45 L1962.86,1721.76 C1963.96,1731.59 1956.9,1740.46 1947.07,1741.56 C1946.38,1741.64 1945.71,1741.68 1945.04,1741.68"/>
    <path fill="#102770" d="M1817.51,1715.06 C1761.95,1715.06 1705.65,1710.47 1648.78,1701.29 C1387.39,1659.07 1207.59,1536.02 1200.07,1530.8 C1193.3,1526.11 1191.61,1516.81 1196.31,1510.04 C1200.99,1503.27 1210.3,1501.58 1217.07,1506.27 C1218.86,1507.51 1399.68,1631.09 1654.67,1672 C1995.49,1726.69 2300.1,1615.7 2560.01,1342.14 C2565.69,1336.16 2575.14,1335.93 2581.1,1341.6 C2587.08,1347.28 2587.32,1356.72 2581.65,1362.7 C2434.74,1517.33 2270.63,1622.45 2093.88,1675.14 C2004.67,1701.73 1912.19,1715.06 1817.51,1715.06"/>
    <path fill="#102770" d="M1829.01,1999.68 C1779.36,1999.68 1729.13,1996.8 1678.38,1991.01 C1388.47,1958 1179.64,1839.87 1177.56,1838.69 C1170.41,1834.59 1167.94,1825.47 1172.03,1818.32 C1176.12,1811.17 1185.25,1808.69 1192.4,1812.78 C1194.43,1813.95 1398.8,1929.37 1682.87,1961.49 C1944.1,1991.01 2328.55,1954.01 2676.56,1609.96 C2682.42,1604.16 2691.87,1604.22 2697.67,1610.08 C2703.46,1615.94 2703.4,1625.39 2697.55,1631.18 C2540.09,1786.85 2362.14,1894.65 2168.63,1951.61 C2059.89,1983.61 1946.14,1999.68 1829.01,1999.68"/>
    <path fill="#53FFA0" d="M2296.18,1609.55 C2291.42,1592.91 2258.51,1566.94 2230.08,1573.53 C2197.3,1581.1 2156.15,1588.6 2127.01,1586.17 C2090.9,1583.13 2009.06,1579.69 1933.56,1589.16 C1854.66,1597.09 1777.11,1618.49 1742.6,1629.48 C1714.73,1638.33 1672.02,1640.29 1638.37,1640.19 C1609.19,1640.1 1582.42,1672.78 1581.49,1690.07 C1573.5,1838.29 1623.62,1986.86 1623.62,1986.86 C1623.62,1986.86 1697.05,2072.6 1939.39,2070.92 C1954.74,2070.81 1972.59,2069.61 1983.92,2068.74 L1983.96,2069.02 C1983.96,2069 1985.84,2068.72 1987.27,2068.53 C1988.37,2068.44 1989.6,2068.38 1989.6,2068.39 L1989.57,2068.17 C2006.47,2065.85 2017.85,2063.69 2032.6,2060.42 C2269.25,2008.13 2320.43,1908.35 2320.43,1908.35 C2320.43,1908.35 2336.95,1752.28 2296.18,1609.55"/>
    <path fill="#B4FED1" d="M2013.88,1631.47 C2015.92,1649.55 1984.06,1667.99 1942.74,1672.64 C1901.41,1677.3 1866.24,1666.42 1864.22,1648.33 C1862.17,1630.25 1894.03,1611.81 1935.36,1607.16 C1976.68,1602.5 2011.84,1613.39 2013.88,1631.47"/>
    <path fill="#B4FED1" d="M2230.08,1573.53 C2197.3,1581.1 2156.15,1588.6 2127.01,1586.17 C2090.9,1583.13 2009.06,1579.69 1933.56,1589.16 C1854.66,1597.09 1777.11,1618.49 1742.6,1629.48 C1714.73,1638.33 1672.02,1640.29 1638.37,1640.19 C1610.81,1640.1 1585.43,1669.25 1581.92,1687.05 L1594.65,1712.92 L1595.8,1704.37 C1595.8,1704.37 1603.38,1678.26 1647.26,1675.41 C1691.16,1672.57 1715.19,1680.39 1754.23,1671.79 C1793.25,1663.17 1994.12,1596.33 2108.99,1625.49 C2211.18,1651.45 2275.35,1606.71 2288.28,1596.52 C2275.82,1582.31 2251.67,1568.52 2230.08,1573.53"/>
    <path fill="#43D481" d="M2320.65,1908.34 C2320.65,1908.34 2327.86,1839.13 2320.65,1750.78 C2011.11,1993.79 1723.13,1902.78 1589.18,1835.08 C1601.73,1921.92 1623.62,1986.86 1623.62,1986.86 C1623.62,1986.86 1697.05,2072.6 1939.39,2070.92 C1954.74,2070.81 1972.59,2069.61 1983.92,2068.74 L1983.96,2069.02 C1983.96,2069 1985.84,2068.72 1987.27,2068.53 C1988.37,2068.44 1989.6,2068.38 1989.6,2068.39 L1989.57,2068.17 C2006.47,2065.85 2017.85,2063.69 2032.6,2060.42 C2269.25,2008.13 2320.65,1908.34 2320.65,1908.34"/>
    <path fill="#102770" d="M1636.77,1979.03 C1648.73,1990.7 1725.12,2056.17 1931.08,2056.17 C1933.35,2056.17 1935.6,2056.17 1937.89,2056.15 C1948.76,2056.08 1963.7,2055.15 1972.62,2054.6 C1976.13,2054.38 1978.9,2054.21 1980.47,2054.14 C1980.94,2054.12 1981.41,2054.13 1981.88,2054.15 C1982.07,2054.12 1982.25,2054.09 1982.44,2054.06 C1982.69,2054.03 1982.94,2054 1983.19,2053.98 L1983.28,2053.97 C1983.79,2053.85 1984.3,2053.75 1984.83,2053.68 C2005.68,2050.96 2012.89,2049.36 2025.98,2046.44 L2027.95,2046.01 C2234.02,2000.48 2295.81,1917.99 2305.19,1903.61 C2307.29,1880.86 2318.14,1740.74 2281.83,1613.65 C2279.05,1603.99 2253.64,1583.39 2233.45,1588.06 C2187.12,1598.77 2150.9,1603.12 2125.77,1601.04 C2079.68,1597.16 2002.18,1595.6 1935.42,1603.96 C1847.03,1612.85 1763.07,1638.62 1747.13,1643.7 C1722.82,1651.42 1686.28,1655.2 1638.32,1655.11 L1638.25,1655.11 C1617.73,1655.11 1596.92,1681.11 1596.39,1690.87 C1589.27,1822.88 1629.85,1957.23 1636.77,1979.03 Z M1930.99,2086.02 C1690.07,2086.02 1615.28,2000.14 1612.19,1996.45 C1610.99,1995.03 1610.08,1993.4 1609.48,1991.64 C1607.4,1985.46 1558.53,1838.63 1566.59,1689.26 C1567.92,1664.53 1601.24,1625.26 1638.25,1625.26 C1639.12,1625.28 1640.06,1625.27 1640.94,1625.27 C1683.9,1625.27 1717.45,1621.81 1738.08,1615.25 C1754.5,1610.02 1841.1,1583.45 1932.07,1574.31 C2000.75,1565.69 2080.74,1567.29 2128.27,1571.3 C2150.27,1573.13 2183.41,1569 2226.73,1558.98 C2263.23,1550.53 2303.55,1581.05 2310.53,1605.44 L2310.53,1605.45 C2351.64,1749.34 2335.27,1903.57 2334.55,1910.07 C2334.35,1911.9 2333.81,1913.67 2332.96,1915.31 C2330.71,1919.64 2275.1,2021.97 2034.41,2075.15 L2032.47,2075.58 C2019.38,2078.49 2011.33,2080.28 1990.55,2083.03 C1989.45,2083.33 1988.33,2083.5 1987.21,2083.54 L1987.21,2083.61 C1986.93,2083.62 1986.31,2083.67 1985.76,2083.71 L1985.76,2083.7 C1984.87,2083.89 1983.92,2084.04 1982.92,2084.16 C1981.56,2084.33 1980.25,2084.3 1978.95,2084.11 C1977.69,2084.19 1976.18,2084.28 1974.47,2084.39 C1964.64,2085 1949.78,2085.92 1938.09,2086 C1935.71,2086.01 1933.34,2086.02 1930.99,2086.02 L1930.99,2086.02 Z"/>
  </g>
</svg>
