<svg xmlns="http://www.w3.org/2000/svg" width="4000" height="4000" viewBox="0 0 4000 4000">
  <g fill="none" fill-rule="evenodd">
    <polygon fill="#0BCBFF" points=".06 4000 4000 4000 4000 .04 .06 .04"/>
    <path fill="#0D99D4" d="M2000,3302.19 C1411.82,3302.19 935.005,3230.83 935.005,3142.81 C935.005,3054.78 1411.82,2983.42 2000,2983.42 C2588.19,2983.42 3065.01,3054.78 3065.01,3142.81 C3065.01,3230.83 2588.19,3302.19 2000,3302.19"/>
    <path fill="#F4A234" d="M1587.82,2290.63 C1587.82,2290.63 1419.49,2978.4 1499.39,3058.72 C1576.77,3136.51 2545.74,3145.83 2560.62,3049 C2588.26,2869.13 2372.69,2212.85 2372.69,2212.85"/>
    <path fill="#BA7336" d="M1616.54,2285.32 C1616.54,2285.32 1666.9,2502.29 2007.87,2506.16 C2348.84,2510.03 2422.45,2296.94 2422.45,2296.94 L1616.54,2285.32"/>
    <path fill="#FFF" d="M2247.35,3114.71 C2294.81,3059.39 2323.66,2986.77 2323.66,2907.2 C2323.66,2733.87 2199.65,2630.17 2031.13,2630.17 C1862.62,2630.17 1713.42,2733.87 1713.42,2907.2 C1713.42,2985.06 1741.05,3056.25 1786.7,3111.1 C1929.59,3120.5 2101.72,3122.07 2247.35,3114.71"/>
    <path fill="#AEB7D2" d="M2104.71,2707.63 C2104.71,2707.63 1938.1,2990.47 2065.96,3048.58 C2193.83,3106.7 2294.57,2959.47 2333.31,2812.24 L2120.21,2711.5"/>
    <path fill="#AEB7D2" d="M1753.83,3063.11 C1763.35,3080.17 1774.34,3096.25 1786.7,3111.1 C1929.59,3120.5 2101.72,3122.07 2247.35,3114.71 C2259.58,3100.45 2270.55,3085.03 2280.14,3068.65 C2109.07,3069.12 1918.69,3066.64 1753.83,3063.11"/>
    <path fill="#102770" d="M2050.24,3138.02 C2019.27,3138.02 1989.14,3137.7 1960.59,3137.11 C1862.49,3135.1 1538.37,3124.43 1486.13,3071.92 C1461.75,3047.42 1436.16,2976.11 1495.21,2641.31 C1527.05,2460.81 1569.23,2287.9 1569.65,2286.18 C1572.1,2276.14 1582.26,2270 1592.27,2272.45 C1602.31,2274.91 1608.46,2285.04 1606,2295.08 C1605.58,2296.79 1563.66,2468.66 1532.04,2647.97 C1474.08,2976.67 1502.55,3035.37 1512.66,3045.52 C1531.76,3064.72 1659.46,3089.27 1894.68,3097.8 C2102.7,3105.35 2316.06,3097.56 2438.25,3077.98 C2528.15,3063.56 2540.9,3047.72 2542.2,3045.66 C2568.35,2871.49 2357.05,2225.2 2354.91,2218.69 C2351.69,2208.87 2357.03,2198.3 2366.85,2195.07 C2376.65,2191.84 2387.24,2197.19 2390.47,2207.01 C2399.33,2233.98 2607.12,2869.64 2579.12,3051.84 C2575.21,3077.33 2544.66,3090.08 2522.02,3097.47 C2429.32,3127.69 2226.29,3138.02 2050.24,3138.02 L2050.24,3138.02 Z"/>
    <path fill="#F4A234" d="M2385.55,2804.03 C2385.55,2804.03 2470.81,2656.24 2669.77,2764.24 C2669.77,2764.24 2720.94,2605.07 2828.94,2644.87 C2936.94,2684.65 2885.78,3105.3 2800.52,3122.36 C2715.26,3139.41 2237.76,3110.99 2237.76,3110.99"/>
    <path fill="#BA7336" d="M2841.56,2651.8 C2863.18,2842.55 2820.93,2991 2767.26,3040.84 C2745.17,3061.35 2522.01,3068.37 2258.12,3068.69 L2237.76,3110.99 C2237.76,3110.99 2715.26,3139.41 2800.52,3122.36 C2882.25,3106.02 2932.6,2718.97 2841.56,2651.8"/>
    <path fill="#FFF" d="M2828.94,2644.87 C2762.83,2620.51 2718.06,2670.68 2693.24,2713.28 C2659.71,2806.52 2645.11,2940.74 2691.69,3127.8 C2741.42,3127.76 2781.13,3126.24 2800.52,3122.36 C2885.78,3105.3 2936.94,2684.65 2828.94,2644.87"/>
    <path fill="#AEB7D2" d="M2841.56,2651.8 C2863.18,2842.55 2820.93,2991 2767.26,3040.84 C2759.51,3048.04 2726.96,3053.57 2676.6,3057.74 C2680.67,3080.23 2685.66,3103.56 2691.69,3127.8 C2741.42,3127.76 2781.13,3126.24 2800.52,3122.36 C2882.25,3106.02 2932.6,2718.97 2841.56,2651.8"/>
    <path fill="#102770" d="M2688.17,3146.46 C2521.37,3146.47 2251.54,3130.55 2236.65,3129.67 C2226.33,3129.05 2218.47,3120.19 2219.08,3109.87 C2219.7,3099.56 2228.6,3091.73 2238.88,3092.3 C2403.2,3102.08 2731.28,3117.11 2796.85,3104.01 C2823.33,3098.71 2859.57,3006.4 2869.23,2882.42 C2878.27,2766.36 2859.04,2675.9 2822.47,2662.43 C2802.01,2654.89 2783.31,2655.47 2765.33,2664.21 C2714.32,2688.99 2687.84,2769.18 2687.58,2769.98 C2685.87,2775.28 2681.89,2779.54 2676.72,2781.61 C2671.56,2783.67 2665.74,2783.34 2660.84,2780.69 C2481.11,2683.11 2404.88,2808.09 2401.73,2813.45 C2396.5,2822.34 2385.06,2825.35 2376.15,2820.17 C2367.25,2814.98 2364.19,2803.61 2369.34,2794.68 C2370.26,2793.09 2460.48,2641.96 2659.81,2738.1 C2672.67,2708.17 2701.58,2653.63 2748.85,2630.6 C2776.13,2617.31 2805.26,2616.2 2835.41,2627.31 C2917.71,2657.63 2910.67,2832.46 2906.55,2885.32 C2899.65,2973.95 2870.31,3127.48 2804.19,3140.71 C2783.38,3144.87 2740.92,3146.46 2688.17,3146.46"/>
    <path fill="#F4A234" d="M1685.06,2804.03 C1685.06,2804.03 1599.79,2656.24 1400.84,2764.24 C1400.84,2764.24 1349.68,2605.07 1241.67,2644.87 C1133.66,2684.65 1184.83,3105.3 1270.09,3122.36 C1355.36,3139.41 1756.04,3095.12 1756.04,3095.12"/>
    <path fill="#BA7336" d="M1194.18,2827.74 L1180.5,2820.89 C1179.2,2953.16 1218.37,3112.01 1270.09,3122.36 C1355.36,3139.41 1756.04,3095.12 1756.04,3095.12 L1748.21,3063 C1541.75,3058.54 1376.44,3052.48 1341.42,3048.58 C1236.81,3036.96 1194.18,2827.74 1194.18,2827.74"/>
    <path fill="#FFF" d="M1396.96,3127.76 C1423.12,3014.22 1430.13,2865.18 1397.69,2755.57 C1385.14,2723.01 1334.35,2610.71 1241.67,2644.87 C1133.66,2684.65 1184.83,3105.3 1270.09,3122.36 C1291.77,3126.69 1338.85,3128.09 1396.96,3127.76"/>
    <path fill="#AEB7D2" d="M1341.42,3048.58 C1236.81,3036.96 1194.18,2827.74 1194.18,2827.74 L1180.5,2820.89 C1179.2,2953.16 1218.37,3112.01 1270.09,3122.36 C1291.77,3126.69 1338.85,3128.09 1396.96,3127.76 C1402.41,3104.1 1406.97,3078.86 1410.57,3052.79 C1376.46,3051.25 1352.45,3049.81 1341.42,3048.58"/>
    <path fill="#102770" d="M1382.44,3146.46005 C1329.68,3146.47 1287.24,3144.87 1266.43,3140.71 C1200.29,3127.48 1170.96,2973.95 1164.06,2885.32 C1159.94,2832.46 1152.9,2657.63 1235.2,2627.31 C1265.34,2616.2 1294.46,2617.3 1321.76,2630.6 C1369.03,2653.63 1397.94,2708.17 1410.8,2738.1 C1610.13,2641.98 1700.35,2793.1 1701.27,2794.68 C1706.43,2803.63 1703.36,2815.08 1694.41,2820.24 C1685.46,2825.4 1674.05,2822.34 1668.87,2813.44 C1665.6,2807.87 1589.35,2683.2 1409.77,2780.69 C1404.88,2783.34 1399.04,2783.68 1393.87,2781.61 C1388.7,2779.54 1384.72,2775.27 1383.02,2769.97 C1382.77,2769.18 1356.3,2688.99 1305.29,2664.21 C1287.3,2655.47 1268.61,2654.89 1248.14,2662.43 C1211.56,2675.9 1192.33,2766.36 1201.37,2882.42 C1211.04,3006.4 1247.28,3098.71 1273.77,3104.01 C1339.34,3117.13 1667.42,3102.08 1831.74,3092.3 C1842.03,3091.72 1850.92,3099.55 1851.54,3109.87 C1852.15,3120.19 1844.28,3129.05 1833.97,3129.67 C1819.08,3130.55 1549.24,3146.46005 1382.44,3146.46005"/>
    <path fill="#F4A234" d="M2662.45,1615.67 C2721.81,1362.61 2743.72,885.38 2553.39,871.375 C2349.82,856.412 2256.1,1087.46 2194.03,1217.43 C2168.48,1209.92 2142.25,1203.72 2115.35,1199.02 C2078.78,1192.62 2042.4,1189.2 2006.45,1188.49 C1993.89,1051.01 1963.3,773.052 1769.91,748.873 C1547.8,721.123 1444.3,1242.36 1422.73,1456.51 C1376.37,1528.29 1343.39,1610.02 1327.82,1699.05 C1264.01,2064.07 1523.8,2371.07 1899,2436.65 C2274.2,2502.25 2622.73,2301.6 2686.54,1936.59 C2705.94,1825.63 2696.07,1716.15 2662.45,1615.67"/>
    <path fill="#FDF7CD" d="M1883.59,1229.03 C1883.59,1229.03 2136.23,1162.34 2299,1306.47 C2299,1306.47 2097.54,1218.23 1883.59,1229.03"/>
    <path fill="#BA7336" d="M2293.92,1307.99 C2293.92,1307.99 2426.62,962.484 2530.09,1004.68 C2633.57,1046.85 2529.66,1503.43 2529.66,1503.43 C2529.66,1503.43 2333.56,1329.38 2293.92,1307.99"/>
    <path fill="#FDF7CD" d="M2252.38 1132.04C2252.38 1132.04 2427.94 887.269 2550.31 916.621 2698.33 952.145 2699.09 1347.5 2699.09 1347.5 2699.09 1347.5 2708.03 910.462 2591.21 875.584 2474.41 840.707 2316.36 986.59 2252.38 1132.04M1771.92 792.609C1928.18 822.333 1987.21 1104.97 1987.21 1104.97 1987.21 1104.97 1989.91 1096.3 1993.95 1081.26 1972.47 940.753 1920.65 767.716 1769.91 748.873 1628.01 731.138 1534.52 937.499 1479.88 1144.7 1480.82 1159.22 1482.89 1173.08 1486.24 1186.07 1486.24 1186.07 1615.65 762.879 1771.92 792.609"/>
    <path fill="#BA7336" d="M1750.58,873.221 C1877.39,878.515 1858.97,1231.95 1858.97,1231.95 C1858.97,1231.95 1593.06,1346.93 1568.34,1364.3 C1568.34,1364.3 1615.31,867.579 1750.58,873.221"/>
    <path fill="#FEFFF8" d="M2578.98,1915.7 C2480.5,1858.73 2392.2,1920.13 2255.97,1880.92 C2143.64,1848.6 2239.26,1543.41 2067.77,1519.94 C1917.83,1503.48 1917.01,1805.74 1772.2,1796.36 C1630.74,1787.19 1568.52,1699.3 1456.55,1719.49 C1344.58,1739.68 1321.32,1829.6 1321.32,1829.6 C1326.19,2306.36 1889.25,2434.05 1908.94,2438.37 L1908.94,2438.39 C1908.94,2438.39 1909.1,2438.41 1909.24,2438.43 C1909.36,2438.46 1909.52,2438.49 1909.52,2438.49 L1909.52,2438.46 C1929.51,2441.08 2502.51,2512.01 2668.82,2065.16 C2668.82,2065.16 2677.46,1972.68 2578.98,1915.7"/>
    <path fill="#CEB2B8" d="M2213.24 1869.93C2201.39 1932.55 2098.47 1965.66 1983.37 1943.87 1868.27 1922.08 1784.58 1853.65 1796.43 1791.02 1808.29 1728.4 1911.2 1695.29 2026.3 1717.07 2141.4 1738.86 2225.09 1807.3 2213.24 1869.93M2659.1 2090.24C2568.01 2204.86 2337.49 2441.96 1955.45 2388.68 1384.11 2308.98 1331.46 1816.91 1331.46 1816.91L1327.37 1813.9C1322.99 1823.39 1321.95 1829.69 1321.95 1829.69 1326.81 2306.46 1897.69 2435.53 1910.16 2438.55L1910.16 2438.59 1910.16 2438.57 1910.16 2438.59 1910.16 2438.55C1935.12 2441.31 2481.04 2509.29 2659.1 2090.24"/>
    <path fill="#CEB2B8" d="M2283.93,2137.05 C2258.37,2283.29 2096.3,2377.16 1921.96,2346.68 C1747.61,2316.21 1627,2172.93 1652.57,2026.67 C1678.13,1880.41 1840.2,1786.56 2014.55,1817.04 C2188.89,1847.51 2309.5,1990.78 2283.93,2137.05"/>
    <path fill="#102770" d="M1752.79,766.511 C1724.74,766.511 1698.16,776.791 1671.93,797.702 C1541.08,902.018 1462.35,1249.96 1441.35,1458.38 C1441.06,1461.33 1440.06,1464.17 1438.45,1466.66 C1392.06,1538.49 1361.04,1617.77 1346.26,1702.28 C1316.78,1870.88 1358.4,2036.45 1463.42,2168.49 C1566.52,2298.09 1722.35,2386.78 1902.22,2418.22 C2082.1,2449.67 2258.77,2419.1 2399.71,2332.17 C2543.31,2243.6 2638.63,2101.97 2668.1,1933.37 C2686.27,1829.47 2678.18,1721.67 2644.7,1621.61 C2643.6,1618.31 2643.44,1614.78 2644.23,1611.4 C2690.79,1412.9 2716.18,1059.96 2622.8,932.812 C2603.18,906.091 2580.02,892.099 2552.02,890.038 C2374.64,877.055 2283.74,1070.55 2223.61,1198.62 C2219.23,1207.95 2215.01,1216.94 2210.92,1225.49 C2206.96,1233.78 2197.59,1237.99 2188.76,1235.39 C2163.45,1227.95 2137.67,1221.92 2112.13,1217.45 C2077.28,1211.36 2041.6,1207.91 2006.08,1207.2 C1996.55,1207.01 1988.68,1199.69 1987.81,1190.19 C1970.81,1004.06 1930.42,787.802 1767.58,767.446 C1762.6,766.823 1757.68,766.511 1752.79,766.511 Z M2039.46,2467.7 C1992.13,2467.7 1944.06,2463.53 1895.77,2455.09 C1706.88,2422.07 1542.93,2328.56 1434.13,2191.79 C1322.35,2051.26 1278.04,1875.13 1309.39,1695.83 C1324.78,1607.85 1356.79,1525.22 1404.57,1450.16 C1423.93,1263.79 1498.98,887.712 1648.6,768.434 C1687.15,737.704 1728.72,724.875 1772.23,730.302 C1863.26,741.686 1930.99,805.395 1973.53,919.665 C2006.25,1007.56 2017.92,1110.71 2023.56,1170.3 C2055.44,1171.67 2087.32,1175.12 2118.58,1180.58 C2140.32,1184.39 2162.23,1189.26 2183.89,1195.12 C2185.81,1191.06 2187.75,1186.92 2189.73,1182.71 C2254.23,1045.36 2351.64,837.8 2554.76,852.709 C2593.8,855.58 2626.84,875.077 2652.97,910.654 C2753.61,1047.69 2730.64,1402.79 2681.87,1614.79 C2715.91,1719.3 2723.9,1831.56 2704.98,1939.81 C2673.63,2119.1 2572.2,2269.76 2419.36,2364.03 C2308.64,2432.32 2177.28,2467.7 2039.46,2467.7 L2039.46,2467.7 Z"/>
    <path fill="#102770" d="M2171.31 1814.43C2159.19 1883.84 2093.11 1911.4 2019.8 1898.59 1946.5 1885.77 1893.69 1837.43 1905.83 1768.02 1915.75 1711.23 2181.25 1757.64 2171.31 1814.43M2260.29 1726.62C2265.69 1669.88 2302.39 1626.97 2342.23 1630.78 2382.08 1634.59 2409.98 1683.67 2404.57 1740.4 2399.16 1797.13 2362.46 1840.05 2322.61 1836.24 2282.77 1832.43 2254.87 1783.35 2260.29 1726.62"/>
    <path fill="#FFF" d="M2283.66,1730.43 C2286.26,1703.14 2303.12,1682.43 2321.31,1684.18 C2339.49,1685.92 2352.13,1709.42 2349.53,1736.72 C2346.92,1764.02 2330.05,1784.71 2311.87,1782.97 C2293.68,1781.24 2281.05,1757.72 2283.66,1730.43"/>
    <path fill="#102770" d="M1863.02,1654.69 C1875.29,1599.03 1853.57,1546.93 1814.48,1538.31 C1775.39,1529.68 1733.76,1567.81 1721.49,1623.46 C1709.21,1679.11 1730.93,1731.22 1770.02,1739.85 C1809.11,1748.46 1850.74,1710.33 1863.02,1654.69"/>
    <path fill="#FFF" d="M1839.6,1651.13 C1845.51,1624.36 1835.83,1599.48 1817.98,1595.55 C1800.15,1591.61 1780.9,1610.11 1774.98,1636.88 C1769.09,1663.65 1778.77,1688.53 1796.6,1692.47 C1814.45,1696.4 1833.7,1677.9 1839.6,1651.13"/>
    <path fill="#FECA28" d="M1596.89,1331.94 C1596.89,1331.94 1666.19,913.916 1748.88,917.498 C1831.39,921.081 1828.37,1227.8 1828.37,1227.8 C1828.37,1227.8 1659.93,1281.51 1596.89,1331.94"/>
    <path fill="#D79545" d="M1706.66,1220.99 C1655.24,1210.22 1639.39,1175.98 1636.54,1143.95 C1612,1240.76 1596.89,1331.94 1596.89,1331.94 C1659.93,1281.51 1828.37,1227.8 1828.37,1227.8 C1828.37,1227.8 1828.95,1167.53 1822.42,1100.1 C1804.79,1160.46 1769.97,1234.26 1706.66,1220.99"/>
    <path fill="#FECA28" d="M2512.34,1491.97 C2512.34,1491.97 2588.98,1075.23 2509.99,1050.56 C2431.16,1025.93 2329.93,1315.49 2329.93,1315.49 C2329.93,1315.49 2470.16,1423.14 2512.34,1491.97"/>
    <path fill="#D79545" d="M2512.34,1491.97 C2512.34,1491.97 2526.75,1413.61 2536.63,1322.84 C2519.15,1341.37 2503.6,1390.45 2438.25,1364.56 C2367.63,1336.59 2358.61,1268.7 2374.78,1206.04 C2347.98,1263.84 2329.93,1315.49 2329.93,1315.49 C2329.93,1315.49 2470.16,1423.14 2512.34,1491.97"/>
    <path fill="#102770" d="M1747.89 933.073C1740.62 933.073 1705.8 943.588 1656.95 1127.38 1639.52 1192.93 1626.14 1259.2 1618.74 1298.55 1682.24 1261.42 1780.14 1227.38 1812.82 1216.49 1812.66 1099.29 1792.75 935.014 1748.2 933.08 1748.11 933.073 1748 933.073 1747.89 933.073zM1596.89 1347.53C1594.18 1347.53 1591.45 1346.83 1589.01 1345.39 1583.43 1342.13 1580.45 1335.76 1581.51 1329.39 1581.68 1328.33 1599.27 1222.95 1626.8 1119.37 1679.27 921.987 1721.77 900.683 1749.55 901.918 1793.12 903.81 1821.09 959.469 1835.05 1072.08 1844.62 1149.35 1844 1224.78 1843.97 1227.96 1843.9 1234.69 1839.52 1240.62 1833.11 1242.66 1831.45 1243.19 1666.69 1296.07 1606.63 1344.12 1603.81 1346.38 1600.35 1347.53 1596.89 1347.53L1596.89 1347.53zM2348.4 1310.12C2375.44 1331.44 2455.98 1396.67 2503.12 1453.15 2509.51 1413.57 2519.43 1346.58 2525.27 1278.98 2542.23 1082.78 2509.16 1066.64 2505.34 1065.45 2462.66 1052.15 2388.29 1199.92 2348.4 1310.12zM2512.34 1507.56C2506.98 1507.56 2501.92 1504.8 2499.05 1500.12 2458.86 1434.55 2321.81 1328.92 2320.43 1327.86 2315.09 1323.76 2312.99 1316.7 2315.21 1310.34 2316.25 1307.35 2341.26 1236.17 2376.49 1166.73 2427.82 1065.53 2472.99 1022.67 2514.64 1035.67 2540.97 1043.9 2573.94 1078.37 2556.33 1281.86 2547.09 1388.63 2527.88 1493.74 2527.68 1494.79 2526.52 1501.14 2521.55 1506.12 2515.2 1507.3 2514.25 1507.48 2513.29 1507.56 2512.34 1507.56L2512.34 1507.56zM2176.48 1945.99C2094.66 1945.99 2001.6 1931.66 1897.1 1895.27 1682.74 1820.6 1557.27 1715.6 1489.76 1640.67 1415.83 1558.59 1393.33 1494.48 1392.41 1491.79 1389.62 1483.64 1393.96 1474.77 1402.11 1471.98 1410.27 1469.18 1419.12 1473.53 1421.92 1481.67 1422.39 1483.02 1444.38 1544.15 1514.29 1621.29 1579.31 1693.03 1700.29 1793.69 1907.36 1865.81 2126.8 1942.24 2320.65 1930.6 2483.49 1831.2 2605.2 1756.91 2663.19 1658.56 2663.76 1657.57 2668.08 1650.13 2677.61 1647.58 2685.07 1651.9 2692.51 1656.21 2695.07 1665.73 2690.76 1673.19 2688.3 1677.45 2629 1778.48 2501.06 1857.02 2426.32 1902.9 2318.32 1945.99 2176.48 1945.99M2164.22 2215.78C2150.77 2215.78 2137.32 2215.55 2123.83 2215.11 1986.87 2210.58 1847.56 2183.16 1709.78 2133.61 1475.32 2049.28 1328.67 1931.75 1322.54 1926.79 1315.85 1921.37 1314.82 1911.55 1320.23 1904.86 1325.65 1898.17 1335.47 1897.13 1342.17 1902.55 1343.63 1903.73 1491.59 2022.18 1721.36 2104.63 1932.65 2180.44 2258.62 2240.49 2611.62 2095.99 2619.59 2092.73 2628.7 2096.54 2631.96 2104.52 2635.23 2112.49 2631.41 2121.59 2623.44 2124.86 2475.91 2185.25 2321.61 2215.78 2164.22 2215.78M2264.25 1275.74C2261.03 1275.74 2257.76 1274.91 2254.78 1273.15 2155.61 1214.81 1951.65 1215.88 1949.57 1215.87L1949.41 1215.87C1939.14 1215.87 1930.78 1207.6 1930.69911 1197.32 1930.6 1186.98 1938.91 1178.53 1949.24 1178.44 1958.03 1178.37 2165.65 1177.28 2273.76 1240.89 2282.67 1246.13 2285.64 1257.6 2280.4 1266.51 2276.91 1272.44 2270.67 1275.74 2264.25 1275.74"/>
    <path fill="#53FFA0" d="M2420.14046,1898.32 C2420.27,1878.68 2392.73,1839.9 2359.68,1837.99 C2321.56,1835.78 2274.35,1830.8 2243.4,1818.84 C2205.06,1804.01 2117.03,1774.12 2031.8,1760.32 C1943.34,1743.76 1852.07,1742.3 1810.98,1743.25 C1777.8,1744 1730.67,1732.49 1694.07,1721.63 C1662.32,1712.21 1622.73,1739.26 1616.2,1757.78 C1560.15,1916.62 1567.31,2094.41 1567.31,2094.41 C1567.31,2094.41 1617.4,2210.79 1881.83,2286.35 C1898.58,2291.14 1916,2295.11 1928.55,2297.77 L1928.49,2298.09 C1928.5,2298.06 1930.62,2298.37 1932.24,2298.6 C1933.47,2298.85 1934.81,2299.18 1934.81,2299.19 L1934.84,2298.94 C1953.86,2301.8 1969.55,2303.52 1986.66,2304.68 C2261.04,2323.31 2349.89,2231.22 2349.89,2231.22 C2349.89,2231.22 2418.97,2066.76 2420.14046,1898.32"/>
    <path fill="#B4FED1" d="M2359.68,1837.99 C2321.56,1835.78 2274.35,1830.8 2243.4,1818.84 C2205.06,1804.01 2117.03,1774.12 2031.8,1760.32 C1943.34,1743.76 1852.07,1742.3 1810.98,1743.25 C1777.8,1744 1730.67,1732.49 1694.07,1721.63 C1664.09,1712.73 1627.13,1736.36 1617.62,1754.61 L1623.23,1786.87 L1627.21,1777.91 C1627.21,1777.91 1643.81,1751.91 1692.5,1762.83 C1741.2,1773.74 1764.88,1789.94 1810.13,1793.03 C1855.38,1796.11 2095.46,1787.48 2211.21,1855.92 C2314.21,1916.8 2398.38,1888.58 2415.71,1881.61 C2406.68,1862.15 2384.79,1839.44 2359.68,1837.99"/>
    <path fill="#43D481" d="M2351.38,2231.49 C2351.38,2231.49 2381.33,2158.44 2401.69,2059.94 C1987.03,2225.7 1702.5,2034.62 1578.27,1918.14 C1564.19,2016.7 1567.31,2094.41 1567.31,2094.41 C1567.31,2094.41 1617.4,2210.79 1881.83,2286.35 C1898.58,2291.14 1916,2295.11 1928.55,2297.77 L1928.49,2298.09 C1928.5,2298.06 1930.62,2298.37 1932.24,2298.6 C1933.47,2298.85 1934.81,2299.18 1934.81,2299.19 L1934.84,2298.94 C1953.86,2301.8 1969.55,2303.52 1986.66,2304.68 C2261.04,2323.31 2351.38,2231.49 2351.38,2231.49"/>
    <path fill="#102770" d="M1932.47,2282.82 C1933.01,2282.85 1933.55,2282.9 1934.1,2282.99 C1959.36,2286.93 1969.82,2287.75 1986.13,2288.85 C2226.85,2305.18 2321.55,2234.2 2336,2221.91 C2345.38,2198.73 2403.5,2049.01 2404.54028,1898.22 C2404.63,1886.45 2382.94,1854.96 2358.78,1853.56 C2305.08,1850.45 2264.38,1843.66 2237.78,1833.39 C2188.72,1814.41 2104.69,1787.92 2029.3,1775.71 C1930.1,1757.15 1830.34,1758.41 1811.34,1758.84 C1782.41,1759.5 1741.6,1752 1689.64,1736.58 C1666.17,1729.62 1634.83,1751.86 1630.91,1762.97 C1580.62,1905.49 1582.22,2066 1582.8,2090.58 C1591.3,2106.4 1652.33,2204.73 1884.56,2271.09 C1896.49,2274.5 1911.25,2277.91 1921.01,2280.17 C1924.62,2281.01 1927.47,2281.67 1929.18,2282.09 C1929.67,2282.22 1930.16,2282.36 1930.64,2282.54 C1930.89,2282.56 1931.14,2282.59 1931.39,2282.63 C1931.64,2282.67 1931.89,2282.71 1932.13,2282.76 C1932.24,2282.78 1932.36,2282.8 1932.47,2282.82 Z M2056.31,2322.5 C2033.72,2322.5 2009.67,2321.71 1984.03,2319.97 C1967.77,2318.87 1956.36,2317.99 1931.26,2314.11 C1930.01,2314.09 1928.79,2313.91 1927.61,2313.61 L1927.59,2313.69 C1927.32,2313.62 1926.68,2313.47 1926.09,2313.36 L1926.09,2313.33 C1925.03,2313.25 1923.9,2313.11 1922.72,2312.91 C1921.33,2312.67 1920,2312.25 1918.74,2311.66 C1917.39,2311.35 1915.79,2310.98 1913.98,2310.56 C1903.91,2308.23 1888.68,2304.71 1875.99,2301.08 C1607.42,2224.34 1555.02,2105.45 1552.92,2100.43 C1552.2,2098.72 1551.8,2096.89 1551.73,2095.04 C1551.43,2087.66 1545.1,1912.41 1601.5,1752.59 C1610.69,1726.51 1658.82,1694.92 1698.51,1706.67 C1746.69,1720.97 1785.53,1728.27 1810.63,1727.65 C1830.16,1727.2 1932.79,1725.91 2034.67,1744.99 C2112.05,1757.52 2198.57,1784.78 2249.03,1804.29 C2272.59,1813.4 2310.13,1819.5 2360.58,1822.42 C2401.61,1824.79 2435.92,1870.8 2435.73079,1898.43 C2434.56,2068.04 2366.35,2230.36 2363.44,2237.19 C2362.69,2238.97 2361.61,2240.59 2360.26,2241.97 C2356.75,2245.57 2278.94,2322.5 2056.31,2322.5 L2056.31,2322.5 Z"/>
    <path fill="#53FFA0" d="M2354.53006,1923.95 C2354.51,1907.92 2330.82,1876.09 2302.66,1874.31 C2270.19,1872.27 2229.98,1867.91 2203.56,1857.95 C2170.82,1845.6 2095.69,1820.64 2023.04,1808.85 C1947.62,1794.76 1869.92,1793 1834.94,1793.5 C1806.69,1793.91 1766.51,1784.21 1735.27,1775.12 C1708.18,1767.24 1674.65,1789.07 1669.2,1804.14 C1622.49,1933.46 1629.7,2078.63 1629.7,2078.63 C1629.7,2078.63 1669.4,2173.3 1895.02,2236.68 C1909.31,2240.68 1924.91,2244.17 1931.16,2245.63 L1931.11,2245.89 C1937.42,2246.99 1933.4,2246.22 1934.79,2246.43 C1935.82,2246.63 1937.42,2246.99 1937.42,2247 L1937.46,2246.8 C1956.45,2249.74 1970.26,2251.32 1984.83,2252.37 C2218.55,2269.3 2295.21,2194.98 2295.21,2194.98 C2295.21,2194.98 2354.6,2061.45 2354.53006,1923.95"/>
    <path fill="#43D481" d="M1630,1989.48 C1623.22,2054.53 1629.7,2078.63 1629.7,2078.63 C1629.7,2078.63 1669.4,2173.3 1895.02,2236.68 C1909.31,2240.68 1924.91,2244.17 1931.16,2245.63 L1931.11,2245.89 C1937.42,2246.99 1933.4,2246.22 1934.79,2246.43 C1935.82,2246.63 1937.42,2246.99 1937.42,2247 L1937.46,2246.8 C1956.45,2249.74 1970.26,2251.32 1984.83,2252.37 C2218.55,2269.3 2295.21,2194.98 2295.21,2194.98 C2295.21,2194.98 2310.83,2176.46 2327.36,2111.4 C2017.58,2180.8 1764.41,2094.21 1630,1989.48"/>
    <path fill="#102770" d="M1937.93,2234.34 C1938.41,2234.35 1938.89,2234.4 1939.37,2234.47 C1957.58,2237.29 1971.01,2238.87 1985.73,2239.93 C2191.42,2254.85 2272.55,2197.33 2284.89,2187.4 C2292.86,2168.54 2342.12,2046.93 2342.05007,1923.96 L2342.05007,1923.97 C2342.04,1914.25 2322.94,1888.09 2301.88,1886.76 C2256.29,1883.89 2221.73,1878.13 2199.16,1869.63 C2157.23,1853.8 2085.43,1831.62 2021.04,1821.16 C1936.46,1805.37 1851.32,1805.75 1835.12,1805.98 C1810.76,1806.38 1776.05,1799.98 1731.79,1787.1 C1711.3,1781.15 1684.24,1799.25 1680.93,1808.39 C1638.97,1924.55 1641.43,2055.77 1642.07,2075.49 C1648.92,2088.13 1699.51,2168.8 1898.39,2224.67 C1910.2,2227.97 1922.88,2230.91 1930.46,2232.66 L1934.01,2233.49 C1934.56,2233.62 1935.08,2233.78 1935.6,2233.97 C1935.94,2234 1936.29,2234.03 1936.63,2234.08 C1936.84,2234.12 1937.05,2234.15 1937.26,2234.19 C1937.48,2234.24 1937.71,2234.29 1937.93,2234.34 Z M2051.84,2267.36 C2030.79,2267.36 2008.19,2266.57 1983.93,2264.82 C1968.92,2263.73 1955.26,2262.15 1937.11,2259.37 C1936.76,2259.36 1936.41,2259.34 1936.06,2259.3 C1935.5,2259.24 1934.96,2259.14 1934.43,2259.01 L1934.4,2259.1 C1934.06,2259.02 1933.03,2258.8 1932.33,2258.66 L1932.34,2258.61 C1931.27,2258.53 1930.15,2258.39 1928.97,2258.18 C1927.89,2257.99 1926.85,2257.67 1925.88,2257.22 L1924.83,2256.97 C1917.04,2255.17 1904.02,2252.16 1891.65,2248.69 C1662.86,2184.42 1619.91,2087.55 1618.2,2083.46 C1617.64,2082.12 1617.32,2080.7 1617.24,2079.25 C1616.95,2073.22 1610.44,1930.08 1657.46,1799.91 C1665.09,1778.81 1705.4,1753.44 1738.76,1763.14 C1780.04,1775.16 1813.2,1781.34 1834.76,1781.02 C1851.39,1780.78 1938.71,1780.4 2025.33,1796.58 C2091.25,1807.28 2164.96,1830.05 2207.97,1846.28 C2228.2,1853.9 2260.33,1859.14 2303.45,1861.86 C2337.89,1864.03 2366.98,1901.53 2367.00008,1923.94 L2367.00008,1923.95 C2367.08,2062.5 2309.08,2194.5 2306.61,2200.05 C2305.96,2201.51 2305.04,2202.83 2303.9,2203.94 C2300.94,2206.81 2236.12,2267.36 2051.84,2267.36 L2051.84,2267.36 Z"/>
    <path fill="#102770" d="M2175.45,2005.44 C1890.78,2005.44 1663.63,1875.31 1660.93,1873.73 C1656.47,1871.13 1654.96,1865.4 1657.56,1860.94 C1660.16,1856.47 1665.89,1854.97 1670.36,1857.57 C1673.52,1859.41 1990.32,2040.69 2341.88,1970.68 C2346.94,1969.67 2351.87,1972.96 2352.88,1978.03 C2353.89,1983.09 2350.6,1988.02 2345.53,1989.03 C2287.49,2000.59 2230.4,2005.44 2175.45,2005.44"/>
    <path fill="#102770" d="M2175.45 2005.44C1890.78 2005.44 1663.63 1875.31 1660.93 1873.73 1656.47 1871.13 1654.96 1865.4 1657.56 1860.94 1660.16 1856.47 1665.89 1854.97 1670.36 1857.57 1673.52 1859.41 1990.32 2040.69 2341.88 1970.68 2346.94 1969.67 2351.87 1972.96 2352.88 1978.03 2353.89 1983.09 2350.6 1988.02 2345.53 1989.03 2287.49 2000.59 2230.4 2005.44 2175.45 2005.44M2151.16 2144.27C1866.49 2144.27 1639.36 2014.14 1636.66 2012.57 1632.2 2009.97 1630.69 2004.24 1633.29 1999.78 1635.89 1995.31 1641.62 1993.81 1646.09 1996.4 1649.25 1998.24 1966 2179.53 2317.61 2109.5 2322.66 2108.5 2327.6 2111.78 2328.62 2116.85 2329.62 2121.92 2326.33 2126.85 2321.26 2127.86 2263.22 2139.42 2206.11 2144.27 2151.16 2144.27"/>
    <path fill="#F4A234" d="M2182.81,2577.41 C2182.81,2577.41 1932.5,3004.77 2122.18,3039.07 C2258.61,3063.74 2391.24,2693.71 2391.24,2693.71"/>
    <path fill="#FFF" d="M2074.72,2815.2 C2041.09,2919.87 2032.97,3022.94 2122.18,3039.07 C2182.46,3049.97 2241.98,2983.82 2289.66,2906.58 C2220.95,2820.32 2130.47,2810.93 2074.72,2815.2"/>
    <path fill="#AEB7D2" d="M2089.21,2827.74 C2089.21,2827.74 2042.72,2963.34 2120.21,2974.97 C2197.7,2986.59 2275.19,2905.23 2275.19,2905.23 C2275.19,2905.23 2217.08,3044.71 2135.71,3040.84 C2054.34,3036.96 2034.97,2912.97 2089.21,2827.74"/>
    <path fill="#102770" d="M2135.49,3058.98 C2129.92,3058.98 2124.37,3058.48 2118.85,3057.48 C2083.4,3051.07 2058.39,3032.53 2044.52,3002.38 C1986.99,2877.27 2159.3,2580.53 2166.67,2567.96 C2171.89,2559.03 2183.35,2556.04 2192.27,2561.26 C2201.19,2566.49 2204.19,2577.95 2198.97,2586.87 C2151.55,2667.85 2037.5,2897.55 2078.53,2986.75 C2087.11,3005.4 2102.48,3016.49 2125.51,3020.65 C2128.88,3021.26 2132.28,3021.56 2135.68,3021.56 C2232.21,3021.58 2339.4,2782.81 2373.62,2687.4 C2377.11,2677.67 2387.82,2672.61 2397.56,2676.1 C2407.28,2679.59 2412.34,2690.3 2408.85,2700.03 C2407.48,2703.87 2374.59,2795.05 2324.19,2884.81 C2259.22,3000.51 2195.83,3058.98 2135.49,3058.98"/>
    <path fill="#F4A234" d="M1515.84,2667.6 C1515.84,2667.6 1121.95,2240.8 1242.99,2127.58 C1419.21,1962.74 1686.37,2406.12 1686.37,2406.12"/>
    <path fill="#F4A234" d="M1515.84,2667.6 C1515.84,2667.6 1121.95,2240.8 1242.99,2127.58 C1419.21,1962.74 1686.37,2406.12 1686.37,2406.12"/>
    <path fill="#BA7336" d="M1535.05,2638.14 C1485.04,2564.41 1329.28,2334.57 1287.18,2269.8 C1248.36,2210.07 1271.68,2122.56 1271.68,2122.56 L1249.24,2122.12 C1247.15,2123.88 1245.05,2125.65 1242.99,2127.58 C1121.95,2240.8 1515.84,2667.6 1515.84,2667.6 L1535.05,2638.14"/>
    <path fill="#FFF" d="M1242.99,2127.58 C1193.56,2173.81 1230.01,2272.33 1290.43,2372.72 C1358.08,2344 1461.06,2282.28 1489.12,2165.99 C1408.95,2097.23 1317.78,2057.62 1242.99,2127.58"/>
    <path fill="#AEB7D2" d="M1339.45,2348.5 C1316.89,2314.83 1298.16,2286.7 1287.18,2269.8 C1248.36,2210.07 1271.68,2122.56 1271.68,2122.56 L1249.17,2122.11 C1247.11,2123.87 1245.04,2125.67 1242.99,2127.58 C1193.56,2173.81 1230.01,2272.33 1290.43,2372.72 C1305.43,2366.35 1322.17,2358.35 1339.45,2348.5"/>
    <path fill="#102770" d="M1535.16 2691.49C1530.23 2691.49 1525.3 2689.55 1521.63 2685.71 1508.4 2671.87 1197.57 2344.98 1202.12 2181.23 1202.9 2153.27 1212.35 2130.62 1230.21 2113.92 1265.59 2080.81 1306.84 2067.26 1352.82 2073.66 1520.16 2096.94 1695.04 2384.24 1702.4 2396.46 1707.74 2405.31 1704.88 2416.81 1696.04 2422.15 1687.18 2427.49 1675.68 2424.63 1670.34 2415.78 1668.63 2412.94 1497.36 2131.53 1347.64 2110.73 1312.96 2105.9 1282.88 2115.9 1255.77 2141.25 1245.34 2151.01 1240.03 2164.43 1239.54 2182.27 1236.12 2305.33 1461.53 2568.73 1548.68 2659.83 1555.82 2667.3 1555.56 2679.15 1548.09 2686.3 1544.46 2689.76 1539.81 2691.49 1535.16 2691.49M1409.09 2878.53C1408.69 2878.53 1408.3 2878.51 1407.9 2878.49 1397.58 2877.85 1389.75 2868.96 1390.39 2858.64 1393.23 2813.23 1366.77 2739.01 1366.5 2738.26 1363.01 2728.54 1368.05 2717.82 1377.78 2714.32 1387.51 2710.81 1398.23 2715.87 1401.72 2725.59 1402.92 2728.92 1431.07 2807.82 1427.75 2860.98 1427.13 2870.9 1418.89 2878.53 1409.09 2878.53M2659.85 2922.2C2651.11 2922.2 2643.3 2916.05 2641.52 2907.15 2624.99 2824.52 2671.78 2710.81 2673.79 2706.01 2677.76 2696.47 2688.72 2691.96 2698.25 2695.93 2707.79 2699.9 2712.31 2710.86 2708.34 2720.4 2707.89 2721.47 2663.95 2828.43 2678.22 2899.81 2680.25 2909.95 2673.67 2919.81 2663.54 2921.83 2662.3 2922.08 2661.07 2922.2 2659.85 2922.2"/>
  </g>
</svg>
