<svg xmlns="http://www.w3.org/2000/svg" width="4000" height="4000" viewBox="0 0 4000 4000">
  <g fill="none" fill-rule="evenodd">
    <polygon fill="#FDA8F3" points=".06 4000 4000 4000 4000 .04 .06 .04"/>
    <path fill="#B581CB" d="M1899.85,3312.35 C1484.26,3312.35 1147.35,3253.03 1147.35,3179.85 C1147.35,3106.67 1484.26,3047.35 1899.85,3047.35 C2315.45,3047.35 2652.35,3106.67 2652.35,3179.85 C2652.35,3253.03 2315.45,3312.35 1899.85,3312.35"/>
    <path fill="#BEB39B" d="M2106.93,2665.03 C2106.93,2665.03 2326.43,2718.27 2387.44,2569.44 C2448.45,2420.62 2359.34,2113.8 2496.22,1984.16 C2706.39,1785.11 2927.53,1809.16 2956.03,1927.85 C2984.53,2046.54 2785.43,2152.53 2830.13,2295.54 C2874.84,2438.55 2904.61,2744.67 2611.45,2857.12 C2318.28,2969.58 2068.95,2821 2068.95,2821"/>
    <path fill="#96998F" d="M2392.47,2658.99 C2527.69,2571.75 2510.25,2157.36 2523.33,2052.67 C2536.42,1947.98 2737.07,1860.74 2737.07,1860.74 C2707.27,1862.29 2676.94,1868.31 2646.31,1877.88 C2597.51,1901.73 2546.56,1936.48 2496.22,1984.16 C2359.34,2113.8 2448.45,2420.62 2387.44,2569.44 C2326.43,2718.27 2106.93,2665.03 2106.93,2665.03 L2068.95,2821 C2068.95,2821 2318.28,2969.58 2611.45,2857.12 C2665.77,2836.28 2708.98,2808.79 2743.09,2776.92 C2595,2788.21 2392.47,2658.99 2392.47,2658.99"/>
    <path fill="#554A3D" d="M2411.09,2429.19 C2408.87,2482.58 2403.1,2531.22 2387.44,2569.44 C2370.15,2611.62 2340.13,2637.54 2306,2653.07 C2424.13,2760.22 2583,2802.5 2688,2819.16 C2803.58,2746.48 2847.28,2634.78 2856.5,2527.43 C2649.26,2555.87 2502.56,2493.34 2411.09,2429.19"/>
    <path fill="#443A2E" d="M2380.94,2583.39 C2379.02,2587.07 2376.97,2590.59 2374.84,2593.99 C2374.42,2594.66 2374,2595.33 2373.57,2595.99 C2371.44,2599.28 2369.22,2602.47 2366.9,2605.5 C2366.44,2606.09 2365.98,2606.66 2365.53,2607.23 C2363.12,2610.29 2360.65,2613.25 2358.07,2616.05 C2357.78,2616.36 2357.48,2616.64 2357.2,2616.95 C2354.77,2619.54 2352.26,2622.01 2349.7,2624.37 C2349.18,2624.86 2348.67,2625.35 2348.14,2625.83 C2345.53,2628.17 2342.84,2630.4 2340.1,2632.54 C2339.34,2633.13 2338.57,2633.72 2337.8,2634.3 C2335.13,2636.31 2332.41,2638.23 2329.63,2640.06 C2328.77,2640.63 2327.89,2641.17 2327.02,2641.72 C2324.23,2643.48 2321.41,2645.19 2318.53,2646.78 C2317.71,2647.23 2316.87,2647.64 2316.05,2648.08 C2313.59,2649.39 2311.12,2650.63 2308.62,2651.81 C2307.74,2652.23 2306.88,2652.66 2306,2653.07 C2424.11,2760.2 2582.94,2802.48 2687.94,2819.15 C2691.8,2816.72 2695.61,2814.26 2699.32,2811.75 C2700.88,2810.69 2702.39,2809.6 2703.93,2808.52 C2706.96,2806.4 2709.95,2804.25 2712.87,2802.06 C2714.37,2800.94 2715.88,2799.83 2717.35,2798.7 C2721.25,2795.7 2725.06,2792.65 2728.76,2789.54 C2729.98,2788.53 2731.14,2787.5 2732.33,2786.48 C2735.2,2784 2738.03,2781.49 2740.79,2778.96 C2741.53,2778.28 2742.27,2777.61 2743,2776.92 C2594.92,2788.16 2392.47,2658.99 2392.47,2658.99 C2439.94,2628.37 2468.58,2557.42 2486.34,2473.72 C2458.06,2459.78 2432.98,2444.54 2411.09,2429.19 C2411.09,2429.47 2411.07,2429.73 2411.06,2430 C2410.84,2435.01 2410.58,2439.95 2410.29,2444.87 C2410.2,2446.55 2410.12,2448.24 2410.01,2449.91 C2409.73,2454.53 2409.37,2459.06 2409,2463.58 C2408.86,2465.43 2408.73,2467.31 2408.57,2469.15 C2408.19,2473.49 2407.73,2477.75 2407.27,2482 C2407.06,2483.91 2406.88,2485.84 2406.66,2487.73 C2406.16,2491.89 2405.57,2495.95 2404.99,2500.01 C2404.72,2501.87 2404.49,2503.78 2404.19,2505.62 C2403.56,2509.66 2402.82,2513.57 2402.08,2517.49 C2401.75,2519.25 2401.47,2521.07 2401.11,2522.81 C2400.31,2526.74 2399.39,2530.54 2398.47,2534.35 C2398.08,2535.96 2397.75,2537.63 2397.34,2539.21 C2396.3,2543.25 2395.11,2547.13 2393.92,2551 C2393.54,2552.24 2393.21,2553.55 2392.81,2554.77 C2391.16,2559.82 2389.38,2564.72 2387.44,2569.44 C2385.69,2573.71 2383.78,2577.76 2381.78,2581.7 C2381.5,2582.26 2381.23,2582.84 2380.94,2583.39"/>
    <path fill="#554A3D" d="M2495.41,1984.97 C2433.44,2044.36 2418.24,2140.42 2414.24,2241.41 C2555.9,2341.74 2747.47,2375.66 2851.07,2386.99 C2845.8,2352.6 2838.22,2321.39 2830.13,2295.54 C2818.32,2257.75 2823.53,2222.55 2837.07,2189.02 C2672.25,2141.36 2545.13,2032.48 2495.41,1984.97"/>
    <path fill="#443A2E" d="M2533.76,2019.46 C2518.17,2006.21 2505.26,1994.38 2495.42,1984.98 C2492.45,1987.84 2489.64,1990.85 2486.87,1993.88 C2484.39,1996.58 2482.03,1999.38 2479.71,2002.23 C2477.74,2004.63 2475.73,2007 2473.88,2009.49 C2472.28,2011.65 2470.82,2013.93 2469.3,2016.16 C2467.67,2018.55 2466.01,2020.91 2464.47,2023.37 C2463.02,2025.71 2461.66,2028.12 2460.29,2030.51 C2458.86,2033.01 2457.42,2035.48 2456.08,2038.05 C2454.78,2040.51 2453.56,2043.04 2452.34,2045.57 C2451.08,2048.18 2449.83,2050.79 2448.65,2053.46 C2447.51,2056.05 2446.42,2058.67 2445.35,2061.31 C2444.24,2064.03 2443.16,2066.78 2442.13,2069.57 C2441.14,2072.24 2440.18,2074.94 2439.25,2077.67 C2438.28,2080.53 2437.36,2083.43 2436.45,2086.34 C2435.6,2089.08 2434.76,2091.83 2433.97,2094.61 C2433.13,2097.63 2432.33,2100.69 2431.55,2103.75 C2430.84,2106.53 2430.12,2109.29 2429.46,2112.11 C2428.72,2115.3 2428.04,2118.54 2427.36,2121.78 C2426.79,2124.54 2426.17,2127.29 2425.64,2130.09 C2424.98,2133.57 2424.4,2137.11 2423.8,2140.63 C2423.36,2143.25 2422.88,2145.85 2422.47,2148.51 C2421.76,2153.04 2421.16,2157.65 2420.56,2162.26 C2420.13,2165.5 2419.73,2168.76 2419.36,2172.03 C2418.83,2176.68 2418.29,2181.34 2417.85,2186.04 C2417.57,2188.88 2417.36,2191.75 2417.12,2194.61 C2416.81,2198.24 2416.49,2201.86 2416.22,2205.51 C2416,2208.61 2415.82,2211.74 2415.62,2214.86 C2415.41,2218.3 2415.18,2221.74 2415,2225.19 C2414.83,2228.47 2414.68,2231.75 2414.54,2235.03 C2414.44,2237.17 2414.35,2239.3 2414.27,2241.43 C2444.29,2262.7 2476.58,2280.95 2509.78,2296.66 C2517.72,2192.38 2517.92,2096 2523.33,2052.67 C2524.75,2041.36 2528.45,2030.27 2533.76,2019.46"/>
    <path fill="#102770" d="M2382.98,2919.2 C2198.3,2919.2 2066.47,2842.37 2058.9,2837.86 C2049.59,2832.31 2046.54,2820.26 2052.09,2810.95 C2057.64,2801.64 2069.68,2798.59 2079,2804.14 C2081.4,2805.56 2324.1,2946.33 2604.42,2838.79 C2726.3,2792.04 2801.63,2706.19 2828.31,2583.61 C2854.74,2462.25 2825.29,2345.82 2811.39,2301.4 C2784.73,2216.09 2834.71,2143.72 2878.82,2079.87 C2914.51,2028.19 2948.22,1979.38 2936.95,1932.43 C2929.13,1899.87 2903.06,1875.49 2863.57,1863.77 C2789.21,1841.7 2651.93,1863.73 2509.71,1998.42 C2433.6,2070.5 2432.94,2205.94 2432.29,2336.93 C2431.84,2427.94 2431.42,2513.91 2405.6,2576.89 C2338.96,2739.44 2111.93,2686.44 2102.31,2684.11 C2091.77,2681.55 2085.3,2670.94 2087.86,2660.41 C2090.41,2649.88 2101.01,2643.4 2111.54,2645.95 C2113.58,2646.45 2315.44,2693.35 2369.27,2562 C2392.2,2506.08 2392.6,2423.82 2393.03,2336.73 C2393.72,2197.5 2394.43,2053.53 2482.72,1969.91 C2549.27,1906.88 2622.69,1860.75 2695.04,1836.52 C2760.08,1814.74 2823.9,1811.05 2874.73,1826.13 C2927.46,1841.78 2964.05,1877.18 2975.12,1923.27 C2990.49,1987.26 2950.14,2045.68 2911.12,2102.18 C2868.33,2164.13 2827.91,2222.65 2848.86,2289.69 C2863.68,2337.09 2895.09,2461.43 2866.67,2591.96 C2837.41,2726.36 2751.59,2824.39 2618.48,2875.45 C2534.8,2907.55 2454.87,2919.2 2382.98,2919.2"/>
    <path fill="#BEB39B" d="M1559.72,2075.22 C1559.72,2075.22 1349.4,2582.26 1467.99,2700.83 C1531.49,2764.32 2191.65,2824.81 2255.98,2731.85 C2362.7,2577.67 2205.02,2065.07 2205.02,2065.07"/>
    <path fill="#96998F" d="M2288.87 2508.77C2288.87 2557.1 2236.87 2596.28 2172.73 2596.28 2108.59 2596.28 2056.59 2557.1 2056.59 2508.77M2148.2 2184.07C2148.2 2280.73 1987.81 2359.1 1789.97 2359.1 1592.12 2359.1 1431.74 2280.73 1431.74 2184.07 1431.74 2087.41 1592.12 2009.04 1789.97 2009.04 1987.81 2009.04 2148.2 2087.41 2148.2 2184.07"/>
    <path fill="#102770" d="M2004.5,2798.99 C1791.87,2798.99 1501.5,2762.08 1454.11,2714.72 C1399.62,2660.23 1398.38,2533.65 1450.42,2338.5 C1488.08,2197.29 1541.06,2068.98 1541.59,2067.69 C1545.75,2057.68 1557.23,2052.94 1567.24,2057.09 C1577.26,2061.24 1582.01,2072.72 1577.85,2082.74 C1520.77,2220.41 1392.24,2597.33 1481.87,2686.95 C1519,2724.07 1886.66,2776.03 2113.95,2755.5 C2214.7,2746.4 2235.78,2726.55 2239.84,2720.68 C2280.44,2662.03 2284.39,2531.92 2251.26,2344.43 C2225.71,2199.84 2186.65,2072.11 2186.26,2070.84 C2183.07,2060.48 2188.89,2049.5 2199.25,2046.31 C2209.63,2043.11 2220.6,2048.94 2223.78,2059.3 C2230.33,2080.6 2382.99,2582.85 2272.12,2743.02 C2253.44,2770.02 2202.86,2786.89 2117.48,2794.6 C2084.35,2797.59 2045.9,2798.99 2004.5,2798.99"/>
    <path fill="#F8A025" d="M2446.88,1407.78 C2446.88,1407.78 2585.56,902.188 2399.71,872.527 C2213.86,842.853 1986.16,1159.85 1986.16,1159.85"/>
    <path fill="#BEB39B" d="M2446.88,1407.78 C2446.88,1407.78 2585.56,902.188 2399.71,872.527 C2213.86,842.853 1986.16,1159.85 1986.16,1159.85"/>
    <path fill="#96998F" d="M2381.57,1366.73 C2381.57,1366.73 2482.06,1000.19 2377.49,967.382 C2272.9,934.571 2074.25,1143.12 2074.25,1143.12"/>
    <path fill="#E2D5BA" d="M2490.68,993.918 C2480.02,929.497 2453.44,881.096 2399.71,872.527 C2304.99,857.396 2199.4,932.334 2118.63,1009.45 C2113.59,1019.67 2109.21,1029.82 2105.77,1039.71 C2105.77,1039.71 2326.15,873.939 2412.54,921.727 C2498.93,969.522 2479.42,1094.03 2479.42,1094.03 C2479.42,1094.03 2489.27,1049.09 2490.68,993.918"/>
    <path fill="#FDC4DB" d="M2339.26,1354.46 C2339.26,1354.46 2459.75,1018.15 2361.06,987.196 C2262.39,956.244 2108.66,1163.78 2108.66,1163.78"/>
    <path fill="#B5A5C0" d="M2341.31,1348.6 C2348.82,1326.78 2375.17,1247.57 2389.84,1168.63 C2367.45,1174.61 2331.49,1179.41 2286.12,1168.77 C2216.94,1152.55 2223.45,1060.91 2226.06,1038.9 C2162.04,1091.76 2108.66,1163.78 2108.66,1163.78 L2334.49,1350.51 C2336.85,1349.85 2339.15,1349.21 2341.31,1348.6"/>
    <path fill="#102770" d="M2339.26,1370.82 C2337.42,1370.82 2335.54,1370.5 2333.71,1369.84 C2325.21,1366.78 2320.81,1357.4 2323.87,1348.91 C2347.57,1283.18 2402.14,1098.63 2370.5,1034.85 C2365.91,1025.59 2359.77,1019.86 2351.75,1017.35 C2279.87,994.809 2161.22,1122.63 2121.6,1173.79 C2116.07,1180.93 2105.79,1182.24 2098.65,1176.72 C2091.51,1171.19 2090.2,1160.92 2095.72,1153.77 C2111.72,1133.09 2255.05,952.746 2361.54,986.13 C2378.29,991.384 2391.17,1002.89 2399.81,1020.32 C2443.34,1108.1 2363.85,1334.48 2354.65,1360 C2352.24,1366.67 2345.96,1370.82 2339.26,1370.82"/>
    <path fill="#102770" d="M2446.89,1427.42 C2445.18,1427.42 2443.43,1427.19 2441.69,1426.71 C2431.24,1423.84 2425.08,1413.05 2427.95,1402.59 C2428.92,1399.04 2524.38,1046.13 2447.14,926.296 C2434.42,906.552 2417.89,895.304 2396.62,891.911 C2224.97,864.457 2004.31,1168.23 2002.11,1171.31 C1995.77,1180.11 1983.51,1182.11 1974.71,1175.79 C1965.91,1169.46 1963.9,1157.2 1970.22,1148.4 C1979.81,1135.06 2207.13,821.923 2402.81,853.141 C2435.28,858.325 2461.3,875.785 2480.14,905.041 C2566.82,1039.55 2469.98,1397.79 2465.81,1412.98 C2463.42,1421.69 2455.51,1427.42 2446.89,1427.42"/>
    <path fill="#102770" d="M2446.89,1427.42 C2445.18,1427.42 2443.43,1427.19 2441.69,1426.71 C2431.24,1423.84 2425.08,1413.05 2427.95,1402.59 C2428.92,1399.04 2524.38,1046.13 2447.14,926.296 C2434.42,906.552 2417.89,895.304 2396.62,891.911 C2224.97,864.457 2004.31,1168.23 2002.11,1171.31 C1995.77,1180.11 1983.51,1182.11 1974.71,1175.79 C1965.91,1169.46 1963.9,1157.2 1970.22,1148.4 C1979.81,1135.06 2207.13,821.923 2402.81,853.141 C2435.28,858.325 2461.3,875.785 2480.14,905.041 C2566.82,1039.55 2469.98,1397.79 2465.81,1412.98 C2463.42,1421.69 2455.51,1427.42 2446.89,1427.42"/>
    <path fill="#BEB39B" d="M1149.04,1365.71 C1149.04,1365.71 1033.53,854.336 1220.55,833.154 C1407.56,811.979 1620.58,1139.03 1620.58,1139.03"/>
    <path fill="#E2D5BA" d="M1115.75,1010.91 C1121.72,1016.31 1125.28,1019.43 1125.28,1019.43 C1125.28,1019.43 1157.65,878.539 1224.46,871.735 C1291.26,864.923 1483.8,1006.77 1483.8,1006.77 C1483.8,1006.77 1480.07,988.372 1474.58,961.918 C1400.36,888.949 1307.64,823.301 1220.55,833.154 C1150.43,841.09 1122.85,917.945 1115.75,1010.91"/>
    <path fill="#96998F" d="M1212.54,1302.59 C1212.54,1302.59 1110.35,941.05 1233.48,932.347 C1356.6,923.644 1520.82,1118.01 1520.82,1118.01"/>
    <path fill="#FDC4DB" d="M1250.26,1323.39 C1250.26,1323.39 1148.98,996.685 1248.96,970.25 C1348.96,943.823 1489.29,1143.42 1489.29,1143.42"/>
    <path fill="#B5A5C0" d="M1211.73,1154.11 C1224.43,1240.02 1250.26,1323.39 1250.26,1323.39 L1489.29,1143.42 C1489.29,1143.42 1451.74,1090.07 1401.66,1042.17 C1354.25,1146.99 1267.92,1159.08 1211.73,1154.11"/>
    <path fill="#102770" d="M1250.25,1339.76 C1243.27,1339.76 1236.81,1335.26 1234.63,1328.24 C1226.6,1302.32 1157.51,1072.56 1204.99,986.852 C1214.42,969.831 1227.81,958.923 1244.78,954.438 C1352.65,925.91 1487.64,1112.63 1502.67,1134.01 C1507.87,1141.4 1506.09,1151.6 1498.7,1156.8 C1491.31,1162 1481.11,1160.22 1475.92,1152.83 C1438.67,1099.92 1326.08,966.803 1253.14,986.066 C1245.01,988.215 1238.63,993.656 1233.61,1002.7 C1199.11,1064.97 1245.21,1251.82 1265.88,1318.55 C1268.55,1327.18 1263.73,1336.34 1255.1,1339.02 C1253.48,1339.52 1251.85,1339.76 1250.25,1339.76"/>
    <path fill="#102770" d="M1149.03,1385.35 C1140.06,1385.35 1131.96,1379.16 1129.9,1370.04 C1126.43,1354.68 1046,992.416 1138.71,861.982 C1158.88,833.61 1185.67,817.35 1218.35,813.649 C1415.04,791.337 1628.06,1114.55 1637.03,1128.31 C1642.94,1137.4 1640.37,1149.55 1631.29,1155.47 C1622.21,1161.39 1610.06,1158.82 1604.13,1149.74 C1602.07,1146.57 1395.75,833.041 1222.76,852.658 C1201.35,855.082 1184.33,865.568 1170.72,884.719 C1088.1,1000.92 1167.38,1357.8 1168.19,1361.39 C1170.58,1371.96 1163.94,1382.47 1153.37,1384.86 C1151.91,1385.19 1150.46,1385.35 1149.03,1385.35"/>
    <path fill="#BEB39B" d="M2511.79,1685.91 C2503.79,2037.52 2172.6,2315.15 1772.05,2306.03 C1371.51,2296.91 1053.3,2004.47 1061.31,1652.86 C1069.33,1301.25 1400.52,1023.62 1801.06,1032.74 C2201.61,1041.88 2519.81,1334.3 2511.79,1685.91"/>
    <path fill="#554A3D" d="M1146.32 1462.58C1146.32 1462.58 1229.45 1280.69 1451.94 1313.94 1674.44 1347.18 1774.4 1728.88 1430 1695.01 1085.61 1661.15 1157.79 1540.76 1146.32 1462.58M2393.2 1490.99C2393.2 1490.99 2318.44 1305.5 2094.67 1328.58 1870.9 1351.66 1753.64 1728.4 2099.22 1710.26 2444.81 1692.12 2378.19 1568.57 2393.2 1490.99"/>
    <path fill="#E2D5BA" d="M1130.93,1411.11 C1130.93,1411.11 1509.2,988.832 1976.29,1055.59 C1976.29,1055.59 1423.34,917.919 1130.93,1411.11"/>
    <path fill="#FEFEFC" d="M1979.52,1736.61 C1977.68,1817.09 1873.68,1879.99 1747.22,1877.11 C1620.75,1874.23 1519.72,1806.66 1521.55,1726.17 C1523.38,1645.7 1627.39,1582.79 1753.87,1585.68 C1880.32,1588.55 1981.35,1656.14 1979.52,1736.61"/>
    <path fill="#96998F" d="M1080.14 1810.99C1153.77 2088.17 1433.49 2298.31 1772.05 2306.03 2132.05 2314.23 2435.97 2090.77 2499.65 1790.16 2499.65 1790.16 2409.41 2065.06 1802.23 2113.71 1357.18 2149.37 1155.59 1906.2 1080.14 1810.99M1727.95 1780.1C1501.82 1780.1 1326.49 1737.26 1205.89 1652.41 1102.86 1579.91 1080.8 1503.29 1079.91 1500.07L1111.46 1491.38 1095.69 1495.72 1111.44 1491.31C1111.63 1492 1132.44 1561.75 1227.41 1627.54 1316.13 1688.98 1489.15 1759.34 1809.55 1745.59 2128.54 1731.89 2291.67 1670.58 2372.34 1621.56 2458.15 1569.42 2470.22 1520.31 2470.33 1519.82L2502.37 1526.45C2500.53 1535.59 2450.2 1750.82 1810.96 1778.27 1782.58 1779.49 1754.88 1780.1 1727.95 1780.1"/>
    <path fill="#102770" d="M1781.98,1052.15 C1401.27,1052.15 1088.57,1318.52 1080.94,1653.3 C1077.19,1817.63 1146.74,1973.93 1276.75,2093.42 C1407.49,2213.57 1583.55,2282.1 1772.5,2286.41 C1961.39,2290.74 2140.45,2230.27 2276.52,2116.2 C2411.85,2002.76 2488.43,1849.78 2492.17,1685.46 C2495.92,1521.14 2426.38,1364.84 2296.36,1245.35 C2165.63,1125.21 1989.57,1056.68 1800.61,1052.36 C1794.39,1052.22 1788.17,1052.15 1781.98,1052.15 Z M1791.36,2325.88 C1784.78,2325.88 1778.21,2325.8 1771.6,2325.65 C1573.12,2321.13 1387.94,2248.93 1250.19,2122.33 C1111.73,1995.08 1037.69,1828.2 1041.69,1652.41 C1049.94,1290.55 1390.76,1003.84 1801.51,1013.12 C2000,1017.65 2185.17,1089.86 2322.92,1216.44 C2461.38,1343.69 2535.43,1510.57 2531.42,1686.35 C2527.42,1862.14 2445.85,2025.48 2301.74,2146.29 C2163.14,2262.48 1982.56,2325.88 1791.36,2325.88 L1791.36,2325.88 Z"/>
    <path fill="#102770" d="M1996.98,1497.39 C1974.32,1514.8 1959.71,1549.7 1961.49,1589.34 C1963.99,1644.85 1997.62,1688.44 2036.6,1686.69 C2075.6,1684.94 2105.18,1638.49 2102.68,1582.99 C2101.82,1563.96 2097.24,1546.39 2090.1,1531.51 C2050.04,1528.5 2018.85,1513.07 1996.98,1497.39"/>
    <path fill="#FFF" d="M1984.58,1589.84 C1983.38,1563.14 1996.83,1540.85 2014.63,1540.04 C2032.44,1539.24 2047.83,1560.23 2049.03,1586.94 C2050.23,1613.64 2036.77,1635.93 2018.97,1636.73 C2001.18,1637.53 1985.78,1616.55 1984.58,1589.84"/>
    <path fill="#102770" d="M2126.54 1549.18C2015.44 1549.18 1962.92 1461.28 1962.37 1460.32 1959.64 1455.63 1961.23 1449.62 1965.91 1446.9 1970.6 1444.17 1976.6 1445.76 1979.32 1450.43 1981.59 1454.29 2034.97 1542.73 2152.05 1527.9 2157.38 1527.21 2162.34 1531.02 2163.02 1536.41 2163.7 1541.78 2159.89 1546.7 2154.52 1547.38 2144.82 1548.61 2135.48 1549.18 2126.54 1549.18M1493.69 1495.2C1517.07 1511.65 1533.15 1545.89 1533.04056 1585.56 1532.91 1641.13 1501.17 1686.11 1462.15 1686.01017 1423.11 1685.92 1391.58 1640.78 1391.71954 1585.22 1391.78 1566.16 1395.6 1548.43 1402.09 1533.25 1441.99 1528.55 1472.51 1511.79 1493.69 1495.2"/>
    <path fill="#FFF" d="M1510.01019,1587.05 C1510.07,1560.32 1495.67,1538.62 1477.87,1538.56997 C1460.05,1538.54 1445.55,1560.16 1445.48975,1586.89 C1445.42,1613.61 1459.81,1635.31 1477.63,1635.35009 C1495.44,1635.4 1509.94,1613.78 1510.01019,1587.05"/>
    <path fill="#102770" d="M1379.56,1544.39 C1367.78,1544.39 1355.35,1543.37 1342.27,1541.1 C1336.93,1540.18 1333.35,1535.09 1334.27,1529.75 C1335.2,1524.41 1340.29,1520.85 1345.62,1521.76 C1461.9,1541.93 1519.33,1455.9 1521.72,1452.23 C1524.67,1447.69 1530.75,1446.39 1535.29,1449.34 C1539.83,1452.28 1541.14,1458.33 1538.21,1462.88 C1537.62,1463.79 1484.3,1544.39 1379.56,1544.39"/>
    <path fill="#102770" d="M1728.51 1755.12C1502.4 1755.12 1327.05 1712.28 1206.46 1627.43 1103.42 1554.93 1081.37 1478.31 1080.48 1475.08 1078.08 1466.37 1083.2 1457.37 1091.91 1454.97 1100.59 1452.59 1109.59 1457.67 1112.01 1466.34 1112.44 1467.81 1133.54 1537.15 1227.98 1602.55 1316.71 1664.01 1489.72 1734.38 1810.13 1720.6 2129.11 1706.91 2292.23 1645.6 2372.9 1596.58 2458.72 1544.44 2470.79 1495.33 2470.9 1494.84 2472.89 1486.11 2481.54 1480.5 2490.3 1482.37 2499.05 1484.25 2504.69 1492.7 2502.94 1501.47 2501.11 1510.62 2450.76 1725.84 1811.54 1753.29 1783.15 1754.51 1755.46 1755.12 1728.51 1755.12M1720.11 2123.57C1494.01 2123.57 1318.65 2080.73 1198.06 1995.88 1095.03 1923.39 1072.98 1846.76 1072.09 1843.54 1069.69 1834.83 1074.81 1825.82 1083.52 1823.42 1092.2 1821.03 1101.19 1826.12 1103.61 1834.79 1104.01 1836.14 1125.06 1905.54 1219.59 1971.01 1308.31 2032.46 1481.33 2102.83 1801.73 2089.06 2120.71 2075.36 2283.83 2014.05 2364.51 1965.03 2450.32 1912.89 2462.39 1863.78 2462.5 1863.29 2464.49 1854.56 2473.13 1848.97 2481.9 1850.82 2490.65 1852.7 2496.29 1861.14 2494.54 1869.92 2492.71 1879.06 2442.37 2094.29 1803.13 2121.74 1774.74 2122.96 1747.06 2123.57 1720.11 2123.57"/>
    <path fill="#F2F2F2" d="M2137.25,1732.35 C2134.52,1713.39 2102.29,1680.02 2070.15,1683.01 C2033.08,1686.44 1986.84,1688.53 1955.25,1681.52 C1916.12,1672.82 1826.9,1656.86 1742.7,1656 C1655,1652.94 1566.8,1664.86 1527.32,1671.77 C1495.45,1677.34 1448.32,1673.12 1411.44,1668 C1379.46,1663.56 1345.23,1695.41 1341.64,1714.22 C1310.8,1875.55 1343.66,2045.91 1343.66,2045.91 C1343.66,2045.91 1409.95,2150.84 1675.94,2185.09 C1692.77,2187.26 1710.88,2188.59 1723.64,2189.33 L1723.64,2189.64 C1723.64,2189.62 1725.8,2189.6 1727.4,2189.59 C1728.62,2189.65 1730.02,2189.77 1730.02,2189.78 L1730.02,2189.54 C1749.16,2189.53 1763.07,2188.84 1779.72,2187.46 C2046.99,2165.36 2118.66,2063.59 2118.66,2063.59 C2118.66,2063.59 2160.73,1894.91 2137.25,1732.35"/>
    <path fill="#D6DEF1" d="M2119.6,2063.59 C2119.6,2063.59 2137.8,1988.8 2143.06,1890.85 C1767.48,2111.21 1465.27,1968.52 1328.49,1874.36 C1329.3,1971.44 1343.66,2045.91 1343.66,2045.91 C1343.66,2045.91 1409.95,2150.84 1675.94,2185.09 C1692.77,2187.26 1710.88,2188.59 1723.64,2189.33 L1723.64,2189.64 C1723.64,2189.62 1725.8,2189.6 1727.4,2189.59 C1728.62,2189.65 1730.02,2189.77 1730.02,2189.78 L1730.02,2189.54 C1749.16,2189.53 1763.07,2188.84 1779.72,2187.46 C2046.99,2165.36 2119.6,2063.59 2119.6,2063.59"/>
    <path fill="#102770" d="M1726.09,2173.16 C1726.39,2173.16 1726.69,2173.16 1726.99,2173.18 L1727,2173.18 C1727.51,2173.13 1727.97,2173.1 1728.54,2173.11 C1752.37,2173.24 1760.19,2172.58 1774.49,2171.38 L1777.61,2171.12 C2010.53,2151.86 2090.8,2070.49 2103.22,2056.16 C2108.92,2031.64 2141.98,1879.52 2121.06,1734.68 C2119.46,1723.63 2094.6,1697.16 2071.67,1699.29 C2019.31,1704.14 1978.96,1703.54 1951.71,1697.49 C1901.72,1686.37 1816.94,1673.12 1742.54,1672.35 C1644.29,1668.92 1548.38,1684.69 1530.14,1687.89 C1502.39,1692.73 1461.71,1691.49 1409.2,1684.21 C1386.55,1681.05 1359.75,1706.61 1357.71,1717.28 C1330.21,1861.11 1354.77,2014.61 1359.1,2039.37 C1370.43,2053.99 1445.52,2138.96 1677.46,2168.83 C1689.38,2170.37 1705.02,2171.52 1715.37,2172.29 C1719.23,2172.57 1722.29,2172.8 1724.04,2172.97 C1724.54,2173.01 1725.03,2173.08 1725.5,2173.17 C1725.7,2173.16 1725.91,2173.16 1726.09,2173.16 Z M1728.46,2206.08 C1727.7,2206.08 1726.95,2206.02 1726.21,2205.92 C1725.98,2205.9 1725.65,2205.87 1725.3,2205.85 C1724.32,2205.92 1723.29,2205.94 1722.2,2205.92 C1720.77,2205.89 1719.37,2205.68 1718.02,2205.29 C1716.6,2205.18 1714.88,2205.06 1712.96,2204.91 C1702.26,2204.12 1686.08,2202.93 1673.28,2201.28 C1402.74,2166.44 1332.64,2059.15 1329.79,2054.6 C1328.72,2052.89 1327.98,2050.99 1327.59,2049.01 C1326.23,2041.93 1294.5,1873.69 1325.58,1711.15 C1330.71,1684.24 1373.14,1646.17 1413.69,1651.8 C1462.15,1658.52 1500.47,1659.86 1524.51,1655.66 C1543.3,1652.37 1642.14,1636.13 1743.27,1639.65 C1819.8,1640.43 1907.28,1654.09 1958.81,1665.56 C1982.74,1670.87 2019.69,1671.26 2068.64,1666.72 C2109.68,1662.86 2149.44,1702.27 2153.44,1730.01 C2177.11,1893.89 2135.9,2060.54 2134.13,2067.56 C2133.64,2069.51 2132.79,2071.36 2131.62,2073.01 C2128.5,2077.42 2052.03,2181.26 1780.3,2203.73 L1777.21,2203.99 C1763.05,2205.17 1754.31,2205.86 1731.26,2205.84 C1730.35,2206 1729.41,2206.08 1728.46,2206.08 L1728.46,2206.08 Z"/>
    <path fill="#F2F2F2" d="M2077.73,1766.64 C2075.39,1751.18 2047.89,1723.95 2020.49,1726.35 C1988.88,1729.13 1949.49,1730.79 1922.55,1725.04 C1889.18,1717.92 1813.11,1704.83 1741.33,1704.05 C1666.58,1701.49 1591.41,1711.13 1557.75,1716.73 C1530.58,1721.24 1490.42,1717.76 1458.98,1713.56 C1431.71,1709.91 1402.56,1735.85 1399.51,1751.18 C1373.36,1882.68 1401.51,2021.59 1401.51,2021.59 C1401.51,2021.59 1457.16,2107.11 1683.93,2135.27 C1698.29,2137.04 1717.26,2138.17 1723.64,2138.68 L1723.64,2138.93 C1730.02,2139.06 1725.95,2138.91 1727.33,2138.91 C1728.35,2138.96 1730.02,2139.06 1730.02,2139.07 L1730.02,2138.88 C1749.16,2138.95 1758.67,2138.41 1772.88,2137.3 C2000.69,2119.5 2061.92,2036.63 2061.92,2036.63 C2061.92,2036.63 2097.88,1899.19 2077.73,1766.64"/>
    <path fill="#D6DEF1" d="M1388.77,1935.59 C1391.74,1999.29 1401.51,2021.59 1401.51,2021.59 C1401.51,2021.59 1457.16,2107.11 1683.93,2135.27 C1698.29,2137.04 1717.26,2138.17 1723.64,2138.68 L1723.64,2138.93 C1730.02,2139.06 1725.95,2138.91 1727.33,2138.91 C1728.35,2138.96 1730.02,2139.06 1730.02,2139.07 L1730.02,2138.88 C1749.16,2138.95 1758.67,2138.41 1772.88,2137.3 C2000.69,2119.5 2061.92,2036.63 2061.92,2036.63 C2061.92,2036.63 2073.38,2016.47 2079.81,1951.33 C1791.3,2063.47 1533.65,2016.94 1388.77,1935.59"/>
    <path fill="#102770" d="M1728.96,2125.82 C1729.18,2125.82 1729.39,2125.83 1729.61,2125.84 C1729.85,2125.85 1730.08,2125.86 1730.3,2125.88 C1730.79,2125.82 1731.22,2125.82 1731.77,2125.8 C1751.2,2125.83 1759.18,2125.31 1772.72,2124.25 C1971.75,2108.7 2039.85,2042.23 2050.36,2030.56 C2055.14,2010.51 2082.73,1886.63 2064.79,1768.61 L2064.79,1768.6 C2063.58,1760.62 2042.58,1737.53 2021.63,1739.39 C1977.17,1743.29 1942.92,1742.77 1919.82,1737.83 C1877.08,1728.72 1804.65,1717.83 1741.19,1717.14 C1657.39,1714.27 1575.48,1727.05 1559.9,1729.64 C1536.39,1733.54 1501.85,1732.49 1457.24,1726.53 C1436.04,1723.7 1413.92,1745.8 1412.35,1753.73 C1389.06,1870.83 1410.07,1995.85 1413.8,2016.15 C1423.56,2028.14 1488.07,2097.67 1686.32,2122.28 C1697.28,2123.64 1711.73,2124.63 1720.37,2125.22 C1722.79,2125.39 1724.79,2125.52 1726.19,2125.63 C1726.76,2125.68 1727.32,2125.75 1727.86,2125.87 C1728.22,2125.84 1728.59,2125.82 1728.96,2125.82 Z M1731.73,2152.16 C1731.31,2152.16 1730.89,2152.14 1730.47,2152.1 C1729.99,2152.07 1728.97,2152.01 1728.3,2151.98 L1728.31,2151.93 C1727.24,2152.01 1726.12,2152.04 1724.92,2152.01 C1723.82,2151.99 1722.75,2151.83 1721.74,2151.55 L1718.58,2151.33 C1709.67,2150.72 1694.78,2149.7 1683.1,2148.25 C1452.97,2119.68 1393.02,2032.5 1390.58,2028.8 C1389.66,2027.4 1389.02,2025.84 1388.68,2024.19 C1387.51,2018.41 1360.32,1881.18 1386.68,1748.63 C1391,1726.85 1426.63,1696.03 1460.71,1700.59 C1502.16,1706.14 1534.97,1707.26 1555.61,1703.82 C1571.61,1701.16 1655.78,1688.04 1741.78,1690.97 C1806.86,1691.68 1881.36,1702.87 1925.28,1712.24 C1945.83,1716.63 1977.47,1716.99 2019.34,1713.31 C2053.86,1710.29 2087.26,1742.22 2090.67,1764.68 C2110.98,1898.34 2076.49,2034.19 2075.02,2039.9 C2074.6,2041.51 2073.88,2043.03 2072.9,2044.37 C2070.27,2047.95 2005.89,2132.28 1774.76,2150.35 C1761.44,2151.39 1752.62,2151.97 1733.94,2151.97 C1733.22,2152.1 1732.48,2152.16 1731.73,2152.16 L1731.73,2152.16 Z"/>
    <path fill="#102770" d="M1770.77,1882.78 C1562.92,1882.78 1403.76,1821.04 1401.45,1820.13 C1396.41,1818.13 1393.95,1812.43 1395.94,1807.39 C1397.94,1802.35 1403.64,1799.87 1408.68,1801.88 C1412,1803.19 1743.65,1931.63 2072.12,1812.89 C2077.2,1811.05 2082.84,1813.68 2084.68,1818.78 C2086.53,1823.88 2083.89,1829.5 2078.79,1831.35 C1972.86,1869.64 1866.62,1882.78 1770.77,1882.78"/>
    <path fill="#102770" d="M1770.77 1882.78C1562.92 1882.78 1403.76 1821.04 1401.45 1820.13 1396.41 1818.13 1393.95 1812.43 1395.94 1807.39 1397.94 1802.35 1403.64 1799.87 1408.68 1801.88 1412 1803.19 1743.65 1931.63 2072.12 1812.89 2077.2 1811.05 2082.84 1813.68 2084.68 1818.78 2086.53 1823.88 2083.89 1829.5 2078.79 1831.35 1972.86 1869.64 1866.62 1882.78 1770.77 1882.78M1767.63 2020.17C1559.81 2020.17 1400.63 1958.43 1398.32 1957.52 1393.28 1955.52 1390.82 1949.82 1392.81 1944.78 1394.81 1939.74 1400.52 1937.26 1405.55 1939.27 1408.86 1940.58 1740.52 2069.03 2069 1950.27 2074.07 1948.42 2079.71 1951.07 2081.56 1956.16 2083.41 1961.26 2080.76 1966.89 2075.67 1968.73 1969.72 2007.03 1863.5 2020.17 1767.63 2020.17"/>
    <path fill="#BEB39B" d="M1449.65,2649.15 C1449.65,2649.15 1401.08,2838.7 1483.45,2987.73 C1483.45,2987.73 1420.71,3090.82 1498.59,3131.14 C1576.46,3171.47 1749.01,3131.68 1773.1,3086.31 C1797.17,3040.92 1758.04,2879.32 1758.04,2879.32 C1758.04,2879.32 1804.48,2740.59 1783.1,2716.95"/>
    <path fill="#96998F" d="M1755.62,2761.49 C1755.62,2761.49 1719.63,2807.29 1716.36,2859.64 C1713.09,2911.98 1755.62,3029.76 1680.37,3085.37 C1611.13,3136.55 1481.05,3063.12 1460.71,3051.06 C1456.62,3080.23 1462.46,3112.43 1498.59,3131.14 C1576.46,3171.47 1749.01,3131.68 1773.1,3086.31 C1797.17,3040.92 1758.04,2879.32 1758.04,2879.32 C1758.04,2879.32 1774.13,2831.24 1783,2786.85 L1755.62,2761.49"/>
    <path fill="#E2D5BA" d="M1467.72,2653.53 C1467.72,2653.53 1470.99,2905.44 1493.9,2977.41 C1493.9,2977.41 1399.02,2875.99 1467.72,2653.53"/>
    <path fill="#554A3D" d="M1479.55,2980.25 C1480.85,2982.74 1482.09,2985.25 1483.45,2987.73 C1483.45,2987.73 1420.71,3090.82 1498.59,3131.14 C1576.46,3171.47 1749.01,3131.68 1773.1,3086.31 C1782.1,3069.33 1782.26,3036.08 1778.94,3001.12 C1650.53,3001.87 1539.96,2989.07 1479.55,2980.25"/>
    <path fill="#443A2E" d="M1775.49,3080.78 C1775.88,3079.72 1776.24,3078.6 1776.59,3077.46 C1776.75,3076.92 1776.91,3076.4 1777.06,3075.85 C1777.48,3074.31 1777.87,3072.71 1778.21,3071.04 C1778.28,3070.72 1778.34,3070.39 1778.4,3070.07 C1778.71,3068.48 1778.99,3066.85 1779.23,3065.16 C1779.34,3064.45 1779.44,3063.72 1779.53,3062.99 C1779.7,3061.68 1779.85,3060.34 1779.99,3058.98 C1780.06,3058.22 1780.15,3057.47 1780.21,3056.69 C1780.37,3054.87 1780.5,3053 1780.6,3051.1 C1780.64,3050.43 1780.66,3049.75 1780.7,3049.08 C1780.77,3047.33 1780.83,3045.55 1780.87,3043.75 C1780.88,3042.87 1780.89,3041.98 1780.9,3041.09 C1780.91,3039.56 1780.92,3038.02 1780.91,3036.45 C1780.89,3035.59 1780.89,3034.73 1780.88,3033.85 C1780.84,3031.59 1780.79,3029.3 1780.7,3026.98 C1780.68,3026.47 1780.65,3025.94 1780.63,3025.42 C1780.55,3023.37 1780.45,3021.3 1780.33,3019.22 C1780.27,3018.33 1780.22,3017.44 1780.17,3016.55 C1780.05,3014.77 1779.92,3012.96 1779.79,3011.16 C1779.72,3010.34 1779.67,3009.54 1779.6,3008.72 C1779.4,3006.2 1779.18,3003.67 1778.94,3001.12 C1760.27,3001.23 1742.04,3001.02 1724.22,3000.61 C1720.86,3033.23 1709.39,3063.93 1680.37,3085.37 C1611.13,3136.55 1481.05,3063.12 1460.71,3051.06 C1459.73,3058.02 1459.35,3065.16 1459.77,3072.24 C1459.8,3072.62 1459.81,3072.99 1459.83,3073.36 C1459.93,3074.6 1460.08,3075.84 1460.22,3077.08 C1460.3,3077.77 1460.37,3078.48 1460.47,3079.17 C1460.63,3080.27 1460.84,3081.36 1461.05,3082.45 C1461.21,3083.27 1461.35,3084.09 1461.52,3084.91 C1461.75,3085.93 1462.03,3086.94 1462.3,3087.94 C1462.53,3088.82 1462.77,3089.7 1463.05,3090.57 C1463.34,3091.52 1463.68,3092.48 1464.02,3093.42 C1464.34,3094.32 1464.68,3095.22 1465.05,3096.11 C1465.42,3097.02 1465.82,3097.92 1466.24,3098.82 C1466.66,3099.72 1467.11,3100.63 1467.58,3101.52 C1468.03,3102.38 1468.5,3103.24 1468.99,3104.08 C1469.52,3104.99 1470.09,3105.88 1470.67,3106.77 C1471.2,3107.58 1471.74,3108.39 1472.31,3109.18 C1472.96,3110.08 1473.67,3110.96 1474.37,3111.84 C1474.98,3112.59 1475.58,3113.35 1476.23,3114.09 C1477.02,3114.97 1477.87,3115.84 1478.73,3116.71 C1479.4,3117.4 1480.07,3118.09 1480.79,3118.76 C1481.74,3119.65 1482.78,3120.51 1483.82,3121.36 C1484.55,3121.97 1485.24,3122.59 1486.01,3123.19 C1487.22,3124.12 1488.55,3125 1489.86,3125.9 C1490.56,3126.37 1491.21,3126.86 1491.94,3127.32 C1494.04,3128.65 1496.25,3129.93 1498.59,3131.14 C1576.46,3171.47 1749.01,3131.68 1773.1,3086.31 C1773.78,3085.04 1774.39,3083.65 1774.96,3082.2 C1775.14,3081.74 1775.32,3081.26 1775.49,3080.78"/>
    <path fill="#102770" d="M1585.28,3167.42001 C1549.09,3167.43 1515.01,3161.75 1489.56,3148.57 C1465.71,3136.22 1450.23,3117.85 1443.53,3093.96 C1432.06,3053.01 1451.13,3007.48 1461.17,2987.62 C1383.24,2834.72 1436.97,2643.19 1439.35,2634.95 C1442.35,2624.53 1453.23,2618.52 1463.64,2621.52 C1474.05,2624.52 1480.07,2635.39 1477.08,2645.8 C1476.53,2647.71 1423.27,2838.28 1500.63,2978.24 C1504.04,2984.4 1503.88,2991.92 1500.22,2997.94 C1492.08,3011.41 1472.8,3053.11 1481.36,3083.46 C1485.07,3096.58 1493.65,3106.48 1507.61,3113.71 C1580.24,3151.32 1739.31,3108.08 1755.77,3077.1 C1769.94,3050.38 1754.47,2948.06 1738.96,2883.94 C1737.91,2879.6 1738.38,2875.03 1740.27,2870.99 C1758.43,2832.23 1770.33,2786.64 1764.75,2777.17 C1757.48,2769.13 1758.22,2756.87 1766.27,2749.59 C1774.31,2742.32 1786.84,2743.1 1794.11,2751.14 C1819.62,2779.34 1794,2847.42 1778.7,2881.37 C1787.85,2920.62 1815.02,3049.18 1790.44,3095.51 C1769.34,3135.24 1671.4,3167.42001 1585.28,3167.42001"/>
    <path fill="#BEB39B" d="M1892.85,2634.02 C1892.85,2634.02 1835.72,2832.36 1918.09,2981.37 C1918.09,2981.37 1855.35,3084.45 1933.24,3124.8 C2011.1,3165.11 2183.65,3125.33 2207.72,3079.94 C2231.82,3034.56 2175.36,2883.29 2175.36,2883.29 C2175.36,2883.29 2260.92,2752.16 2258.11,2695.6 C2255.29,2639.02 1892.85,2634.02 1892.85,2634.02"/>
    <path fill="#96998F" d="M2258.11,2695.6 C2257.55,2684.21 2349.4,2468.69 2218.54,2540.67 C2211.62,2557.37 2259.26,2582.06 2251.25,2612.64 C2226.73,2706.21 2145.05,2844.05 2138.38,2889.08 C2125.3,2977.41 2203.81,3023.21 2108.94,3075.56 C2014.07,3127.9 1902.83,3049.38 1902.83,3049.38 C1902.83,3049.38 1899.6,3052.95 1894.25,3059.05 C1893.98,3083.95 1902.96,3109.12 1933.24,3124.8 C2011.1,3165.11 2183.65,3125.33 2207.72,3079.94 C2231.82,3034.56 2175.36,2883.29 2175.36,2883.29 C2175.36,2883.29 2260.92,2752.16 2258.11,2695.6"/>
    <path fill="#554A3D" d="M2207.72,3079.94 C2222.37,3052.36 2207.28,2985.74 2193.17,2937.66 C2102.79,2969.96 2005.13,2987.26 1910.8,2995.3 C1896.89,3024.81 1872.96,3093.58 1933.24,3124.8 C2011.1,3165.11 2183.65,3125.33 2207.72,3079.94"/>
    <path fill="#443A2E" d="M2210.52,3072.89 C2210.92,3071.58 2211.3,3070.25 2211.62,3068.84 C2211.8,3068.07 2211.95,3067.26 2212.11,3066.46 C2212.37,3065.08 2212.59,3063.65 2212.78,3062.19 C2212.9,3061.34 2213.01,3060.5 2213.1,3059.63 C2213.27,3058 2213.38,3056.32 2213.48,3054.61 C2213.53,3053.84 2213.59,3053.1 2213.61,3052.32 C2213.69964,3049.86 2213.72,3047.33 2213.68,3044.73 C2213.67,3043.95 2213.61,3043.14 2213.59,3042.35 C2213.53,3040.44 2213.45,3038.51 2213.32,3036.53 C2213.25,3035.4 2213.15,3034.25 2213.07,3033.1 C2212.92,3031.39 2212.78,3029.67 2212.6,3027.93 C2212.48,3026.7 2212.34,3025.47 2212.2,3024.22 C2212,3022.47 2211.77,3020.7 2211.53,3018.91 C2211.37,3017.7 2211.21,3016.48 2211.03,3015.25 C2210.73,3013.17 2210.39,3011.06 2210.05,3008.94 C2209.9,3008.02 2209.76,3007.1 2209.6,3006.17 C2209.09,3003.21 2208.54,3000.23 2207.97,2997.23 C2207.74,2996.08 2207.49,2994.93 2207.26,2993.78 C2206.87,2991.8 2206.46,2989.82 2206.04,2987.84 C2205.77,2986.57 2205.49,2985.3 2205.21,2984.04 C2204.78,2982.12 2204.35,2980.21 2203.91,2978.3 C2203.63,2977.1 2203.35,2975.9 2203.06,2974.7 C2202.55,2972.57 2202.04,2970.45 2201.51,2968.34 C2201.28,2967.41 2201.05,2966.47 2200.81,2965.55 C2199.24,2959.33 2197.6,2953.22 2195.93,2947.32 C2195.79,2946.78 2195.63,2946.26 2195.49,2945.73 C2194.78,2943.23 2194.07,2940.76 2193.37,2938.35 C2193.3,2938.11 2193.23,2937.89 2193.17,2937.66 C2176.67,2943.56 2159.88,2948.79 2142.97,2953.72 C2155.49,3003.27 2177.54,3037.71 2108.94,3075.56 C2014.07,3127.9 1902.83,3049.38 1902.83,3049.38 C1902.83,3049.38 1899.6,3052.95 1894.25,3059.05 C1894,3082.18 1901.76,3105.52 1927.11,3121.29 C1927.36,3121.44 1927.57,3121.6 1927.82,3121.75 C1929.54,3122.8 1931.35,3123.82 1933.24,3124.8 C2011.1,3165.11 2183.65,3125.33 2207.72,3079.94 C2208.57,3078.35 2209.29,3076.6 2209.95,3074.76 C2210.16,3074.16 2210.33,3073.51 2210.52,3072.89"/>
    <path fill="#102770" d="M2019.91,3161.08 C1983.75,3161.08 1949.66,3155.4 1924.21,3142.23 C1900.35,3129.87 1884.87,3111.49 1878.18,3087.6 C1866.71,3046.65 1885.78,3001.11 1895.81,2981.26 C1817.88,2828.37 1871.62,2636.84 1873.99,2628.59 C1877,2618.17 1887.88,2612.17 1898.29,2615.16 C1908.7,2618.16 1914.71,2629.03 1911.72,2639.45 C1911.17,2641.35 1857.91,2831.94 1935.27,2971.87 C1938.68,2978.03 1938.52,2985.55 1934.86,2991.57 C1926.73,3005.05 1907.44,3046.75 1916,3077.1 C1919.71,3090.23 1928.3,3100.13 1942.26,3107.37 C2014.88,3144.97 2173.96,3101.73 2190.38,3070.74 C2204.13,3044.85 2179.12,2949.55 2156.97,2890.15 C2154.94,2884.72 2155.42,2878.67 2158.27,2873.63 C2202.16,2795.92 2271.11,2658.83 2269.27,2621.79 C2268.73,2610.96 2277.08,2601.75 2287.9,2601.21 C2298.81,2600.65 2307.95,2609.02 2308.48,2619.85 C2311.24,2675.49 2223.96,2836.53 2196.89,2885.03 C2211.08,2924.64 2249.74,3042.67 2225.06,3089.15 C2203.99,3128.88 2106.05,3161.08 2019.91,3161.08"/>
    <path fill="#BEB39B" d="M1616.18,2244.29 C1616.18,2244.29 1598.46,2609.21 1337.88,2505.25 C1184.6,2444.09 1361.02,2146.49 1458.08,2083.02 C1458.08,2083.02 1417.38,1993.24 1511.09,1981.85 C1604.79,1970.46 1669.57,2137.33 1616.18,2244.29"/>
    <path fill="#E2D5BA" d="M1294.33,2431.07 C1294.33,2431.07 1369.58,2221.69 1454.64,2103.92 C1454.64,2103.92 1274.7,2244.59 1294.33,2431.07"/>
    <path fill="#96998F" d="M1615.95,2247.8 C1611.61,2233.33 1608.4,2224.96 1608.4,2224.96 C1608.4,2224.96 1556.05,2414.71 1467.72,2470.33 C1379.39,2525.94 1281.25,2417.98 1281.25,2417.98 C1281.83,2429.33 1283.25,2441.34 1285.45,2453.68 C1294.25,2476.46 1310.97,2494.51 1337.88,2505.25 C1583.48,2603.23 1613.33,2284.75 1615.95,2247.8"/>
    <path fill="#554A3D" d="M1511.09,1981.85 C1417.38,1993.24 1458.08,2083.02 1458.08,2083.02 C1454.16,2085.58 1450.11,2088.56 1445.95,2091.85 C1464.47,2133.38 1513.47,2207.48 1628.25,2212.42 C1656.99,2107.27 1595.91,1971.54 1511.09,1981.85"/>
    <path fill="#102770" d="M1520.08,2000.93 C1517.92,2000.93 1515.71,2001.06 1513.46,2001.33 C1493.13,2003.81 1479.7,2010.55 1473.56,2021.38 C1463.72,2038.73 1471.98,2065.95 1475.99,2074.98 C1479.9,2083.77 1476.88,2094.18 1468.83,2099.45 C1397.13,2146.32 1287.79,2319.64 1297.97,2421.39 C1301.25,2454.19 1316.69,2475.66 1345.15,2487.01 C1404.19,2510.57 1453.87,2509.84 1492.8,2484.84 C1586.5,2424.69 1596.48,2245.13 1596.57,2243.32 C1596.71,2240.61 1597.4,2237.95 1598.62,2235.52 C1631.13,2170.37 1613.94,2085.98 1581.25,2039.65 C1570.73,2024.74 1549.35,2000.93 1520.08,2000.93 Z M1424.59,2543.55 C1395.53,2543.55 1364.15,2536.86 1330.6,2523.48 C1288.44,2506.65 1263.65,2472.7 1258.91,2425.29 C1247.52,2311.52 1354.32,2138.44 1434.66,2075.71 C1429.5,2057.89 1424.75,2028.09 1439.28,2002.24 C1451.87,1979.85 1475.24,1966.43 1508.72,1962.36 C1547.98,1957.6 1585.1,1977 1613.33,2017.01 C1652.94,2073.16 1672.87,2170.37 1635.53,2249.36 C1633.49,2279.08 1617.26,2451.5 1514.1,2517.82 C1487.43,2534.97 1457.5,2543.55 1424.59,2543.55 L1424.59,2543.55 Z"/>
    <path fill="#FEFEFC" d="M2076.38,2594.19 C2070.81,2705.35 1958.21,2790.05 1824.86,2783.38 C1691.51,2776.71 1587.94,2681.17 1593.51,2570.02 C1599.06,2458.86 1711.67,2374.15 1845.01,2380.83 C1978.35,2387.51 2081.94,2483.03 2076.38,2594.19"/>
    <path fill="#D6DEF1" d="M2059.25,2660.53 C1843.87,2806.45 1670.49,2702.46 1612.69,2657.95 C1648.17,2727.63 1728.78,2778.57 1824.86,2783.38 C1930.01,2788.64 2022.21,2737.06 2059.25,2660.53"/>
    <path fill="#102770" d="M1840.13,2801.34 C1734.98,2801.34 1671.49,2769.77 1667.86,2767.92 C1658.21,2762.99 1654.38,2751.17 1659.3,2741.52 C1664.23,2731.87 1676.02,2728.05 1685.67,2732.93 C1686.77,2733.49 1798.61,2788.3 1970.07,2745.58 C1980.58,2742.97 1991.24,2749.36 1993.86,2759.88 C1996.48,2770.4 1990.08,2781.05 1979.56,2783.68 C1927.58,2796.63 1880.74,2801.34 1840.13,2801.34"/>
    <path fill="#E2D5BA" d="M1506.97,1176.89 C1516.39,1201.6 1491.98,1233.82 1452.48,1248.89 C1412.96,1263.95 1373.29,1256.14 1363.88,1231.45 C1354.47,1206.75 1378.87,1174.52 1418.38,1159.45 C1457.9,1144.39 1497.56,1152.2 1506.97,1176.89"/>
    <path fill="#BEB39B" d="M1964.33,2324.91 C1964.33,2324.91 2061.57,2677.09 2293.05,2518.57 C2429.2,2425.33 2191.88,2173.59 2083.27,2132.93 C2083.27,2132.93 2103.32,2036.41 2009.39,2045.83 C1915.47,2055.24 1888.83,2232.25 1964.33,2324.91"/>
    <path fill="#96998F" d="M2293.17,2325.97 L2279.06,2316.57 C2337.95,2414.71 2298.69,2499.77 2180.91,2509.59 C2063.14,2519.4 1974.81,2319.84 1974.81,2319.84 L1970.69,2344.82 C1995.64,2416.97 2095.39,2653.93 2293.05,2518.57 C2355.48,2475.82 2339.36,2399.74 2293.17,2325.97"/>
    <path fill="#554A3D" d="M2104.52,2142.67 C2097.04,2138.7 2089.91,2135.41 2083.27,2132.93 C2083.27,2132.93 2103.32,2036.41 2009.39,2045.83 C1931.06,2053.68 1899.6,2178.04 1935.06,2272.89 C2044.22,2270.61 2087.47,2197.34 2104.52,2142.67"/>
    <path fill="#102770" d="M1983.25 2319.68C1983.73 2321.42 2032.81 2494.43 2137.4 2532.6 2180.88 2548.47 2229.51 2538.29 2281.96 2502.37 2307.25 2485.06 2317.6 2460.73 2313.62 2428.01 2301.27 2326.51 2156.61 2181.35 2076.39 2151.31 2067.32 2147.91 2062.09 2138.41 2064.05 2128.93 2065.98 2119.32 2068.07 2090.95 2054.67 2076.18 2046.3 2066.96 2031.73 2063.3 2011.34 2065.36 1978.61 2068.64 1961.11 2099.49 1953.6 2117.58 1931.85 2169.95 1933.56 2256.06 1979.55 2312.51 1981.27 2314.62 1982.53 2317.06 1983.25 2319.68zM2178.9 2579.25C2160.12 2579.25 2141.76 2575.99 2123.85 2569.44 2008.66 2527.33 1955.07 2362.65 1946.56 2334.1 1892.83 2265.2 1890.99 2165.98 1917.34 2102.53 1936.12 2057.31 1968.11 2030.24 2007.43 2026.3 2041.02 2022.92 2066.74 2030.91 2083.92 2049.99 2103.76 2072.03 2105.66 2102.15 2104.52 2120.66 2196.66 2164.27 2338.78 2309.76 2352.59 2423.27 2358.35 2470.56 2341.59 2509.12 2304.15 2534.76 2260.89 2564.39 2218.96 2579.25 2178.9 2579.25L2178.9 2579.25zM2020.61 3150.81C2015.26 3150.81 2010.24 3147.5 2008.31 3142.19 1992.56 3098.87 2035.68 3055.06 2037.53 3053.22 2042.63 3048.1 2050.92 3048.1 2056.03 3053.22 2061.14 3058.32 2061.14 3066.6 2056.05 3071.71 2046.78 3081.05 2024.57 3110.31 2032.91 3133.24 2035.37 3140.04 2031.87 3147.55 2025.08 3150.01 2023.61 3150.55 2022.09 3150.8 2020.61 3150.81M1955.18 3137.72C1950.1 3137.72 1945.28 3134.75 1943.15 3129.78 1920.09 3075.99 1957.89 3041.11 1959.51 3039.66 1964.88 3034.82 1973.16 3035.26 1977.99 3040.63 1982.8 3045.98 1982.39 3054.21 1977.08 3059.05 1975.93 3060.13 1951.71 3083.32 1967.2 3119.48 1970.05 3126.12 1966.97 3133.81 1960.33 3136.66 1958.65 3137.38 1956.9 3137.72 1955.18 3137.72M1585.5 3144.26C1579.87 3144.26 1574.67 3140.6 1572.97 3134.93 1561.06 3095.26 1610.51 3050.96 1616.19 3046.04 1621.65 3041.31 1629.91 3041.89 1634.65 3047.36 1639.38 3052.82 1638.79 3061.08 1633.33 3065.82 1622.25 3075.46 1592.04 3107.43 1598.03 3127.41 1600.11 3134.34 1596.18 3141.63 1589.26 3143.71 1588 3144.08 1586.74 3144.26 1585.5 3144.26M1513.52 3124.63002C1508.18 3124.64 1503.16 3121.33 1501.22 3116.02 1485.63 3073.14 1518.74 3035.66 1520.15 3034.09 1524.98 3028.71 1533.26 3028.28 1538.63 3033.11 1544 3037.94 1544.44 3046.19 1539.64 3051.56 1539.21 3052.05 1515.69 3079.21 1525.82 3107.07 1528.29 3113.86 1524.79 3121.37 1518 3123.84 1516.52 3124.38 1515.01 3124.63002 1513.52 3124.63002"/>
    <path fill="#102770" d="M2014.08 2133.36C2013.6 2133.36 2013.11 2133.34 2012.62 2133.28 2005.44 2132.48 2000.26 2126.01 2001.06 2118.83 2003.27 2098.89 1975.33 2082.83 1975.05 2082.67 1968.74 2079.18 1966.43 2071.23 1969.9 2064.91 1973.38 2058.59 1981.29 2056.26 1987.61 2059.71 1989.4 2060.69 2031.26 2083.98 2027.07 2121.72 2026.33 2128.41 2020.66 2133.36 2014.08 2133.36M1529.89 2067.93C1525.99 2067.93 1522.13 2066.2 1519.55 2062.88 1496.86 2033.7 1507.12 2001.6 1515.72 1988.7 1519.73 1982.69 1527.86 1981.07 1533.87 1985.07 1539.86 1989.06 1541.49 1997.13 1537.55 2003.14 1536.07 2005.45 1523.89 2025.83 1540.21 2046.81 1544.65 2052.52 1543.62 2060.74 1537.91 2065.18 1535.52 2067.03 1532.7 2067.93 1529.89 2067.93M2066.4 2228.24C2063.79 2228.24 2061.15 2227.46 2058.86 2225.84 2052.97 2221.68 2051.55 2213.54 2055.7 2207.63 2056.05 2207.12 2090.71 2156.41 2070.41 2098.43 2068.02 2091.61 2071.62 2084.14 2078.44 2081.75 2085.27 2079.37 2092.73 2082.96 2095.12 2089.78 2119.96 2160.76 2078.86 2220.2 2077.1 2222.7 2074.55 2226.31 2070.5 2228.24 2066.4 2228.24"/>
  </g>
</svg>
