<svg xmlns="http://www.w3.org/2000/svg" width="129" height="152" viewBox="0 0 129 152">
  <g fill="none" fill-rule="evenodd" transform="translate(.101 .767)">
    <path fill="#1A1919" d="M30.1528798,1.38976258 C32.2126927,0.169036235 34.6326808,-0.0963681225 36.8988643,0.647031489 C35.5606998,0.699844951 34.1693202,0.912435847 33.0368774,1.7079804 C31.3365908,2.50352494 29.947807,3.77639622 28.5564275,5.05060455 C27.4233357,6.27066237 26.3421611,7.43790672 24.8988643,8.23345127 C25.414791,6.85361602 26.3934292,5.73985365 27.216965,4.51912731 C27.7322427,3.98965564 28.2987886,3.45884693 28.7615002,2.92736969 C29.2774269,2.39789802 29.7414364,1.91990277 30.1528798,1.38976258"/>
    <path fill="#1A1919" d="M32.8988643 1.23345127C33.9461576.483608799 35.2329178.283230728 36.4704644.23345127 36.9469978.383419764 37.4229311.533388258 37.8988643.733766329 36.2796109 1.18367181 34.5661311 1.23345127 32.8988643 1.23345127M32.202912 1.76502387C33.9347551 1.76502387 35.7146011 1.71206771 37.396571 1.23345127 37.5948166 1.28707776 37.9913076 1.44594624 38.1889298 1.4989024 39.3765327 2.19068414 40.6620117 2.72225674 41.8988643 3.41336815 40.5628889 4.58376633 39.0791644 3.25449967 37.5948166 3.36041199 37.1989489 3.20154351 36.8037047 3.04133436 36.407837 2.88179555 34.9733622 2.61567409 33.1423964 1.97751884 31.7079216 2.88179555 30.2241972 3.67948961 29.1843432 5.11667958 27.948114 6.23345127 27.948114 5.96732981 27.948114 5.43508688 27.8988643 5.11667958 29.2354631 3.83902842 30.5695683 2.56271793 32.202912 1.76502387"/>
    <path fill="#3F4643" d="M31.8988643,3.06461364 C33.4249288,1.71561364 35.3727998,2.66761364 36.8988643,3.06461364 C35.2673482,3.06461364 33.5827746,3.14461364 31.8988643,3.06461364"/>
    <path fill="#1A1919" d="M28.6405608,5.37330014 C29.9019244,4.3271025 30.9629202,2.9807353 32.476811,2.23345127 C34.0918398,2.28368885 35.7075048,2.23345127 37.2722827,2.23345127 C37.6761989,2.38290808 38.0794791,2.53299285 38.4833953,2.68182169 C43.2795032,5.37330014 48.6805312,7.16678181 52.8195595,10.8046107 C53.2743629,11.0539147 53.727894,11.3032187 54.1820613,11.4526755 C54.7373666,11.6523699 55.2920358,11.8018267 55.8988643,11.9016739 C55.7468391,12.1007403 55.444061,12.5491107 55.2920358,12.7488051 C54.2323123,12.7984147 53.2228397,12.8486523 52.1631161,12.9478715 C49.8407568,12.1516059 48.478255,9.80802268 46.2576698,8.81206262 C42.1682564,6.46973536 37.827588,3.08121046 32.7795891,3.9779513 C28.8428369,5.92214572 27.5299501,10.6564098 26.1674484,14.39283 C26.1165613,16.2867868 25.7635322,18.3804381 26.6718667,20.1739197 C27.4294481,20.0740725 28.1863935,19.8743782 28.9935899,19.8253965 C29.8014224,20.3227486 29.6500333,21.3695742 29.4992803,22.1174862 C26.6718667,24.8579463 23.7954741,27.4991871 21.6245038,30.7884928 C21.5736168,30.4889512 21.4731148,29.9413616 21.4731148,29.6920576 C20.5138932,30.4399696 19.8580859,31.4365576 18.9484792,32.2334513 C18.9484792,31.9345377 18.9484792,31.4365576 18.8988643,31.1866257 C19.7563117,30.0412088 20.6150313,28.894536 21.5240018,27.7987287 C22.2809472,27.1996456 23.0378926,26.6018183 23.694336,25.8545343 C23.7954741,25.6052303 24.0982523,25.1066223 24.1987543,24.8579463 C24.1987543,22.5149911 24.8043106,20.0244629 24.0473652,17.7311173 C24.1987543,16.2365493 24.5015324,14.7915908 24.6026705,13.2970227 C25.0568378,12.1516059 25.410503,11.0043051 25.6623941,9.85826026 C26.5707286,8.31282665 27.4796991,6.71841139 28.6405608,5.37330014"/>
    <path fill="#1A1919" d="M37.8988643 3.23905373C39.3675166 3.14140279 40.835552 4.3669838 42.1574007 3.28787919 42.35355 3.3373227 42.6965028 3.38676621 42.892652 3.43559168 43.6747818 3.97514398 44.4581453 4.51469629 45.2902376 4.95659766 47.5428701 6.42816013 50.136605 7.55547216 51.8988643 9.66423787 51.8489018 10.0573138 51.8007897 10.8416115 51.8007897 11.2334513 47.7871315 7.65312309 42.5496992 5.88798978 37.8988643 3.23905373M76.9694181 4.6988004C78.4491838 3.8209487 80.1240152 3.18697883 81.8988643 3.23612378 81.4062303 3.77303238 80.863898 4.21042244 80.3209445 4.6988004 80.1737134 4.79647599 79.8780088 5.0397435 79.7792335 5.18533542 79.3350553 5.33215596 78.8914983 5.52750714 78.3988643 5.67248475 77.1663475 5.96612583 76.2786123 7.13516137 74.8988643 7.23345127 75.4405754 6.25915261 76.2786123 5.52750714 76.9694181 4.6988004"/>
    <path fill="#1A1919" d="M82.4412964,2.4690941 C82.7303506,2.40981288 83.3570395,2.29199147 83.6946742,2.23345127 C83.9837284,2.40981288 84.6104174,2.70399592 84.8988643,2.88035753 C83.9357552,3.05746016 83.020012,3.46872359 82.2002155,4.11488884 C81.910554,4.17417005 81.2371063,4.17417005 80.8988643,4.23345127 C81.4296067,3.64434419 81.9597418,3.11674138 82.4412964,2.4690941"/>
    <path fill="#1A1919" d="M81.8988643,4.14827948 C82.8073974,3.66944983 83.8222625,3.36469013 84.8896206,3.23345127 C85.0504646,4.75834799 83.0745734,4.06151906 81.8988643,4.14827948"/>
    <path fill="#1A1919" d="M84.4999394,3.23345127 C84.7941763,3.29380268 85.4301474,3.41603339 85.7250011,3.47714875 C86.1154664,3.84002117 86.5071653,4.14330612 86.8988643,4.50617854 C84.6473663,5.29533057 82.2490582,5.1738638 79.8988643,5.23345127 C79.9969433,5.05239703 80.2905633,4.74987602 80.4367565,4.62840925 C80.7803412,4.5672939 81.4644265,4.5672939 81.7586634,4.50617854 C82.8362982,4.38547572 84.6473663,5.35491804 84.4999394,3.23345127"/>
    <path fill="#FEFDFC" d="M31.8248615,4.38210357 C36.8629199,3.4785712 41.1950407,6.89275936 45.2764013,9.25282642 C47.4926137,10.2563295 48.8524324,12.617662 51.1702186,13.4199582 C53.2353401,13.9723278 55.4026702,13.6717831 57.4671568,13.6717831 C62.4550632,13.9217098 67.2912437,15.1770376 72.0772723,16.3330276 C70.9688486,16.5329689 69.9112119,16.8341464 68.8021534,17.1353239 C65.7796992,18.039489 62.2538202,19.1942135 60.8933666,22.3072242 C58.5254284,25.2696461 60.4394589,29.2362039 62.7572451,31.4956675 C65.4775173,33.7551312 69.0033964,34.4580895 72.4302411,35.0104591 C72.1267895,38.2234405 71.3713347,41.6382614 73.4377258,44.4500946 C77.2156348,49.3201847 85.679903,47.9648862 88.4998445,42.7929859 C88.9036002,42.0400422 89.7599939,40.6347583 90.2139017,39.8811819 C93.1855689,41.588276 96.0074149,44.1989025 99.6850198,43.897725 C104.520566,44.6506687 108.95426,40.1317413 108.248957,35.3622546 C107.744898,32.2985965 105.629624,29.8891769 103.814628,27.4784917 C105.78008,26.524974 107.593172,25.1696755 108.753017,23.3119927 C109.961745,21.3530737 109.658928,18.9423886 109.256442,16.7841611 C112.127805,15.8806287 114.54653,18.039489 114.898864,20.7007335 C114.847443,23.2613746 114.747773,25.8726338 114.898864,28.4332749 C113.89138,33.9057199 112.782321,39.3281796 111.019382,44.6006833 C110.767352,47.4125166 112.026866,50.0237758 112.480774,52.784991 C112.329048,55.1944106 112.278896,57.6550811 112.379835,60.0657662 C112.228744,60.2157222 111.977349,60.467547 111.87641,60.5681504 C109.910958,60.4162963 107.996293,60.5175324 106.082262,60.8187098 C105.225233,60.9186805 104.11808,61.8228456 105.075412,62.6264073 C106.585687,64.7346495 110.061414,62.2746118 111.724684,64.0816766 C111.321564,66.2917876 110.667048,68.4500151 109.609411,70.4083014 C108.097232,70.6107736 105.78008,69.2535769 104.872265,71.1118924 C104.872265,72.6683977 108.4502,72.4172056 107.593172,74.3754918 C106.5349,75.9819825 105.427111,77.5884732 104.067293,78.9450372 C102.252931,79.4980395 100.440475,77.6390913 98.7264175,78.6438598 C98.3239314,80.1503798 100.036719,80.9033234 100.742657,82.0080626 C95.3516293,86.4263865 88.3493884,87.3799042 81.6994814,88.2334513 C79.7352988,88.1328479 77.8206335,88.0335099 75.9053333,88.2334513 C62.0519423,87.2799336 48.2982206,83.9157307 35.7037094,78.0408721 C33.1859498,76.6849408 30.6161338,75.1790535 28.8030422,72.8689718 C27.7949226,71.0612743 28.7014684,68.6012366 27.038833,67.0947166 C25.0740156,64.7852676 21.9506225,64.7346495 19.2303503,65.3382699 C17.8705316,63.2287622 16.8630469,60.9186805 16.1577441,58.5086281 C17.3156849,57.403889 19.1300462,58.2074507 20.5914386,57.9069059 C20.5914386,57.2533002 20.5914386,56.6509453 20.5406518,56.0485904 C18.9288032,55.6468095 17.2661677,55.5961915 15.6530495,55.3462648 C15.0493204,54.291511 15.0493204,53.1367865 14.9483815,51.9814292 C14.9483815,51.0778969 14.8988643,49.2202141 14.8988643,48.316049 C17.1150768,47.2113098 19.2811372,48.8690513 21.4973496,48.8690513 C22.6559253,48.0648568 22.1023483,46.4083808 20.7418948,46.2078068 C19.1300462,45.1030676 14.8988643,45.8060259 15.5527454,42.8935893 C16.8630469,38.9270315 18.4253782,34.959841 20.6917427,31.3956969 C22.858438,28.0814794 25.7291663,25.4202349 28.5510123,22.6590197 C28.7014684,21.9054433 28.8525594,20.8506895 28.0463177,20.3495707 C27.2407108,20.3989233 26.485256,20.6001301 25.7291663,20.7007335 C24.8226205,18.8936687 25.1749545,16.7841611 25.2257414,14.8758602 C26.5855601,11.111142 27.8958615,6.34102251 31.8248615,4.38210357"/>
    <path fill="#1A1919" d="M24.5950142 7.3708483C25.8807119 6.58666379 26.843829 5.43608718 27.8531943 4.23345127 27.8988643 4.5464661 27.8988643 5.06969509 27.8988643 5.33130959 26.843829 6.74284171 26.017722 8.41598834 25.192193 10.0377346 24.5042522 10.9266967 24.0452396 12.1293327 22.8988643 12.2334513 23.2653807 10.5603046 23.9076515 8.93987631 24.5950142 7.3708483M80.4014354 4.87152097C82.7696334 4.81924215 85.1863142 4.92581052 87.4550603 4.23345127L87.8988643 4.28707057 87.8503815 4.71267379C87.2573997 6.84068988 85.1863142 5.0846577 83.8051761 5.61749953 81.1417303 5.24484537 78.724428 6.73412151 77.5900549 9.23345127 77.4414987 9.02098478 77.1959768 8.64833063 77.0965249 8.43586414L76.8988643 7.95731186C77.6391593 7.10610542 78.3297283 6.30851829 79.0202973 5.40302232 79.5132057 5.24484537 79.9570098 5.03170864 80.4014354 4.87152097"/>
    <path fill="#242726" d="M82.8988643,6.1786088 C84.4044884,5.62201603 86.6622469,7.45632175 87.3086759,5.23345127 C87.4692668,5.34476982 87.7375958,5.62201603 87.8988643,5.78934392 C87.4157365,6.62318289 86.8777232,7.51093085 86.1791191,8.23345127 C85.2108307,7.40031241 84.0819515,6.73310121 82.8988643,6.1786088"/>
    <path fill="#1A1919" d="M74.5181262,6.88954512 C75.8508595,6.7852653 76.7083453,5.54498722 77.8988643,5.23345127 C77.2321976,6.11396398 76.565531,6.88954512 75.8508595,7.71726617 L75.5184263,7.92321881 C74.9945739,8.02749863 74.4713216,8.1311267 73.8988643,8.23345127 C74.0896834,7.76875433 74.2799024,7.30340565 74.5181262,6.88954512"/>
    <path fill="#222020" d="M86.8988643,7.40604747 C87.5365634,6.76379045 88.0276721,5.97466069 88.4686803,5.23345127 C89.3525523,6.02258103 90.0892153,6.91190786 90.8735048,7.85039972 C91.31575,9.43052626 92.5923853,10.9621101 92.15014,12.6903541 C92.0035496,13.3326111 91.8557222,13.9742458 91.8557222,14.6656678 C92.5923853,14.7646202 94.1628198,15.01169 94.8988643,15.1100201 C93.5251207,15.9495596 92.0524131,16.739934 90.4819786,17.2334513 C89.744697,13.8267507 89.2548253,10.1225707 86.8988643,7.40604747"/>
    <path fill="#DD6690" d="M76.6428966,9.69920389 C77.8072541,7.34075294 80.2884521,5.93542228 83.0222998,6.28707118 C84.136255,6.78798111 85.1991699,7.39071744 86.1108778,8.14334727 C88.5410355,10.9040441 89.0463347,14.6684582 89.8068356,18.1305554 C91.4267281,17.629013 92.9458159,16.8257862 94.3628231,15.9725949 C95.4767783,15.6215785 96.6417738,15.2699296 97.8054933,15.0700716 C99.1727362,15.0700716 100.591019,15.0188421 101.957624,14.9688776 C102.970137,15.1200361 103.831442,15.6215785 104.742512,16.0225594 C106.109755,17.478487 107.677969,19.6870445 106.462571,21.6445145 C105.349892,24.5551048 101.907222,25.3583316 99.4770641,26.8642237 C98.1602236,27.1652757 99.0712935,29.3232361 100.337094,29.1733426 C102.970137,31.1801447 105.806065,34.041403 105.399656,37.6546586 C104.944121,39.4116382 103.425034,40.4653199 101.907222,41.2685467 C100.995514,41.3191437 99.1727362,41.3691082 98.2119019,41.3691082 C94.8700364,40.2654619 92.3882003,37.805817 90.0594853,35.2955752 C88.0344602,34.4929809 88.1869432,37.3536067 87.4264423,38.5578144 C86.3124871,41.8206861 83.7304844,44.8818024 80.0849288,45.2334513 C77.1998742,44.9323993 74.3652219,42.3222285 75.0230041,39.2105152 C74.3652219,36.9020288 76.8451439,34.7940328 76.0348787,32.5861078 C74.9719638,31.7329165 73.7559279,31.6823196 72.4907658,32.3856173 C69.3020212,31.6823196 65.1498903,31.2301092 63.3775149,28.1183959 C61.4539325,24.2540529 65.7068679,20.6407972 69.4034638,20.5402358 C70.3138957,20.5402358 72.1360355,20.5402358 73.0477434,20.4896388 C74.5164289,20.5402358 76.3392066,21.845005 77.5035642,20.5402358 C76.4904136,17.0269091 75.2756538,13.2631275 76.6428966,9.69920389"/>
    <path fill="#1A1919" d="M74.2266214,8.56059904 C74.8176995,8.45269526 75.3579721,8.34341691 75.8988643,8.23345127 C74.9149734,10.1970252 75.4062993,13.8513207 72.8988643,14.2334513 L72.9484306,13.7963379 C74.1274888,13.0334513 73.8338086,11.452008 73.7352955,10.1434169 C73.8827553,9.59839972 74.0295954,9.10699079 74.2266214,8.56059904"/>
    <path fill="#1A1919" d="M76.3361983,8.42878858 L76.6936719,8.23345127 L76.8988643,8.67481468 C76.1826266,10.5385551 76.2852228,12.7954428 74.6462643,14.1683673 C69.6280832,14.6598014 64.9176907,12.2069582 59.8988643,12.2069582 L59.8988643,11.7649767 C60.2569832,11.7649767 61.0254869,11.7161423 61.4352266,11.7161423 C65.3777605,12.1086714 69.269319,13.2368062 73.211853,13.8252907 C75.8232172,13.481596 75.3115266,10.1948604 76.3361983,8.42878858"/>
    <path fill="#1A1919" d="M76.477205,8.23345127 C76.5786509,8.43438779 76.8290955,8.78681903 76.9806303,8.98775555 C75.6218893,12.5596082 76.8290955,16.3317635 77.8359461,19.8529066 C76.6788287,21.1605786 74.8673854,19.8529066 73.4078325,19.8021971 C72.351527,18.9978171 70.6415295,18.7461711 69.7862138,19.8529066 C66.1126041,19.9536918 61.8861142,23.5749862 63.7977354,27.4479267 C65.5590899,30.5665629 69.6854019,31.0197793 72.8543183,31.7246418 C74.0621585,32.3280853 75.2192758,32.4282366 76.3763932,31.9255783 C77.18162,34.1384155 74.7171186,36.2511014 75.3708107,38.5647238 C74.7171186,41.68336 77.5341445,44.2993379 80.4012593,44.6010597 C84.024146,44.2486284 86.5900933,41.1807018 87.6971217,37.9105708 C88.4528937,36.703684 88.3013589,33.8366938 90.3137919,34.6410738 C92.6280265,37.1569004 95.09443,39.6220175 98.4155152,40.7281192 C99.5212755,41.4824235 101.233175,41.784779 102.087857,40.627334 C103.596231,39.8223202 105.105872,38.7662942 105.558575,37.0054057 C105.962456,33.3841113 103.144162,30.5164872 100.527492,28.5052204 C99.2695629,28.6554474 98.3641582,26.4926859 99.6728104,26.1909642 C102.087857,24.6817217 105.50912,23.8767079 106.61488,20.9596421 C107.82272,18.9978171 106.264258,16.7843461 104.905517,15.3251793 C105.458397,15.1248766 106.012545,15.0240914 106.565425,14.8732306 C108.376869,14.9233062 110.238401,14.8732306 112.099933,14.9733819 C112.302191,15.0240914 112.804982,15.0240914 113.005338,15.0741671 C114.414802,15.5273835 115.72282,15.3752549 116.728403,14.3192289 C116.93066,14.4713575 117.382729,14.7223697 117.584352,14.8732306 C117.68453,15.4265983 117.836065,15.9298904 117.9876,16.4826243 C118.238044,17.4378651 118.541114,18.3436642 118.791559,19.3001727 C119.093994,27.9512188 117.282551,36.4526718 114.715969,44.6511353 C114.766692,45.7077952 115.168672,46.7137455 115.471107,47.7203297 C115.772275,49.1788626 116.125433,50.586686 116.327057,51.9951433 C116.527413,54.8621334 115.37093,58.1322643 116.57877,60.7482423 C116.678314,60.9491788 116.879937,61.2509005 116.980749,61.4023953 C117.784708,63.162016 120.552279,62.5084969 122.061921,63.3635864 C123.420662,63.6145986 124.930304,63.6653081 126.3385,63.6145986 C126.893282,63.8662446 127.396073,64.1679663 127.898864,64.5203976 L127.647786,65.0236897 C127.546974,65.2246262 127.34535,65.6264992 127.245172,65.8287035 C124.175166,65.7272844 121.308051,64.5203976 118.288767,64.2687515 C117.433452,64.218042 116.57877,64.1679663 115.72282,64.2687515 C115.018405,64.8715611 115.168672,65.8287035 114.968316,66.6330834 C114.666515,68.5441989 112.603359,70.7075943 114.364079,72.4177733 C115.521196,74.3795983 118.238044,74.6312443 120.3012,74.68132 C120.803992,74.932966 121.257328,75.1339026 121.760753,75.4356243 C121.861565,75.4356243 122.011832,75.5364095 122.061921,75.5864851 L122.264179,76.0397016 L122.313633,76.6437789 L121.760753,76.8440815 C119.848498,76.8947911 117.9876,76.3407894 116.226245,75.6365608 C114.817415,75.1339026 113.307774,74.7814713 111.748043,74.8822565 C110.439391,76.9442328 109.031195,78.9066917 107.522187,80.8178072 C107.82272,81.2196802 108.075067,81.5721115 108.426958,81.9245427 C108.578492,82.1254792 108.879026,82.52862 109.081918,82.7289227 C108.829571,82.7796322 108.276057,82.8804174 108.024978,82.9317608 C109.383085,84.490445 111.445607,86.9048526 113.710387,85.7474076 C114.263267,86.2513335 114.817415,86.7039161 115.320207,87.2065743 C115.118583,87.9608786 115.018405,89.872628 113.760476,89.2191089 C111.647231,88.0109543 109.685521,86.6037648 107.621731,85.2441154 C106.61488,84.6413059 105.50912,83.2328486 104.251191,84.0378625 C99.0184843,88.2131585 92.4270369,90.3752862 85.8368575,90.9793635 C86.3390147,91.6829582 87.0941526,91.9346043 87.8480225,92.0353895 C87.9989233,92.236326 88.3013589,92.5887572 88.4528937,92.7389842 C87.6476668,92.8404033 86.791717,92.9912642 86.3897376,93.7956441 C89.559288,95.2548109 92.0751464,98.1224349 95.4964094,99.0269662 L95.8990228,99.1277514 C97.4086646,99.3293217 99.7235333,100.788489 100.628304,98.775954 C101.332085,99.4294731 101.885599,100.183777 102.49047,100.938716 C102.539925,101.189728 102.590014,101.592235 102.640737,101.793805 C102.792272,103.70492 101.735966,105.717455 102.389658,107.577861 C102.49047,107.779431 102.590014,108.182572 102.640737,108.383509 C103.748399,114.52063 98.3641582,119.700608 92.5272147,120.103115 C91.622444,120.153825 89.8110007,120.2039 88.854239,120.2039 C87.8987454,120.052406 86.9426178,119.751952 86.0378472,119.399521 C84.8300069,118.946304 82.8163058,117.739417 83.370454,120.002964 C83.421177,121.361346 83.421177,122.719093 83.421177,124.077475 C82.9177517,130.465608 82.1638818,137.004602 78.8427966,142.587722 C76.7282836,144.801827 74.464772,146.863803 71.7472899,148.32297 C69.3328774,148.976489 66.9178309,149.429705 64.5528734,150.233451 L58.9682765,150.233451 C55.9997158,149.780869 53.0818781,148.976489 50.1627723,148.27226 C47.6970028,147.568032 45.4334911,146.360511 43.2200684,145.103548 C42.4642964,144.197749 41.6089807,143.392735 40.703576,142.587722 C40.2508737,141.330759 39.7975373,140.072529 39.5470927,138.766125 C39.5470927,138.513845 39.5965476,138.011186 39.5965476,137.75954 C40.2508737,137.960477 40.9045657,138.111972 41.5595258,138.212123 C41.6597036,137.357667 41.7104266,136.55202 41.8112384,135.69693 C41.9114163,134.992702 42.062317,133.484093 42.1631289,132.77923 C41.5595258,132.729155 41.0060116,132.82994 40.4017744,132.62837 C40.4524974,132.377357 40.5526752,131.82399 40.5526752,131.57171 C37.7857383,133.131662 35.0181673,134.841841 31.6970821,135.243714 C29.9369957,135.193638 28.1756412,135.143562 26.4643757,135.294423 C24.5013975,135.094121 22.7914,134.187688 20.9805907,133.63432 C20.3763535,133.232447 19.7721164,132.880016 19.0683354,132.578294 C17.358338,130.868115 15.7979732,129.057151 14.540044,126.994541 C13.7348172,125.033349 13.0817592,123.070891 12.476888,121.009548 C12.476888,120.354761 12.476888,119.751952 12.476888,119.097165 C13.0817592,119.348811 13.7348172,119.550381 14.3885092,119.600457 C14.1881535,117.186049 14.9927464,114.821084 14.9426574,112.407944 C15.4961716,110.948777 16.0991407,109.490244 16.5023882,107.981002 C18.9681576,105.415733 21.0313136,102.347173 23.1946475,99.4801826 C24.2509529,98.0717254 23.7475276,96.5117734 22.0368961,96.814129 C20.2761757,95.6072421 18.4640983,94.3997214 16.6526549,93.2429102 C14.2388765,91.2810852 11.8732849,89.2691845 9.4582384,87.3073595 C7.59607207,84.9931033 6.18787616,82.4278348 4.98066993,79.7110717 C4.92994698,79.5101352 4.82913512,79.1076282 4.77968024,78.9066917 C4.77968024,78.6550457 4.87985807,78.101044 4.92994698,77.7999562 C6.94301408,79.006843 7.14400378,76.6925868 6.94301408,75.2340539 C7.09328083,74.2281036 7.29490455,73.2221532 7.44580533,72.2669124 L7.5466172,71.8644055 C9.25724871,69.6515683 11.0186032,67.2872364 13.9865298,66.7839443 C15.3953598,67.0349565 16.5524771,65.6264992 16.4022103,64.3194611 C15.898151,63.8155351 15.2951819,63.4136621 14.6915788,63.0612308 C14.4893211,62.8609282 14.1881535,62.4584212 13.9865298,62.2568509 C13.7855401,61.5025466 13.5338275,60.7482423 13.181937,60.0934555 L12.9302244,59.6922163 C12.2251754,57.4774775 9.70995104,58.3332008 7.8991417,58.18234 C7.64679502,58.18234 7.19345865,58.1322643 6.94301408,58.0815548 C6.23859911,57.9306939 5.53418413,57.780467 4.82913512,57.7303913 L4.32634387,57.6296061 C3.97381936,57.1256801 3.97381936,56.7738827 4.32634387,56.5735801 C6.69130144,56.5735801 9.05625902,56.7238071 11.4205826,56.6737314 C12.4267991,56.8239584 13.3322038,56.4214515 13.885718,55.5169202 C13.7855401,53.1018788 13.6847283,50.6373955 13.4330156,48.222988 C12.3266213,48.6755705 11.823196,48.072761 11.5213944,47.0661768 C10.6660787,45.858656 8.75382342,46.3606804 7.44580533,46.0595926 C6.08643026,45.9093656 4.72895729,45.5569343 3.3194933,45.6570857 C2.91751391,45.6570857 2.16301002,45.6570857 1.80985148,45.6570857 C1.35714914,45.4060735 0.95516976,45.2045031 0.502467425,45.0035666 C0.351566647,44.8520718 0.0497650909,44.6010597 -0.101135687,44.5009083 L-0.101135687,44.0977676 L0.300843697,43.9475406 C3.52111703,43.896831 6.74139036,44.0977676 9.86021778,44.7519205 C11.2195929,45.0035666 12.9302244,45.6570857 13.5839164,44.1484771 C15.0428353,42.4382981 14.8925685,40.0232567 15.4460827,37.9612804 C16.3514874,36.1002405 17.1059913,34.0883399 18.4640983,32.5290218 C19.370771,31.7246418 20.0244631,30.7186915 20.9805907,29.9637533 C20.9805907,30.2153994 21.0807685,30.7681333 21.1314915,31.0704889 C18.8679798,34.6410738 17.307615,38.6154333 15.9989629,42.589159 C15.3459049,45.5068587 19.5717607,44.8026301 21.1815804,45.9093656 C22.5403214,46.1103021 23.0932016,47.7697715 21.9360843,48.5754192 C19.7226615,48.5754192 17.5593277,46.914682 15.3459049,48.0214176 C14.0873417,48.624861 14.540044,50.8884077 15.3953598,51.6934215 C15.4961716,52.8508666 15.4961716,54.0076778 16.0991407,55.0643377 C17.7102284,55.314716 19.370771,55.3654255 20.9805907,55.7679324 C21.0313136,56.3713758 21.0313136,56.9748193 21.0313136,57.6296061 C19.5717607,57.9306939 17.7596833,57.1256801 16.6032,58.2324157 C17.307615,60.6468232 18.3138315,62.9610795 19.6719385,65.0743992 C22.3887866,64.4696881 25.5082481,64.5203976 27.4705922,66.83402 C29.1311348,68.3432624 28.2257301,70.8077456 29.2325807,72.6187098 C31.04339,74.932966 33.6099714,76.4415746 36.1245616,77.7999562 C48.7032194,83.6854312 62.4396284,87.0557135 76.2755813,88.0109543 C78.1377476,88.3633855 80.1501807,88.4641707 82.0624359,88.0109543 C88.7039723,87.1558648 95.6973991,86.200624 101.08164,81.7743157 C100.376591,80.6675802 98.6659598,79.9132759 99.0679392,78.4040335 C100.779839,77.3974493 102.590014,79.2597568 104.402091,78.7057552 C105.760198,77.3467398 106.866593,75.737346 107.923532,74.1279522 C108.779482,72.1661272 105.20605,72.4177733 105.20605,70.8584552 C106.112723,68.9967815 108.426958,70.3564308 109.937233,70.1535927 C110.993539,68.1917677 111.647231,66.02964 112.049844,63.8155351 C110.388668,62.0052048 106.917316,64.4696881 105.408942,62.3576361 C104.452814,61.5526222 105.558575,60.6468232 106.414525,60.5466719 C108.426958,60.7976841 110.339213,60.6968989 112.201379,60.2956597 C112.302191,60.1948745 112.55327,59.9425946 112.70417,59.7923676 C113.358496,57.5788966 113.358496,54.8621334 112.804982,52.4984354 C112.351646,49.7322304 111.093717,47.1162524 111.345429,44.2993379 C113.10615,39.0173064 114.213812,33.5850478 115.220029,28.1027135 C115.72282,25.5881546 115.873721,22.8713915 115.220029,20.3561987 C114.868138,17.6901451 112.452458,15.5273835 109.584709,16.4325487 C109.986688,18.5946763 110.289124,21.0097178 109.081918,22.9721767 C107.923532,24.8332165 106.112723,26.1909642 104.149745,27.146205 C105.962456,29.5612464 108.075067,31.9750201 108.578492,35.0442145 C109.282907,39.8223202 104.854794,44.3494136 100.025335,43.5951093 C96.3523592,43.896831 93.5340652,41.2814869 90.5661386,39.571308 C90.1128022,40.3262461 89.2574865,41.7340695 88.854239,42.4883738 C86.0378472,47.6696202 77.5842334,49.0273679 73.8110799,44.1484771 C71.7472899,41.3315626 72.5017938,37.9105708 72.8048634,34.6917833 C69.3823323,34.1384155 65.8608914,33.4341869 63.1440434,31.1706402 C60.8291747,28.9070935 58.9175535,24.9333678 61.2825111,21.9655925 C62.6412522,18.8469563 66.162693,17.6901451 69.1813426,16.7843461 C70.7917963,16.8344217 72.351527,16.9352069 73.9619807,16.8844974 C73.5593673,16.4325487 73.1066649,15.9806 72.4523389,15.9806 C67.6723348,14.822521 62.8422418,13.5649247 57.8606141,13.3145463 C57.0560213,13.2131273 55.4956565,12.9621151 54.6904296,12.8613299 C54.8419645,12.6597595 55.143766,12.2071769 55.2953008,12.0062404 C56.8043086,11.9555309 58.3133164,11.9054552 59.7728693,11.8553796 C64.7044082,11.8553796 69.3328774,14.3705723 74.2637823,13.8666464 C75.8742359,12.458823 75.7734241,10.1445667 76.477205,8.23345127"/>
    <path fill="#1A1919" d="M51.9984953,9.23345127 L52.2961351,9.45579795 C54.2849953,11.7666353 58.0152049,10.3440645 60.8988643,10.6554619 L60.8493621,11.05591 C60.4514647,11.05591 59.7051722,11.1001553 59.3574036,11.1001553 C57.3190412,11.1001553 55.2800521,11.1449607 53.241063,11.2334513 C52.7936634,11.1001553 52.3468905,10.8778086 51.8988643,10.6554619 C51.8988643,10.3003793 51.9477399,9.58965401 51.9984953,9.23345127"/>
    <path fill="#1A1919" d="M52.8988643,9.23345127 C53.1445326,9.23345127 53.5876019,9.23345127 53.8320326,9.23345127 C56.3852505,9.75961018 58.9390871,9.82589792 61.4440376,9.49694502 C62.278196,9.62786331 63.1129732,9.82589792 63.8988643,10.0885631 C63.0640871,10.3520568 62.2293099,10.6801811 61.3945326,11.0083054 C58.5467604,10.5476057 54.8629732,12.6522413 52.8988643,9.23345127"/>
    <path fill="#1A1919" d="M53.8988643 9.5865437C56.5822234 9.1895437 59.2662328 9.1895437 61.8988643 9.9045437 59.2662328 10.3015437 56.5822234 10.2215437 53.8988643 9.5865437M22.5911273 12.3330102C23.7447049 12.2334513 24.2066014 11.0834828 24.8988643 10.2334513 24.6684978 11.3834198 24.345054 12.5346485 23.9296962 13.6839869 23.3753041 14.3342704 22.9134077 15.1836718 21.9901965 15.2334513L21.8988643 14.6342074C21.9442395 14.2340814 21.9901965 13.5333883 22.0367352 13.1836718 22.1751878 12.9832937 22.4520929 12.5346485 22.5911273 12.3330102M70.8988643 12.2490675C72.9329922 12.5171766 73.6507423 11.6214099 73.7706186 10.2334513 73.8904949 11.3081455 74.2478621 12.6069226 72.8131158 13.2334513 72.0953658 12.9653421 71.4967381 12.6069226 70.8988643 12.2490675"/>
    <path fill="#1A1919" d="M60.95058 10.8693115C61.8336742 10.6424641 62.7167684 10.4156166 63.5998626 10.2334513 66.1457139 10.6882918 68.9507982 10.6882918 71.2367619 11.8700753 71.7558825 12.2332603 72.2756577 12.5970182 72.8988643 12.8691205L72.846494 13.2334513C68.8467122 12.6881009 64.8986461 11.642655 60.8988643 11.2788971L60.95058 10.8693115M97.8988643 11.8022013C99.5336195 11.0882013 101.216242 11.0882013 102.898864 11.8022013 101.937885 11.9612013 100.975694 12.0402013 100.014109 12.2002013 99.2924659 12.1202013 98.5714285 11.9612013 97.8988643 11.8022013M53.8988643 11.4949513C55.8990692 11.3369513 57.8992741 11.2569513 59.8988643 11.2569513L59.8988643 11.9719513C58.4838454 12.0509513 57.0208805 12.1299513 55.5579156 12.2099513 54.9715003 12.0509513 54.4354897 11.8129513 53.8988643 11.4949513"/>
    <path fill="#1A1919" d="M94.0906175,12.5162852 C95.2907385,12.0221704 96.4908595,11.5292986 97.7871595,11.2334513 C98.4585982,11.3322742 99.1784288,11.4310972 99.8988643,11.4808194 C98.0266998,12.3180177 95.962782,13.797876 93.8988643,13.0091569 L94.0906175,12.5162852"/>
    <path fill="#1A1919" d="M99.3230113 11.5020677C100.339939 11.3940812 101.357507 11.3407629 102.373794 11.2334513 102.9332 11.3407629 103.441984 11.5547111 103.898864 11.7693343 102.120042 12.1439125 100.339939 12.251224 98.611098 12.8397505 98.0516918 13.0010553 97.4916448 13.2143287 96.9835015 13.4303017 96.2209661 13.643575 95.5090528 13.9648348 94.7471582 14.2334513 93.6776863 14.179458 92.6101368 13.9648348 91.8988643 13.1090418 92.1526156 13.1090418 92.6613997 13.1616852 92.9670546 13.1616852 95.1534166 14.0181532 97.3397785 12.4111791 99.3230113 11.5020677M98.8988643 13.3435773C100.577769 12.733218 102.306456 12.6219254 104.033899 12.2334513 104.478827 12.4553365 104.923755 12.733218 105.318279 13.0110994L105.515541 13.4555698C105.614483 13.7320514 105.86215 14.2885143 106.010252 14.5656958 108.824813 14.7329846 111.737694 14.8435773 114.453936 13.9560364L114.898864 14.1772217C114.256052 15.3986403 112.923133 15.1221587 111.836637 15.2334513 110.00963 15.177455 108.182623 15.177455 106.355616 15.2334513 105.368062 14.8995735 104.429667 14.4544032 103.49065 14.0666291 102.010252 13.5108661 100.429045 13.5108661 98.8988643 13.3435773"/>
    <path fill="#1A1919" d="M104.898864,12.4106179 C107.582874,12.3306179 110.214855,12.3306179 112.898864,12.4106179 L112.691402,13.0456179 C110.162827,13.0456179 107.634252,13.2046179 105.105026,13.0456179 L104.898864,12.4106179"/>
    <path fill="#606967" d="M51.8988643,13.6284546 C52.9066272,13.4704546 53.866603,13.3904546 54.8743659,13.3114546 C55.6425885,13.4704546 57.1312466,13.8664546 57.8988643,14.0264546 C55.9317305,14.0264546 53.866603,14.5014546 51.8988643,13.6284546"/>
    <path fill="#1A1919" d="M90.8988643,14.8661673 C90.8988643,14.2946653 91.0610396,13.7643155 91.2218577,13.2334513 C91.5991357,14.5811879 92.945394,15.0297476 94.7768209,14.2545418 C95.5836258,14.0498093 96.3375033,13.8049533 97.1449868,13.6424019 C97.3071621,13.7643155 97.683083,14.008657 97.8988643,14.1315994 L97.8988643,14.4993978 C96.6611753,14.6619492 95.4221291,14.9479574 94.2373676,15.2334513 C93.4298841,15.1521755 91.7070264,14.9479574 90.8988643,14.8661673"/>
    <path fill="#1A1919" d="M91.8988643 13.2334513L92.3535312 13.4678035C92.9891487 14.3993353 93.9431476 14.6329529 94.8988643 14.6917246 93.3533404 15.7988369 92.2172457 15.1582252 91.8988643 13.2334513M97.8988643 14.0804987C98.3785498 13.7707214 98.9072321 13.4648162 99.4353095 13.2334513 100.922758 13.4648162 102.459808 13.4648162 103.898864 14.2334513 101.883339 14.156975 99.914995 14.0804987 97.8988643 14.0804987M105.898864 13.2334513C108.335581 13.3243121 110.771671 13.2334513 113.207762 13.2334513 113.804879 13.278596 114.352498 13.4146015 114.898864 13.6420394 112.163902 14.3666405 109.230945 14.2763511 106.396985 14.139774 106.247862 13.9134791 105.998488 13.4591748 105.898864 13.2334513"/>
    <path fill="#444B49" d="M21.8988643,14.9551989 C22.8508739,14.8998845 23.3271786,13.9560391 23.8988643,13.2334513 C23.8034834,14.8998845 23.5179405,16.5110034 23.3751691,18.1774367 C23.0422356,18.1774367 22.3277785,18.2334513 21.9468547,18.2334513 C21.9468547,17.1222624 21.9468547,16.0117736 21.8988643,14.9551989"/>
    <path fill="#1A1919" d="M97.8988643 13.2334513C99.9531719 13.2334513 101.958788 13.2832621 104.012479 13.333073 104.942557 13.6823794 105.872019 14.0833882 106.850172 14.3841448L106.898864 14.7838926C106.361404 14.9339557 105.82271 15.0342079 105.28525 15.2334513 104.405096 14.8337035 103.573019 14.3337035 102.594865 14.1830099 101.274635 13.9837665 99.90448 13.8835143 98.5836335 13.833073 98.387633 13.6823794 98.0461729 13.3828838 97.8988643 13.2334513M115.205988 13.2334513C115.365934 13.2976789 115.738918 13.5554025 115.898864 13.6204431 115.259079 14.9757277 114.031929 15.1692236 112.858542 15.2334513 112.646176 15.1692236 112.113246 15.1692236 111.898864 15.104183L111.898864 14.4602805C113.072251 14.3310122 114.511768 14.6521505 115.205988 13.2334513M97.8988643 14.3759513C99.2160124 14.4559513 100.582331 14.6149513 101.898864 14.9309513 100.582331 15.0099513 99.2160124 15.0909513 97.8988643 15.0909513L97.8988643 14.3759513"/>
    <path fill="#1A1919" d="M115.980608 14.2334513C116.196548 14.3345649 116.629791 14.5016774 116.898864 14.5689454 115.818483 15.2737794 114.413169 15.3753161 112.898864 15.0728213 114.088238 15.0393988 115.332107 14.9387083 115.980608 14.2334513M105.898864 14.3674513C107.898864 14.2874513 109.898864 14.2874513 111.898864 14.3674513L111.898864 15.1594513C109.898864 15.0014513 107.898864 15.0804513 105.952679 15.0014513L105.898864 14.3674513"/>
    <path fill="#CDCFD0" d="M72.3199518,16.2334513 C73.004302,16.2334513 73.4777768,16.7258864 73.8988643,17.2183216 C72.2145142,17.2735738 70.5832144,17.1637601 68.8988643,17.1091985 C70.0573524,16.780448 71.1621269,16.4516974 72.3199518,16.2334513"/>
    <path fill="#2E3432" d="M21.9511601,18.2827948 C22.3662578,18.2827948 23.1448111,18.2334513 23.507613,18.2334513 C24.2855126,20.4859845 23.6631929,22.9321912 23.6631929,25.2334513 C23.714835,23.9603876 23.5599088,22.7372842 21.8988643,23.1782922 C21.9511601,21.5622908 21.9511601,19.8987962 21.9511601,18.2827948"/>
    <path fill="#4F3A42" d="M69.8988643,20.2334513 C70.8435422,18.7458821 72.7321976,19.0841209 73.8988643,20.1652923 C72.898164,20.2334513 70.898164,20.2334513 69.8988643,20.2334513"/>
    <path fill="#1A1919" d="M119.398374,20.2334513 C119.509672,20.4807525 119.787567,21.0246905 119.898864,21.2738652 C119.676969,25.2388041 120.176059,29.3024137 119.12188,33.2173927 C118.343495,38.2720809 116.065041,43.1288032 115.732548,48.2334513 C115.398654,47.2417482 114.954863,46.2506696 114.898864,45.2096311 C117.732408,37.1323718 119.732268,28.7566023 119.398374,20.2334513"/>
    <path fill="#553B45" d="M84.8988643,21.2334513 C85.295825,19.9001179 87.5024596,19.9001179 87.8988643,21.2334513 C87.1488643,21.2334513 85.6488643,21.2334513 84.8988643,21.2334513"/>
    <path fill="#211D1B" d="M81.7895493,28.6405167 C79.6534454,26.0898948 81.6439615,21.7236702 84.750855,21.2334513 C85.5760567,21.2334513 87.22646,21.2334513 88.0516617,21.2334513 C90.770117,21.7731248 92.906221,25.5013848 91.4007938,28.1008432 C89.9938524,31.9768489 83.6344776,32.3700131 81.7895493,28.6405167"/>
    <path fill="#59605F" d="M115.118505,20.2334513 C116.149505,22.8309474 115.911505,25.6366098 115.118505,28.2334513 C114.880505,25.5842409 115.037505,22.8826616 115.118505,20.2334513"/>
    <path fill="#E5AE3B" d="M85.659288,22.265139 C86.977537,22.0531741 88.085717,22.9545265 89.1945618,23.4847732 C90.5659928,25.2901526 89.8799449,28.4201457 87.6117324,29.0038851 C84.8682057,30.0657156 82.177861,27.252667 83.0746425,24.4944483 C83.7081732,23.9628644 85.0270869,22.8488784 85.659288,22.265139"/>
    <path fill="#494F4E" d="M21.9554899,23.3215808 C23.7768279,22.8983266 23.9467048,24.0721911 23.8900792,25.2940046 C23.7768279,25.5284223 23.4356407,25.9984416 23.3216726,26.2334513 C23.2069878,25.2472394 23.265047,24.1195482 21.8988643,23.7904162 L21.9554899,23.3215808"/>
    <path fill="#646D6C" d="M21.7353239,23.2334513 C22.8525572,23.6183329 22.8050777,24.937037 22.8988643,26.0902975 C22.2939405,26.9140549 21.5964024,27.5730609 20.8988643,28.2334513 C21.0846791,26.6953092 22.8988643,25.7054158 21.9217248,24.0572087 C21.8754177,23.838463 21.781631,23.4535814 21.7353239,23.2334513"/>
    <path fill="#4D343E" d="M72.8988643,31.7163503 C74.3267671,31.0193165 75.6992243,31.0694628 76.8988643,31.915055 C75.5847329,32.4121303 74.2706015,32.3130913 72.8988643,31.7163503"/>
    <path fill="#474D4B" d="M13.8988643,44.2334513 C14.3857557,42.2332464 14.3857557,39.9404485 15.8988643,38.2334513 C15.3043801,40.2330415 15.4657693,42.5750146 13.8988643,44.2334513"/>
    <path fill="#4D303C" d="M97.8988643,41.3644648 C98.9389196,41.3644648 100.911986,41.29937 101.898864,41.2334513 C100.967925,42.7380473 99.1032842,42.3450066 97.8988643,41.3644648"/>
    <path fill="#4D5454" d="M9.89886431,44.860764 C11.0887162,44.7559923 12.2234003,44.599823 13.3594466,44.2855077 L13.8988643,44.2334513 C13.1966678,45.8017332 11.3591061,45.122364 9.89886431,44.860764"/>
    <path fill="#1A1919" d="M11.9806544,47.2334513 C12.2255104,48.2778093 12.6339466,48.9032404 13.5315804,48.4336738 C13.7357985,50.9386863 13.8175886,53.4956536 13.8988643,56.0013237 C13.4497902,56.9397991 12.7152223,57.3574108 11.8988643,57.2015463 C12.7558602,56.8358894 13.9806544,54.6432637 12.4297285,54.539354 C12.3885762,54.330877 12.3479384,53.8606528 12.3067861,53.6521758 C12.2661483,52.1395665 12.4297285,50.6775968 12.1030824,49.2156271 C12.0624446,49.0078077 11.9806544,48.5375835 11.9395022,48.3297642 L11.9806544,47.7549726 L11.9806544,47.2334513"/>
    <path fill="#525A59" d="M15.8988643,52.2334513 C14.8663174,51.3565308 14.31981,48.8907963 15.8391618,48.2334513 C15.8391618,49.2201594 15.8988643,51.2474337 15.8988643,52.2334513"/>
    <path fill="#565359" d="M11.3540678,49.2334513 C11.9890678,50.5515657 11.6710678,51.8696801 11.7500678,53.2334513 C11.5920678,52.5278479 11.1960678,51.0692058 11.0360678,50.315574 C11.1160678,50.0339256 11.2750678,49.5162855 11.3540678,49.2334513"/>
    <path fill="#202020" d="M35.7938056,49.6199407 C38.2214253,48.3875694 40.6009547,50.2879067 40.8988643,52.7021635 C40.7989366,55.2691722 39.9070814,58.4543084 37.082249,59.2251877 C34.8026473,59.3785868 32.6716881,57.3753362 32.9183847,54.9617267 C33.2656336,53.0607421 33.7121857,50.2879067 35.7938056,49.6199407"/>
    <path fill="#51474F" d="M116.407991,52.2334513 C117.200991,55.2327995 116.723991,58.2327995 116.804991,61.2334513 C114.899991,58.5436837 116.723991,55.1813114 116.407991,52.2334513"/>
    <path fill="#9CA1A3" d="M113.201725,53.2334513 C114.074725,55.5018966 114.074725,58.1091791 113.042725,60.2334513 C112.883725,57.9157316 112.962725,55.5499543 113.201725,53.2334513"/>
    <path fill="#1A1919" d="M11.947367,54.2334513 C13.9329848,54.3500816 12.3649065,56.8111295 11.2677127,57.2215502 C8.81186898,57.2798654 6.35536665,57.1049199 3.89886431,57.1049199 C4.9446889,56.7520762 5.98919632,56.3423936 7.03502091,55.9319729 C8.44504008,55.7570274 10.3272609,56.6354458 11.4251133,55.5806056 C11.5291689,55.2292382 11.7899664,54.586295 11.947367,54.2334513"/>
    <path fill="#757C7C" d="M105.898864,60.878771 C107.880896,60.402771 109.863584,60.242771 111.898864,60.482771 C109.968109,61.115771 107.985421,61.274771 105.898864,60.878771"/>
    <path fill="#212221" d="M87.0036027,61.4928403 C88.754476,60.7675674 91.1557818,61.5965439 91.7060023,63.5629987 C92.4055953,66.4099556 91.1557818,69.5667189 88.7046852,71.0159602 C85.6529469,72.1547429 83.1526897,68.5831654 84.103758,65.8405642 C84.4529243,64.0802122 85.3037807,62.1131052 87.0036027,61.4928403"/>
    <path fill="#1A1919" d="M116.898864 61.4209147L117.480505 61.2809029 118.013268 61.2334513 118.402454 61.3740488C118.643786 61.4671947 119.17716 61.6060347 119.420325 61.6991806 121.212901 62.1637383 123.153332 62.2568842 124.898864 62.9540137 123.880383 63.0471595 122.813634 63.1397196 121.795153 63.2334513 120.340441 62.4431759 117.67357 63.0471595 116.898864 61.4209147M14.4794283 63.2334513C14.9764579 63.6091774 15.4729655 64.0376133 15.888027 64.5748477 16.0117623 65.968278 15.0589482 67.4698311 13.8988643 67.2022276L13.9818766 66.665669C14.8516785 66.1297862 14.7686662 64.8424512 14.5619185 63.7706856L14.4794283 63.2334513M121.898864 63.7599897C122.887448 63.5999897 123.922882 63.4419897 124.911466 63.2829897 125.1469 63.5219897 125.664024 63.9179897 125.898864 64.1559897 124.581741 64.2359897 123.169732 64.1559897 121.898864 63.7599897"/>
    <path fill="#1A1919" d="M14.7234862,64.2334513 C14.9887675,65.1928222 15.0952819,66.3451561 13.9792248,66.8248415 C11.3217228,66.9688077 9.30062777,68.5542497 7.59974604,70.2334513 C7.17435813,70.1856642 6.32358232,70.1372722 5.89886431,70.1372722 C7.54682377,67.5930641 10.4166849,66.2005851 13.4473225,65.3851803 C14.1393315,65.2890012 14.5640495,64.9048899 14.7234862,64.2334513"/>
    <path fill="#1B1E1A" d="M57.6213289,64.5147687 C61.2428065,63.5195501 65.608963,65.2119238 66.8988643,68.8470445 C66.7506789,70.7389639 65.608963,72.7808564 63.5750081,73.0306023 C60.8957899,73.7271298 58.0671358,72.531738 55.8843702,70.9397647 C53.9492056,68.9970176 55.040901,65.3116966 57.6213289,64.5147687"/>
    <path fill="#E6AF3A" d="M58.6505929,66.3956875 C61.1438061,65.735034 65.6007006,67.1088856 64.8050654,70.2103042 C62.5772868,72.1422829 58.8625394,71.0740877 56.9523462,69.1927313 C56.6875802,68.0226506 57.4297274,66.7013438 58.6505929,66.3956875"/>
    <path fill="#1A1919" d="M8.43696047,70.0715714 C10.1598182,68.1807779 12.2070264,66.3955582 14.8988643,66.2334513 L14.7909737,66.7742618 C11.6146456,67.3150723 9.72961266,69.8556558 7.89886431,72.2334513 C7.89886431,71.963046 7.89886431,71.4222355 7.89886431,71.1525113 C8.00607641,70.8821061 8.27614233,70.3412955 8.43696047,70.0715714"/>
    <path fill="#FAF9F9" d="M20.4972955,67.659446 C22.4468372,66.4926117 23.7282231,67.963782 24.7543657,69.1817652 C24.8047682,70.450258 24.856463,71.7692603 24.9592065,73.0377531 C25.0102552,73.7998717 26.19019,74.2052268 25.8309108,75.0172156 C22.2923989,78.4160601 18.8566304,81.9683514 15.2670698,85.3671959 C14.498109,85.9771466 13.0112361,86.9400247 12.4471162,85.4183448 C10.1906363,83.0335273 7.83270534,80.0393984 7.9864975,76.6405539 C7.26858538,72.2775525 11.0623406,67.5085567 15.6773976,68.0149309 C17.2676602,67.963782 19.3186531,69.1312557 20.4972955,67.659446"/>
    <path fill="#1A1919" d="M6.0167294 70.2334513C6.48670716 70.2334513 7.42814526 70.2814561 7.89886431 70.3288608 7.72317862 70.5664846 7.42814526 71.0429322 7.31102147 71.281156 6.48670716 71.6135893 5.72243733 71.9478227 4.89886431 72.2334513 5.25171828 71.5661845 5.54601035 70.8521131 6.0167294 70.2334513M5.62121616 72.12585C6.39886431 71.8581866 7.1205162 71.5449755 7.89886431 71.2334513 7.89886431 71.4561292 7.89886431 71.9026097 7.89886431 72.12585L7.78757173 72.4829219C7.00992358 73.1965035 6.28687178 74.3571279 4.89886431 74.2227339 5.01015689 73.5091523 5.28803837 72.7950084 5.62121616 72.12585"/>
    <path fill="#1A1919" d="M4.89886431 74.24265C6.34034723 74.3978531 7.09125588 73.0575215 7.89886431 72.2334513 7.72585729 73.2120752 7.49469664 74.24265 7.32241653 75.2732248 6.80266853 76.1498952 5.93763339 76.6142059 5.01444464 75.8407877 4.95701794 75.4797294 4.89886431 74.6556592 4.89886431 74.24265M113.898864 73.2767389C114.204503 73.2767389 114.711978 73.2334513 114.966998 73.2334513 115.220735 73.3205746 115.728851 73.5370129 115.983871 73.6252321 116.237608 73.7550951 116.797626 73.9287937 117.052004 74.0153691 118.018258 74.3638622 118.983871 74.7983828 119.898864 75.2334513 117.813858 75.1901636 115.068236 74.9726294 113.898864 73.2767389"/>
    <path fill="#1A1919" d="M4.89886431 75.8060212C5.67519872 76.5862624 6.40263016 76.1178557 6.83970032 75.2334513 7.03347828 76.7408694 6.83970032 79.132692 4.89886431 77.8853542 4.89886431 77.2092762 4.89886431 76.5331982 4.89886431 75.8060212M122.161364 75.6144513C122.320364 75.6144513 122.557364 75.7734513 122.636364 75.8524513 122.557364 75.7734513 122.320364 75.6144513 122.161364 75.6144513"/>
    <path fill="#DC6690" d="M29.1218529,77.2334513 C30.8819379,77.435068 32.189484,79.4975185 33.8494273,80.3528046 C33.8988643,80.5043341 33.8988643,80.8562124 33.8988643,81.0565611 C30.0269308,84.6298691 27.0594415,89.0578291 23.8904011,93.2334513 C21.1738997,93.0318345 18.6595831,90.667593 16.8988643,88.75477 C21.5269308,85.5358764 24.99703,81.0565611 29.1218529,77.2334513"/>
    <path fill="#E7B0C0" d="M37.5314487,83.2334513 C39.5885554,83.6893846 44.4093458,84.1465987 42.902572,87.7037753 C42.2510284,93.5483029 45.8136437,99.6969996 51.4865013,101.322863 C52.4404118,101.526496 53.3437169,101.831306 54.2976274,102.084886 C55.7025579,102.339748 57.2593044,102.796962 58.6148947,102.084886 C63.8354672,100.815061 68.2027072,96.5464489 69.658243,91.3121804 C71.9165059,91.3121804 74.1754014,91.9217991 76.4342968,91.8718514 C78.0410161,98.2734886 79.0448994,104.981856 79.5465247,111.588407 C79.59713,113.670844 79.3966064,115.805791 79.8476264,117.83828 C79.8988643,118.651532 79.8988643,120.277395 79.8988643,121.090647 C79.6477354,122.817687 79.4965519,124.596596 79.5465247,126.324276 C79.8988643,128.306177 79.59713,131.253735 76.5348749,129.881452 C66.8970897,129.830864 57.4098553,127.798375 48.0738043,125.663428 C47.9219883,125.562252 47.6215191,125.359259 47.4703357,125.257443 C48.6760077,122.005076 50.1302784,118.803296 50.5825636,115.297989 C50.8836653,113.670844 51.1860321,111.995033 50.6331689,110.419118 C49.5287076,105.540887 47.4197304,100.459023 43.1037282,97.6645102 C41.3464581,96.2416395 39.0881952,95.8350136 37.0291908,95.1748067 C35.1220024,94.7681808 33.0636306,94.5639073 31.2070475,95.1229379 C30.2525045,95.1229379 27.3414328,96.8006702 27.9929764,94.9711736 C31.0552315,90.9567829 33.916963,86.7381187 37.5314487,83.2334513"/>
    <path fill="#3E4041" d="M107.898864,83.4166171 C108.163836,83.3702533 108.747978,83.2792427 109.014288,83.2334513 L109.437841,83.2792427 L109.862732,83.3702533 C111.137406,84.2786415 112.624191,85.0055811 113.898864,85.9591884 C111.508767,87.0043787 109.33212,84.8241324 107.898864,83.4166171"/>
    <path fill="#DC6690" d="M45.9499144,86.2334513 C52.4623538,88.3126387 59.180286,89.8210817 65.8988643,91.0163032 C64.7182504,94.5004002 62.1554071,98.8691184 58.2064572,99.2334513 C56.6678465,99.2334513 55.1292359,99.2334513 53.5912714,99.2334513 C50.0526608,99.0244186 46.2064572,96.1647986 45.8988643,92.4729795 C45.8988643,90.9127698 45.8988643,89.3532154 45.8988643,87.7923504 C45.8988643,87.3769061 45.8988643,86.5971289 45.9499144,86.2334513"/>
    <path fill="#784F5F" d="M45.2569073,87.2334513 L45.8988643,87.2334513 C45.8988643,88.9008179 45.8988643,90.5667846 45.8988643,92.2334513 C43.7787061,92.1788524 45.7701491,88.6222235 45.2569073,87.2334513"/>
    <path fill="#313836" d="M75.8988643,88.5855897 C77.8822104,88.2695897 79.8648992,88.4265897 81.8988643,88.5855897 C79.9161756,89.3005897 77.8296192,89.1415897 75.8988643,88.5855897"/>
    <path fill="#D8658E" d="M80.8988643,93.2334513 C83.7992502,93.8296895 86.3991399,95.2723227 88.8988643,96.7651127 C87.1475453,99.1042977 85.2494431,101.392072 82.9991872,103.233451 C82.4485926,99.8497522 81.5496242,96.5663666 80.8988643,93.2334513"/>
    <path fill="#1A1919" d="M86.8988643,94.281156 C87.2961351,93.5196799 88.1420586,93.3768656 88.9378534,93.280856 L89.3344975,93.2334513 C89.8320259,93.6144894 90.3295543,93.9955275 90.8258294,94.281156 C91.0752202,94.4245704 91.523873,94.7095989 91.7218818,94.8530132 C92.6173075,95.4722752 93.5622355,96.0435323 94.4069058,96.7101989 C94.2082704,97.7567036 94.7051722,98.5199799 95.7992333,98.8530132 L95.8988643,99.2334513 C92.5176765,98.3771656 90.0312879,95.6624942 86.8988643,94.281156"/>
    <path fill="#685B62" d="M30.8988643,94.8262955 C32.8121629,93.9532955 34.9334145,94.2722955 36.8988643,94.9072955 C34.8812633,95.0652955 32.8643141,95.4622955 30.8988643,94.8262955"/>
    <path fill="#1A1919" d="M93.9450687,97.2334513 C94.2133916,97.3661872 94.6959674,97.6333393 94.9102202,97.7660752 C94.9102202,99.4115526 97.2169866,98.2998192 98.3970668,98.0774726 C98.987107,98.0774726 99.4696828,98.2550139 99.8988643,98.5216058 C98.3970668,98.789318 96.9486636,99.05591 95.4468661,99.2334513 C94.2667859,98.922614 93.7308158,98.2102085 93.9450687,97.2334513"/>
    <path fill="#3F4444" d="M21.8988643,97.2755795 C23.9009888,96.940129 24.4901982,98.6708286 23.2538974,100.233451 C22.9592928,99.227803 22.3700834,98.2798213 21.8988643,97.2755795"/>
    <path fill="#1A1919" d="M94.8988643,97.2334513 C95.6373795,97.3347285 97.1609306,97.4853784 97.8988643,97.5853896 C96.8835513,97.8366838 94.8988643,99.0931544 94.8988643,97.2334513"/>
    <path fill="#9BA1A3" d="M30.8988643,98.3359513 C32.1483917,98.4949513 34.6493369,98.8929513 35.8988643,99.1309513 C34.249841,99.1309513 32.5491479,99.1309513 30.8988643,99.1309513 L30.8988643,98.3359513"/>
    <path fill="#1A1919" d="M94.8988643,98.8492458 C96.3881405,98.6956606 97.8244675,98.4650404 99.3137437,98.2334513 C99.4739313,98.3104862 99.7393469,98.5033156 99.8988643,98.6186257 C98.4625372,98.887521 96.9196418,99.0411063 95.4310359,99.2334513 L95.0054327,99.1564164 L94.8988643,98.8492458"/>
    <path fill="#FEFDFC" d="M15.8988643,116.232072 C16.8636384,108.331597 22.9009886,100.482785 31.1197895,99.2334513 C32.7942383,99.2334513 34.5198349,99.2334513 36.193005,99.2334513 C42.2309946,99.7330586 46.289567,105.732757 46.8988643,111.28199 C46.8988643,112.13252 46.8477166,113.831689 46.8477166,114.682218 C46.3912231,119.980702 43.6004751,125.08073 39.5930504,128.580501 C37.0056146,130.080583 34.367031,132.330391 31.1197895,132.230218 C29.5981445,132.230218 28.0758602,132.230218 26.5535759,132.230218 C20.5162257,131.730611 16.4570139,125.780684 15.8988643,120.231451 C15.8988643,118.881944 15.8988643,117.581579 15.8988643,116.232072"/>
    <path fill="#975771" d="M53.8988643,98.2334513 C55.5650643,98.2334513 57.2319643,98.2334513 58.8988643,98.2334513 C58.8421575,100.349784 55.2871309,98.365149 53.8988643,98.8944405 L53.8988643,98.2334513"/>
    <path fill="#1A1919" d="M95.8988643,99.3031668 C97.3876698,98.9685119 98.9307721,98.7012937 100.367292,98.2334513 C100.52616,98.3674818 100.792282,98.7012937 100.898864,98.8353243 C99.9423018,101.51172 97.4949228,99.5712279 95.8988643,99.3031668"/>
    <path fill="#FBFAF9" d="M90.8043722,99.8079719 C91.682762,98.4204631 92.5618029,99.9103185 93.2324785,100.475816 C94.3700226,100.887146 95.5069155,100.99014 96.7466887,100.784151 C98.6063486,100.630631 99.381858,102.42947 99.8988643,103.8688 C98.0906446,106.593292 100.002396,109.934455 99.2783265,112.914814 C98.0385533,115.178098 95.7654186,116.822769 93.2324785,117.233451 C91.682762,117.233451 90.1330454,117.233451 88.5833288,117.233451 C86.7731557,117.233451 85.1199077,116.257272 83.5187509,115.537607 C83.5187509,113.377964 82.9503045,111.219617 82.8988643,109.059975 C85.379062,105.873627 87.8071683,102.583637 90.8043722,99.8079719"/>
    <path fill="#4E5654" d="M17.5302239,106.278817 C19.4780211,103.964495 21.4251552,101.548422 23.4246815,99.2334513 L23.8988643,99.5419412 C21.6360505,102.473244 19.4780211,105.610639 16.8988643,108.233451 C17.1097596,107.565272 17.3199917,106.946996 17.5302239,106.278817"/>
    <path fill="#989FA1" d="M92.8988643,100.717566 C93.7376636,100.266701 95.5019772,99.7508456 95.8988643,101.104254 C94.8404986,101.362588 93.8699594,101.233421 92.8988643,100.717566"/>
    <path fill="#B990A3" d="M53.8988643,101.554433 C55.2474357,101.238433 56.5965933,101.238433 57.8988643,101.554433 C56.6428936,102.666433 55.2005493,101.952433 53.8988643,101.554433"/>
    <path fill="#1A1919" d="M13.9234494,111.451623 C15.4354347,111.135125 15.8748938,109.236138 16.8988643,108.233451 C16.5079608,109.816605 15.9234494,111.346567 15.3868791,112.877193 C14.7525828,114.195712 14.8988643,116.72836 12.8988643,116.148557 L12.8988643,115.514232 C13.1434863,114.143184 13.4839903,112.770142 13.9234494,111.451623"/>
    <path fill="#AA8B9A" d="M50.3127061,110.233451 C51.1867061,111.848493 50.7087061,113.56591 50.2327061,115.233451 C50.0747061,113.56591 49.7577061,111.848493 50.3127061,110.233451"/>
    <path fill="#3A403E" d="M46.9708472,111.233451 C48.1846589,111.630894 48.255742,113.836008 46.8988643,114.233451 C46.8988643,113.483034 46.9708472,111.983868 46.9708472,111.233451"/>
    <path fill="#A08291" d="M78.9650549,111.233451 L79.7600549,111.233451 C79.9180549,113.232632 79.8390549,115.233041 79.4410549,117.233451 C78.7280549,115.282222 79.0450549,113.232632 78.9650549,111.233451"/>
    <path fill="#373D3B" d="M11.8988643,116.268615 C14.3083126,116.806554 14.1320837,114.45677 14.8962357,113.233451 C14.9547319,115.582002 14.0150915,117.883667 14.249076,120.233451 C13.4856645,120.184716 12.7229934,119.988541 12.016597,119.74363 C11.9581009,118.863309 11.9581009,117.148936 11.8988643,116.268615"/>
    <path fill="#2F3533" d="M15.0658349,116.233451 L15.8588349,116.233451 C15.8588349,117.583168 15.8588349,118.883735 15.8588349,120.233451 C14.1138349,119.782916 15.4628349,117.433199 15.0658349,116.233451"/>
    <path fill="#899091" d="M87.8988643,116.233451 C89.565531,116.233451 91.2321976,116.233451 92.8988643,116.233451 C92.8442425,118.348798 89.2875198,116.366754 87.8988643,116.894966 L87.8988643,116.233451"/>
    <path fill="#3E353B" d="M83.0014648,120.233451 C82.3995329,118.534641 84.5868733,119.440419 85.8988643,119.780562 C84.9146989,119.856202 83.9305335,120.006531 83.0014648,120.233451"/>
    <path fill="#3C343B" d="M88.8988643,120.364469 C89.9408115,120.364469 91.9135372,120.299372 92.8988643,120.233451 C91.9680858,121.737271 90.1051478,121.345866 88.8988643,120.364469"/>
    <path fill="#A28394" d="M78.9984227,126.233451 C78.9194227,124.582895 79.1584227,122.883396 79.5554227,121.233451 C79.7134227,122.883396 79.8724227,124.582895 79.7934227,126.233451 L78.9984227,126.233451"/>
    <path fill="#FBFAF9" d="M45.1862059,128.233451 C48.2684641,128.336119 51.2016213,129.470661 54.234388,129.986598 C62.0396432,131.275791 69.9438815,132.461017 77.8988643,132.873637 C77.7002717,139.114268 73.2754769,145.198948 67.3095531,146.487491 C60.3500394,148.085337 52.84236,147.105446 46.5782339,143.651786 C41.3089505,140.66078 42.5011329,132.719636 45.1862059,128.233451"/>
    <path fill="#8C9294" d="M26.8988643,132.233451 C28.5657643,132.233451 30.2326644,132.233451 31.8988643,132.233451 C31.8435577,134.349303 28.2325244,132.3659 26.8988643,132.894863 L26.8988643,132.233451"/>
    <path fill="#2D3331" d="M39.8988643,134.611059 C39.9960054,134.168589 40.0931465,133.675922 40.1909024,133.233451 C40.7768231,133.430518 41.3135584,133.331985 41.8988643,133.380941 C41.8011084,134.070055 41.6547819,135.544957 41.5576408,136.233451 C41.5084555,135.544957 41.4106995,134.90604 41.3615142,134.216926 C40.8739642,134.315459 40.3864143,134.462949 39.8988643,134.611059"/>
    <path fill="#1A1919" d="M40.3178505,134.621256 C40.7825444,134.475524 41.2472382,134.330402 41.711932,134.233451 C41.7588116,134.9115 41.8519847,135.540159 41.8988643,136.217598 C41.3404113,136.797476 40.6430776,137.088329 39.8988643,137.233451 C39.8988643,136.846866 39.8988643,135.974915 39.8988643,135.588329 L40.0846246,135.152963 C40.1315042,135.007842 40.270385,134.765768 40.3178505,134.621256"/>
    <path fill="#312C31" d="M26.8988643,135.579542 C28.5340273,135.341542 30.2170516,135.420542 31.8988643,135.499542 C30.2170516,136.214542 28.5818887,136.214542 26.8988643,135.579542"/>
    <path fill="#333837" d="M39.9446702,137.493028 C40.6718388,137.313088 41.3532016,136.952453 41.8988643,136.233451 C41.8078251,137.253361 41.7620192,138.214298 41.6715525,139.233451 C41.0800839,139.113996 40.4897604,138.9333 39.8988643,138.693633 C39.8988643,138.392725 39.9446702,137.793179 39.9446702,137.493028"/>
  </g>
</svg>
