<svg xmlns="http://www.w3.org/2000/svg" width="132" height="153" viewBox="0 0 132 153">
  <g fill="none" fill-rule="evenodd" transform="translate(.101 .767)">
    <path fill="#272C29" d="M69.8988643,2.1321151 C72.6360906,-0.868032779 76.9426599,0.11658903 79.8988643,2.1321151 C76.5776964,2.26722999 73.2206405,2.26722999 69.8988643,2.1321151"/>
    <path fill="#4C504E" d="M67.8988643,2.13216059 C68.0967798,1.59338398 68.459625,1.23345127 68.888442,1.23345127 C68.9873997,1.99671814 68.3606672,2.44644695 67.8988643,2.13216059"/>
    <path fill="#22201F" d="M69.1994117,1.23345127 C72.6612377,1.34796883 76.1598311,1.34796883 79.6210232,1.23345127 C79.506918,1.84146992 80.1915494,2.25904776 80.7240405,1.99331641 C82.7018646,3.5111486 83.9563883,5.59903783 84.9459343,7.80081192 C87.1139337,6.69992487 89.167828,5.21942161 91.602073,4.64999727 C93.541862,4.68859159 95.5190522,4.72592052 97.4594752,4.72592052 C98.1054376,5.40922972 99.740946,5.71355539 100.007192,4.61203565 C100.996737,4.30834267 101.98565,4.04324401 103.012597,3.8528032 C104.724809,3.92872645 106.474423,3.92872645 108.185367,3.81547428 C109.55463,4.11853456 110.885858,4.99228457 111.342279,6.35827027 C112.559401,9.4711233 113.396173,12.6984939 113.890629,16.0005223 C113.776524,18.8103151 113.738489,21.6188424 113.813925,24.4659641 C113.776524,25.8325825 113.776524,27.2371625 113.776524,28.6423752 C113.738489,28.793589 113.69982,29.1352436 113.69982,29.3250517 C113.662419,31.2617272 112.748943,33.7285999 113.738489,35.5134288 C113.813925,35.626681 114.0041,35.8164891 114.081438,35.930374 C117.313786,40.2965933 117.047541,45.9908366 119.405082,50.6980777 C120.355959,51.4952718 122.068171,50.8113299 123.285294,51.0390997 C124.693225,51.3434253 126.099889,51.4193486 127.545856,51.304831 C128.799746,51.2675021 129.903397,51.8369264 130.854274,52.6341205 C131.04445,53.1655832 130.588029,53.5072378 130.207678,53.7729691 C128.496733,53.8102981 126.784521,53.5451994 125.072942,53.9248156 C124.198136,53.9248156 123.322695,54.1146237 122.523958,54.4562783 C121.38354,54.6074921 120.052312,54.1146237 119.0634,54.7593386 C118.150558,55.4432805 118.987964,56.9617454 118.797154,57.9481149 C118.683049,59.1628868 118.492874,60.3782914 118.416804,61.5924306 C119.671327,62.7692409 121.53568,62.3896247 123.019048,63.035605 C124.577852,63.7942047 126.518275,63.9466839 127.812102,65.1614558 C128.153784,66.0339404 127.012097,66.1857869 126.442839,66.375595 C124.236171,66.2623429 122.030136,66.2623429 119.823468,66.2237486 C118.264663,65.0469383 116.629155,66.8317672 116.856731,68.4261553 C117.541997,69.2606783 118.872591,68.5780018 119.709362,69.0708702 C123.551539,70.8930281 126.936661,74.3102068 127.621293,78.637199 C127.507187,80.0803734 127.430483,81.5602439 127.582624,83.0034183 C127.316378,85.2804829 126.175326,87.25512 125.149012,89.2291243 C122.904943,92.3419773 119.7867,94.5817131 116.8954,97.0106242 C113.585715,99.5160913 109.668735,100.883342 106.169508,103.009193 C104.534,103.958234 102.518141,104.299256 101.301018,105.780392 C101.98565,110.297192 103.583123,114.70074 103.963474,119.294096 C103.849368,120.699309 103.963474,122.141218 104.305155,123.507837 C104.305155,126.583361 104.19105,129.657619 104.381859,132.732511 C104.419895,136.794404 102.823055,140.629161 100.958068,144.158959 C99.0195473,147.424291 95.1393354,148.600469 91.6787771,149.663394 C91.0695819,149.701989 90.4616546,149.739317 89.8524594,149.815241 C88.5599007,149.170526 87.6844599,149.322372 87.2274051,150.233451 C85.3256511,150.119566 83.4238972,150.156895 81.5608123,150.043643 C79.2020035,149.626065 76.8444625,149.701989 74.4862876,149.815241 C71.2152708,150.309375 68.5908504,147.993716 65.8903598,146.702388 C64.3309216,147.727984 62.8475535,148.942756 61.0212358,149.473586 C59.7286771,149.549509 58.245309,148.942756 57.0655876,149.739317 C55.0503624,149.815241 52.9964681,149.587471 51.018644,150.119566 C49.1168901,150.119566 47.1771011,150.119566 45.2753471,150.156895 C44.4011743,149.51218 43.5257335,149.397663 42.5748566,149.853202 C38.9989252,149.284411 35.3475577,148.182891 32.4575256,145.867232 C29.9085414,142.603165 28.8822282,138.579233 28.1595617,134.59263 C28.1975968,132.42945 28.1975968,130.265638 28.1975968,128.101193 C28.1975968,126.583361 28.1975968,125.064263 28.1975968,123.546431 C28.1975968,123.05293 28.2362658,122.59739 28.273667,122.103889 C28.4638424,120.926446 28.5779476,119.711674 28.5392786,118.534864 C28.9963335,114.853219 29.2245439,110.981134 30.8980874,107.639878 C31.5440498,106.729432 30.8220172,105.400143 29.757035,105.248296 C27.0185094,104.489696 24.6983696,102.781423 22.1880544,101.452134 C15.1515648,97.731895 8.03837116,92.2654214 6.02314591,84.1422669 C6.09921606,82.2055915 6.17528622,80.2322199 6.02314591,78.2955444 C6.55500309,74.2336508 10.2830747,71.6902222 13.820337,70.2856421 C14.3147931,70.3242364 14.8092491,70.3615654 15.3417402,70.4001597 C14.8853192,69.2606783 13.4773874,69.4511191 12.5651794,69.9439875 C11.386092,70.5140446 10.0548643,70.9689513 8.76167157,70.5513735 C7.73472445,70.7791432 5.98511083,70.2483132 6.59367209,68.994947 C8.34328571,66.6039975 11.9185831,67.1727891 14.0105124,65.4265545 C13.2878459,62.959049 12.5265104,60.4915436 11.5001972,58.1385557 C11.1204804,57.2648057 9.18005744,57.4166522 8.87577681,58.3283638 C7.84882968,58.3283638 6.78384748,58.3283638 5.75690035,58.3283638 C4.76735439,57.9481149 3.85514642,58.0240381 3.05640976,58.5555009 C1.72518201,58.9357498 0.584129648,58.5934625 -0.101135687,57.4546138 C1.80061825,55.3293957 4.9581637,55.2528397 7.54454905,54.6840481 C8.64756634,54.7220097 9.75058362,54.9111851 10.7775307,54.6074921 C12.6412496,54.7220097 11.6143025,52.5196029 11.7664428,51.3434253 C12.0713573,48.9898047 12.5265104,46.7114747 12.831425,44.3578541 C13.3639161,41.2829627 15.0754946,38.5883203 16.3686873,35.7785275 C16.7870732,34.8674486 17.7379502,33.9563696 17.4717046,32.8561153 C16.9011784,30.4259388 16.216547,27.996395 15.722091,25.5674838 C15.4178104,22.1503051 15.8748652,18.6957975 16.3686873,15.3172131 C17.5471408,11.9386287 19.4875638,8.02921434 23.1389313,6.85177136 C25.3449659,7.00425054 27.5884016,7.00425054 29.8331052,6.89036568 C35.0819461,7.53571326 39.5700853,10.4201639 44.5907157,11.8627055 C46.9488906,11.7874149 49.3451006,11.5210509 51.6652404,11.0661441 C55.8116979,11.2553195 59.9182185,11.2179906 64.026641,11.1034731 C64.521097,11.1414347 64.9775179,11.1793963 65.471974,11.1793963 L65.8523247,11.1793963 C65.8142897,10.1171036 65.7382195,7.9532911 65.7001844,6.89036568 C66.0805352,5.10616943 67.0694473,3.5111486 68.0583593,1.99331641 C68.5908504,2.25904776 69.3135169,1.87879885 69.1994117,1.23345127"/>
    <path fill="#545A58" d="M79.9101552,1.23646273 C80.3868948,1.19223311 80.7283972,1.64202579 80.8988643,2.13679773 C80.4215565,2.45165261 79.807875,1.95688066 79.9101552,1.23646273"/>
    <path fill="#884D62" d="M71.8988643,4.23345127 C72.3395423,2.46221281 74.8141186,3.67358151 75.8988643,3.25426157 L75.8988643,3.67358151 C74.5423671,3.58117582 73.1869999,3.72094913 71.8988643,4.23345127"/>
    <path fill="#DB678F" d="M71.6291173,4.70628011 C73.0817461,4.29306113 74.610192,4.18036504 76.1399121,4.25486967 C76.7515453,4.25486967 77.2096331,4.6305233 77.7454492,4.85591548 C77.8219034,4.9310462 77.9748117,5.04436838 78.0512658,5.1194991 C78.12772,5.15643838 78.2799911,5.30732592 78.3570824,5.38183055 C78.5482178,5.75811027 78.8540344,6.05863317 79.235668,6.24645998 C79.3127593,6.32096462 79.4656676,6.47122607 79.5038946,6.54635679 C79.5803488,6.62148752 79.7332571,6.77237506 79.7714842,6.84750578 C81.721065,8.87603536 81.9122003,11.9933344 83.8624183,14.021864 C86.6134934,12.6325716 88.7166196,9.88967406 91.8123756,9.17593217 C93.570821,9.17593217 95.3674935,9.17593217 97.1648031,9.17593217 C99.6113359,9.51464653 101.178646,12.0690912 100.60524,14.435709 C99.4966547,17.2149198 97.0112577,19.2440754 94.5264979,20.8963253 C94.4506808,21.3471097 94.4506808,21.7985201 94.5264979,22.2486784 C96.4002616,23.0006117 98.5021136,23.4889614 99.8400612,25.1036459 C100.260559,25.5919956 100.681057,26.1561022 101.332191,26.3808682 C102.210777,26.9074094 102.707092,28.1088749 102.898864,29.0855744 C102.898864,30.0628999 102.898864,31.0765386 102.898864,32.0908034 C102.554184,33.0681289 101.369144,33.6316093 100.528149,34.2702205 C97.7382092,35.6595128 94.565362,35.058467 91.8512397,33.8194361 C89.9010218,33.2183903 88.6408026,30.8142071 86.5376764,30.9638425 C85.6578165,34.0442022 85.390227,37.4257109 83.7088729,40.3176178 C82.7907859,41.068925 81.7975191,41.783293 80.727161,42.2334513 C79.4274405,42.2334513 78.2041741,42.2334513 76.9044536,42.2334513 C75.4900518,41.6324055 73.9991959,40.4678792 73.8462876,38.8531947 C73.5016068,36.4108201 74.4572837,33.5558525 73.540471,31.2649915 C72.2789775,30.8887118 70.9410299,30.8887118 69.5266282,31.2649915 C67.6528644,31.3401222 65.7803749,31.3401222 63.9072482,31.3401222 C61.7658949,30.8142071 59.2435451,29.4987933 58.8988643,27.1697409 C58.9377285,26.5311297 58.9377285,25.2539074 58.9377285,24.6528616 C59.5875888,22.4365052 61.7658949,21.0465868 63.9072482,20.4837324 C66.3920081,20.1074527 68.914995,20.0705134 71.4379819,19.9953827 L71.5902531,19.7324252 L71.7062085,19.4312762 C72.2789775,16.8017008 69.1443574,14.848928 69.2590387,12.1811612 C69.2590387,10.6791728 69.2590387,9.17593217 69.2590387,7.67331767 C69.1825845,7.22253332 69.3354928,6.88444506 69.7177635,6.62148752 C70.3676238,6.02044172 71.0174841,5.38183055 71.6291173,4.70628011"/>
    <path fill="#DCDEDD" d="M103.898864,3.9749617 C105.133397,3.0759617 106.621786,3.5559617 107.898864,3.9749617 C106.537404,3.9749617 105.219198,4.0349617 103.898864,3.9749617"/>
    <path fill="#8E5066" d="M69.9142166,6.23345127 C69.7547832,5.2547141 70.866186,4.15852847 71.8988643,4.23747994 C71.263777,4.94151821 70.5889968,5.60705948 69.9142166,6.23345127"/>
    <path fill="#663046" d="M78.1588643,4.52295127 C78.2788643,4.64295127 78.5188643,4.82395127 78.6388643,4.94395127 C78.5188643,4.82395127 78.2788643,4.64295127 78.1588643,4.52295127"/>
    <path fill="#747B7A" d="M102.898864,3.96158945 C103.082688,3.84158945 103.487712,3.54158945 103.67031,3.42158945 C104.811242,3.48158945 105.950335,3.42158945 107.126805,3.42158945 C107.311242,3.54158945 107.714428,3.78258945 107.898864,3.90258945 C106.245065,4.08158945 104.553889,4.08158945 102.898864,3.96158945"/>
    <path fill="#81495D" d="M78.1588643,4.52395127 C78.2788643,4.58295127 78.5178643,4.82395127 78.6388643,4.94295127 C78.5178643,4.82395127 78.2788643,4.58295127 78.1588643,4.52395127"/>
    <path fill="#C9CBCB" d="M91.8988643,5.14575909 C93.1125548,3.64575909 95.5411262,4.54675909 96.8988643,5.08575909 C95.2202929,5.08575909 93.5417215,5.14575909 91.8988643,5.14575909"/>
    <path fill="#723E52" d="M78.8988643,4.24742877 C79.6707705,4.16246376 79.9709563,4.46162627 79.8844742,5.23345127 C79.4563521,5.01925377 79.1132827,4.67653777 78.8988643,4.24742877"/>
    <path fill="#515956" d="M92.0547085,4.46345127 C93.8469163,4.46345127 95.6780851,4.40345127 97.5092539,4.40345127 C97.5865267,4.58445127 97.8215916,4.94345127 97.8988643,5.06345127 C95.911202,5.06345127 93.8858773,5.00445127 91.8988643,4.94345127 L92.0547085,4.46345127"/>
    <path fill="#4D5350" d="M96.8988643,5.38985661 C97.6595013,5.38985661 99.1382273,5.28558638 99.8988643,5.23345127 C99.5853535,6.74623851 97.6595013,6.32828868 96.8988643,5.38985661"/>
    <path fill="#885165" d="M79.1883643,5.49395127 C79.3093643,5.61295127 79.5493643,5.85295127 79.6093643,5.97295127 C79.5493643,5.85295127 79.3093643,5.61295127 79.1883643,5.49395127"/>
    <path fill="#834B60" d="M79.1888643,5.49295127 C79.3088643,5.61295127 79.5488643,5.85395127 79.6088643,5.97395127 C79.5488643,5.85395127 79.3088643,5.61295127 79.1888643,5.49295127"/>
    <path fill="#C9CFCF" d="M23.8988643,7.06909387 C25.4023608,5.74809387 27.3254377,6.64909387 28.8988643,7.00809387 C27.2205426,7.06909387 25.577186,7.12809387 23.8988643,7.06909387"/>
    <path fill="#677271" d="M22.8988643,6.878848 C23.0175196,6.758848 23.2574817,6.579848 23.376137,6.459848 C25.2852279,6.518848 27.1545461,6.459848 29.063637,6.398848 C29.2625007,6.518848 29.6993378,6.819848 29.8988643,6.939848 C27.5516105,7.119848 25.2056825,7.119848 22.8988643,6.878848"/>
    <path fill="#764A5B" d="M69.2091577,12.2334513 C69.9301577,10.9417846 67.9501577,7.85845127 69.8101577,7.23345127 C69.8101577,8.90011794 69.8101577,10.567479 69.8101577,12.2334513 L69.2091577,12.2334513"/>
    <path fill="#5A6160" d="M65.0388643,8.47257208 C65.2188643,8.04773066 65.3388643,7.65770263 65.5188643,7.23345127 C65.5788643,8.22474792 65.6988643,10.2427447 65.7588643,11.2334513 L65.1588643,11.2334513 C65.0988643,10.3129615 65.0988643,9.39247177 65.0388643,8.47257208"/>
    <path fill="#5F2841" d="M92.8988643,7.43295127 C93.8988643,7.55295127 95.8988643,7.85295127 96.8988643,8.03395127 C95.5381976,8.03395127 94.219531,8.03395127 92.8988643,8.03395127 L92.8988643,7.43295127"/>
    <path fill="#AA5E7B" d="M91.8988643,9.08379657 C92.0059944,8.42379657 92.3642851,8.24479657 92.9707605,8.48479657 C94.1497868,8.48479657 95.3270276,8.48479657 96.541764,8.48479657 C96.6488941,8.60479657 96.8280394,8.90479657 96.8988643,9.08379657 C95.2198975,9.08379657 93.5415259,9.08379657 91.8988643,9.08379657"/>
    <path fill="#F4F4F3" d="M102.9164,8.68973802 C104.32904,8.00795068 105.971496,8.15945897 107.385409,8.68973802 C109.523785,12.363183 110.364111,16.6060467 110.898864,20.7346478 C110.898864,22.4006079 110.861941,24.0671991 110.861941,25.7344217 C110.594564,23.6511826 107.461165,24.2572158 106.583279,25.5450364 C105.132443,26.0753154 106.774899,27.6282755 106.506249,28.4609398 C108.493112,29.5972521 106.736066,31.8698766 105.895739,33.2334513 C106.888852,29.5221292 105.781149,25.2798968 102.610827,22.8936411 C102.03724,21.7945747 99.9376976,21.6815747 99.8988643,20.431 C102.11427,18.5371462 104.253283,15.8863823 104.024103,12.7798308 C103.91015,11.3783791 102.878203,10.1290669 102.9164,8.68973802"/>
    <path fill="#B3B7B9" d="M24.8988643,10.4329513 C25.9165943,10.4329513 27.8811344,10.4329513 28.8988643,10.4329513 L28.8988643,11.0339513 C27.553812,11.0339513 26.2445227,11.0339513 24.8988643,11.0339513 L24.8988643,10.4329513"/>
    <path fill="#FCFBFB" d="M21.5886539,15.1548899 C22.7604709,13.9777514 23.1014892,11.0523184 25.2194587,11.2422816 C26.6188314,11.2422816 27.9803832,11.2422816 29.3791255,11.2422816 C34.9394257,11.8115379 39.9696032,14.4710225 44.9241389,16.9025512 C46.7017205,17.0171623 48.4036602,16.1806911 50.1806114,16.1806911 C51.731898,16.1806911 53.2825542,16.1426985 54.7953895,15.9527353 C58.9556867,15.6867868 63.078163,15.8387574 67.2384602,15.801398 C68.0705196,15.5348163 67.1628184,16.6366027 66.8224305,16.5606175 C62.5486706,17.1691329 57.1781052,18.8788015 56.1569413,23.6658736 C55.7409116,25.0329753 55.7409116,26.3633508 56.1191204,27.6924599 C57.0646425,31.643694 60.9223726,33.2393848 64.4397148,34.1138486 C66.330759,34.5311344 68.259624,34.3791638 70.1884891,34.4171565 C70.1128473,39.0528913 72.495563,43.8019708 76.9206063,45.5489989 C78.2815278,45.9289252 79.6058891,45.9289252 80.8917991,45.5116395 C84.3328691,43.9913008 87.2078866,41.2944568 88.1534087,37.5325526 C88.3797037,36.7733331 88.5309872,36.0134804 88.7957334,35.2536277 C89.3630466,35.5569356 89.9309902,35.8615099 90.5367547,36.0888325 C91.8598553,36.7347073 93.2585976,37.2286116 94.6964216,37.5711785 C96.1336151,37.8371269 97.683641,38.0650828 99.0830137,37.6085379 C101.768296,37.0386484 104.604863,35.9374951 105.74012,33.2773774 C106.572179,31.9096425 108.31194,29.6300843 106.344623,28.4903052 C106.61063,27.6551004 104.984332,26.0974024 106.420895,25.5655055 C107.290145,24.2737558 110.392719,23.6658736 110.657465,25.7554686 C110.657465,27.0845777 110.732476,28.4523126 110.619013,29.7820549 C110.392719,31.3017603 110.354267,32.8594584 110.241435,34.3791638 L110.202984,34.6831049 C110.202984,35.747532 109.560029,37.0006557 110.241435,37.9131122 C111.338241,40.0780593 112.698532,42.1296616 113.530591,44.409853 C113.757516,46.5748001 114.401102,48.664395 114.854322,50.75399 C115.120329,51.6658133 114.136356,51.9317618 113.45558,52.0457397 C111.677998,52.5022845 109.408745,52.3123213 108.122205,53.8700194 C107.668985,55.1231432 108.651697,56.6808413 110.316446,55.693666 C111.791461,55.693666 113.606863,54.2499458 114.779311,55.3890917 C114.703039,57.669283 114.514564,59.9108486 114.023523,62.1137883 C112.926087,62.266392 111.602987,61.8104804 110.657465,62.4563552 C110.542741,62.5703331 110.316446,62.7216704 110.202984,62.7982889 C109.106178,64.2033833 111.035043,65.0012286 112.207491,65.191825 C112.62352,65.2678103 113.45558,65.3431623 113.304296,65.9510445 C112.510058,67.7746911 111.564536,69.5223523 110.694025,71.3086394 C109.18119,71.9165216 106.911937,71.0046983 105.74012,72.0304995 L105.626657,72.3338074 C104.832418,73.8161534 106.911937,74.7273435 108.047193,75.1832551 C100.596479,84.1495173 88.4175246,86.3910828 77.4122778,87.227554 C73.9327565,87.227554 70.4154144,87.2649134 66.9352628,87.1515687 C64.7422819,86.7710092 62.5486706,86.8469944 60.3550594,86.8469944 C59.7121044,86.8469944 58.425564,86.8856203 57.8210602,86.8856203 C48.1010932,86.0877749 38.0407382,84.3401136 29.7957856,78.8311814 C29.0771888,78.0713287 27.6778161,77.7293949 27.4880813,76.6269753 C28.4336034,76.057719 29.5688603,75.7157852 30.4765615,74.9932919 C30.4009197,73.8541461 29.4175767,72.2198295 27.9047414,73.1696454 C26.3162643,74.461395 23.2149518,74.9559325 22.5341759,72.4484185 C21.9290418,71.0046983 20.3027438,69.9022787 20.3027438,68.2692285 C21.6642956,67.8506763 23.1014892,67.6227205 24.4252201,67.0154715 C24.3495784,66.5209341 24.7656081,65.7230887 24.1982948,65.4577735 C23.2527727,64.963236 21.9290418,65.0398545 20.9456988,65.4577735 C20.4162065,65.6850961 19.8488932,66.0656556 19.2437591,65.9130519 C17.6931029,63.7481048 17.7309237,60.8220386 16.9366852,58.3525173 L17.2770731,58.3525173 C19.1681173,58.0865688 21.7777583,58.8844142 23.3662354,58.0112168 C23.8957277,57.2887235 23.6688024,56.4528855 23.2149518,55.8076439 C21.210445,55.0851506 18.9783826,55.5416954 16.9366852,54.857828 L16.8988643,54.515261 C16.8988643,52.9955556 16.8988643,51.5138428 16.8988643,49.9947705 C16.9745061,42.927507 20.8322362,36.7733331 24.463041,30.9984524 C25.6354884,29.8206807 24.1604739,27.6551004 22.7232804,28.4903052 C22.3444412,28.718261 21.6642956,29.5167396 21.3239077,28.832239 C18.8655503,24.6156895 20.1136394,19.4860505 21.5886539,15.1548899"/>
    <path fill="#67716E" d="M51.8988643,11.8977697 C55.8496335,11.0577697 59.9480951,11.2977697 63.8988643,11.9567697 C59.9105566,12.1377697 55.9240951,12.1967697 51.8988643,11.8977697"/>
    <path fill="#2A302D" d="M57.8988643,14.4606179 C59.910629,14.4606179 61.8870996,14.3406179 63.8988643,14.4606179 L63.8988643,15.0596179 C61.8870996,15.0596179 59.910629,15.0596179 57.8988643,15.0596179 L57.8988643,14.4606179"/>
    <path fill="#8A9294" d="M53.91199,16.0795162 C53.6893579,14.2844618 56.3609435,15.9768928 57.2143666,15.5150874 C59.3293719,15.5150874 61.4072718,15.5150874 63.522277,15.5150874 C64.4499109,15.9768928 66.4529816,14.7462671 66.8988643,16.0290597 C62.8172753,16.0795162 58.7727915,15.8742694 54.6912025,16.2334513 C54.5056757,16.1829948 54.0981352,16.1316831 53.91199,16.0795162"/>
    <path fill="#ACB1B3" d="M49.8988643,16.1533931 C50.2273713,14.4143931 52.8909419,15.9743931 54.0383261,15.6133931 C54.2438991,15.6743931 54.6939743,15.7343931 54.8988643,15.7933931 C53.259744,16.0933931 51.5796456,16.1533931 49.8988643,16.1533931"/>
    <path fill="#97586F" d="M78.8988643,17.2334513 C79.626137,15.702511 81.5897734,16.4229535 82.8988643,16.28712 L82.8988643,16.738147 C81.5170461,16.6480917 80.2073492,16.8282024 78.8988643,17.2334513"/>
    <path fill="#5D6563" d="M114.219715,16.2334513 C114.338715,16.3529203 114.578715,16.5918583 114.699715,16.7113274 C114.699715,19.5394247 114.520715,22.4060176 114.760715,25.2334513 L114.098715,25.1139822 C113.979715,22.1272566 114.039715,19.1810176 114.219715,16.2334513"/>
    <path fill="#261314" d="M78.9086898,16.6849026 C80.2188157,16.3317381 81.5301552,16.1747761 82.9137064,16.2532571 C85.4623533,17.1943752 87.500664,19.981105 86.7360699,23.0418643 C86.4812052,25.3570541 84.4428945,27.3190793 82.2219308,26.9266742 C78.7630528,28.4171594 75.2677657,24.1798389 75.9959505,20.608953 C76.7969538,19.1564004 77.4523201,17.3905777 78.9086898,16.6849026"/>
    <path fill="#D2D6D4" d="M114.078758,17.2334513 C115.457758,19.700741 114.438758,22.654012 114.139758,25.2334513 C113.899758,22.5792457 114.078758,19.8882799 114.078758,17.2334513"/>
    <path fill="#3A1323" d="M67.8988643,19.1144663 C68.2834181,17.4354663 70.7830175,18.8754663 71.8988643,18.6944663 L71.7822163,19.1754663 C70.4753745,19.1144663 69.2063471,19.1144663 67.8988643,19.1144663"/>
    <path fill="#DCAD44" d="M77.9685803,23.5992898 C77.4468482,21.3352243 79.9351088,18.104646 82.7036333,19.6268108 C84.6306975,19.2561699 84.3089627,20.8890939 84.7102951,21.8549879 C85.4326933,23.1915228 83.9082992,24.3789352 83.0246992,25.1957065 C82.343103,25.1957065 81.0180373,25.1957065 80.3364412,25.2334513 C79.3732435,25.1214546 78.4100459,24.4166799 77.9685803,23.5992898"/>
    <path fill="#854860" d="M63.8988643,20.2334513 C64.535733,18.9955448 66.6446973,19.4245694 67.8792939,19.2334513 C69.2326399,19.2334513 70.5461817,19.2334513 71.8988643,19.2818256 L71.7403105,19.6148946 C69.113227,19.7100571 66.4861435,19.7568454 63.8988643,20.2334513"/>
    <path fill="#676F6D" d="M111.145031,20.2334513 L111.745031,20.2334513 C111.745031,23.5791786 111.805031,26.9255469 111.745031,30.2334513 L111.087031,30.1949873 C111.087031,30.0026672 111.026031,29.5802043 111.026031,29.3872432 C111.206031,28.041003 111.087031,26.6562989 111.087031,25.3106998 C111.087031,23.6176426 111.145031,21.9252264 111.145031,20.2334513"/>
    <path fill="#92999B" d="M56.5360184,27.2334513 C55.9360184,25.9131179 55.9360184,24.5915264 56.5960184,23.2334513 C56.6560184,24.5537847 56.8360184,25.9131179 56.5360184,27.2334513"/>
    <path fill="#6B2D42" d="M59.7579268,27.2334513 C58.7389268,26.8312125 58.6789268,24.5468841 59.8189268,24.2334513 C59.8189268,24.9498692 59.8189268,26.4722572 59.7579268,27.2334513"/>
    <path fill="#743F54" d="M99.8988643,25.3048685 C100.796089,25.0048998 102.191772,25.7145373 101.844513,26.2334513 C100.995473,26.0700389 100.447168,25.6599148 99.8988643,25.3048685"/>
    <path fill="#9B7B49" d="M79.8988643,24.3743887 C80.6595013,24.3133887 82.1382273,24.3133887 82.8988643,24.3133887 C82.5860999,25.4533887 80.2571624,25.3933887 79.8988643,24.3743887"/>
    <path fill="#8E9494" d="M114.097364,25.2334513 L114.759364,25.3425257 C114.577364,26.6156661 114.638364,27.9239527 114.638364,29.2334513 L114.038364,29.2334513 C114.038364,27.8875946 114.038364,26.5423439 114.097364,25.2334513"/>
    <path fill="#663149" d="M103.052984,28.2334513 C104.372984,28.5709513 103.352984,30.3340763 103.593984,31.2334513 L103.052984,31.2334513 C103.052984,30.2209513 103.052984,29.2090763 103.052984,28.2334513"/>
    <path fill="#A4A9AB" d="M114.151229,29.2334513 L114.751229,29.2334513 C114.811229,31.5663795 114.690229,33.9005231 114.632229,36.2334513 C114.510229,36.1240668 114.210229,35.9417593 114.091229,35.8329825 C114.091229,33.8640616 114.210229,31.8580715 114.030229,29.8891505 C114.030229,29.7068431 114.091229,29.3786896 114.151229,29.2334513"/>
    <path fill="#989EA0" d="M110.034743,34.1924677 C110.213743,32.5531234 110.274743,30.8727955 110.633743,29.2334513 C110.633743,29.4390524 110.694743,29.889189 110.694743,30.094107 C110.752743,31.4882327 110.813743,32.8816753 110.694743,34.2334513 L110.034743,34.1924677"/>
    <path fill="#2F3632" d="M113.741467,36.2334513 C112.180467,34.5029534 113.621467,32.1111734 113.680467,30.2334513 C113.860467,32.2209781 113.741467,34.2459244 113.741467,36.2334513"/>
    <path fill="#7A4358" d="M69.8988643,30.9243396 C71.3083881,30.3233396 72.6417215,30.3233396 73.8988643,30.9243396 C72.565531,30.9833396 71.2321976,31.0443396 69.8988643,30.9243396"/>
    <path fill="#241218" d="M86.678207,31.2398832 C88.7445607,31.0960102 89.9827454,33.40761 91.8988643,33.98551 C91.5614621,34.5989267 89.0819629,35.7186079 90.6588017,36.0797953 L90.622495,36.4409828 C90.02093,36.2248723 89.4569238,35.9353203 88.8935435,35.6469723 C88.6306327,36.3693473 88.480398,37.0917222 88.2556718,37.8134952 C88.4434653,36.4771016 86.9411178,36.4048641 85.9276593,36.2971098 C85.3260944,37.5973847 85.6634966,39.7639076 83.8988643,40.2334513 C85.5508205,37.4529097 85.8137313,34.2016205 86.678207,31.2398832"/>
    <path fill="#6F3F54" d="M63.8988643,30.4778361 C65.8460991,30.4778361 67.7926716,30.4778361 69.7405687,30.3578361 L69.8988643,30.9568361 C67.9125524,31.0768361 65.8858386,31.1978361 63.8988643,31.0168361 L63.8988643,30.4778361"/>
    <path fill="#2C1017" d="M69.8988643,31.2334513 C71.2321976,31.2969433 72.565531,31.2646682 73.8988643,31.2334513 C73.8601342,31.9001179 73.8226738,32.5662555 73.8226738,33.2334513 L73.5179119,33.1376841 C73.365531,32.6297476 73.21315,32.1540862 72.9845786,31.6778957 C71.9941024,31.6778957 71.0417215,31.6461497 70.0506103,31.5503825 L69.8988643,31.2334513"/>
    <path fill="#9D5B75" d="M73.2005001,30.2334513 C74.6395001,32.6486328 73.1395001,35.6585338 73.6805001,38.2334513 C73.0205001,38.1139793 72.7805001,37.7185998 73.0805001,37.0446724 C73.0805001,35.6189298 73.0805001,34.1535833 73.0805001,32.7285008 C73.0805001,31.8961575 73.1395001,31.0651344 73.2005001,30.2334513"/>
    <path fill="#4C2032" d="M73.2188643,33.2334513 L73.6988643,33.3411894 C73.6988643,34.6263084 73.6988643,35.947737 73.6988643,37.2334513 L73.0988643,37.2334513 C73.0988643,36.2334513 73.1588643,34.2340465 73.2188643,33.2334513"/>
    <path fill="#401828" d="M91.8988643,33.2334513 C94.7099306,34.656251 97.9961067,35.3464418 100.885698,33.7510944 C101.004475,34.3974294 100.293131,34.7001068 99.8173609,34.7863807 C97.125072,35.5189895 94.2341609,35.4758526 91.9384568,33.7079575 L91.8988643,33.2334513"/>
    <path fill="#8D999D" d="M63.8988643,33.5698459 C65.8988643,33.4498459 67.8988643,33.3298459 69.8988643,33.5098459 L69.8596486,34.0488459 C67.8596486,33.9888459 65.8596486,34.2288459 63.8988643,33.5698459"/>
    <path fill="#9DA2A4" d="M110.583527,38.2334513 C109.502527,37.3859704 110.522527,36.2220809 110.522527,35.2334513 C110.762527,36.25678 110.762527,37.2448216 110.583527,38.2334513"/>
    <path fill="#767D7D" d="M94.8988643,37.5870804 C96.2438851,37.4670804 97.588906,37.2260804 98.8988643,37.6460804 C97.6228189,38.3670804 96.2093974,38.0070804 94.8988643,37.5870804"/>
    <path fill="#80405A" d="M76.8988643,41.4329513 C78.2588643,41.4329513 79.5388643,41.4329513 80.8988643,41.4329513 L80.8988643,42.0339513 C79.8988643,41.8529513 77.8988643,41.5529513 76.8988643,41.4329513"/>
    <path fill="#889091" d="M76.8988643,45.5960997 C78.2321976,45.4170997 79.565531,45.3560997 80.8988643,45.5370997 C79.6036262,46.1960997 78.269658,46.1960997 76.8988643,45.5960997"/>
    <path fill="#7A8281" d="M119.898864,51.4364369 C121.232633,51.3154369 122.565095,51.4964369 123.898864,51.9754369 C122.644167,51.6154369 120.879096,52.6964369 119.898864,51.4364369"/>
    <path fill="#5D6663" d="M123.898864,51.4834169 C125.220691,51.5444169 126.577037,51.6634169 127.898864,51.9034169 C126.541328,52.0844169 125.220691,51.9644169 123.898864,51.4834169"/>
    <path fill="#9DA3A5" d="M10.8988643,55.2295071 C11.6352151,54.3932364 11.6686856,53.2787896 11.769097,52.2334513 C11.6352151,53.3130535 12.5389183,55.3346217 10.8988643,55.2295071"/>
    <path fill="#5C6562" d="M124.898864,54.6428405 C126.565531,54.0428405 128.232815,54.4618405 129.898864,54.4028405 C129.121087,55.0018405 128.268617,55.2418405 127.342691,55.1218405 C126.527877,54.9428405 125.714296,54.8218405 124.898864,54.6428405"/>
    <path fill="#A5ABAC" d="M122.898864,55.1534513 C123.688338,54.6134513 124.553626,54.3134513 125.418288,54.3134513 C126.245982,54.4924513 127.071797,54.6134513 127.898864,54.7924513 C126.245982,55.3324513 124.553626,55.0334513 122.898864,55.1534513"/>
    <path fill="#899191" d="M7.89886431,54.781666 C8.88709961,54.360666 9.91062902,54.600666 10.8988643,54.660666 C9.94592314,55.140666 8.92239372,54.841666 7.89886431,54.781666"/>
    <path fill="#AFB5B6" d="M119.898864,54.918944 C120.756164,53.899944 121.910222,54.678944 122.898864,54.439944 C122.042114,55.578944 120.888606,54.859944 119.898864,54.918944"/>
    <path fill="#858B8C" d="M119.322102,58.2334513 C119.623102,57.3054751 118.302102,55.8769037 119.742102,55.2334513 C119.742102,56.2340465 119.502102,57.2334513 119.322102,58.2334513"/>
    <path fill="#222221" d="M37.7352514,64.6831638 C36.2057975,61.8920005 36.6485342,57.3580556 40.1106005,56.2334513 C41.1563981,56.2722085 42.2028665,56.4666403 43.2090861,56.7379406 C44.0945594,57.43557 44.6580424,58.3269853 44.8592863,59.4115405 C44.8988643,60.5361449 44.8988643,61.6982145 44.8988643,62.8609301 C44.8190376,65.1476041 42.4436884,65.6902047 40.5526663,66.2334513 C39.6269443,65.6902047 38.741471,65.1094929 37.7352514,64.6831638"/>
    <path fill="#212221" d="M92.36914,56.3179423 C96.004695,55.5386961 97.7467318,60.3304109 96.4963786,63.2525842 C95.7396025,66.1747575 91.3845106,67.4994761 89.7175834,64.6558768 C89.3022717,62.9408857 88.3921206,61.0706948 89.2637702,59.3563532 C89.6424738,57.7985101 91.0058069,56.8634146 92.36914,56.3179423"/>
    <path fill="#919999" d="M0.739497361,59.0545577 C0.331202135,58.633704 -0.485388318,57.9335776 0.107877019,57.2334513 C0.776615109,58.633704 1.89014754,59.0545577 3.18926872,58.5870289 C3.85738818,58.633704 5.1936271,58.6803791 5.89886431,58.7278321 C4.26568341,59.6613339 2.40979601,59.0071047 0.739497361,59.0545577"/>
    <path fill="#5F6866" d="M8.89886431,59.2334513 C9.2466904,58.0502591 11.4648063,57.8531973 11.8988643,58.987124 C11.1597339,59.0848338 9.63727011,59.1841858 8.89886431,59.2334513"/>
    <path fill="#28312D" d="M2.89886431,59.0103521 C3.76187801,58.1703521 4.74749445,58.0503521 5.81667253,58.6513521 L5.89886431,59.1913521 C5.11804239,59.1303521 3.63859034,59.0703521 2.89886431,59.0103521"/>
    <path fill="#858D8E" d="M5.89886431,58.4634513 C6.88666919,58.4634513 7.91105943,58.4634513 8.89886431,58.4634513 C7.9476448,59.0034513 6.9226448,58.8824513 5.97203504,59.0034513 L5.89886431,58.4634513"/>
    <path fill="#9FA5A7" d="M110.898864,62.9564912 C111.723191,61.9364912 112.876699,62.6564912 113.833468,62.4154912 L113.898864,63.0764912 L113.569134,63.0764912 C112.678311,63.0154912 111.788588,63.0154912 110.898864,62.9564912"/>
    <path fill="#424947" d="M109.898864,62.7559007 C110.027897,62.6388333 110.285244,62.4076011 110.41571,62.2334513 C111.576284,62.2905337 112.736857,62.2905337 113.898864,62.3495511 C113.812126,64.2071489 110.974133,62.5227334 109.898864,62.7559007"/>
    <path fill="#757C7C" d="M20.8988643,65.9141134 C21.8058411,65.2541134 23.0267713,65.1331134 23.8988643,65.9141134 C22.8872364,66.1541134 21.8756085,66.1541134 20.8988643,65.9141134"/>
    <path fill="#1E1D18" d="M62.1995015,70.0694485 C60.9692643,67.5605477 63.7638465,65.3425339 66.0740344,65.2334513 C67.4526949,65.2334513 68.7940943,65.2334513 70.1727548,65.2334513 C71.6259375,65.5243383 73.1909035,66.4697212 73.8988643,67.779319 C73.8988643,68.7247019 73.8616032,69.6700849 73.8616032,70.6148618 C73.2281646,71.8874926 71.7749819,72.6147103 70.5453658,73.2334513 C69.2784885,73.2334513 68.0488724,73.2334513 66.8192563,73.2334513 C65.0679848,72.6510711 62.5714914,72.1783797 62.1995015,70.0694485"/>
    <path fill="#ABB1B2" d="M119.898864,66.3737672 C122.232421,66.4347672 124.565308,66.4347672 126.898864,66.6137672 C124.604859,67.3947672 122.151977,67.1547672 119.898864,66.3737672"/>
    <path fill="#E1AF49" d="M63.8988643,69.6382478 C64.4023201,68.799752 64.5572295,67.0848584 65.7965053,67.2437803 C66.9583263,67.2437803 68.1201473,67.2437803 69.2813228,67.2437803 C70.2120705,67.2437803 70.9465996,67.9226893 71.5668829,68.52114 C72.5737944,70.2360335 71.0627817,70.7945875 70.0565156,71.2334513 C68.623603,71.2334513 67.2294178,71.2334513 65.7965053,71.2334513 C65.1768674,70.7546908 64.0925011,70.436182 63.8988643,69.6382478"/>
    <path fill="#7C8484" d="M12.8988643,70.6931836 C13.8844808,70.1094548 15.4057136,69.8839062 15.8988643,71.2334513 C15.3235218,71.1877421 14.7892753,71.1435316 14.2550287,71.0978224 C13.8029739,70.9179829 13.3509191,70.7831034 12.8988643,70.6931836"/>
    <path fill="#1A1919" d="M66.8988643,71.3856246 C67.9113643,71.3856246 68.8863643,71.3856246 69.8988643,71.3856246 C69.5613643,72.7056246 67.7988643,71.6846246 66.8988643,71.9846246 L66.8988643,71.3856246"/>
    <path fill="#D4D6D6" d="M114.898864,73.266327 C118.028495,72.9773081 122.345023,74.5907096 122.898864,78.2334513 C120.364662,76.6186703 117.67137,75.2942878 115.017686,74.011982 C114.977419,73.8050472 114.937811,73.4318748 114.898864,73.266327"/>
    <path fill="#959B9D" d="M15.8988643,74.4034513 C16.8888,74.4034513 18.8686713,74.4644513 19.8988643,74.4644513 L19.780072,75.0634513 C18.473357,75.0044513 17.1666419,75.0044513 15.8988643,75.0044513 L15.8988643,74.4034513"/>
    <path fill="#F0F0EE" d="M9.97224033,81.3633322 C10.0101875,78.3719454 12.4388086,75.6021428 15.5118997,75.2334513 C16.7268427,75.2334513 17.9791004,75.2334513 19.2313582,75.2697665 C19.762619,75.8606577 20.7492464,76.4152337 20.4077215,77.3748164 C17.8266792,79.2213515 14.9806388,80.6991951 12.400229,82.5457301 C11.8696005,83.0990752 11.29976,84.2439269 12.1731782,84.7985029 C14.0705384,85.1671944 15.474585,83.7638278 17.0304203,83.0252138 C19.3066201,81.9911541 21.2039804,79.7759275 23.8988643,80.0344425 C23.8609171,80.2184804 23.7843902,80.5139261 23.7470755,80.6616489 C20.7865611,84.0598889 18.0549949,87.6790976 16.1576346,91.7408593 C15.9678986,92.3317505 15.3227961,92.2578891 14.8294825,92.1846432 C11.8696005,89.3772944 9.44097947,85.537117 9.97224033,81.3633322"/>
    <path fill="#F4F3F2" d="M112.526624,77.242581 C116.560069,77.0081544 119.629706,81.3719957 123.885142,80.7096269 C124.070134,84.3721366 122.368823,87.9956833 119.740701,90.3341048 C119.297337,90.879585 118.74236,91.3861023 118.001775,91.1906386 C116.040858,87.2943517 113.858567,83.4376771 111.04607,80.1647961 C110.454712,78.8400586 111.787272,78.0601518 112.526624,77.242581"/>
    <path fill="#889293" d="M6.55533835,84.2334513 C5.89433835,82.246004 6.01533835,80.2208985 6.55533835,78.2334513 C6.79533835,80.2208985 6.67533835,82.246004 6.55533835,84.2334513"/>
    <path fill="#DA658E" d="M106.084793,82.6436151 C107.862785,81.4763766 107.862785,83.0948218 108.442565,83.8478789 C110.181905,86.2953145 112.114505,88.6297914 113.699237,91.1531602 C114.278373,92.0568287 115.168013,92.9604972 114.820789,94.0894553 C110.645729,97.4405594 105.620325,99.5497467 100.828121,101.958902 C98.7016165,103.051462 98.3157407,100.603399 97.3494407,99.5120939 C95.6874046,96.3486266 93.5228926,93.4493568 91.8988643,90.2871446 C92.2080803,89.5340875 92.9817645,89.2328646 93.6775006,88.9316418 C98.0058805,87.2366358 102.374201,85.4675792 106.084793,82.6436151"/>
    <path fill="#D9678F" d="M26.9729023,82.350974 C27.5408647,82.0058079 28.1100907,82.5046657 28.6407787,82.7736262 C31.5216561,84.6569903 34.74369,85.9243067 37.9650921,87.0385718 C38.9512872,87.1929039 40.0884757,87.3850186 40.8466013,88.0766314 C40.9982264,88.5761295 40.8080632,89.1140505 40.4296322,89.4598569 C37.3592234,92.9941264 35.5018156,97.4134041 33.3790638,101.524658 C32.7346571,102.86882 31.1798677,101.985093 30.2707488,101.447812 C26.1768704,99.8724718 22.4999611,97.3749811 18.9367706,94.8384272 C18.9367706,94.6853758 18.9367706,94.3395694 18.8988643,94.1858777 C20.604647,90.1124064 23.2580867,86.6159195 25.8357138,83.1194326 C26.1010578,82.6967804 26.5559332,82.5430886 26.9729023,82.350974"/>
    <path fill="#747677" d="M57.8988643,86.4078319 C58.614536,86.4078319 60.1376703,86.3468319 60.8988643,86.3468319 L60.8988643,86.7068319 C60.0473718,87.1268319 58.3466255,87.4878319 57.8988643,86.4078319"/>
    <path fill="#C0C3C4" d="M59.8988643,86.4378376 C62.2324212,86.4378376 64.565978,86.3178376 66.8988643,86.9188376 C65.491354,86.9788376 64.1234069,87.0388376 62.7554598,87.0388376 C62.0312525,86.9788376 60.6230716,86.8588376 59.8988643,86.7978376 L59.8988643,86.4378376"/>
    <path fill="#4A5150" d="M62.8988643,87.4504344 C64.2194664,87.4504344 65.5400684,87.3904344 66.8988643,87.3304344 L66.7434994,87.9294344 C65.811957,87.4504344 63.3649592,88.9504344 62.8988643,87.4504344"/>
    <path fill="#6B7372" d="M67.0554387,87.3565136 C70.6573009,87.5355136 74.2976544,87.4765136 77.8988643,87.4765136 L77.8988643,88.0755136 C74.2193672,88.0165136 70.5790138,88.2555136 66.8988643,87.9555136 L67.0554387,87.3565136"/>
    <path fill="#8F5367" d="M92.2188616,88.5946733 C92.5933013,87.9418826 93.3390707,88.3938146 93.8988643,88.2933853 C93.227112,88.6951026 92.4800986,89.09682 92.181542,90.1011134 C91.6963876,90.7530672 91.921549,88.794695 92.2188616,88.5946733"/>
    <path fill="#E7B1C1" d="M45.2709314,89.3443391 C46.9038178,89.0423306 48.4619928,89.4206294 50.0195347,89.7232684 C50.9692554,91.9167707 51.3111548,94.4520028 53.020652,96.2293765 C55.5659034,99.1807373 59.2128308,100.882451 62.9357358,101.828198 C65.1010989,102.168667 67.4564062,102.433476 69.6217693,101.903858 C72.3569649,101.22292 75.1681381,100.391293 77.4094788,98.6504885 C79.2709314,96.7217954 80.6005403,94.262223 81.0184174,91.6147622 C81.6256055,90.9710238 82.2714155,90.1772269 83.4497023,90.5933555 C84.5900003,90.4792354 85.7290319,89.9124178 86.9060524,90.0631068 C91.845233,95.0951107 94.8077284,101.639049 97.2022908,108.183617 C98.7971883,112.571883 99.1384546,117.225588 99.8988643,121.803003 C99.8988643,123.429057 99.8988643,125.094202 99.8988643,126.720887 L99.8988643,127.136385 C98.5312665,127.363364 97.12568,127.477484 95.7194602,127.477484 C94.694395,127.477484 93.6680636,127.439024 92.6809872,127.477484 C91.6173001,127.477484 90.5542461,127.439024 89.5279146,127.742293 C88.5781939,127.779493 87.5898513,127.817953 86.6027749,127.855783 C85.5764435,127.855783 84.5900003,127.855783 83.5636688,127.855783 C82.5379705,127.855783 81.550261,127.855783 80.5245626,127.855783 C79.4988643,127.855783 78.5111548,127.817953 77.4854565,127.855783 C75.4340598,127.855783 73.3440412,127.817953 71.2932777,128.157792 C70.1916017,128.196252 69.1279146,128.233451 68.0268718,128.233451 C67.3797954,127.817953 67.2664621,126.190638 66.0888084,125.964289 C64.9485105,126.152808 65.0251213,127.855783 64.1513783,128.233451 C63.0117135,128.233451 61.9100375,128.233451 60.8083615,128.196252 C58.7949537,127.779493 56.7435571,127.855783 54.6921604,127.855783 C53.6664621,127.855783 52.6787526,127.855783 51.6524211,127.855783 C50.6273559,127.855783 49.6396464,127.855783 48.6139481,127.855783 C47.2083615,127.855783 45.8407638,127.855783 44.4351772,127.855783 C43.8273559,127.855783 43.2195347,127.817953 42.6117135,127.779493 C41.5860152,127.628804 40.5603168,127.477484 39.4966297,127.477484 C38.3563317,127.439024 37.2173001,127.477484 36.0776353,127.477484 C34.9379705,127.477484 33.7983057,127.477484 32.6580077,127.477484 C32.4686967,127.363364 32.0888084,127.136385 31.8988643,127.022895 C31.9374863,126.417617 31.974842,125.169862 31.974842,124.526123 C32.1647861,122.975099 32.2401306,121.424074 32.3547302,119.873049 L32.4307079,119.53258 C32.7346185,118.662493 32.8105962,117.793036 32.6580077,116.960148 C33.6077284,110.794509 35.6597582,104.779559 38.5089202,99.2185672 C40.7122721,95.8889076 42.5357358,92.25787 45.2709314,89.3443391"/>
    <path fill="#D8678F" d="M54.9740265,91.2709146 C55.6129048,91.2334513 56.9282426,91.2334513 57.567121,91.2334513 C59.2206885,91.3471111 60.8366749,91.7668269 62.4526613,92.1859078 C63.2794451,92.3757642 64.1056025,92.4525956 64.9705937,92.4525956 C67.6388503,92.8329433 70.4198502,92.947873 73.0881069,92.4900589 C74.6665122,92.2233711 76.2824987,92.071613 77.860904,91.9566833 C78.0488094,93.1002661 77.5220479,94.2044807 76.6583094,94.9670809 C76.0194311,95.5766531 75.3805527,96.2236886 74.8537913,96.9481905 C73.4639177,98.3571912 71.4721205,98.9667634 69.5930665,99.2334513 C67.4509449,99.2334513 65.3464045,99.2334513 63.2042829,99.2334513 C59.5964993,98.8150054 55.9511345,96.3760816 54.8988643,92.7567468 C54.8988643,92.2621043 54.9364454,91.7668269 54.9740265,91.2709146"/>
    <path fill="#774157" d="M74.8988643,96.2334513 C75.4758602,95.502041 76.175665,94.8488359 76.8754697,94.2334513 C77.0812946,95.2334513 75.8881961,96.1949897 74.8988643,96.2334513"/>
    <path fill="#7A4155" d="M62.8988643,98.4198402 C64.910629,98.4198402 66.8870996,98.4198402 68.8988643,98.4198402 L68.8988643,99.0208402 C66.8870996,99.0208402 64.910629,99.0798402 62.8988643,99.0208402 L62.8988643,98.4198402"/>
    <path fill="#9D8A97" d="M62.8988643,101.506643 C65.2461181,101.327643 67.5920461,101.266643 69.8988643,101.626643 C67.6318189,102.466643 65.1659098,102.046643 62.8988643,101.506643"/>
    <path fill="#9B8490" d="M32.4069521,120.233451 C31.9269521,119.395951 31.4469521,117.54301 32.7659521,117.233451 C33.0069521,118.204775 32.8869521,119.218745 32.4069521,120.233451"/>
    <path fill="#CBCFCE" d="M28.0962519,124.233451 C28.3362519,122.604898 27.3762519,120.395596 28.6962519,119.233451 C28.6962519,120.395596 28.7572519,121.597792 28.8162519,122.760583 C28.7572519,123.264459 28.6962519,123.729575 28.6962519,124.233451 L28.0962519,124.233451"/>
    <path fill="#2E3632" d="M28.1234455,119.361797 L28.6624455,119.233451 C28.7234455,120.552366 28.5434455,121.913827 28.2434455,123.233451 C28.1844455,121.957082 28.1234455,120.637458 28.1234455,119.361797"/>
    <path fill="#596260" d="M104.163122,120.233451 C104.463122,121.567385 104.643122,122.900719 104.702122,124.233451 C104.163122,122.936154 103.983122,121.567385 104.163122,120.233451"/>
    <path fill="#9A7988" d="M32.0998643,120.274779 L32.7588643,120.233451 C32.5778643,121.900118 32.4588643,123.566785 32.1588643,125.233451 C32.1588643,124.543072 32.0998643,123.811365 32.0388643,123.11963 C32.0388643,122.3886 32.0388643,120.965159 32.0998643,120.274779"/>
    <path fill="#543A44" d="M100.07242,122.233451 L100.67242,122.233451 C100.67242,123.886656 100.79142,125.540503 100.67242,127.233451 L100.07242,127.233451 C100.07242,125.579605 100.07242,123.886656 100.07242,122.233451"/>
    <path fill="#493C42" d="M32.2089543,127.233451 C32.8689543,125.911826 30.8889543,122.812652 32.7489543,122.233451 C32.8099543,122.936619 32.8689543,123.680421 32.8689543,124.382212 C32.8689543,125.08538 32.8099543,126.448327 32.7489543,127.109484 L32.2089543,127.233451"/>
    <path fill="#3E4744" d="M28.0988643,124.233451 L28.6988643,124.233451 C28.6988643,125.899655 28.6988643,127.567248 28.6988643,129.233451 L28.0988643,129.233451 C28.0988643,127.567248 28.0988643,125.899655 28.0988643,124.233451"/>
    <path fill="#7C8583" d="M104.0343,124.233451 C105.6553,127.085303 104.2743,130.307525 104.1553,133.233451 C103.8543,130.233451 104.0343,127.234069 104.0343,124.233451"/>
    <path fill="#6C5C63" d="M95.8988643,127.63406 C97.244721,127.63406 98.5899717,127.50003 99.8988643,127.233451 C99.2801702,129.055814 97.1720047,127.767349 95.8988643,128.078358 L95.8988643,127.63406"/>
    <path fill="#6B575E" d="M32.8988643,127.380201 C33.8992346,127.380201 34.8990495,127.380201 35.8988643,127.380201 L35.8988643,127.980201 C35.1323396,127.439201 33.1660371,128.880201 32.8988643,127.380201"/>
    <path fill="#967585" d="M36.8988643,127.433896 C37.8988643,127.433896 38.8983088,127.372896 39.8988643,127.433896 L39.8988643,128.033896 C39.6321976,128.033896 39.165531,128.033896 38.8983088,128.033896 C38.2321976,128.033896 37.565531,128.092896 36.8988643,128.033896 L36.8988643,127.433896"/>
    <path fill="#BA93A3" d="M39.8988643,127.433451 C40.9232546,127.433451 41.9110594,127.673451 42.8988643,127.912451 C41.9110594,127.973451 40.8866692,127.973451 39.8988643,128.033451 L39.8988643,127.433451"/>
    <path fill="#B892A2" d="M89.8988643,127.8547 C90.8753703,127.3737 91.8868161,127.4347 92.8988643,127.4347 L92.8988643,128.0347 C91.9223583,127.9747 90.9103101,127.9137 89.8988643,127.8547"/>
    <path fill="#9D7989" d="M92.8988643,127.424882 C93.8734423,127.363882 94.8867785,127.424882 95.8988643,127.424882 L95.8988643,128.024882 C95.0368097,128.083882 94.1372473,128.083882 93.2739425,128.024882 L92.8988643,128.024882 L92.8988643,127.424882"/>
    <path fill="#342029" d="M38.8988643,128.471576 C39.199458,128.471576 39.7244033,128.471576 40.0243721,128.471576 C41.0367666,128.411576 42.0866573,128.411576 43.0990518,128.350576 C43.6989893,128.411576 44.2989268,128.471576 44.8988643,128.471576 L44.8988643,129.070576 C42.9115713,129.131576 40.8867822,129.131576 38.8988643,129.070576 L38.8988643,128.471576"/>
    <path fill="#53434B" d="M44.8988643,128.420396 C46.2443189,128.420396 47.5534098,128.420396 48.8988643,128.420396 L48.8988643,129.019396 C47.5534098,129.019396 46.2443189,129.080396 44.8988643,129.019396 L44.8988643,128.420396"/>
    <path fill="#806975" d="M48.8988643,128.413846 C49.9115753,128.413846 50.8867785,128.413846 51.8988643,128.413846 L51.8988643,128.953846 C50.8867785,129.073846 49.9115753,129.073846 48.8988643,129.012846 L48.8988643,128.413846"/>
    <path fill="#A28694" d="M51.8988643,128.413846 C52.9117783,128.413846 53.8865752,128.413846 54.8988643,128.413846 L54.8988643,129.012846 C53.8865752,129.073846 52.8742861,129.073846 51.8988643,128.953846 L51.8988643,128.413846"/>
    <path fill="#C7A4B2" d="M54.8988643,128.407796 C56.9112867,128.407796 58.923709,128.286796 60.8988643,128.947796 C60.2280569,128.947796 58.960355,129.006796 58.2901687,129.067796 C57.1721562,129.006796 56.0168767,129.006796 54.8988643,129.006796 L54.8988643,128.407796"/>
    <path fill="#CBA8B5" d="M71.8988643,128.913946 C73.8859809,128.374946 75.9111343,128.434946 77.8988643,128.434946 L77.8988643,128.974946 C76.9049993,129.033946 75.9479441,129.033946 74.9534655,129.033946 C73.9234042,128.974946 72.9295392,128.974946 71.8988643,128.913946"/>
    <path fill="#9E8693" d="M77.8988643,128.431785 C78.9113643,128.371785 79.8863643,128.431785 80.8988643,128.431785 L80.8988643,128.971785 C79.8863643,129.091785 78.9113643,129.091785 77.8988643,128.971785 L77.8988643,128.431785"/>
    <path fill="#7F6874" d="M80.8988643,128.418451 C81.9113643,128.418451 82.8863643,128.418451 83.8988643,128.418451 L83.8988643,128.958451 C82.8863643,129.078451 81.9113643,129.078451 80.8988643,128.958451 L80.8988643,128.418451"/>
    <path fill="#56474E" d="M83.8988643,128.413846 C84.9119893,128.413846 85.8857393,128.413846 86.8988643,128.413846 L86.8988643,129.012846 C85.8857393,129.073846 84.9119893,129.073846 83.8988643,128.953846 L83.8988643,128.413846"/>
    <path fill="#35252D" d="M86.8988643,128.510396 C87.8159231,128.450396 88.7341584,128.389396 89.6165114,128.330396 C90.6041584,128.389396 91.5923937,128.450396 92.5459231,128.510396 L92.8988643,128.510396 L92.8988643,129.109396 C90.8870996,129.109396 88.910629,129.170396 86.8988643,129.109396 L86.8988643,128.510396"/>
    <path fill="#C8CCCC" d="M28.1366621,129.233451 L28.7366621,129.233451 C28.7366621,131.234036 28.7366621,133.234036 28.6766621,135.233451 C27.5366621,133.339299 28.3766621,131.198364 28.1366621,129.233451"/>
    <path fill="#311623" d="M54.8988643,128.368898 C55.8878753,128.368898 56.9098533,128.368898 57.8988643,128.429898 L57.8988643,128.789898 C57.1076555,128.549898 55.2285346,129.868898 54.8988643,128.368898"/>
    <path fill="#4D3741" d="M57.8988643,128.474707 C58.6695786,128.413707 60.1274357,128.354707 60.8988643,128.354707 L60.8124357,128.714707 C59.9560072,129.254707 58.7988643,129.193707 57.8988643,128.834707 L57.8988643,128.474707"/>
    <path fill="#64515A" d="M60.9660043,128.239807 C61.9314888,128.298807 62.8969733,128.298807 63.8957503,128.298807 C63.995628,130.158807 61.6651483,128.658807 60.8988643,128.599807 L60.9660043,128.239807"/>
    <path fill="#6B5661" d="M68.8988643,128.442855 C69.8653334,128.442855 70.7990125,128.383855 71.7660373,128.322855 L71.8988643,128.923855 C71.0991237,128.503855 69.1317283,129.942855 68.8988643,128.442855"/>
    <path fill="#48313C" d="M71.8988643,128.320632 C72.9111158,128.381632 73.8872154,128.381632 74.8988643,128.440632 C74.5741003,129.760632 72.8749639,128.800632 72.0428691,128.921632 L71.8988643,128.320632"/>
    <path fill="#323835" d="M32.8988643,131.342951 C33.8888,131.342951 35.9089287,131.402951 36.8988643,131.402951 L36.780072,131.882951 L36.5028901,132.123951 C35.2753698,132.002951 34.0874471,131.943951 32.8988643,131.943951 L32.8988643,131.342951"/>
    <path fill="#393E3A" d="M96.8988643,132.200628 C96.9316482,130.219628 99.0653766,132.080628 99.8988643,131.599628 L99.8988643,132.200628 C98.8992348,132.200628 97.8984939,132.200628 96.8988643,132.200628"/>
    <path fill="#B3B7B9" d="M32.8988643,131.433451 C33.8882435,131.433451 34.8770734,131.492451 35.8988643,131.613451 L35.8988643,131.973451 C34.9100344,131.973451 33.8882435,132.033451 32.8988643,132.033451 L32.8988643,131.433451"/>
    <path fill="#8E9998" d="M35.8988643,131.703889 L36.2076878,131.462889 C37.0893055,131.462889 38.060629,131.222889 38.8988643,131.703889 L38.8988643,132.063889 C38.1488643,132.063889 36.6488643,132.063889 35.8988643,132.063889 L35.8988643,131.703889"/>
    <path fill="#63716D" d="M38.8988643,131.584962 C40.5543807,131.284962 42.2439347,131.284962 43.8988643,131.463962 L43.7580192,132.124962 C42.1383009,132.004962 40.5185826,132.004962 38.8988643,131.944962 L38.8988643,131.584962"/>
    <path fill="#3E4A45" d="M44.0632666,131.526532 C45.8305917,131.946532 48.4610289,130.446532 49.8988643,132.007532 C49.0364371,131.946532 48.1733249,132.007532 47.3519982,132.187532 C46.2004969,132.187532 45.0489956,132.187532 43.8988643,132.187532 L44.0632666,131.526532"/>
    <path fill="#2B3531" d="M82.8988643,132.172227 C83.2570733,130.912227 85.0928942,131.212227 85.8988643,131.813227 L85.8988643,132.172227 C84.8682673,131.992227 83.8839389,131.992227 82.8988643,132.172227"/>
    <path fill="#47504C" d="M85.8988643,131.728072 C86.8386233,131.247072 87.8139246,131.367072 88.7904306,131.487072 L88.8988643,132.087072 C87.8868161,132.087072 86.8741655,132.087072 85.8988643,132.087072 L85.8988643,131.728072"/>
    <path fill="#636E6B" d="M88.8988643,131.458139 C90.5776175,131.399139 92.2188389,131.279139 93.8988643,131.399139 L93.8988643,131.999139 C92.4103147,131.999139 90.9217651,132.058139 89.3950475,132.119139 L89.0133681,132.058139 L88.8988643,131.458139"/>
    <path fill="#909898" d="M93.8988643,131.456326 C94.9119893,131.395326 95.8857393,131.395326 96.8988643,131.456326 L96.8988643,132.056326 C95.8857393,132.056326 94.9119893,132.056326 93.8988643,132.056326 L93.8988643,131.456326"/>
    <path fill="#B2B6B6" d="M95.8988643,131.433451 C97.0981976,131.433451 98.2988643,131.433451 99.4981976,131.433451 C99.619531,131.553451 99.779531,131.912451 99.8988643,132.033451 C98.5381976,132.033451 97.2181976,132.033451 95.8988643,132.033451 L95.8988643,131.433451"/>
    <path fill="#FCFBFB" d="M32.8988643,132.270198 L33.2837639,132.270198 C34.441033,132.270198 35.6362137,132.233451 36.7928402,132.233451 C37.4482619,132.233451 38.7591053,132.233451 39.414527,132.233451 C41.1880209,132.270198 42.9615149,132.270198 44.7350089,132.343692 C45.8138844,132.453321 46.894045,132.600921 47.9742057,132.600921 C48.6289848,132.600921 49.9398282,132.600921 50.5952499,132.637056 C52.2530812,132.637056 53.9494667,132.637056 55.607298,132.71055 C56.7639246,132.857538 57.9591053,133.005139 59.1157318,133.005139 C59.8097077,132.968392 61.1205511,132.968392 61.7753302,132.968392 C62.8169366,132.968392 63.8572579,133.005139 64.8988643,133.005139 C64.8988643,135.9449 64.8988643,138.884048 64.8988643,141.82381 C64.4747679,143.992496 62.1229607,145.609364 59.8868161,145.866594 C58.1904306,145.976222 56.416294,145.645499 54.7591053,146.123823 C53.641033,146.159957 52.5229607,146.233451 51.4048884,146.233451 C49.4771776,146.233451 47.5494667,146.233451 45.6217559,146.233451 C41.8048884,145.940088 37.371796,145.205147 35.2114748,141.82381 C33.3229607,139.067783 32.8988643,135.503936 32.8988643,132.270198"/>
    <path fill="#C6C7C8" d="M43.8988643,132.523451 C44.8980708,132.523451 45.8984676,132.523451 46.8988643,132.523451 L46.8988643,132.943451 C45.8984676,132.943451 44.8980708,132.702451 43.8988643,132.523451"/>
    <path fill="#9DA7A7" d="M46.8988643,131.595412 C47.7806981,131.415412 48.7073958,131.354412 49.6333581,131.415412 L49.8988643,131.654412 L49.8988643,132.074412 C49.1486804,132.015412 47.6483127,132.015412 46.8988643,132.015412 L46.8988643,131.595412"/>
    <path fill="#7E8786" d="M49.8988643,131.590581 C51.5537939,131.470581 53.279146,131.051581 54.8988643,131.651581 L54.863653,132.010581 L54.4763291,132.130581 C52.9622446,132.010581 51.4129488,132.010581 49.8988643,132.010581 L49.8988643,131.590581"/>
    <path fill="#5E6461" d="M54.9417215,131.734326 C55.8417215,131.253326 56.9560072,131.253326 57.8560072,131.734326 L57.8988643,132.093326 C57.1274357,132.093326 55.6274357,132.093326 54.8988643,132.093326 L54.9417215,131.734326"/>
    <path fill="#424441" d="M57.8988643,131.673213 C58.7507162,131.612213 60.6766421,130.652213 60.8988643,132.152213 C60.0099754,131.852213 59.1210865,131.852213 58.2692347,132.152213 L57.9359013,132.032213 L57.8988643,131.673213"/>
    <path fill="#3E4340" d="M71.8988643,132.455764 C72.8988643,132.396764 73.9352841,132.155764 74.8988643,132.695764 L74.8988643,133.115764 C74.0470125,132.815764 73.1581236,132.815764 72.3062717,133.115764 L71.9352841,133.056764 L71.8988643,132.455764"/>
    <path fill="#5A605D" d="M74.8988643,131.763014 C75.7249513,131.104014 76.9865455,131.164014 77.8553861,131.704014 L77.8988643,132.124014 C76.8988643,131.943014 75.8553861,131.883014 74.8988643,132.183014 L74.8988643,131.763014"/>
    <path fill="#7B8785" d="M77.8988643,131.670094 C79.542221,131.250094 81.2205426,131.370094 82.8988643,131.489094 L82.8638993,131.970094 C81.2205426,132.029094 79.577186,131.970094 77.9338293,132.090094 L77.8988643,131.670094"/>
    <path fill="#A3A9AB" d="M82.942982,131.560451 C83.9135702,131.380451 84.8834231,131.380451 85.8988643,131.560451 L85.8988643,132.041451 C85.1488643,132.041451 83.648129,132.041451 82.8988643,132.041451 L82.942982,131.560451"/>
    <path fill="#C9C9CA" d="M84.8988643,131.48843 C86.0594378,131.48843 87.2644557,131.48843 88.4687568,131.48843 L88.8988643,131.54943 C87.565531,131.78843 86.2314808,132.02843 84.8988643,131.96943 L84.8988643,131.48843"/>
    <path fill="#FEFDFC" d="M88.5197151,132.307139 C90.0415491,132.269681 91.5253372,132.233451 93.0091254,132.233451 C94.0369974,132.233451 95.0249213,132.233451 96.0527934,132.233451 C97.3076724,132.233451 98.5631854,132.233451 99.8573784,132.233451 C100.123699,135.807292 99.0958273,139.454207 97.1180772,142.475392 C94.6450969,145.12814 90.8405119,145.939316 87.3022479,146.233451 C84.5255349,146.233451 81.7088738,146.233451 78.9321608,146.233451 C78.6658399,146.197222 78.1338321,146.159764 77.9042888,146.123534 C76.2315396,145.865628 74.5188422,145.865628 72.8448248,145.865628 C70.9044865,145.496577 68.5075979,144.281348 68.2793228,142.181256 C68.1271394,139.344289 68.6217355,136.433021 68.0130019,133.633513 L67.9375443,133.301919 L67.8988643,132.970326 L68.2793228,132.970326 C69.4206983,132.970326 70.5614397,132.970326 71.7414952,132.933482 C72.3882746,132.933482 73.7198794,132.933482 74.4047047,132.896638 C75.4699885,133.374993 76.345043,133.301919 77.0298683,132.638732 C78.8180233,132.565045 80.6061783,132.601274 82.3943332,132.565045 C83.0404786,132.565045 84.3346716,132.565045 84.981451,132.565045 C86.1602383,132.601274 87.3402937,132.4539 88.5197151,132.307139"/>
    <path fill="#D0D2D1" d="M54.8988643,132.552951 L55.2615017,132.432951 C55.8219412,132.432951 56.9757874,132.432951 57.569194,132.432951 L57.8658973,132.552951 L57.8988643,133.033951 C56.9098533,133.033951 55.8878753,132.792951 54.8988643,132.552951"/>
    <path fill="#B4B6B7" d="M57.8988643,132.605451 C58.8706953,132.305451 59.8847798,132.305451 60.8988643,132.605451 L60.8559066,133.026451 C60.1383009,133.026451 58.7016812,133.026451 57.9411178,133.086451 L57.8988643,132.605451"/>
    <path fill="#95999A" d="M60.9365109,132.605636 C61.7881875,132.725636 63.602629,131.765636 63.8988643,133.086636 C62.8984529,133.086636 61.8992758,133.026636 60.8988643,133.026636 L60.9365109,132.605636"/>
    <path fill="#9DA3A5" d="M68.9023267,133.233255 C68.8035398,131.132255 70.8456856,133.053255 71.5690256,132.693255 L71.8988643,132.752255 L71.8988643,133.173255 C70.877517,133.233255 69.8901962,133.233255 68.9023267,133.233255"/>
    <path fill="#B8BCBC" d="M71.8988643,132.635451 C72.8845786,132.335451 73.91315,132.335451 74.8988643,132.635451 L74.8988643,132.996451 C74.1274357,133.056451 72.6274357,133.056451 71.8988643,133.056451 L71.8988643,132.635451"/>
    <path fill="#D3D5D4" d="M74.8988643,132.429107 C75.8553861,132.149433 76.8988643,132.205367 77.8988643,132.374104 C77.1162556,133.380933 76.1162556,133.49187 74.8988643,132.765649 L74.8988643,132.429107"/>
    <path fill="#7E8585" d="M64.0792725,133.233451 L64.6792725,133.233451 C64.6792725,136.23366 64.7992725,139.233243 64.6192725,142.233451 L64.0792725,142.233451 C64.0792725,139.233243 64.0792725,136.23366 64.0792725,133.233451"/>
    <path fill="#3C4240" d="M68.0763643,133.270734 L68.6773643,133.233451 L68.7963643,133.574683 C68.6163643,136.114336 68.6163643,138.655252 68.6163643,141.233451 L68.0163643,141.233451 C68.0163643,138.579423 67.9563643,135.925394 68.0763643,133.270734"/>
    <path fill="#DDE0DF" d="M68.3061577,133.233451 C69.2661577,136.181081 68.4861577,139.246382 68.7261577,142.233451 C68.0661577,142.117072 67.8251577,141.728494 68.1261577,141.069658 C68.1261577,138.431727 68.1261577,135.831943 68.3061577,133.233451"/>
    <path fill="#8C9193" d="M53.8988643,146.850829 C55.5147791,146.069829 57.244729,146.609829 58.8988643,146.430829 L58.8988643,147.029829 C57.244729,146.970829 55.5529997,147.209829 53.8988643,146.850829"/>
    <path fill="#8B8F91" d="M72.8988643,146.414096 C74.553207,146.414096 76.245775,146.414096 77.8988643,146.834096 C76.2075496,146.954096 74.553207,147.133096 72.8988643,147.013096 L72.8988643,146.414096"/>
    <path fill="#858C8D" d="M44.8988643,146.41984 C46.8988643,146.41984 48.8988643,146.41984 50.8988643,146.41984 L50.8988643,147.02084 C48.8988643,147.02084 46.8988643,147.07984 44.8988643,147.02084 L44.8988643,146.41984"/>
    <path fill="#575E5D" d="M50.8988643,146.406464 C51.8824521,146.406464 52.86604,146.290478 53.8496278,146.233451 C54.2905465,148.205216 51.6450344,146.580443 50.8988643,146.987361 L50.8988643,146.406464"/>
    <path fill="#767D7D" d="M79.8988643,146.41984 C82.5528037,146.41984 85.2449249,146.41984 87.8988643,146.41984 L87.8988643,147.02084 C85.2449249,147.02084 82.5528037,147.07984 79.8988643,147.02084 L79.8988643,146.41984"/>
    <path fill="#F3F5F3" d="M61.229174,150.274696 C63.055296,149.692138 64.5385051,148.358989 66.0977763,147.233451 C68.7979775,148.650616 71.4221167,151.191929 74.692783,150.649643 C74.8062421,150.73366 75.035062,150.94127 75.149155,151.024591 C77.2028292,151.732826 79.4846894,151.275251 81.6524566,151.358573 C83.5540067,151.232896 85.5696499,151.775182 87.4325352,151.108607 C88.4600061,151.399539 89.3340854,151.275251 90.0573083,150.649643 C90.6664382,150.566322 91.2743004,150.525355 91.8834303,150.483 C91.9588584,151.232896 91.7680696,151.941825 91.0835115,152.233451 L44.5722285,152.233451 C44.4201044,151.232896 43.2791743,151.649505 42.8988643,150.94127 C43.5453914,150.983625 44.8384455,151.024591 45.4849725,151.024591 C47.3865227,151.483555 49.3647687,151.566877 51.227654,150.983625 C53.2432972,150.900303 55.2969714,151.150268 57.2739497,150.566322 C58.5676376,150.442033 59.9747848,150.816981 61.229174,150.274696"/>
    <path fill="#6C7675" d="M56.8988643,150.053203 C58.091813,148.794203 59.591813,149.753203 60.8988643,149.633203 C59.6302746,150.414203 58.2071976,149.874203 56.8988643,150.053203"/>
    <path fill="#828C8C" d="M42.8988643 150.711264C43.9552023 149.991264 44.9277376 150.172264 45.8988643 151.191264 45.1805545 151.191264 43.7439347 151.132264 43.0256249 151.071264L42.8988643 150.711264M50.8988643 151.033951C52.8613342 150.192951 54.8992836 150.552951 56.8988643 150.432951 54.9370234 151.273951 52.899074 150.913951 50.8988643 151.033951"/>
    <path fill="#687372" d="M74.8988643,150.533906 C77.2321976,150.354906 79.5649037,150.234906 81.8988643,150.894906 C79.7154414,150.953906 77.5332729,151.073906 75.3504772,151.073906 C75.237574,150.953906 75.0111403,150.654906 74.8988643,150.533906"/>
    <path fill="#848E8F" d="M86.8988643,151.089906 C87.4212019,150.129044 88.4216849,149.968901 89.8988643,150.648844 C89.0722524,151.25005 88.0732183,151.36949 86.8988643,151.089906"/>
    <path fill="#A2AAAC" d="M44.8988643,150.496148 C46.8856193,150.437148 48.9121093,150.437148 50.8988643,150.437148 C48.9525067,151.277148 46.8856193,151.157148 44.8988643,150.496148"/>
    <path fill="#CED4D4" d="M74.8988643,150.532426 C77.2321976,150.532426 79.5648605,150.412426 81.8988643,150.353426 L81.7781747,151.013426 C79.4850712,150.893426 77.0712781,151.552426 74.8988643,150.532426"/>
    <path fill="#9BA4A6" d="M82.0172984,150.338795 C83.951063,150.517795 85.9249637,150.458795 87.8988643,150.638795 C85.9650996,151.598795 83.872765,150.817795 81.8988643,150.998795 L82.0172984,150.338795"/>
  </g>
</svg>
